999
dxflib 3.2.3.0
  0
SECTION
  2
HEADER
  9
$ACADVER
  1
AC1015
  9
$HANDSEED
  5
FFFF
  9
$ANGBASE
 50
0.0
  9
$ATTMODE
 70
1
  9
$AUNITS
 70
0
  9
$AUPREC
 70
0
  9
$CELTSCALE
 40
1.0
  9
$CHAMFERA
 40
0.0
  9
$CHAMFERB
 40
0.0
  9
$CHAMFERC
 40
0.0
  9
$CHAMFERD
 40
0.0
  9
$CMLJUST
 70
0
  9
$CMLSCALE
 40
1.0
  9
$DIMADEC
 70
0
  9
$DIMALTD
 70
2
  9
$DIMALTF
 40
25.399999999999999
  9
$DIMALTRND
 40
0.0
  9
$DIMALTTD
 70
2
  9
$DIMALTTZ
 70
0
  9
$DIMALTU
 70
2
  9
$DIMALTZ
 70
0
  9
$DIMAPOST
  1

  9
$DIMASZ
 40
0.18
  9
$DIMATFIT
 70
3
  9
$DIMAUNIT
 70
0
  9
$DIMAZIN
 70
0
  9
$DIMCEN
 40
0.09
  9
$DIMDEC
 70
4
  9
$DIMDLE
 40
0.0
  9
$DIMDLI
 40
0.38
  9
$DIMDSEP
 70
46
  9
$DIMEXE
 40
0.18
  9
$DIMEXO
 40
0.0625
  9
$DIMFRAC
 70
0
  9
$DIMGAP
 40
0.09
  9
$DIMJUST
 70
0
  9
$DIMLFAC
 40
1.0
  9
$DIMLUNIT
 70
2
  9
$DIMLWD
 70
-2
  9
$DIMLWE
 70
-2
  9
$DIMPOST
  1

  9
$DIMRND
 40
0.0
  9
$DIMSCALE
 40
1.0
  9
$DIMTAD
 70
0
  9
$DIMTDEC
 70
4
  9
$DIMTFAC
 40
1.0
  9
$DIMTM
 40
0.0
  9
$DIMTOLJ
 70
1
  9
$DIMTP
 40
0.0
  9
$DIMTSZ
 40
0.0
  9
$DIMTVP
 40
0.0
  9
$DIMTXT
 40
0.18
  9
$DIMTZIN
 70
0
  9
$DIMZIN
 70
0
  9
$ELEVATION
 40
0.0
  9
$EXTMAX
 10
-100000000000000000000.0
 20
-100000000000000000000.0
 30
-100000000000000000000.0
  9
$EXTMIN
 10
100000000000000000000.0
 20
100000000000000000000.0
 30
100000000000000000000.0
  9
$FILLETRAD
 40
0.5
  9
$INSBASE
 10
0.0
 20
0.0
 30
0.0
  9
$INSUNITS
 70
0
  9
$LIMMAX
 10
12.0
 20
9.0
  9
$LIMMIN
 10
0.0
 20
0.0
  9
$LTSCALE
 40
1.0
  9
$LUNITS
 70
2
  9
$LUPREC
 70
4
  9
$MAXACTVP
 70
64
  9
$PDMODE
 70
0
  9
$PDSIZE
 40
0.0
  9
$PELEVATION
 40
0.0
  9
$PEXTMAX
 10
-100000000000000000000.0
 20
-100000000000000000000.0
 30
-100000000000000000000.0
  9
$PEXTMIN
 10
100000000000000000000.0
 20
100000000000000000000.0
 30
100000000000000000000.0
  9
$PINSBASE
 10
0.0
 20
0.0
 30
0.0
  9
$PLIMMAX
 10
12.0
 20
9.0
  9
$PLIMMIN
 10
0.0
 20
0.0
  9
$PLINEWID
 40
0.0
  9
$PROXYGRAPHICS
 70
1
  9
$PUCSORG
 10
0.0
 20
0.0
 30
0.0
  9
$PUCSXDIR
 10
1.0
 20
0.0
 30
0.0
  9
$PUCSYDIR
 10
0.0
 20
1.0
 30
0.0
  9
$SHADEDGE
 70
3
  9
$SHADEDIF
 70
70
  9
$SKETCHINC
 40
0.1
  9
$SPLINESEGS
 70
8
  9
$SPLINETYPE
 70
6
  9
$SURFTAB1
 70
6
  9
$SURFTAB2
 70
6
  9
$SURFTYPE
 70
6
  9
$SURFU
 70
6
  9
$SURFV
 70
6
  9
$TEXTSIZE
 40
0.2
  9
$THICKNESS
 40
0.0
  9
$TRACEWID
 40
0.05
  9
$TREEDEPTH
 70
3020
  9
$UCSORG
 10
0.0
 20
0.0
 30
0.0
  9
$UCSXDIR
 10
1.0
 20
0.0
 30
0.0
  9
$UCSYDIR
 10
0.0
 20
1.0
 30
0.0
  9
$UNITMODE
 70
0
  9
$USERI1
 70
0
  9
$USERI2
 70
0
  9
$USERI3
 70
0
  9
$USERI4
 70
0
  9
$USERI5
 70
0
  9
$USERR1
 40
0.0
  9
$USERR2
 40
0.0
  9
$USERR3
 40
0.0
  9
$USERR4
 40
0.0
  9
$USERR5
 40
0.0
  0
ENDSEC
  0
SECTION
  2
TABLES
  0
TABLE
  2
VPORT
  5
8
100
AcDbSymbolTable
 70
1
  0
VPORT
  5
30
100
AcDbSymbolTableRecord
100
AcDbViewportTableRecord
  2
*Active
 70
0
 10
0.0
 20
0.0
 11
1.0
 21
1.0
 12
286.30555555555549
 22
148.5
 13
0.0
 23
0.0
 14
10.0
 24
10.0
 15
10.0
 25
10.0
 16
0.0
 26
0.0
 36
1.0
 17
0.0
 27
0.0
 37
0.0
 40
297.0
 41
1.92798353909465
 42
50.0
 43
0.0
 44
0.0
 50
0.0
 51
0.0
 71
0
 72
100
 73
1
 74
3
 75
1
 76
1
 77
0
 78
0
281
0
 65
1
110
0.0
120
0.0
130
0.0
111
1.0
121
0.0
131
0.0
112
0.0
122
1.0
132
0.0
 79
0
146
0.0
  0
ENDTAB
  0
TABLE
  2
LTYPE
  5
5
100
AcDbSymbolTable
 70
21
  0
LTYPE
  5
31
100
AcDbSymbolTableRecord
100
AcDbLinetypeTableRecord
  2
CENTER2
 70
0
  3
Center (.5x) ___ _ ___ _ ___ _ ___ _ ___ _ ___
 72
65
 73
4
 40
28.574999999999999
 49
19.050000000000001
 74
0
 49
-3.1749999999999998
 74
0
 49
3.1749999999999998
 74
0
 49
-3.1749999999999998
 74
0
  0
LTYPE
  5
32
100
AcDbSymbolTableRecord
100
AcDbLinetypeTableRecord
  2
DIVIDEX2
 70
0
  3
Divide (2x) ________  .  .  ________  .  .  _
 72
65
 73
6
 40
63.5
 49
25.399999999999999
 74
0
 49
-12.699999999999999
 74
0
 49
0.0
 74
0
 49
-12.699999999999999
 74
0
 49
0.0
 74
0
 49
-12.699999999999999
 74
0
  0
LTYPE
  5
33
100
AcDbSymbolTableRecord
100
AcDbLinetypeTableRecord
  2
DOT2
 70
0
  3
Dot (.5x) .....................................
 72
65
 73
2
 40
3.1749999999999998
 49
0.0
 74
0
 49
-3.1749999999999998
 74
0
  0
LTYPE
  5
34
100
AcDbSymbolTableRecord
100
AcDbLinetypeTableRecord
  2
DASHDOT2
 70
0
  3
Dash dot (.5x) _._._._._._._._._._._._._._._.
 72
65
 73
4
 40
12.699999999999999
 49
6.3499999999999996
 74
0
 49
-3.1749999999999998
 74
0
 49
0.0
 74
0
 49
-3.1749999999999998
 74
0
  0
LTYPE
  5
35
100
AcDbSymbolTableRecord
100
AcDbLinetypeTableRecord
  2
DIVIDE
 70
0
  3
Divide ____ . . ____ . . ____ . . ____ . . ____
 72
65
 73
6
 40
31.75
 49
12.699999999999999
 74
0
 49
-6.3499999999999996
 74
0
 49
0.0
 74
0
 49
-6.3499999999999996
 74
0
 49
0.0
 74
0
 49
-6.3499999999999996
 74
0
  0
LTYPE
  5
36
100
AcDbSymbolTableRecord
100
AcDbLinetypeTableRecord
  2
DASHDOT
 70
0
  3
Dash dot __ . __ . __ . __ . __ . __ . __ . __
 72
65
 73
4
 40
25.399999999999999
 49
12.699999999999999
 74
0
 49
-6.3499999999999996
 74
0
 49
0.0
 74
0
 49
-6.3499999999999996
 74
0
  0
LTYPE
  5
37
100
AcDbSymbolTableRecord
100
AcDbLinetypeTableRecord
  2
BORDER
 70
0
  3
Border __ __ . __ __ . __ __ . __ __ . __ __ .
 72
65
 73
6
 40
44.450000000000003
 49
12.699999999999999
 74
0
 49
-6.3499999999999996
 74
0
 49
12.699999999999999
 74
0
 49
-6.3499999999999996
 74
0
 49
0.0
 74
0
 49
-6.3499999999999996
 74
0
  0
LTYPE
  5
38
100
AcDbSymbolTableRecord
100
AcDbLinetypeTableRecord
  2
DASHDOTX2
 70
0
  3
Dash dot (2x) ____  .  ____  .  ____  .  ___
 72
65
 73
4
 40
50.799999999999997
 49
25.399999999999999
 74
0
 49
-12.699999999999999
 74
0
 49
0.0
 74
0
 49
-12.699999999999999
 74
0
  0
LTYPE
  5
39
100
AcDbSymbolTableRecord
100
AcDbLinetypeTableRecord
  2
CENTERX2
 70
0
  3
Center (2x) ________  __  ________  __  _____
 72
65
 73
4
 40
101.59999999999999
 49
63.5
 74
0
 49
-12.699999999999999
 74
0
 49
12.699999999999999
 74
0
 49
-12.699999999999999
 74
0
  0
LTYPE
  5
3A
100
AcDbSymbolTableRecord
100
AcDbLinetypeTableRecord
  2
BORDER2
 70
0
  3
Border (.5x) __.__.__.__.__.__.__.__.__.__.__.
 72
65
 73
6
 40
22.225000000000001
 49
6.3499999999999996
 74
0
 49
-3.1749999999999998
 74
0
 49
6.3499999999999996
 74
0
 49
-3.1749999999999998
 74
0
 49
0.0
 74
0
 49
-3.1749999999999998
 74
0
  0
LTYPE
  5
3B
100
AcDbSymbolTableRecord
100
AcDbLinetypeTableRecord
  2
BORDERX2
 70
0
  3
Border (2x) ____  ____  .  ____  ____  .  ___
 72
65
 73
6
 40
88.900000000000006
 49
25.399999999999999
 74
0
 49
-12.699999999999999
 74
0
 49
25.399999999999999
 74
0
 49
-12.699999999999999
 74
0
 49
0.0
 74
0
 49
-12.699999999999999
 74
0
  0
LTYPE
  5
16
100
AcDbSymbolTableRecord
100
AcDbLinetypeTableRecord
  2
CONTINUOUS
 70
0
  3
Solid line
 72
65
 73
0
 40
0.0
  0
LTYPE
  5
14
100
AcDbSymbolTableRecord
100
AcDbLinetypeTableRecord
  2
BYBLOCK
 70
0
  3

 72
65
 73
0
 40
0.0
  0
LTYPE
  5
15
100
AcDbSymbolTableRecord
100
AcDbLinetypeTableRecord
  2
BYLAYER
 70
0
  3

 72
65
 73
0
 40
0.0
  0
LTYPE
  5
3C
100
AcDbSymbolTableRecord
100
AcDbLinetypeTableRecord
  2
DASHED2
 70
0
  3
Dashed (.5x) _ _ _ _ _ _ _ _ _ _ _ _ _ _ _ _ _
 72
65
 73
2
 40
9.5250000000000004
 49
6.3499999999999996
 74
0
 49
-3.1749999999999998
 74
0
  0
LTYPE
  5
3D
100
AcDbSymbolTableRecord
100
AcDbLinetypeTableRecord
  2
CENTER
 70
0
  3
Center ____ _ ____ _ ____ _ ____ _ ____ _ ____
 72
65
 73
4
 40
50.799999999999997
 49
31.75
 74
0
 49
-6.3499999999999996
 74
0
 49
6.3499999999999996
 74
0
 49
-6.3499999999999996
 74
0
  0
LTYPE
  5
3E
100
AcDbSymbolTableRecord
100
AcDbLinetypeTableRecord
  2
DIVIDE2
 70
0
  3
Divide (.5x) __..__..__..__..__..__..__..__.._
 72
65
 73
6
 40
15.875
 49
6.3499999999999996
 74
0
 49
-3.1749999999999998
 74
0
 49
0.0
 74
0
 49
-3.1749999999999998
 74
0
 49
0.0
 74
0
 49
-3.1749999999999998
 74
0
  0
LTYPE
  5
3F
100
AcDbSymbolTableRecord
100
AcDbLinetypeTableRecord
  2
DASHED
 70
0
  3
Dashed __ __ __ __ __ __ __ __ __ __ __ __ __ _
 72
65
 73
2
 40
19.050000000000001
 49
12.699999999999999
 74
0
 49
-6.3499999999999996
 74
0
  0
LTYPE
  5
40
100
AcDbSymbolTableRecord
100
AcDbLinetypeTableRecord
  2
DOTX2
 70
0
  3
Dot (2x) .  .  .  .  .  .  .  .  .  .  .  .  .
 72
65
 73
2
 40
12.699999999999999
 49
0.0
 74
0
 49
-12.699999999999999
 74
0
  0
LTYPE
  5
41
100
AcDbSymbolTableRecord
100
AcDbLinetypeTableRecord
  2
DASHEDX2
 70
0
  3
Dashed (2x) ____  ____  ____  ____  ____  ___
 72
65
 73
2
 40
38.100000000000001
 49
25.399999999999999
 74
0
 49
-12.699999999999999
 74
0
  0
LTYPE
  5
42
100
AcDbSymbolTableRecord
100
AcDbLinetypeTableRecord
  2
DOT
 70
0
  3
Dot . . . . . . . . . . . . . . . . . . . . . .
 72
65
 73
2
 40
6.3499999999999996
 49
0.0
 74
0
 49
-6.3499999999999996
 74
0
  0
ENDTAB
  0
TABLE
  2
LAYER
  5
2
100
AcDbSymbolTable
 70
31
  0
LAYER
  5
43
100
AcDbSymbolTableRecord
100
AcDbLayerTableRecord
  2
WHITE
 70
0
 62
7
420
16777215
  6
CONTINUOUS
370
-3
390
F
  0
LAYER
  5
44
100
AcDbSymbolTableRecord
100
AcDbLayerTableRecord
  2
YELLOW3
 70
0
 62
2
420
16776960
  6
CONTINUOUS
370
-3
390
F
  0
LAYER
  5
45
100
AcDbSymbolTableRecord
100
AcDbLayerTableRecord
  2
LYELLOW
 70
0
 62
51
420
16777087
  6
CONTINUOUS
370
-3
390
F
  0
LAYER
  5
46
100
AcDbSymbolTableRecord
100
AcDbLayerTableRecord
  2
YELLOW4
 70
0
 62
2
420
16776960
  6
CONTINUOUS
370
-3
390
F
  0
LAYER
  5
47
100
AcDbSymbolTableRecord
100
AcDbLayerTableRecord
  2
MAGENTA1
 70
0
 62
226
420
4980793
  6
CONTINUOUS
370
-3
390
F
  0
LAYER
  5
48
100
AcDbSymbolTableRecord
100
AcDbLayerTableRecord
  2
BLACK
 70
0
 62
7
420
16777215
  6
CONTINUOUS
370
-3
390
F
  0
LAYER
  5
49
100
AcDbSymbolTableRecord
100
AcDbLayerTableRecord
  2
MAGENTA2
 70
0
 62
6
420
16711935
  6
CONTINUOUS
370
-3
390
F
  0
LAYER
  5
4A
100
AcDbSymbolTableRecord
100
AcDbLayerTableRecord
  2
GREEN1
 70
0
 62
96
420
19456
  6
CONTINUOUS
370
-3
390
F
  0
LAYER
  5
4B
100
AcDbSymbolTableRecord
100
AcDbLayerTableRecord
  2
MAGENTA3
 70
0
 62
221
420
16744415
  6
CONTINUOUS
370
-3
390
F
  0
LAYER
  5
4C
100
AcDbSymbolTableRecord
100
AcDbLayerTableRecord
  2
GREEN2
 70
0
 62
3
420
65280
  6
CONTINUOUS
370
-3
390
F
  0
LAYER
  5
4D
100
AcDbSymbolTableRecord
100
AcDbLayerTableRecord
  2
MAGENTA4
 70
0
 62
6
420
16711935
  6
CONTINUOUS
370
-3
390
F
  0
LAYER
  5
4E
100
AcDbSymbolTableRecord
100
AcDbLayerTableRecord
  2
GREEN3
 70
0
 62
91
420
8388479
  6
CONTINUOUS
370
-3
390
F
  0
LAYER
  5
10
100
AcDbSymbolTableRecord
100
AcDbLayerTableRecord
  2
0
 70
0
 62
7
420
16777215
  6
CONTINUOUS
370
-3
390
F
  0
LAYER
  5
4F
100
AcDbSymbolTableRecord
100
AcDbLayerTableRecord
  2
GREEN4
 70
0
 62
3
420
65280
  6
CONTINUOUS
370
-3
390
F
  0
LAYER
  5
50
100
AcDbSymbolTableRecord
100
AcDbLayerTableRecord
  2
BROWN1
 70
0
 62
56
420
5000192
  6
CONTINUOUS
370
-3
390
F
  0
LAYER
  5
51
100
AcDbSymbolTableRecord
100
AcDbLayerTableRecord
  2
BROWN2
 70
0
 62
52
420
10066176
  6
CONTINUOUS
370
-3
390
F
  0
LAYER
  5
52
100
AcDbSymbolTableRecord
100
AcDbLayerTableRecord
  2
GRAY1
 70
0
 62
250
420
5987163
  6
CONTINUOUS
370
-3
390
F
  0
LAYER
  5
53
100
AcDbSymbolTableRecord
100
AcDbLayerTableRecord
  2
GRAY2
 70
0
 62
8
420
8421504
  6
CONTINUOUS
370
-3
390
F
  0
LAYER
  5
54
100
AcDbSymbolTableRecord
100
AcDbLayerTableRecord
  2
GRAY3
 70
0
 62
9
420
12632256
  6
CONTINUOUS
370
-3
390
F
  0
LAYER
  5
55
100
AcDbSymbolTableRecord
100
AcDbLayerTableRecord
  2
CYAN1
 70
0
 62
136
420
19532
  6
CONTINUOUS
370
-3
390
F
  0
LAYER
  5
56
100
AcDbSymbolTableRecord
100
AcDbLayerTableRecord
  2
CYAN2
 70
0
 62
4
420
65535
  6
CONTINUOUS
370
-3
390
F
  0
LAYER
  5
57
100
AcDbSymbolTableRecord
100
AcDbLayerTableRecord
  2
CYAN3
 70
0
 62
131
420
8388607
  6
CONTINUOUS
370
-3
390
F
  0
LAYER
  5
58
100
AcDbSymbolTableRecord
100
AcDbLayerTableRecord
  2
CYAN4
 70
0
 62
4
420
65535
  6
CONTINUOUS
370
-3
390
F
  0
LAYER
  5
59
100
AcDbSymbolTableRecord
100
AcDbLayerTableRecord
  2
BLUE1
 70
0
 62
176
420
76
  6
CONTINUOUS
370
-3
390
F
  0
LAYER
  5
5A
100
AcDbSymbolTableRecord
100
AcDbLayerTableRecord
  2
RED1
 70
0
 62
16
420
4980736
  6
CONTINUOUS
370
-3
390
F
  0
LAYER
  5
5B
100
AcDbSymbolTableRecord
100
AcDbLayerTableRecord
  2
BLUE2
 70
0
 62
5
420
255
  6
CONTINUOUS
370
-3
390
F
  0
LAYER
  5
5C
100
AcDbSymbolTableRecord
100
AcDbLayerTableRecord
  2
RED2
 70
0
 62
1
420
16711680
  6
CONTINUOUS
370
-3
390
F
  0
LAYER
  5
5D
100
AcDbSymbolTableRecord
100
AcDbLayerTableRecord
  2
BLUE3
 70
0
 62
171
420
8355839
  6
CONTINUOUS
370
-3
390
F
  0
LAYER
  5
5E
100
AcDbSymbolTableRecord
100
AcDbLayerTableRecord
  2
RED3
 70
0
 62
11
420
16744319
  6
CONTINUOUS
370
-3
390
F
  0
LAYER
  5
5F
100
AcDbSymbolTableRecord
100
AcDbLayerTableRecord
  2
BLUE4
 70
0
 62
5
420
255
  6
CONTINUOUS
370
-3
390
F
  0
LAYER
  5
60
100
AcDbSymbolTableRecord
100
AcDbLayerTableRecord
  2
RED4
 70
0
 62
1
420
16711680
  6
CONTINUOUS
370
-3
390
F
  0
ENDTAB
  0
TABLE
  2
STYLE
  5
3
100
AcDbSymbolTable
 70
0
  0
ENDTAB
  0
TABLE
  2
VIEW
  5
6
100
AcDbSymbolTable
 70
0
  0
ENDTAB
  0
TABLE
  2
UCS
  5
7
100
AcDbSymbolTable
 70
0
  0
ENDTAB
  0
TABLE
  2
APPID
  5
9
100
AcDbSymbolTable
 70
1
  0
APPID
  5
61
100
AcDbSymbolTableRecord
100
AcDbRegAppTableRecord
  2
QCAD
 70
0
  0
ENDTAB
  0
TABLE
  2
DIMSTYLE
  5
A
100
AcDbSymbolTable
 70
1
100
AcDbDimStyleTable
 71
0
  0
DIMSTYLE
105
27
100
AcDbSymbolTableRecord
100
AcDbDimStyleTableRecord
  2
Standard
 41
0.18
 42
0.0625
 43
3.75
 44
0.18
 70
0
 73
0
 74
0
 77
1
 78
8
140
0.18
141
2.5
143
0.03937007874016
147
0.09
171
3
172
1
271
2
272
2
274
3
278
44
283
0
284
8
340
11
  0
ENDTAB
  0
TABLE
  2
BLOCK_RECORD
  5
1
100
AcDbSymbolTable
 70
1
  0
BLOCK_RECORD
  5
1F
100
AcDbSymbolTableRecord
100
AcDbBlockTableRecord
  2
*Model_Space
340
22
  0
BLOCK_RECORD
  5
1B
100
AcDbSymbolTableRecord
100
AcDbBlockTableRecord
  2
*Paper_Space
340
1E
  0
BLOCK_RECORD
  5
23
100
AcDbSymbolTableRecord
100
AcDbBlockTableRecord
  2
*Paper_Space0
340
26
  0
BLOCK_RECORD
  5
62
100
AcDbSymbolTableRecord
100
AcDbBlockTableRecord
  2
*Model_Space
340
0
  0
BLOCK_RECORD
  5
63
100
AcDbSymbolTableRecord
100
AcDbBlockTableRecord
  2
*Paper_Space
340
0
  0
BLOCK_RECORD
  5
64
100
AcDbSymbolTableRecord
100
AcDbBlockTableRecord
  2
*Paper_Space0
340
0
  0
ENDTAB
  0
ENDSEC
  0
SECTION
  2
BLOCKS
  0
BLOCK
  5
20
100
AcDbEntity
  8
0
100
AcDbBlockBegin
  2
*Model_Space
 70
0
 10
0.0
 20
0.0
 30
0.0
  3
*Model_Space
  1

  0
BLOCK
  5
1C
100
AcDbEntity
 67
1
  8
0
100
AcDbBlockBegin
  2
*Paper_Space
 70
0
 10
0.0
 20
0.0
 30
0.0
  3
*Paper_Space
  1

  0
ENDBLK
  5
1D
100
AcDbEntity
 67
1
  8
0
100
AcDbBlockEnd
  0
BLOCK
  5
24
100
AcDbEntity
  8
0
100
AcDbBlockBegin
  2
*Paper_Space0
 70
0
 10
0.0
 20
0.0
 30
0.0
  3
*Paper_Space0
  1

  0
ENDBLK
  5
25
100
AcDbEntity
  8
0
100
AcDbBlockEnd
  0
ENDSEC
  0
SECTION
  2
ENTITIES
  0
LINE
  5
65
100
AcDbEntity
100
AcDbLine
  8
0
 62
0
370
-1
  6
BYLAYER
 10
225.08663153462291
 20
-30.61580997255729
 30
0.0
 11
225.22863153462291
 21
-30.679809972557312
 31
0.0
  0
LINE
  5
66
100
AcDbEntity
100
AcDbLine
  8
0
 62
0
370
-1
  6
BYLAYER
 10
225.22863153462291
 20
-30.679809972557312
 30
0.0
 11
225.36563153462291
 21
-30.757809972557279
 31
0.0
  0
LINE
  5
67
100
AcDbEntity
100
AcDbLine
  8
0
 62
0
370
-1
  6
BYLAYER
 10
225.36563153462291
 20
-30.757809972557279
 30
0.0
 11
225.49563153462299
 21
-30.8448099725573
 31
0.0
  0
LINE
  5
68
100
AcDbEntity
100
AcDbLine
  8
0
 62
0
370
-1
  6
BYLAYER
 10
225.49563153462299
 20
-30.8448099725573
 30
0.0
 11
225.61863153462289
 21
-30.941809972557309
 31
0.0
  0
LINE
  5
69
100
AcDbEntity
100
AcDbLine
  8
0
 62
0
370
-1
  6
BYLAYER
 10
225.61863153462289
 20
-30.941809972557309
 30
0.0
 11
225.73563153462291
 21
-31.0478099725573
 31
0.0
  0
LINE
  5
6A
100
AcDbEntity
100
AcDbLine
  8
0
 62
0
370
-1
  6
BYLAYER
 10
225.73563153462291
 20
-31.0478099725573
 30
0.0
 11
225.84163153462299
 21
-31.163809972557289
 31
0.0
  0
LINE
  5
6B
100
AcDbEntity
100
AcDbLine
  8
0
 62
0
370
-1
  6
BYLAYER
 10
225.84163153462299
 20
-31.163809972557289
 30
0.0
 11
225.93963153462289
 21
-31.28780997255728
 31
0.0
  0
LINE
  5
6C
100
AcDbEntity
100
AcDbLine
  8
0
 62
0
370
-1
  6
BYLAYER
 10
225.93963153462289
 20
-31.28780997255728
 30
0.0
 11
226.02663153462291
 21
-31.41880997255728
 31
0.0
  0
LINE
  5
6D
100
AcDbEntity
100
AcDbLine
  8
0
 62
0
370
-1
  6
BYLAYER
 10
226.02663153462291
 20
-31.41880997255728
 30
0.0
 11
226.10363153462291
 21
-31.554809972557312
 31
0.0
  0
LINE
  5
6E
100
AcDbEntity
100
AcDbLine
  8
0
 62
0
370
-1
  6
BYLAYER
 10
226.10363153462291
 20
-31.554809972557312
 30
0.0
 11
226.16863153462299
 21
-31.697809972557309
 31
0.0
  0
LINE
  5
6F
100
AcDbEntity
100
AcDbLine
  8
0
 62
0
370
-1
  6
BYLAYER
 10
226.16863153462299
 20
-31.697809972557309
 30
0.0
 11
226.22363153462291
 21
-31.8448099725573
 31
0.0
  0
LINE
  5
70
100
AcDbEntity
100
AcDbLine
  8
0
 62
0
370
-1
  6
BYLAYER
 10
226.22363153462291
 20
-31.8448099725573
 30
0.0
 11
226.26563153462291
 21
-31.995809972557279
 31
0.0
  0
LINE
  5
71
100
AcDbEntity
100
AcDbLine
  8
0
 62
0
370
-1
  6
BYLAYER
 10
226.26563153462291
 20
-31.995809972557279
 30
0.0
 11
226.29663153462289
 21
-32.150809972557283
 31
0.0
  0
LINE
  5
72
100
AcDbEntity
100
AcDbLine
  8
0
 62
0
370
-1
  6
BYLAYER
 10
226.29663153462289
 20
-32.150809972557283
 30
0.0
 11
226.31463153462289
 21
-32.305809972557277
 31
0.0
  0
LINE
  5
73
100
AcDbEntity
100
AcDbLine
  8
0
 62
0
370
-1
  6
BYLAYER
 10
226.31463153462289
 20
-32.305809972557277
 30
0.0
 11
226.3216315346229
 21
-32.4638099725573
 31
0.0
  0
LINE
  5
74
100
AcDbEntity
100
AcDbLine
  8
0
 62
0
370
-1
  6
BYLAYER
 10
226.3216315346229
 20
-32.4638099725573
 30
0.0
 11
226.3216315346229
 21
-162.76523997255731
 31
0.0
  0
LINE
  5
75
100
AcDbEntity
100
AcDbLine
  8
0
 62
0
370
-1
  6
BYLAYER
 10
226.3216315346229
 20
-162.76523997255731
 30
0.0
 11
226.31463153462289
 21
-162.92095997255731
 31
0.0
  0
LINE
  5
76
100
AcDbEntity
100
AcDbLine
  8
0
 62
0
370
-1
  6
BYLAYER
 10
226.31463153462289
 20
-162.92095997255731
 30
0.0
 11
226.29663153462289
 21
-163.07667997255729
 31
0.0
  0
LINE
  5
77
100
AcDbEntity
100
AcDbLine
  8
0
 62
0
370
-1
  6
BYLAYER
 10
226.29663153462289
 20
-163.07667997255729
 30
0.0
 11
226.26563153462291
 21
-163.23101997255731
 31
0.0
  0
LINE
  5
78
100
AcDbEntity
100
AcDbLine
  8
0
 62
0
370
-1
  6
BYLAYER
 10
226.26563153462291
 20
-163.23101997255731
 30
0.0
 11
226.22363153462291
 21
-163.3825999725573
 31
0.0
  0
LINE
  5
79
100
AcDbEntity
100
AcDbLine
  8
0
 62
0
370
-1
  6
BYLAYER
 10
226.22363153462291
 20
-163.3825999725573
 30
0.0
 11
226.16863153462299
 21
-163.53004997255729
 31
0.0
  0
LINE
  5
7A
100
AcDbEntity
100
AcDbLine
  8
0
 62
0
370
-1
  6
BYLAYER
 10
226.16863153462299
 20
-163.53004997255729
 30
0.0
 11
226.10363153462291
 21
-163.6719899725573
 31
0.0
  0
LINE
  5
7B
100
AcDbEntity
100
AcDbLine
  8
0
 62
0
370
-1
  6
BYLAYER
 10
226.10363153462291
 20
-163.6719899725573
 30
0.0
 11
226.02663153462291
 21
-163.80841997255729
 31
0.0
  0
LINE
  5
7C
100
AcDbEntity
100
AcDbLine
  8
0
 62
0
370
-1
  6
BYLAYER
 10
226.02663153462291
 20
-163.80841997255729
 30
0.0
 11
225.93963153462289
 21
-163.9393269725573
 31
0.0
  0
LINE
  5
7D
100
AcDbEntity
100
AcDbLine
  8
0
 62
0
370
-1
  6
BYLAYER
 10
225.93963153462289
 20
-163.9393269725573
 30
0.0
 11
225.84163153462299
 21
-164.0619739725573
 31
0.0
  0
LINE
  5
7E
100
AcDbEntity
100
AcDbLine
  8
0
 62
0
370
-1
  6
BYLAYER
 10
225.84163153462299
 20
-164.0619739725573
 30
0.0
 11
225.73563153462291
 21
-164.17910697255729
 31
0.0
  0
LINE
  5
7F
100
AcDbEntity
100
AcDbLine
  8
0
 62
0
370
-1
  6
BYLAYER
 10
225.73563153462291
 20
-164.17910697255729
 30
0.0
 11
225.61863153462289
 21
-164.2852149725573
 31
0.0
  0
LINE
  5
80
100
AcDbEntity
100
AcDbLine
  8
0
 62
0
370
-1
  6
BYLAYER
 10
225.61863153462289
 20
-164.2852149725573
 30
0.0
 11
225.49563153462299
 21
-164.38305797255731
 31
0.0
  0
LINE
  5
81
100
AcDbEntity
100
AcDbLine
  8
0
 62
0
370
-1
  6
BYLAYER
 10
225.49563153462299
 20
-164.38305797255731
 30
0.0
 11
225.36563153462291
 21
-164.46987297255731
 31
0.0
  0
LINE
  5
82
100
AcDbEntity
100
AcDbLine
  8
0
 62
0
370
-1
  6
BYLAYER
 10
225.36563153462291
 20
-164.46987297255731
 30
0.0
 11
225.22863153462291
 21
-164.5470439725573
 31
0.0
  0
LINE
  5
83
100
AcDbEntity
100
AcDbLine
  8
0
 62
0
370
-1
  6
BYLAYER
 10
225.22863153462291
 20
-164.5470439725573
 30
0.0
 11
225.08663153462291
 21
-164.61181197255729
 31
0.0
  0
LINE
  5
84
100
AcDbEntity
100
AcDbLine
  8
0
 62
0
370
-1
  6
BYLAYER
 10
225.08663153462291
 20
-164.61181197255729
 30
0.0
 11
224.93963153462289
 21
-164.6669329725573
 31
0.0
  0
LINE
  5
85
100
AcDbEntity
100
AcDbLine
  8
0
 62
0
370
-1
  6
BYLAYER
 10
224.93963153462289
 20
-164.6669329725573
 30
0.0
 11
224.7876315346229
 21
-164.70827397255729
 31
0.0
  0
LINE
  5
86
100
AcDbEntity
100
AcDbLine
  8
0
 62
0
370
-1
  6
BYLAYER
 10
224.7876315346229
 20
-164.70827397255729
 30
0.0
 11
224.63363153462291
 21
-164.73996917255729
 31
0.0
  0
LINE
  5
87
100
AcDbEntity
100
AcDbLine
  8
0
 62
0
370
-1
  6
BYLAYER
 10
224.63363153462291
 20
-164.73996917255729
 30
0.0
 11
224.4776315346229
 21
-164.75788357255729
 31
0.0
  0
LINE
  5
88
100
AcDbEntity
100
AcDbLine
  8
0
 62
0
370
-1
  6
BYLAYER
 10
224.4776315346229
 20
-164.75788357255729
 30
0.0
 11
224.3216315346229
 21
-164.76477407255729
 31
0.0
  0
LINE
  5
89
100
AcDbEntity
100
AcDbLine
  8
0
 62
0
370
-1
  6
BYLAYER
 10
224.3216315346229
 20
-164.76477407255729
 30
0.0
 11
65.44525153462294
 21
-164.76477407255729
 31
0.0
  0
LINE
  5
8A
100
AcDbEntity
100
AcDbLine
  8
0
 62
0
370
-1
  6
BYLAYER
 10
65.44525153462294
 20
-164.76477407255729
 30
0.0
 11
65.288151534622926
 21
-164.75788357255729
 31
0.0
  0
LINE
  5
8B
100
AcDbEntity
100
AcDbLine
  8
0
 62
0
370
-1
  6
BYLAYER
 10
65.288151534622926
 20
-164.75788357255729
 30
0.0
 11
65.132431534622953
 21
-164.73996917255729
 31
0.0
  0
LINE
  5
8C
100
AcDbEntity
100
AcDbLine
  8
0
 62
0
370
-1
  6
BYLAYER
 10
65.132431534622953
 20
-164.73996917255729
 30
0.0
 11
64.978091534622934
 21
-164.70827397255729
 31
0.0
  0
LINE
  5
8D
100
AcDbEntity
100
AcDbLine
  8
0
 62
0
370
-1
  6
BYLAYER
 10
64.978091534622934
 20
-164.70827397255729
 30
0.0
 11
64.826511534622938
 21
-164.6669329725573
 31
0.0
  0
LINE
  5
8E
100
AcDbEntity
100
AcDbLine
  8
0
 62
0
370
-1
  6
BYLAYER
 10
64.826511534622938
 20
-164.6669329725573
 30
0.0
 11
64.679061534622946
 21
-164.61181197255729
 31
0.0
  0
LINE
  5
8F
100
AcDbEntity
100
AcDbLine
  8
0
 62
0
370
-1
  6
BYLAYER
 10
64.679061534622946
 20
-164.61181197255729
 30
0.0
 11
64.537121534622941
 21
-164.5470439725573
 31
0.0
  0
LINE
  5
90
100
AcDbEntity
100
AcDbLine
  8
0
 62
0
370
-1
  6
BYLAYER
 10
64.537121534622941
 20
-164.5470439725573
 30
0.0
 11
64.40069153462295
 21
-164.46987297255731
 31
0.0
  0
LINE
  5
91
100
AcDbEntity
100
AcDbLine
  8
0
 62
0
370
-1
  6
BYLAYER
 10
64.40069153462295
 20
-164.46987297255731
 30
0.0
 11
64.269783534622917
 21
-164.38305797255731
 31
0.0
  0
LINE
  5
92
100
AcDbEntity
100
AcDbLine
  8
0
 62
0
370
-1
  6
BYLAYER
 10
64.269783534622917
 20
-164.38305797255731
 30
0.0
 11
64.145760534622951
 21
-164.2852149725573
 31
0.0
  0
LINE
  5
93
100
AcDbEntity
100
AcDbLine
  8
0
 62
0
370
-1
  6
BYLAYER
 10
64.145760534622951
 20
-164.2852149725573
 30
0.0
 11
64.030003534622921
 21
-164.17910697255729
 31
0.0
  0
LINE
  5
94
100
AcDbEntity
100
AcDbLine
  8
0
 62
0
370
-1
  6
BYLAYER
 10
64.030003534622921
 20
-164.17910697255729
 30
0.0
 11
63.923895534622908
 21
-164.0619739725573
 31
0.0
  0
LINE
  5
95
100
AcDbEntity
100
AcDbLine
  8
0
 62
0
370
-1
  6
BYLAYER
 10
63.923895534622908
 20
-164.0619739725573
 30
0.0
 11
63.826055534622952
 21
-163.9393269725573
 31
0.0
  0
LINE
  5
96
100
AcDbEntity
100
AcDbLine
  8
0
 62
0
370
-1
  6
BYLAYER
 10
63.826055534622952
 20
-163.9393269725573
 30
0.0
 11
63.739237534622958
 21
-163.80841997255729
 31
0.0
  0
LINE
  5
97
100
AcDbEntity
100
AcDbLine
  8
0
 62
0
370
-1
  6
BYLAYER
 10
63.739237534622958
 20
-163.80841997255729
 30
0.0
 11
63.662068534622932
 21
-163.6719899725573
 31
0.0
  0
LINE
  5
98
100
AcDbEntity
100
AcDbLine
  8
0
 62
0
370
-1
  6
BYLAYER
 10
63.662068534622932
 20
-163.6719899725573
 30
0.0
 11
63.597300534622917
 21
-163.53004997255729
 31
0.0
  0
LINE
  5
99
100
AcDbEntity
100
AcDbLine
  8
0
 62
0
370
-1
  6
BYLAYER
 10
63.597300534622917
 20
-163.53004997255729
 30
0.0
 11
63.542178534622927
 21
-163.3825999725573
 31
0.0
  0
LINE
  5
9A
100
AcDbEntity
100
AcDbLine
  8
0
 62
0
370
-1
  6
BYLAYER
 10
63.542178534622927
 20
-163.3825999725573
 30
0.0
 11
63.500837534622953
 21
-163.23101997255731
 31
0.0
  0
LINE
  5
9B
100
AcDbEntity
100
AcDbLine
  8
0
 62
0
370
-1
  6
BYLAYER
 10
63.500837534622953
 20
-163.23101997255731
 30
0.0
 11
63.469142534622932
 21
-163.07667997255729
 31
0.0
  0
LINE
  5
9C
100
AcDbEntity
100
AcDbLine
  8
0
 62
0
370
-1
  6
BYLAYER
 10
63.469142534622932
 20
-163.07667997255729
 30
0.0
 11
63.451228534622913
 21
-162.92095997255731
 31
0.0
  0
LINE
  5
9D
100
AcDbEntity
100
AcDbLine
  8
0
 62
0
370
-1
  6
BYLAYER
 10
63.451228534622913
 20
-162.92095997255731
 30
0.0
 11
63.444338134622939
 21
-162.7638599725573
 31
0.0
  0
LINE
  5
9E
100
AcDbEntity
100
AcDbLine
  8
0
 62
0
370
-1
  6
BYLAYER
 10
63.444338134622939
 20
-162.7638599725573
 30
0.0
 11
63.445716134622927
 21
-32.4638099725573
 31
0.0
  0
LINE
  5
9F
100
AcDbEntity
100
AcDbLine
  8
0
 62
0
370
-1
  6
BYLAYER
 10
63.445716134622927
 20
-32.4638099725573
 30
0.0
 11
63.451228534622913
 21
-32.305809972557277
 31
0.0
  0
LINE
  5
A0
100
AcDbEntity
100
AcDbLine
  8
0
 62
0
370
-1
  6
BYLAYER
 10
63.451228534622913
 20
-32.305809972557277
 30
0.0
 11
63.469142534622932
 21
-32.150809972557283
 31
0.0
  0
LINE
  5
A1
100
AcDbEntity
100
AcDbLine
  8
0
 62
0
370
-1
  6
BYLAYER
 10
63.469142534622932
 20
-32.150809972557283
 30
0.0
 11
63.500837534622953
 21
-31.995809972557279
 31
0.0
  0
LINE
  5
A2
100
AcDbEntity
100
AcDbLine
  8
0
 62
0
370
-1
  6
BYLAYER
 10
63.500837534622953
 20
-31.995809972557279
 30
0.0
 11
63.542178534622927
 21
-31.8448099725573
 31
0.0
  0
LINE
  5
A3
100
AcDbEntity
100
AcDbLine
  8
0
 62
0
370
-1
  6
BYLAYER
 10
63.542178534622927
 20
-31.8448099725573
 30
0.0
 11
63.597300534622917
 21
-31.697809972557309
 31
0.0
  0
LINE
  5
A4
100
AcDbEntity
100
AcDbLine
  8
0
 62
0
370
-1
  6
BYLAYER
 10
63.597300534622917
 20
-31.697809972557309
 30
0.0
 11
63.662068534622932
 21
-31.554809972557312
 31
0.0
  0
LINE
  5
A5
100
AcDbEntity
100
AcDbLine
  8
0
 62
0
370
-1
  6
BYLAYER
 10
63.662068534622932
 20
-31.554809972557312
 30
0.0
 11
63.739237534622958
 21
-31.41880997255728
 31
0.0
  0
LINE
  5
A6
100
AcDbEntity
100
AcDbLine
  8
0
 62
0
370
-1
  6
BYLAYER
 10
63.739237534622958
 20
-31.41880997255728
 30
0.0
 11
63.826055534622952
 21
-31.28780997255728
 31
0.0
  0
LINE
  5
A7
100
AcDbEntity
100
AcDbLine
  8
0
 62
0
370
-1
  6
BYLAYER
 10
63.826055534622952
 20
-31.28780997255728
 30
0.0
 11
63.923895534622908
 21
-31.163809972557289
 31
0.0
  0
LINE
  5
A8
100
AcDbEntity
100
AcDbLine
  8
0
 62
0
370
-1
  6
BYLAYER
 10
63.923895534622908
 20
-31.163809972557289
 30
0.0
 11
64.030003534622921
 21
-31.0478099725573
 31
0.0
  0
LINE
  5
A9
100
AcDbEntity
100
AcDbLine
  8
0
 62
0
370
-1
  6
BYLAYER
 10
64.030003534622921
 20
-31.0478099725573
 30
0.0
 11
64.145760534622951
 21
-30.941809972557309
 31
0.0
  0
LINE
  5
AA
100
AcDbEntity
100
AcDbLine
  8
0
 62
0
370
-1
  6
BYLAYER
 10
64.145760534622951
 20
-30.941809972557309
 30
0.0
 11
64.269783534622917
 21
-30.8448099725573
 31
0.0
  0
LINE
  5
AB
100
AcDbEntity
100
AcDbLine
  8
0
 62
0
370
-1
  6
BYLAYER
 10
64.269783534622917
 20
-30.8448099725573
 30
0.0
 11
64.40069153462295
 21
-30.757809972557279
 31
0.0
  0
LINE
  5
AC
100
AcDbEntity
100
AcDbLine
  8
0
 62
0
370
-1
  6
BYLAYER
 10
64.40069153462295
 20
-30.757809972557279
 30
0.0
 11
64.537121534622941
 21
-30.679809972557312
 31
0.0
  0
LINE
  5
AD
100
AcDbEntity
100
AcDbLine
  8
0
 62
0
370
-1
  6
BYLAYER
 10
64.537121534622941
 20
-30.679809972557312
 30
0.0
 11
64.679061534622946
 21
-30.61580997255729
 31
0.0
  0
LINE
  5
AE
100
AcDbEntity
100
AcDbLine
  8
0
 62
0
370
-1
  6
BYLAYER
 10
64.679061534622946
 20
-30.61580997255729
 30
0.0
 11
64.826511534622938
 21
-30.560809972557308
 31
0.0
  0
LINE
  5
AF
100
AcDbEntity
100
AcDbLine
  8
0
 62
0
370
-1
  6
BYLAYER
 10
64.826511534622938
 20
-30.560809972557308
 30
0.0
 11
64.978091534622934
 21
-30.51880997255731
 31
0.0
  0
LINE
  5
B0
100
AcDbEntity
100
AcDbLine
  8
0
 62
0
370
-1
  6
BYLAYER
 10
64.978091534622934
 20
-30.51880997255731
 30
0.0
 11
65.132431534622953
 21
-30.487809972557301
 31
0.0
  0
LINE
  5
B1
100
AcDbEntity
100
AcDbLine
  8
0
 62
0
370
-1
  6
BYLAYER
 10
65.132431534622953
 20
-30.487809972557301
 30
0.0
 11
65.288151534622926
 21
-30.4698099725573
 31
0.0
  0
LINE
  5
B2
100
AcDbEntity
100
AcDbLine
  8
0
 62
0
370
-1
  6
BYLAYER
 10
65.288151534622926
 20
-30.4698099725573
 30
0.0
 11
65.44525153462294
 21
-30.462809972557299
 31
0.0
  0
LINE
  5
B3
100
AcDbEntity
100
AcDbLine
  8
0
 62
0
370
-1
  6
BYLAYER
 10
65.44525153462294
 20
-30.462809972557299
 30
0.0
 11
81.565260683544025
 21
-30.462809972557306
 31
0.0
  0
LINE
  5
B4
100
AcDbEntity
100
AcDbLine
  8
0
 62
0
370
-1
  6
BYLAYER
 10
222.35663153462289
 20
-159.83689997255729
 30
0.0
 11
221.93963153462289
 21
-160.05050997255731
 31
0.0
  0
LINE
  5
B5
100
AcDbEntity
100
AcDbLine
  8
0
 62
0
370
-1
  6
BYLAYER
 10
221.93963153462289
 20
-160.05050997255731
 30
0.0
 11
221.6076315346229
 21
-160.3826099725573
 31
0.0
  0
LINE
  5
B6
100
AcDbEntity
100
AcDbLine
  8
0
 62
0
370
-1
  6
BYLAYER
 10
221.6076315346229
 20
-160.3826099725573
 30
0.0
 11
221.3936315346229
 21
-160.80015997255731
 31
0.0
  0
LINE
  5
B7
100
AcDbEntity
100
AcDbLine
  8
0
 62
0
370
-1
  6
BYLAYER
 10
221.3936315346229
 20
-160.80015997255731
 30
0.0
 11
221.3216315346229
 21
-161.26455997255729
 31
0.0
  0
LINE
  5
B8
100
AcDbEntity
100
AcDbLine
  8
0
 62
0
370
-1
  6
BYLAYER
 10
221.3216315346229
 20
-161.26455997255729
 30
0.0
 11
221.3936315346229
 21
-161.72757997255729
 31
0.0
  0
LINE
  5
B9
100
AcDbEntity
100
AcDbLine
  8
0
 62
0
370
-1
  6
BYLAYER
 10
221.3936315346229
 20
-161.72757997255729
 30
0.0
 11
221.6076315346229
 21
-162.1451199725573
 31
0.0
  0
LINE
  5
BA
100
AcDbEntity
100
AcDbLine
  8
0
 62
0
370
-1
  6
BYLAYER
 10
221.6076315346229
 20
-162.1451199725573
 30
0.0
 11
221.93963153462289
 21
-162.4772299725573
 31
0.0
  0
LINE
  5
BB
100
AcDbEntity
100
AcDbLine
  8
0
 62
0
370
-1
  6
BYLAYER
 10
221.93963153462289
 20
-162.4772299725573
 30
0.0
 11
222.35663153462289
 21
-162.69082997255731
 31
0.0
  0
LINE
  5
BC
100
AcDbEntity
100
AcDbLine
  8
0
 62
0
370
-1
  6
BYLAYER
 10
222.35663153462289
 20
-162.69082997255731
 30
0.0
 11
222.8216315346229
 21
-162.76523997255731
 31
0.0
  0
LINE
  5
BD
100
AcDbEntity
100
AcDbLine
  8
0
 62
0
370
-1
  6
BYLAYER
 10
222.8216315346229
 20
-162.76523997255731
 30
0.0
 11
223.28463153462289
 21
-162.69082997255731
 31
0.0
  0
LINE
  5
BE
100
AcDbEntity
100
AcDbLine
  8
0
 62
0
370
-1
  6
BYLAYER
 10
223.28463153462289
 20
-162.69082997255731
 30
0.0
 11
223.70163153462289
 21
-162.4772299725573
 31
0.0
  0
LINE
  5
BF
100
AcDbEntity
100
AcDbLine
  8
0
 62
0
370
-1
  6
BYLAYER
 10
223.70163153462289
 20
-162.4772299725573
 30
0.0
 11
224.03363153462291
 21
-162.1451199725573
 31
0.0
  0
LINE
  5
C0
100
AcDbEntity
100
AcDbLine
  8
0
 62
0
370
-1
  6
BYLAYER
 10
224.03363153462291
 20
-162.1451199725573
 30
0.0
 11
224.24763153462291
 21
-161.72757997255729
 31
0.0
  0
LINE
  5
C1
100
AcDbEntity
100
AcDbLine
  8
0
 62
0
370
-1
  6
BYLAYER
 10
224.24763153462291
 20
-161.72757997255729
 30
0.0
 11
224.3216315346229
 21
-161.26455997255729
 31
0.0
  0
LINE
  5
C2
100
AcDbEntity
100
AcDbLine
  8
0
 62
0
370
-1
  6
BYLAYER
 10
224.3216315346229
 20
-161.26455997255729
 30
0.0
 11
224.24763153462291
 21
-160.80015997255731
 31
0.0
  0
LINE
  5
C3
100
AcDbEntity
100
AcDbLine
  8
0
 62
0
370
-1
  6
BYLAYER
 10
224.24763153462291
 20
-160.80015997255731
 30
0.0
 11
224.03363153462291
 21
-160.3826099725573
 31
0.0
  0
LINE
  5
C4
100
AcDbEntity
100
AcDbLine
  8
0
 62
0
370
-1
  6
BYLAYER
 10
224.03363153462291
 20
-160.3826099725573
 30
0.0
 11
223.70163153462289
 21
-160.05050997255731
 31
0.0
  0
LINE
  5
C5
100
AcDbEntity
100
AcDbLine
  8
0
 62
0
370
-1
  6
BYLAYER
 10
223.70163153462289
 20
-160.05050997255731
 30
0.0
 11
223.28463153462289
 21
-159.83689997255729
 31
0.0
  0
LINE
  5
C6
100
AcDbEntity
100
AcDbLine
  8
0
 62
0
370
-1
  6
BYLAYER
 10
223.28463153462289
 20
-159.83689997255729
 30
0.0
 11
222.8216315346229
 21
-159.76524997255731
 31
0.0
  0
LINE
  5
C7
100
AcDbEntity
100
AcDbLine
  8
0
 62
0
370
-1
  6
BYLAYER
 10
222.8216315346229
 20
-159.76524997255731
 30
0.0
 11
222.35663153462289
 21
-159.83689997255729
 31
0.0
  0
LINE
  5
C8
100
AcDbEntity
100
AcDbLine
  8
0
 62
0
370
-1
  6
BYLAYER
 10
144.41933153462301
 20
-159.83689997255729
 30
0.0
 11
144.0016315346229
 21
-160.05050997255731
 31
0.0
  0
LINE
  5
C9
100
AcDbEntity
100
AcDbLine
  8
0
 62
0
370
-1
  6
BYLAYER
 10
144.0016315346229
 20
-160.05050997255731
 30
0.0
 11
143.66963153462291
 21
-160.3826099725573
 31
0.0
  0
LINE
  5
CA
100
AcDbEntity
100
AcDbLine
  8
0
 62
0
370
-1
  6
BYLAYER
 10
143.66963153462291
 20
-160.3826099725573
 30
0.0
 11
143.45593153462289
 21
-160.80015997255731
 31
0.0
  0
LINE
  5
CB
100
AcDbEntity
100
AcDbLine
  8
0
 62
0
370
-1
  6
BYLAYER
 10
143.45593153462289
 20
-160.80015997255731
 30
0.0
 11
143.38283153462299
 21
-161.26455997255729
 31
0.0
  0
LINE
  5
CC
100
AcDbEntity
100
AcDbLine
  8
0
 62
0
370
-1
  6
BYLAYER
 10
143.38283153462299
 20
-161.26455997255729
 30
0.0
 11
143.45593153462289
 21
-161.72757997255729
 31
0.0
  0
LINE
  5
CD
100
AcDbEntity
100
AcDbLine
  8
0
 62
0
370
-1
  6
BYLAYER
 10
143.45593153462289
 20
-161.72757997255729
 30
0.0
 11
143.66963153462291
 21
-162.1451199725573
 31
0.0
  0
LINE
  5
CE
100
AcDbEntity
100
AcDbLine
  8
0
 62
0
370
-1
  6
BYLAYER
 10
143.66963153462291
 20
-162.1451199725573
 30
0.0
 11
144.0016315346229
 21
-162.4772299725573
 31
0.0
  0
LINE
  5
CF
100
AcDbEntity
100
AcDbLine
  8
0
 62
0
370
-1
  6
BYLAYER
 10
144.0016315346229
 20
-162.4772299725573
 30
0.0
 11
144.41933153462301
 21
-162.69082997255731
 31
0.0
  0
LINE
  5
D0
100
AcDbEntity
100
AcDbLine
  8
0
 62
0
370
-1
  6
BYLAYER
 10
144.41933153462301
 20
-162.69082997255731
 30
0.0
 11
144.8835315346229
 21
-162.76523997255731
 31
0.0
  0
LINE
  5
D1
100
AcDbEntity
100
AcDbLine
  8
0
 62
0
370
-1
  6
BYLAYER
 10
144.8835315346229
 20
-162.76523997255731
 30
0.0
 11
145.3467315346229
 21
-162.69082997255731
 31
0.0
  0
LINE
  5
D2
100
AcDbEntity
100
AcDbLine
  8
0
 62
0
370
-1
  6
BYLAYER
 10
145.3467315346229
 20
-162.69082997255731
 30
0.0
 11
145.76413153462289
 21
-162.4772299725573
 31
0.0
  0
LINE
  5
D3
100
AcDbEntity
100
AcDbLine
  8
0
 62
0
370
-1
  6
BYLAYER
 10
145.76413153462289
 20
-162.4772299725573
 30
0.0
 11
146.09643153462301
 21
-162.1451199725573
 31
0.0
  0
LINE
  5
D4
100
AcDbEntity
100
AcDbLine
  8
0
 62
0
370
-1
  6
BYLAYER
 10
146.09643153462301
 20
-162.1451199725573
 30
0.0
 11
146.3098315346229
 21
-161.72757997255729
 31
0.0
  0
LINE
  5
D5
100
AcDbEntity
100
AcDbLine
  8
0
 62
0
370
-1
  6
BYLAYER
 10
146.3098315346229
 20
-161.72757997255729
 30
0.0
 11
146.38283153462299
 21
-161.26455997255729
 31
0.0
  0
LINE
  5
D6
100
AcDbEntity
100
AcDbLine
  8
0
 62
0
370
-1
  6
BYLAYER
 10
146.38283153462299
 20
-161.26455997255729
 30
0.0
 11
146.3098315346229
 21
-160.80015997255731
 31
0.0
  0
LINE
  5
D7
100
AcDbEntity
100
AcDbLine
  8
0
 62
0
370
-1
  6
BYLAYER
 10
146.3098315346229
 20
-160.80015997255731
 30
0.0
 11
146.09643153462301
 21
-160.3826099725573
 31
0.0
  0
LINE
  5
D8
100
AcDbEntity
100
AcDbLine
  8
0
 62
0
370
-1
  6
BYLAYER
 10
146.09643153462301
 20
-160.3826099725573
 30
0.0
 11
145.76413153462289
 21
-160.05050997255731
 31
0.0
  0
LINE
  5
D9
100
AcDbEntity
100
AcDbLine
  8
0
 62
0
370
-1
  6
BYLAYER
 10
145.76413153462289
 20
-160.05050997255731
 30
0.0
 11
145.3467315346229
 21
-159.83689997255729
 31
0.0
  0
LINE
  5
DA
100
AcDbEntity
100
AcDbLine
  8
0
 62
0
370
-1
  6
BYLAYER
 10
145.3467315346229
 20
-159.83689997255729
 30
0.0
 11
144.8835315346229
 21
-159.76524997255731
 31
0.0
  0
LINE
  5
DB
100
AcDbEntity
100
AcDbLine
  8
0
 62
0
370
-1
  6
BYLAYER
 10
144.8835315346229
 20
-159.76524997255731
 30
0.0
 11
144.41933153462301
 21
-159.83689997255729
 31
0.0
  0
LINE
  5
DC
100
AcDbEntity
100
AcDbLine
  8
0
 62
0
370
-1
  6
BYLAYER
 10
66.481531534622917
 20
-159.83689997255729
 30
0.0
 11
66.063991534622943
 21
-160.05050997255731
 31
0.0
  0
LINE
  5
DD
100
AcDbEntity
100
AcDbLine
  8
0
 62
0
370
-1
  6
BYLAYER
 10
66.063991534622943
 20
-160.05050997255731
 30
0.0
 11
65.731881534622943
 21
-160.3826099725573
 31
0.0
  0
LINE
  5
DE
100
AcDbEntity
100
AcDbLine
  8
0
 62
0
370
-1
  6
BYLAYER
 10
65.731881534622943
 20
-160.3826099725573
 30
0.0
 11
65.518281534622929
 21
-160.80015997255731
 31
0.0
  0
LINE
  5
DF
100
AcDbEntity
100
AcDbLine
  8
0
 62
0
370
-1
  6
BYLAYER
 10
65.518281534622929
 20
-160.80015997255731
 30
0.0
 11
65.443871534622929
 21
-161.26455997255729
 31
0.0
  0
LINE
  5
E0
100
AcDbEntity
100
AcDbLine
  8
0
 62
0
370
-1
  6
BYLAYER
 10
65.443871534622929
 20
-161.26455997255729
 30
0.0
 11
65.518281534622929
 21
-161.72757997255729
 31
0.0
  0
LINE
  5
E1
100
AcDbEntity
100
AcDbLine
  8
0
 62
0
370
-1
  6
BYLAYER
 10
65.518281534622929
 20
-161.72757997255729
 30
0.0
 11
65.731881534622943
 21
-162.1451199725573
 31
0.0
  0
LINE
  5
E2
100
AcDbEntity
100
AcDbLine
  8
0
 62
0
370
-1
  6
BYLAYER
 10
65.731881534622943
 20
-162.1451199725573
 30
0.0
 11
66.063991534622943
 21
-162.4772299725573
 31
0.0
  0
LINE
  5
E3
100
AcDbEntity
100
AcDbLine
  8
0
 62
0
370
-1
  6
BYLAYER
 10
66.063991534622943
 20
-162.4772299725573
 30
0.0
 11
66.481531534622917
 21
-162.69082997255731
 31
0.0
  0
LINE
  5
E4
100
AcDbEntity
100
AcDbLine
  8
0
 62
0
370
-1
  6
BYLAYER
 10
66.481531534622917
 20
-162.69082997255731
 30
0.0
 11
66.945931534622929
 21
-162.76523997255731
 31
0.0
  0
LINE
  5
E5
100
AcDbEntity
100
AcDbLine
  8
0
 62
0
370
-1
  6
BYLAYER
 10
66.945931534622929
 20
-162.76523997255731
 30
0.0
 11
67.408951534622929
 21
-162.69082997255731
 31
0.0
  0
LINE
  5
E6
100
AcDbEntity
100
AcDbLine
  8
0
 62
0
370
-1
  6
BYLAYER
 10
67.408951534622929
 20
-162.69082997255731
 30
0.0
 11
67.826501534622935
 21
-162.4772299725573
 31
0.0
  0
LINE
  5
E7
100
AcDbEntity
100
AcDbLine
  8
0
 62
0
370
-1
  6
BYLAYER
 10
67.826501534622935
 20
-162.4772299725573
 30
0.0
 11
68.158601534622932
 21
-162.1451199725573
 31
0.0
  0
LINE
  5
E8
100
AcDbEntity
100
AcDbLine
  8
0
 62
0
370
-1
  6
BYLAYER
 10
68.158601534622932
 20
-162.1451199725573
 30
0.0
 11
68.370831534622937
 21
-161.72757997255729
 31
0.0
  0
LINE
  5
E9
100
AcDbEntity
100
AcDbLine
  8
0
 62
0
370
-1
  6
BYLAYER
 10
68.370831534622937
 20
-161.72757997255729
 30
0.0
 11
68.445231534622934
 21
-161.26455997255729
 31
0.0
  0
LINE
  5
EA
100
AcDbEntity
100
AcDbLine
  8
0
 62
0
370
-1
  6
BYLAYER
 10
68.445231534622934
 20
-161.26455997255729
 30
0.0
 11
68.370831534622937
 21
-160.80015997255731
 31
0.0
  0
LINE
  5
EB
100
AcDbEntity
100
AcDbLine
  8
0
 62
0
370
-1
  6
BYLAYER
 10
68.370831534622937
 20
-160.80015997255731
 30
0.0
 11
68.158601534622932
 21
-160.3826099725573
 31
0.0
  0
LINE
  5
EC
100
AcDbEntity
100
AcDbLine
  8
0
 62
0
370
-1
  6
BYLAYER
 10
68.158601534622932
 20
-160.3826099725573
 30
0.0
 11
67.826501534622935
 21
-160.05050997255731
 31
0.0
  0
LINE
  5
ED
100
AcDbEntity
100
AcDbLine
  8
0
 62
0
370
-1
  6
BYLAYER
 10
67.826501534622935
 20
-160.05050997255731
 30
0.0
 11
67.408951534622929
 21
-159.83689997255729
 31
0.0
  0
LINE
  5
EE
100
AcDbEntity
100
AcDbLine
  8
0
 62
0
370
-1
  6
BYLAYER
 10
67.408951534622929
 20
-159.83689997255729
 30
0.0
 11
66.945931534622929
 21
-159.76524997255731
 31
0.0
  0
LINE
  5
EF
100
AcDbEntity
100
AcDbLine
  8
0
 62
0
370
-1
  6
BYLAYER
 10
66.945931534622929
 20
-159.76524997255731
 30
0.0
 11
66.481531534622917
 21
-159.83689997255729
 31
0.0
  0
LINE
  5
F0
100
AcDbEntity
100
AcDbLine
  8
0
 62
0
370
-1
  6
BYLAYER
 10
222.35663153462289
 20
-96.186509972557289
 30
0.0
 11
221.93963153462289
 21
-96.398909972557291
 31
0.0
  0
LINE
  5
F1
100
AcDbEntity
100
AcDbLine
  8
0
 62
0
370
-1
  6
BYLAYER
 10
221.93963153462289
 20
-96.398909972557291
 30
0.0
 11
221.6076315346229
 21
-96.730909972557313
 31
0.0
  0
LINE
  5
F2
100
AcDbEntity
100
AcDbLine
  8
0
 62
0
370
-1
  6
BYLAYER
 10
221.6076315346229
 20
-96.730909972557313
 30
0.0
 11
221.3936315346229
 21
-97.150009972557299
 31
0.0
  0
LINE
  5
F3
100
AcDbEntity
100
AcDbLine
  8
0
 62
0
370
-1
  6
BYLAYER
 10
221.3936315346229
 20
-97.150009972557299
 30
0.0
 11
221.3216315346229
 21
-97.612809972557287
 31
0.0
  0
LINE
  5
F4
100
AcDbEntity
100
AcDbLine
  8
0
 62
0
370
-1
  6
BYLAYER
 10
221.3216315346229
 20
-97.612809972557287
 30
0.0
 11
221.3936315346229
 21
-98.077409972557305
 31
0.0
  0
LINE
  5
F5
100
AcDbEntity
100
AcDbLine
  8
0
 62
0
370
-1
  6
BYLAYER
 10
221.3936315346229
 20
-98.077409972557305
 30
0.0
 11
221.6076315346229
 21
-98.494809972557292
 31
0.0
  0
LINE
  5
F6
100
AcDbEntity
100
AcDbLine
  8
0
 62
0
370
-1
  6
BYLAYER
 10
221.6076315346229
 20
-98.494809972557292
 30
0.0
 11
221.93963153462289
 21
-98.827109972557295
 31
0.0
  0
LINE
  5
F7
100
AcDbEntity
100
AcDbLine
  8
0
 62
0
370
-1
  6
BYLAYER
 10
221.93963153462289
 20
-98.827109972557295
 30
0.0
 11
222.35663153462289
 21
-99.040509972557302
 31
0.0
  0
LINE
  5
F8
100
AcDbEntity
100
AcDbLine
  8
0
 62
0
370
-1
  6
BYLAYER
 10
222.35663153462289
 20
-99.040509972557302
 30
0.0
 11
222.8216315346229
 21
-99.113509972557281
 31
0.0
  0
LINE
  5
F9
100
AcDbEntity
100
AcDbLine
  8
0
 62
0
370
-1
  6
BYLAYER
 10
222.8216315346229
 20
-99.113509972557281
 30
0.0
 11
223.28463153462289
 21
-99.040509972557302
 31
0.0
  0
LINE
  5
FA
100
AcDbEntity
100
AcDbLine
  8
0
 62
0
370
-1
  6
BYLAYER
 10
223.28463153462289
 20
-99.040509972557302
 30
0.0
 11
223.70163153462289
 21
-98.827109972557295
 31
0.0
  0
LINE
  5
FB
100
AcDbEntity
100
AcDbLine
  8
0
 62
0
370
-1
  6
BYLAYER
 10
223.70163153462289
 20
-98.827109972557295
 30
0.0
 11
224.03363153462291
 21
-98.494809972557292
 31
0.0
  0
LINE
  5
FC
100
AcDbEntity
100
AcDbLine
  8
0
 62
0
370
-1
  6
BYLAYER
 10
224.03363153462291
 20
-98.494809972557292
 30
0.0
 11
224.24763153462291
 21
-98.077409972557305
 31
0.0
  0
LINE
  5
FD
100
AcDbEntity
100
AcDbLine
  8
0
 62
0
370
-1
  6
BYLAYER
 10
224.24763153462291
 20
-98.077409972557305
 30
0.0
 11
224.3216315346229
 21
-97.612809972557287
 31
0.0
  0
LINE
  5
FE
100
AcDbEntity
100
AcDbLine
  8
0
 62
0
370
-1
  6
BYLAYER
 10
224.3216315346229
 20
-97.612809972557287
 30
0.0
 11
224.24763153462291
 21
-97.150009972557299
 31
0.0
  0
LINE
  5
FF
100
AcDbEntity
100
AcDbLine
  8
0
 62
0
370
-1
  6
BYLAYER
 10
224.24763153462291
 20
-97.150009972557299
 30
0.0
 11
224.03363153462291
 21
-96.730909972557313
 31
0.0
  0
LINE
  5
100
100
AcDbEntity
100
AcDbLine
  8
0
 62
0
370
-1
  6
BYLAYER
 10
224.03363153462291
 20
-96.730909972557313
 30
0.0
 11
223.70163153462289
 21
-96.398909972557291
 31
0.0
  0
LINE
  5
101
100
AcDbEntity
100
AcDbLine
  8
0
 62
0
370
-1
  6
BYLAYER
 10
223.70163153462289
 20
-96.398909972557291
 30
0.0
 11
223.28463153462289
 21
-96.186509972557289
 31
0.0
  0
LINE
  5
102
100
AcDbEntity
100
AcDbLine
  8
0
 62
0
370
-1
  6
BYLAYER
 10
223.28463153462289
 20
-96.186509972557289
 30
0.0
 11
222.8216315346229
 21
-96.113509972557281
 31
0.0
  0
LINE
  5
103
100
AcDbEntity
100
AcDbLine
  8
0
 62
0
370
-1
  6
BYLAYER
 10
222.8216315346229
 20
-96.113509972557281
 30
0.0
 11
222.35663153462289
 21
-96.186509972557289
 31
0.0
  0
LINE
  5
104
100
AcDbEntity
100
AcDbLine
  8
0
 62
0
370
-1
  6
BYLAYER
 10
66.481531534622917
 20
-96.186509972557289
 30
0.0
 11
66.063991534622943
 21
-96.398909972557291
 31
0.0
  0
LINE
  5
105
100
AcDbEntity
100
AcDbLine
  8
0
 62
0
370
-1
  6
BYLAYER
 10
66.063991534622943
 20
-96.398909972557291
 30
0.0
 11
65.731881534622943
 21
-96.730909972557313
 31
0.0
  0
LINE
  5
106
100
AcDbEntity
100
AcDbLine
  8
0
 62
0
370
-1
  6
BYLAYER
 10
65.731881534622943
 20
-96.730909972557313
 30
0.0
 11
65.518281534622929
 21
-97.150009972557299
 31
0.0
  0
LINE
  5
107
100
AcDbEntity
100
AcDbLine
  8
0
 62
0
370
-1
  6
BYLAYER
 10
65.518281534622929
 20
-97.150009972557299
 30
0.0
 11
65.443871534622929
 21
-97.612809972557287
 31
0.0
  0
LINE
  5
108
100
AcDbEntity
100
AcDbLine
  8
0
 62
0
370
-1
  6
BYLAYER
 10
65.443871534622929
 20
-97.612809972557287
 30
0.0
 11
65.518281534622929
 21
-98.077409972557305
 31
0.0
  0
LINE
  5
109
100
AcDbEntity
100
AcDbLine
  8
0
 62
0
370
-1
  6
BYLAYER
 10
65.518281534622929
 20
-98.077409972557305
 30
0.0
 11
65.731881534622943
 21
-98.494809972557292
 31
0.0
  0
LINE
  5
10A
100
AcDbEntity
100
AcDbLine
  8
0
 62
0
370
-1
  6
BYLAYER
 10
65.731881534622943
 20
-98.494809972557292
 30
0.0
 11
66.063991534622943
 21
-98.827109972557295
 31
0.0
  0
LINE
  5
10B
100
AcDbEntity
100
AcDbLine
  8
0
 62
0
370
-1
  6
BYLAYER
 10
66.063991534622943
 20
-98.827109972557295
 30
0.0
 11
66.481531534622917
 21
-99.040509972557302
 31
0.0
  0
LINE
  5
10C
100
AcDbEntity
100
AcDbLine
  8
0
 62
0
370
-1
  6
BYLAYER
 10
66.481531534622917
 20
-99.040509972557302
 30
0.0
 11
66.945931534622929
 21
-99.113509972557281
 31
0.0
  0
LINE
  5
10D
100
AcDbEntity
100
AcDbLine
  8
0
 62
0
370
-1
  6
BYLAYER
 10
66.945931534622929
 20
-99.113509972557281
 30
0.0
 11
67.408951534622929
 21
-99.040509972557302
 31
0.0
  0
LINE
  5
10E
100
AcDbEntity
100
AcDbLine
  8
0
 62
0
370
-1
  6
BYLAYER
 10
67.408951534622929
 20
-99.040509972557302
 30
0.0
 11
67.826501534622935
 21
-98.827109972557295
 31
0.0
  0
LINE
  5
10F
100
AcDbEntity
100
AcDbLine
  8
0
 62
0
370
-1
  6
BYLAYER
 10
67.826501534622935
 20
-98.827109972557295
 30
0.0
 11
68.158601534622932
 21
-98.494809972557292
 31
0.0
  0
LINE
  5
110
100
AcDbEntity
100
AcDbLine
  8
0
 62
0
370
-1
  6
BYLAYER
 10
68.158601534622932
 20
-98.494809972557292
 30
0.0
 11
68.370831534622937
 21
-98.077409972557305
 31
0.0
  0
LINE
  5
111
100
AcDbEntity
100
AcDbLine
  8
0
 62
0
370
-1
  6
BYLAYER
 10
68.370831534622937
 20
-98.077409972557305
 30
0.0
 11
68.445231534622934
 21
-97.612809972557287
 31
0.0
  0
LINE
  5
112
100
AcDbEntity
100
AcDbLine
  8
0
 62
0
370
-1
  6
BYLAYER
 10
68.445231534622934
 20
-97.612809972557287
 30
0.0
 11
68.370831534622937
 21
-97.150009972557299
 31
0.0
  0
LINE
  5
113
100
AcDbEntity
100
AcDbLine
  8
0
 62
0
370
-1
  6
BYLAYER
 10
68.370831534622937
 20
-97.150009972557299
 30
0.0
 11
68.158601534622932
 21
-96.730909972557313
 31
0.0
  0
LINE
  5
114
100
AcDbEntity
100
AcDbLine
  8
0
 62
0
370
-1
  6
BYLAYER
 10
68.158601534622932
 20
-96.730909972557313
 30
0.0
 11
67.826501534622935
 21
-96.398909972557291
 31
0.0
  0
LINE
  5
115
100
AcDbEntity
100
AcDbLine
  8
0
 62
0
370
-1
  6
BYLAYER
 10
67.826501534622935
 20
-96.398909972557291
 30
0.0
 11
67.408951534622929
 21
-96.186509972557289
 31
0.0
  0
LINE
  5
116
100
AcDbEntity
100
AcDbLine
  8
0
 62
0
370
-1
  6
BYLAYER
 10
67.408951534622929
 20
-96.186509972557289
 30
0.0
 11
66.945931534622929
 21
-96.113509972557281
 31
0.0
  0
LINE
  5
117
100
AcDbEntity
100
AcDbLine
  8
0
 62
0
370
-1
  6
BYLAYER
 10
66.945931534622929
 20
-96.113509972557281
 30
0.0
 11
66.481531534622917
 21
-96.186509972557289
 31
0.0
  0
LINE
  5
118
100
AcDbEntity
100
AcDbLine
  8
0
 62
0
370
-1
  6
BYLAYER
 10
222.35663153462289
 20
-32.536809972557307
 30
0.0
 11
221.93963153462289
 21
-32.749809972557301
 31
0.0
  0
LINE
  5
119
100
AcDbEntity
100
AcDbLine
  8
0
 62
0
370
-1
  6
BYLAYER
 10
221.93963153462289
 20
-32.749809972557301
 30
0.0
 11
221.6076315346229
 21
-33.0828099725573
 31
0.0
  0
LINE
  5
11A
100
AcDbEntity
100
AcDbLine
  8
0
 62
0
370
-1
  6
BYLAYER
 10
221.6076315346229
 20
-33.0828099725573
 30
0.0
 11
221.3936315346229
 21
-33.499809972557301
 31
0.0
  0
LINE
  5
11B
100
AcDbEntity
100
AcDbLine
  8
0
 62
0
370
-1
  6
BYLAYER
 10
221.3936315346229
 20
-33.499809972557301
 30
0.0
 11
221.3216315346229
 21
-33.9638099725573
 31
0.0
  0
LINE
  5
11C
100
AcDbEntity
100
AcDbLine
  8
0
 62
0
370
-1
  6
BYLAYER
 10
221.3216315346229
 20
-33.9638099725573
 30
0.0
 11
221.3936315346229
 21
-34.426809972557287
 31
0.0
  0
LINE
  5
11D
100
AcDbEntity
100
AcDbLine
  8
0
 62
0
370
-1
  6
BYLAYER
 10
221.3936315346229
 20
-34.426809972557287
 30
0.0
 11
221.6076315346229
 21
-34.8448099725573
 31
0.0
  0
LINE
  5
11E
100
AcDbEntity
100
AcDbLine
  8
0
 62
0
370
-1
  6
BYLAYER
 10
221.6076315346229
 20
-34.8448099725573
 30
0.0
 11
221.93963153462289
 21
-35.176809972557287
 31
0.0
  0
LINE
  5
11F
100
AcDbEntity
100
AcDbLine
  8
0
 62
0
370
-1
  6
BYLAYER
 10
221.93963153462289
 20
-35.176809972557287
 30
0.0
 11
222.35663153462289
 21
-35.388809972557283
 31
0.0
  0
LINE
  5
120
100
AcDbEntity
100
AcDbLine
  8
0
 62
0
370
-1
  6
BYLAYER
 10
222.35663153462289
 20
-35.388809972557283
 30
0.0
 11
222.8216315346229
 21
-35.4638099725573
 31
0.0
  0
LINE
  5
121
100
AcDbEntity
100
AcDbLine
  8
0
 62
0
370
-1
  6
BYLAYER
 10
222.8216315346229
 20
-35.4638099725573
 30
0.0
 11
223.28463153462289
 21
-35.388809972557283
 31
0.0
  0
LINE
  5
122
100
AcDbEntity
100
AcDbLine
  8
0
 62
0
370
-1
  6
BYLAYER
 10
223.28463153462289
 20
-35.388809972557283
 30
0.0
 11
223.70163153462289
 21
-35.176809972557287
 31
0.0
  0
LINE
  5
123
100
AcDbEntity
100
AcDbLine
  8
0
 62
0
370
-1
  6
BYLAYER
 10
223.70163153462289
 20
-35.176809972557287
 30
0.0
 11
224.03363153462291
 21
-34.8448099725573
 31
0.0
  0
LINE
  5
124
100
AcDbEntity
100
AcDbLine
  8
0
 62
0
370
-1
  6
BYLAYER
 10
224.03363153462291
 20
-34.8448099725573
 30
0.0
 11
224.24763153462291
 21
-34.426809972557287
 31
0.0
  0
LINE
  5
125
100
AcDbEntity
100
AcDbLine
  8
0
 62
0
370
-1
  6
BYLAYER
 10
224.24763153462291
 20
-34.426809972557287
 30
0.0
 11
224.3216315346229
 21
-33.9638099725573
 31
0.0
  0
LINE
  5
126
100
AcDbEntity
100
AcDbLine
  8
0
 62
0
370
-1
  6
BYLAYER
 10
224.3216315346229
 20
-33.9638099725573
 30
0.0
 11
224.24763153462291
 21
-33.499809972557301
 31
0.0
  0
LINE
  5
127
100
AcDbEntity
100
AcDbLine
  8
0
 62
0
370
-1
  6
BYLAYER
 10
224.24763153462291
 20
-33.499809972557301
 30
0.0
 11
224.03363153462291
 21
-33.0828099725573
 31
0.0
  0
LINE
  5
128
100
AcDbEntity
100
AcDbLine
  8
0
 62
0
370
-1
  6
BYLAYER
 10
224.03363153462291
 20
-33.0828099725573
 30
0.0
 11
223.70163153462289
 21
-32.749809972557301
 31
0.0
  0
LINE
  5
129
100
AcDbEntity
100
AcDbLine
  8
0
 62
0
370
-1
  6
BYLAYER
 10
223.70163153462289
 20
-32.749809972557301
 30
0.0
 11
223.28463153462289
 21
-32.536809972557307
 31
0.0
  0
LINE
  5
12A
100
AcDbEntity
100
AcDbLine
  8
0
 62
0
370
-1
  6
BYLAYER
 10
223.28463153462289
 20
-32.536809972557307
 30
0.0
 11
222.8216315346229
 21
-32.4638099725573
 31
0.0
  0
LINE
  5
12B
100
AcDbEntity
100
AcDbLine
  8
0
 62
0
370
-1
  6
BYLAYER
 10
222.8216315346229
 20
-32.4638099725573
 30
0.0
 11
222.35663153462289
 21
-32.536809972557307
 31
0.0
  0
LINE
  5
12C
100
AcDbEntity
100
AcDbLine
  8
0
 62
0
370
-1
  6
BYLAYER
 10
66.481531534622917
 20
-32.536809972557307
 30
0.0
 11
66.063991534622943
 21
-32.749809972557301
 31
0.0
  0
LINE
  5
12D
100
AcDbEntity
100
AcDbLine
  8
0
 62
0
370
-1
  6
BYLAYER
 10
66.063991534622943
 20
-32.749809972557301
 30
0.0
 11
65.731881534622943
 21
-33.0828099725573
 31
0.0
  0
LINE
  5
12E
100
AcDbEntity
100
AcDbLine
  8
0
 62
0
370
-1
  6
BYLAYER
 10
65.731881534622943
 20
-33.0828099725573
 30
0.0
 11
65.518281534622929
 21
-33.499809972557301
 31
0.0
  0
LINE
  5
12F
100
AcDbEntity
100
AcDbLine
  8
0
 62
0
370
-1
  6
BYLAYER
 10
65.518281534622929
 20
-33.499809972557301
 30
0.0
 11
65.443871534622929
 21
-33.9638099725573
 31
0.0
  0
LINE
  5
130
100
AcDbEntity
100
AcDbLine
  8
0
 62
0
370
-1
  6
BYLAYER
 10
65.443871534622929
 20
-33.9638099725573
 30
0.0
 11
65.518281534622929
 21
-34.426809972557287
 31
0.0
  0
LINE
  5
131
100
AcDbEntity
100
AcDbLine
  8
0
 62
0
370
-1
  6
BYLAYER
 10
65.518281534622929
 20
-34.426809972557287
 30
0.0
 11
65.731881534622943
 21
-34.8448099725573
 31
0.0
  0
LINE
  5
132
100
AcDbEntity
100
AcDbLine
  8
0
 62
0
370
-1
  6
BYLAYER
 10
65.731881534622943
 20
-34.8448099725573
 30
0.0
 11
66.063991534622943
 21
-35.176809972557287
 31
0.0
  0
LINE
  5
133
100
AcDbEntity
100
AcDbLine
  8
0
 62
0
370
-1
  6
BYLAYER
 10
66.063991534622943
 20
-35.176809972557287
 30
0.0
 11
66.481531534622917
 21
-35.388809972557283
 31
0.0
  0
LINE
  5
134
100
AcDbEntity
100
AcDbLine
  8
0
 62
0
370
-1
  6
BYLAYER
 10
66.481531534622917
 20
-35.388809972557283
 30
0.0
 11
66.945931534622929
 21
-35.4638099725573
 31
0.0
  0
LINE
  5
135
100
AcDbEntity
100
AcDbLine
  8
0
 62
0
370
-1
  6
BYLAYER
 10
66.945931534622929
 20
-35.4638099725573
 30
0.0
 11
67.408951534622929
 21
-35.388809972557283
 31
0.0
  0
LINE
  5
136
100
AcDbEntity
100
AcDbLine
  8
0
 62
0
370
-1
  6
BYLAYER
 10
67.408951534622929
 20
-35.388809972557283
 30
0.0
 11
67.826501534622935
 21
-35.176809972557287
 31
0.0
  0
LINE
  5
137
100
AcDbEntity
100
AcDbLine
  8
0
 62
0
370
-1
  6
BYLAYER
 10
67.826501534622935
 20
-35.176809972557287
 30
0.0
 11
68.158601534622932
 21
-34.8448099725573
 31
0.0
  0
LINE
  5
138
100
AcDbEntity
100
AcDbLine
  8
0
 62
0
370
-1
  6
BYLAYER
 10
68.158601534622932
 20
-34.8448099725573
 30
0.0
 11
68.370831534622937
 21
-34.426809972557287
 31
0.0
  0
LINE
  5
139
100
AcDbEntity
100
AcDbLine
  8
0
 62
0
370
-1
  6
BYLAYER
 10
68.370831534622937
 20
-34.426809972557287
 30
0.0
 11
68.445231534622934
 21
-33.9638099725573
 31
0.0
  0
LINE
  5
13A
100
AcDbEntity
100
AcDbLine
  8
0
 62
0
370
-1
  6
BYLAYER
 10
68.445231534622934
 20
-33.9638099725573
 30
0.0
 11
68.370831534622937
 21
-33.499809972557301
 31
0.0
  0
LINE
  5
13B
100
AcDbEntity
100
AcDbLine
  8
0
 62
0
370
-1
  6
BYLAYER
 10
68.370831534622937
 20
-33.499809972557301
 30
0.0
 11
68.158601534622932
 21
-33.0828099725573
 31
0.0
  0
LINE
  5
13C
100
AcDbEntity
100
AcDbLine
  8
0
 62
0
370
-1
  6
BYLAYER
 10
68.158601534622932
 20
-33.0828099725573
 30
0.0
 11
67.826501534622935
 21
-32.749809972557301
 31
0.0
  0
LINE
  5
13D
100
AcDbEntity
100
AcDbLine
  8
0
 62
0
370
-1
  6
BYLAYER
 10
67.826501534622935
 20
-32.749809972557301
 30
0.0
 11
67.408951534622929
 21
-32.536809972557307
 31
0.0
  0
LINE
  5
13E
100
AcDbEntity
100
AcDbLine
  8
0
 62
0
370
-1
  6
BYLAYER
 10
67.408951534622929
 20
-32.536809972557307
 30
0.0
 11
66.945931534622929
 21
-32.4638099725573
 31
0.0
  0
LINE
  5
13F
100
AcDbEntity
100
AcDbLine
  8
0
 62
0
370
-1
  6
BYLAYER
 10
66.945931534622929
 20
-32.4638099725573
 30
0.0
 11
66.481531534622917
 21
-32.536809972557307
 31
0.0
  0
LINE
  5
140
100
AcDbEntity
100
AcDbLine
  8
0
 62
0
370
-1
  6
BYLAYER
 10
81.565260683544025
 20
-37.462809972557302
 30
0.0
 11
70.444781534622933
 21
-37.462809972557302
 31
0.0
  0
LINE
  5
141
100
AcDbEntity
100
AcDbLine
  8
0
 62
0
370
-1
  6
BYLAYER
 10
70.444781534622933
 20
-37.462809972557302
 30
0.0
 11
70.444781534622933
 21
-157.76432997255731
 31
0.0
  0
LINE
  5
142
100
AcDbEntity
100
AcDbLine
  8
0
 62
0
370
-1
  6
BYLAYER
 10
70.444781534622933
 20
-157.76432997255731
 30
0.0
 11
219.32063153462289
 21
-157.76432997255731
 31
0.0
  0
LINE
  5
143
100
AcDbEntity
100
AcDbLine
  8
0
 62
0
370
-1
  6
BYLAYER
 10
219.32063153462289
 20
-157.76432997255731
 30
0.0
 11
219.32063153462289
 21
-37.462809972557302
 31
0.0
  0
LINE
  5
144
100
AcDbEntity
100
AcDbLine
  8
0
 62
0
370
-1
  6
BYLAYER
 10
219.32063153462289
 20
-37.462809972557302
 30
0.0
 11
140.0
 21
-37.462809972557302
 31
0.0
  0
LINE
  5
145
100
AcDbEntity
100
AcDbLine
  8
0
 62
0
370
-1
  6
BYLAYER
 10
140.0
 20
-37.462809972557302
 30
0.0
 11
140.0
 21
-30.4638099725573
 31
0.0
  0
LINE
  5
146
100
AcDbEntity
100
AcDbLine
  8
0
 62
0
370
-1
  6
BYLAYER
 10
140.0
 20
-30.4638099725573
 30
0.0
 11
224.3216315346229
 21
-30.4638099725573
 31
0.0
  0
LINE
  5
147
100
AcDbEntity
100
AcDbLine
  8
0
 62
0
370
-1
  6
BYLAYER
 10
224.3216315346229
 20
-30.4638099725573
 30
0.0
 11
224.4776315346229
 21
-30.4698099725573
 31
0.0
  0
LINE
  5
148
100
AcDbEntity
100
AcDbLine
  8
0
 62
0
370
-1
  6
BYLAYER
 10
224.4776315346229
 20
-30.4698099725573
 30
0.0
 11
224.63363153462291
 21
-30.487809972557301
 31
0.0
  0
LINE
  5
149
100
AcDbEntity
100
AcDbLine
  8
0
 62
0
370
-1
  6
BYLAYER
 10
224.63363153462291
 20
-30.487809972557301
 30
0.0
 11
224.7876315346229
 21
-30.51880997255731
 31
0.0
  0
LINE
  5
14A
100
AcDbEntity
100
AcDbLine
  8
0
 62
0
370
-1
  6
BYLAYER
 10
224.7876315346229
 20
-30.51880997255731
 30
0.0
 11
224.93963153462289
 21
-30.560809972557308
 31
0.0
  0
LINE
  5
14B
100
AcDbEntity
100
AcDbLine
  8
0
 62
0
370
-1
  6
BYLAYER
 10
224.93963153462289
 20
-30.560809972557308
 30
0.0
 11
225.08663153462291
 21
-30.61580997255729
 31
0.0
  0
LINE
  5
14C
100
AcDbEntity
100
AcDbLine
  8
0
 62
0
370
-1
  6
BYLAYER
 10
144.41783153462299
 20
-35.391509972557259
 30
0.0
 11
144.88283153462299
 21
-35.464509972557238
 31
0.0
  0
LINE
  5
14D
100
AcDbEntity
100
AcDbLine
  8
0
 62
0
370
-1
  6
BYLAYER
 10
144.88283153462299
 20
-35.464509972557238
 30
0.0
 11
145.34583153462299
 21
-35.391509972557259
 31
0.0
  0
LINE
  5
14E
100
AcDbEntity
100
AcDbLine
  8
0
 62
0
370
-1
  6
BYLAYER
 10
145.34583153462299
 20
-35.391509972557259
 30
0.0
 11
145.76283153462299
 21
-35.178109972557252
 31
0.0
  0
LINE
  5
14F
100
AcDbEntity
100
AcDbLine
  8
0
 62
0
370
-1
  6
BYLAYER
 10
145.76283153462299
 20
-35.178109972557252
 30
0.0
 11
146.09483153462301
 21
-34.845809972557248
 31
0.0
  0
LINE
  5
150
100
AcDbEntity
100
AcDbLine
  8
0
 62
0
370
-1
  6
BYLAYER
 10
146.09483153462301
 20
-34.845809972557248
 30
0.0
 11
146.30883153462301
 21
-34.428409972557262
 31
0.0
  0
LINE
  5
151
100
AcDbEntity
100
AcDbLine
  8
0
 62
0
370
-1
  6
BYLAYER
 10
146.30883153462301
 20
-34.428409972557262
 30
0.0
 11
146.38283153462299
 21
-33.963809972557243
 31
0.0
  0
LINE
  5
152
100
AcDbEntity
100
AcDbLine
  8
0
 62
0
370
-1
  6
BYLAYER
 10
146.38283153462299
 20
-33.963809972557243
 30
0.0
 11
146.30883153462301
 21
-33.501009972557263
 31
0.0
  0
LINE
  5
153
100
AcDbEntity
100
AcDbLine
  8
0
 62
0
370
-1
  6
BYLAYER
 10
146.30883153462301
 20
-33.501009972557263
 30
0.0
 11
146.09483153462301
 21
-33.08190997255727
 31
0.0
  0
LINE
  5
154
100
AcDbEntity
100
AcDbLine
  8
0
 62
0
370
-1
  6
BYLAYER
 10
146.09483153462301
 20
-33.08190997255727
 30
0.0
 11
145.76283153462299
 21
-32.749909972557248
 31
0.0
  0
LINE
  5
155
100
AcDbEntity
100
AcDbLine
  8
0
 62
0
370
-1
  6
BYLAYER
 10
145.76283153462299
 20
-32.749909972557248
 30
0.0
 11
145.34583153462299
 21
-32.537509972557253
 31
0.0
  0
LINE
  5
156
100
AcDbEntity
100
AcDbLine
  8
0
 62
0
370
-1
  6
BYLAYER
 10
145.34583153462299
 20
-32.537509972557253
 30
0.0
 11
144.88283153462299
 21
-32.464509972557238
 31
0.0
  0
LINE
  5
157
100
AcDbEntity
100
AcDbLine
  8
0
 62
0
370
-1
  6
BYLAYER
 10
144.88283153462299
 20
-32.464509972557238
 30
0.0
 11
144.41783153462299
 21
-32.537509972557253
 31
0.0
  0
LINE
  5
158
100
AcDbEntity
100
AcDbLine
  8
0
 62
0
370
-1
  6
BYLAYER
 10
144.41783153462299
 20
-32.537509972557253
 30
0.0
 11
144.00083153462299
 21
-32.749909972557248
 31
0.0
  0
LINE
  5
159
100
AcDbEntity
100
AcDbLine
  8
0
 62
0
370
-1
  6
BYLAYER
 10
144.00083153462299
 20
-32.749909972557248
 30
0.0
 11
143.668831534623
 21
-33.08190997255727
 31
0.0
  0
LINE
  5
15A
100
AcDbEntity
100
AcDbLine
  8
0
 62
0
370
-1
  6
BYLAYER
 10
143.668831534623
 20
-33.08190997255727
 30
0.0
 11
143.454831534623
 21
-33.501009972557263
 31
0.0
  0
LINE
  5
15B
100
AcDbEntity
100
AcDbLine
  8
0
 62
0
370
-1
  6
BYLAYER
 10
143.454831534623
 20
-33.501009972557263
 30
0.0
 11
143.38283153462299
 21
-33.963809972557243
 31
0.0
  0
LINE
  5
15C
100
AcDbEntity
100
AcDbLine
  8
0
 62
0
370
-1
  6
BYLAYER
 10
143.38283153462299
 20
-33.963809972557243
 30
0.0
 11
143.454831534623
 21
-34.428409972557262
 31
0.0
  0
LINE
  5
15D
100
AcDbEntity
100
AcDbLine
  8
0
 62
0
370
-1
  6
BYLAYER
 10
143.454831534623
 20
-34.428409972557262
 30
0.0
 11
143.668831534623
 21
-34.845809972557248
 31
0.0
  0
LINE
  5
15E
100
AcDbEntity
100
AcDbLine
  8
0
 62
0
370
-1
  6
BYLAYER
 10
143.668831534623
 20
-34.845809972557248
 30
0.0
 11
144.00083153462299
 21
-35.178109972557252
 31
0.0
  0
LINE
  5
15F
100
AcDbEntity
100
AcDbLine
  8
0
 62
0
370
-1
  6
BYLAYER
 10
144.00083153462299
 20
-35.178109972557252
 30
0.0
 11
144.41783153462299
 21
-35.391509972557259
 31
0.0
  0
LINE
  5
160
100
AcDbEntity
100
AcDbLine
  8
0
 62
256
370
-1
  6
BYLAYER
 10
81.565260683544025
 20
-37.462809972557302
 30
0.0
 11
81.565260683544025
 21
-30.462809972557299
 31
0.0
  0
ENDSEC
  0
SECTION
  2
OBJECTS
  0
DICTIONARY
  5
C
100
AcDbDictionary
280
0
281
1
  3
ACAD_GROUP
350
D
  3
ACAD_LAYOUT
350
1A
  3
ACAD_MLINESTYLE
350
17
  3
ACAD_PLOTSETTINGS
350
19
  3
ACAD_PLOTSTYLENAME
350
E
  3
AcDbVariableDictionary
350
161
  3
QCAD_OBJECTS
350
162
  0
DICTIONARY
  5
D
100
AcDbDictionary
280
0
281
1
  0
ACDBDICTIONARYWDFLT
  5
E
100
AcDbDictionary
281
1
  3
Normal
350
F
100
AcDbDictionaryWithDefault
340
F
  0
ACDBPLACEHOLDER
  5
F
  0
DICTIONARY
  5
17
100
AcDbDictionary
280
0
281
1
  3
Standard
350
18
  0
MLINESTYLE
  5
18
100
AcDbMlineStyle
  2
STANDARD
 70
0
  3

 62
256
 51
90.0
 52
90.0
 71
2
 49
0.5
 62
256
  6
BYLAYER
 49
-0.5
 62
256
  6
BYLAYER
  0
DICTIONARY
  5
19
100
AcDbDictionary
280
0
281
1
  0
DICTIONARY
  5
1A
100
AcDbDictionary
281
1
  3
Layout1
350
1E
  3
Layout2
350
26
  3
Model
350
22
  0
LAYOUT
  5
1E
100
AcDbPlotSettings
  1

  2
C:\Program Files\AutoCAD 2002\plotters\DWF ePlot (optimized for plotting).pc3
  4

  6

 40
0.0
 41
0.0
 42
0.0
 43
0.0
 44
0.0
 45
0.0
 46
0.0
 47
0.0
 48
0.0
 49
0.0
140
0.0
141
0.0
142
1.0
143
1.0
 70
688
 72
0
 73
0
 74
5
  7

 75
16
147
1.0
148
0.0
149
0.0
100
AcDbLayout
  1
Layout1
 70
1
 71
1
 10
0.0
 20
0.0
 11
420.0
 21
297.0
 12
0.0
 22
0.0
 32
0.0
 14
100000000000000000000.0
 24
100000000000000000000.0
 34
100000000000000000000.0
 15
-100000000000000000000.0
 25
-100000000000000000000.0
 35
-100000000000000000000.0
146
0.0
 13
0.0
 23
0.0
 33
0.0
 16
1.0
 26
0.0
 36
0.0
 17
0.0
 27
1.0
 37
0.0
 76
0
330
1B
  0
LAYOUT
  5
22
100
AcDbPlotSettings
  1

  2
C:\Program Files\AutoCAD 2002\plotters\DWF ePlot (optimized for plotting).pc3
  4

  6

 40
0.0
 41
0.0
 42
0.0
 43
0.0
 44
0.0
 45
0.0
 46
0.0
 47
0.0
 48
0.0
 49
0.0
140
0.0
141
0.0
142
1.0
143
1.0
 70
1712
 72
0
 73
0
 74
0
  7

 75
0
147
1.0
148
0.0
149
0.0
100
AcDbLayout
  1
Model
 70
1
 71
0
 10
0.0
 20
0.0
 11
12.0
 21
9.0
 12
0.0
 22
0.0
 32
0.0
 14
0.0
 24
0.0
 34
0.0
 15
0.0
 25
0.0
 35
0.0
146
0.0
 13
0.0
 23
0.0
 33
0.0
 16
1.0
 26
0.0
 36
0.0
 17
0.0
 27
1.0
 37
0.0
 76
0
330
1F
  0
LAYOUT
  5
26
100
AcDbPlotSettings
  1

  2
C:\Program Files\AutoCAD 2002\plotters\DWF ePlot (optimized for plotting).pc3
  4

  6

 40
0.0
 41
0.0
 42
0.0
 43
0.0
 44
0.0
 45
0.0
 46
0.0
 47
0.0
 48
0.0
 49
0.0
140
0.0
141
0.0
142
1.0
143
1.0
 70
688
 72
0
 73
0
 74
5
  7

 75
16
147
1.0
148
0.0
149
0.0
100
AcDbLayout
  1
Layout2
 70
1
 71
2
 10
0.0
 20
0.0
 11
12.0
 21
9.0
 12
0.0
 22
0.0
 32
0.0
 14
0.0
 24
0.0
 34
0.0
 15
0.0
 25
0.0
 35
0.0
146
0.0
 13
0.0
 23
0.0
 33
0.0
 16
1.0
 26
0.0
 36
0.0
 17
0.0
 27
1.0
 37
0.0
 76
0
330
23
  0
DICTIONARY
  5
161
100
AcDbDictionary
281
1
  3
DIMASSOC
350
164
  3
HIDETEXT
350
163
  0
DICTIONARYVAR
  5
163
100
DictionaryVariables
280
0
  1
2
  0
DICTIONARYVAR
  5
164
100
DictionaryVariables
280
0
  1
1
  0
DICTIONARY
  5
162
100
AcDbDictionary
281
1
  3
Grid/DisplayGrid00
350
165
  3
Grid/DisplayGrid01
350
166
  3
Grid/DisplayGrid02
350
167
  3
Grid/DisplayGrid03
350
168
  3
Grid/GridSpacingX00
350
169
  3
Grid/GridSpacingX01
350
16A
  3
Grid/GridSpacingX02
350
16B
  3
Grid/GridSpacingX03
350
16C
  3
Grid/GridSpacingY00
350
16D
  3
Grid/GridSpacingY01
350
16E
  3
Grid/GridSpacingY02
350
16F
  3
Grid/GridSpacingY03
350
170
  3
Grid/IsometricGrid00
350
171
  3
Grid/IsometricGrid01
350
172
  3
Grid/IsometricGrid02
350
173
  3
Grid/IsometricGrid03
350
174
  3
Grid/IsometricProjection00
350
175
  3
Grid/IsometricProjection01
350
176
  3
Grid/IsometricProjection02
350
177
  3
Grid/IsometricProjection03
350
178
  3
Grid/MetaGridSpacingX00
350
179
  3
Grid/MetaGridSpacingX01
350
17A
  3
Grid/MetaGridSpacingX02
350
17B
  3
Grid/MetaGridSpacingX03
350
17C
  3
Grid/MetaGridSpacingY00
350
17D
  3
Grid/MetaGridSpacingY01
350
17E
  3
Grid/MetaGridSpacingY02
350
17F
  3
Grid/MetaGridSpacingY03
350
180
  3
MultiPageSettings/Columns
350
181
  3
MultiPageSettings/GlueMarginsBottom
350
182
  3
MultiPageSettings/GlueMarginsLeft
350
183
  3
MultiPageSettings/GlueMarginsRight
350
184
  3
MultiPageSettings/GlueMarginsTop
350
185
  3
MultiPageSettings/PrintCropMarks
350
186
  3
MultiPageSettings/Rows
350
187
  3
PageSettings/OffsetX
350
188
  3
PageSettings/OffsetY
350
189
  3
PageSettings/PageOrientation
350
18A
  3
PageSettings/PaperHeight
350
18B
  3
PageSettings/PaperWidth
350
18C
  3
PageSettings/Scale
350
18D
  3
PageSettings/ShowPaperBorders
350
18E
  3
UnitSettings/PaperUnit
350
18F
  0
XRECORD
  5
165
330
162
100
AcDbXrecord
280
1
290
1
  0
XRECORD
  5
166
330
162
100
AcDbXrecord
280
1
290
1
  0
XRECORD
  5
167
330
162
100
AcDbXrecord
280
1
290
1
  0
XRECORD
  5
168
330
162
100
AcDbXrecord
280
1
290
1
  0
XRECORD
  5
169
330
162
100
AcDbXrecord
280
1
1000
auto
  0
XRECORD
  5
16A
330
162
100
AcDbXrecord
280
1
1000
auto
  0
XRECORD
  5
16B
330
162
100
AcDbXrecord
280
1
1000
auto
  0
XRECORD
  5
16C
330
162
100
AcDbXrecord
280
1
1000
auto
  0
XRECORD
  5
16D
330
162
100
AcDbXrecord
280
1
1000
auto
  0
XRECORD
  5
16E
330
162
100
AcDbXrecord
280
1
1000
auto
  0
XRECORD
  5
16F
330
162
100
AcDbXrecord
280
1
1000
auto
  0
XRECORD
  5
170
330
162
100
AcDbXrecord
280
1
1000
auto
  0
XRECORD
  5
171
330
162
100
AcDbXrecord
280
1
290
0
  0
XRECORD
  5
172
330
162
100
AcDbXrecord
280
1
290
0
  0
XRECORD
  5
173
330
162
100
AcDbXrecord
280
1
290
0
  0
XRECORD
  5
174
330
162
100
AcDbXrecord
280
1
290
0
  0
XRECORD
  5
175
330
162
100
AcDbXrecord
280
1
 90
0
  0
XRECORD
  5
176
330
162
100
AcDbXrecord
280
1
 90
0
  0
XRECORD
  5
177
330
162
100
AcDbXrecord
280
1
 90
0
  0
XRECORD
  5
178
330
162
100
AcDbXrecord
280
1
 90
0
  0
XRECORD
  5
179
330
162
100
AcDbXrecord
280
1
1000
auto
  0
XRECORD
  5
17A
330
162
100
AcDbXrecord
280
1
1000
auto
  0
XRECORD
  5
17B
330
162
100
AcDbXrecord
280
1
1000
auto
  0
XRECORD
  5
17C
330
162
100
AcDbXrecord
280
1
1000
auto
  0
XRECORD
  5
17D
330
162
100
AcDbXrecord
280
1
1000
auto
  0
XRECORD
  5
17E
330
162
100
AcDbXrecord
280
1
1000
auto
  0
XRECORD
  5
17F
330
162
100
AcDbXrecord
280
1
1000
auto
  0
XRECORD
  5
180
330
162
100
AcDbXrecord
280
1
1000
auto
  0
XRECORD
  5
181
330
162
100
AcDbXrecord
280
1
 90
1
  0
XRECORD
  5
182
330
162
100
AcDbXrecord
280
1
 40
10.0
  0
XRECORD
  5
183
330
162
100
AcDbXrecord
280
1
 40
10.0
  0
XRECORD
  5
184
330
162
100
AcDbXrecord
280
1
 40
10.0
  0
XRECORD
  5
185
330
162
100
AcDbXrecord
280
1
 40
10.0
  0
XRECORD
  5
186
330
162
100
AcDbXrecord
280
1
290
0
  0
XRECORD
  5
187
330
162
100
AcDbXrecord
280
1
 90
1
  0
XRECORD
  5
188
330
162
100
AcDbXrecord
280
1
 40
0.0
  0
XRECORD
  5
189
330
162
100
AcDbXrecord
280
1
 40
0.0
  0
XRECORD
  5
18A
330
162
100
AcDbXrecord
280
1
1000
Portrait
  0
XRECORD
  5
18B
330
162
100
AcDbXrecord
280
1
 40
297.0
  0
XRECORD
  5
18C
330
162
100
AcDbXrecord
280
1
 40
210.0
  0
XRECORD
  5
18D
330
162
100
AcDbXrecord
280
1
1000
1:1
  0
XRECORD
  5
18E
330
162
100
AcDbXrecord
280
1
290
1
  0
XRECORD
  5
18F
330
162
100
AcDbXrecord
280
1
 90
4
  0
ENDSEC
  0
EOF
