999
dxflib 3.2.3.0
  0
SECTION
  2
HEADER
  9
$ACADVER
  1
AC1015
  9
$HANDSEED
  5
FFFF
  9
$DIMADEC
 70
0
  9
$DIMASZ
 40
0.18
  9
$DIMAUNIT
 70
0
  9
$DIMAZIN
 70
0
  9
$DIMDEC
 70
4
  9
$DIMEXE
 40
0.18
  9
$DIMEXO
 40
0.0625
  9
$DIMGAP
 40
0.09
  9
$DIMLUNIT
 70
2
  9
$DIMTSZ
 40
0.0
  9
$DIMTXT
 40
0.18
  9
$DIMZIN
 70
0
  9
$EXTMAX
 10
1000.0
 20
1000.0
 30
0.0
  9
$EXTMIN
 10
0.0
 20
0.0
 30
0.0
  9
$FILLMODE
 70
0
  9
$INSUNITS
 70
0
  9
$LTSCALE
 40
1.0
  9
$SPLFRAME
 70
1
  0
ENDSEC
  0
SECTION
  2
TABLES
  0
TABLE
  2
VPORT
  5
8
100
AcDbSymbolTable
 70
1
  0
VPORT
  5
30
100
AcDbSymbolTableRecord
100
AcDbViewportTableRecord
  2
*Active
 70
0
 10
0.0
 20
0.0
 11
1.0
 21
1.0
 12
286.30555555555549
 22
148.5
 13
0.0
 23
0.0
 14
10.0
 24
10.0
 15
10.0
 25
10.0
 16
0.0
 26
0.0
 36
1.0
 17
0.0
 27
0.0
 37
0.0
 40
297.0
 41
1.92798353909465
 42
50.0
 43
0.0
 44
0.0
 50
0.0
 51
0.0
 71
0
 72
100
 73
1
 74
3
 75
1
 76
1
 77
0
 78
0
281
0
 65
1
110
0.0
120
0.0
130
0.0
111
1.0
121
0.0
131
0.0
112
0.0
122
1.0
132
0.0
 79
0
146
0.0
  0
ENDTAB
  0
TABLE
  2
LTYPE
  5
5
100
AcDbSymbolTable
 70
21
  0
LTYPE
  5
31
100
AcDbSymbolTableRecord
100
AcDbLinetypeTableRecord
  2
CENTER2
 70
0
  3
Center (.5x) ___ _ ___ _ ___ _ ___ _ ___ _ ___
 72
65
 73
4
 40
28.574999999999999
 49
19.050000000000001
 74
0
 49
-3.1749999999999998
 74
0
 49
3.1749999999999998
 74
0
 49
-3.1749999999999998
 74
0
  0
LTYPE
  5
32
100
AcDbSymbolTableRecord
100
AcDbLinetypeTableRecord
  2
DIVIDEX2
 70
0
  3
Divide (2x) ________  .  .  ________  .  .  _
 72
65
 73
6
 40
63.5
 49
25.399999999999999
 74
0
 49
-12.699999999999999
 74
0
 49
0.0
 74
0
 49
-12.699999999999999
 74
0
 49
0.0
 74
0
 49
-12.699999999999999
 74
0
  0
LTYPE
  5
33
100
AcDbSymbolTableRecord
100
AcDbLinetypeTableRecord
  2
DOT2
 70
0
  3
Dot (.5x) .....................................
 72
65
 73
2
 40
3.1749999999999998
 49
0.0
 74
0
 49
-3.1749999999999998
 74
0
  0
LTYPE
  5
34
100
AcDbSymbolTableRecord
100
AcDbLinetypeTableRecord
  2
DASHDOT2
 70
0
  3
Dash dot (.5x) _._._._._._._._._._._._._._._.
 72
65
 73
4
 40
12.699999999999999
 49
6.3499999999999996
 74
0
 49
-3.1749999999999998
 74
0
 49
0.0
 74
0
 49
-3.1749999999999998
 74
0
  0
LTYPE
  5
35
100
AcDbSymbolTableRecord
100
AcDbLinetypeTableRecord
  2
DIVIDE
 70
0
  3
Divide ____ . . ____ . . ____ . . ____ . . ____
 72
65
 73
6
 40
31.75
 49
12.699999999999999
 74
0
 49
-6.3499999999999996
 74
0
 49
0.0
 74
0
 49
-6.3499999999999996
 74
0
 49
0.0
 74
0
 49
-6.3499999999999996
 74
0
  0
LTYPE
  5
36
100
AcDbSymbolTableRecord
100
AcDbLinetypeTableRecord
  2
DASHDOT
 70
0
  3
Dash dot __ . __ . __ . __ . __ . __ . __ . __
 72
65
 73
4
 40
25.399999999999999
 49
12.699999999999999
 74
0
 49
-6.3499999999999996
 74
0
 49
0.0
 74
0
 49
-6.3499999999999996
 74
0
  0
LTYPE
  5
37
100
AcDbSymbolTableRecord
100
AcDbLinetypeTableRecord
  2
BORDER
 70
0
  3
Border __ __ . __ __ . __ __ . __ __ . __ __ .
 72
65
 73
6
 40
44.450000000000003
 49
12.699999999999999
 74
0
 49
-6.3499999999999996
 74
0
 49
12.699999999999999
 74
0
 49
-6.3499999999999996
 74
0
 49
0.0
 74
0
 49
-6.3499999999999996
 74
0
  0
LTYPE
  5
38
100
AcDbSymbolTableRecord
100
AcDbLinetypeTableRecord
  2
DASHDOTX2
 70
0
  3
Dash dot (2x) ____  .  ____  .  ____  .  ___
 72
65
 73
4
 40
50.799999999999997
 49
25.399999999999999
 74
0
 49
-12.699999999999999
 74
0
 49
0.0
 74
0
 49
-12.699999999999999
 74
0
  0
LTYPE
  5
39
100
AcDbSymbolTableRecord
100
AcDbLinetypeTableRecord
  2
CENTERX2
 70
0
  3
Center (2x) ________  __  ________  __  _____
 72
65
 73
4
 40
101.59999999999999
 49
63.5
 74
0
 49
-12.699999999999999
 74
0
 49
12.699999999999999
 74
0
 49
-12.699999999999999
 74
0
  0
LTYPE
  5
3A
100
AcDbSymbolTableRecord
100
AcDbLinetypeTableRecord
  2
BORDER2
 70
0
  3
Border (.5x) __.__.__.__.__.__.__.__.__.__.__.
 72
65
 73
6
 40
22.225000000000001
 49
6.3499999999999996
 74
0
 49
-3.1749999999999998
 74
0
 49
6.3499999999999996
 74
0
 49
-3.1749999999999998
 74
0
 49
0.0
 74
0
 49
-3.1749999999999998
 74
0
  0
LTYPE
  5
3B
100
AcDbSymbolTableRecord
100
AcDbLinetypeTableRecord
  2
BORDERX2
 70
0
  3
Border (2x) ____  ____  .  ____  ____  .  ___
 72
65
 73
6
 40
88.900000000000006
 49
25.399999999999999
 74
0
 49
-12.699999999999999
 74
0
 49
25.399999999999999
 74
0
 49
-12.699999999999999
 74
0
 49
0.0
 74
0
 49
-12.699999999999999
 74
0
  0
LTYPE
  5
16
100
AcDbSymbolTableRecord
100
AcDbLinetypeTableRecord
  2
CONTINUOUS
 70
0
  3
Solid line
 72
65
 73
0
 40
0.0
  0
LTYPE
  5
14
100
AcDbSymbolTableRecord
100
AcDbLinetypeTableRecord
  2
BYBLOCK
 70
0
  3

 72
65
 73
0
 40
0.0
  0
LTYPE
  5
15
100
AcDbSymbolTableRecord
100
AcDbLinetypeTableRecord
  2
BYLAYER
 70
0
  3

 72
65
 73
0
 40
0.0
  0
LTYPE
  5
3C
100
AcDbSymbolTableRecord
100
AcDbLinetypeTableRecord
  2
DASHED2
 70
0
  3
Dashed (.5x) _ _ _ _ _ _ _ _ _ _ _ _ _ _ _ _ _
 72
65
 73
2
 40
9.5250000000000004
 49
6.3499999999999996
 74
0
 49
-3.1749999999999998
 74
0
  0
LTYPE
  5
3D
100
AcDbSymbolTableRecord
100
AcDbLinetypeTableRecord
  2
CENTER
 70
0
  3
Center ____ _ ____ _ ____ _ ____ _ ____ _ ____
 72
65
 73
4
 40
50.799999999999997
 49
31.75
 74
0
 49
-6.3499999999999996
 74
0
 49
6.3499999999999996
 74
0
 49
-6.3499999999999996
 74
0
  0
LTYPE
  5
3E
100
AcDbSymbolTableRecord
100
AcDbLinetypeTableRecord
  2
DIVIDE2
 70
0
  3
Divide (.5x) __..__..__..__..__..__..__..__.._
 72
65
 73
6
 40
15.875
 49
6.3499999999999996
 74
0
 49
-3.1749999999999998
 74
0
 49
0.0
 74
0
 49
-3.1749999999999998
 74
0
 49
0.0
 74
0
 49
-3.1749999999999998
 74
0
  0
LTYPE
  5
3F
100
AcDbSymbolTableRecord
100
AcDbLinetypeTableRecord
  2
DASHED
 70
0
  3
Dashed __ __ __ __ __ __ __ __ __ __ __ __ __ _
 72
65
 73
2
 40
19.050000000000001
 49
12.699999999999999
 74
0
 49
-6.3499999999999996
 74
0
  0
LTYPE
  5
40
100
AcDbSymbolTableRecord
100
AcDbLinetypeTableRecord
  2
DOTX2
 70
0
  3
Dot (2x) .  .  .  .  .  .  .  .  .  .  .  .  .
 72
65
 73
2
 40
12.699999999999999
 49
0.0
 74
0
 49
-12.699999999999999
 74
0
  0
LTYPE
  5
41
100
AcDbSymbolTableRecord
100
AcDbLinetypeTableRecord
  2
DASHEDX2
 70
0
  3
Dashed (2x) ____  ____  ____  ____  ____  ___
 72
65
 73
2
 40
38.100000000000001
 49
25.399999999999999
 74
0
 49
-12.699999999999999
 74
0
  0
LTYPE
  5
42
100
AcDbSymbolTableRecord
100
AcDbLinetypeTableRecord
  2
DOT
 70
0
  3
Dot . . . . . . . . . . . . . . . . . . . . . .
 72
65
 73
2
 40
6.3499999999999996
 49
0.0
 74
0
 49
-6.3499999999999996
 74
0
  0
ENDTAB
  0
TABLE
  2
LAYER
  5
2
100
AcDbSymbolTable
 70
1
  0
LAYER
  5
10
100
AcDbSymbolTableRecord
100
AcDbLayerTableRecord
  2
0
 70
0
 62
7
420
16777215
  6
CONTINUOUS
390
F
  0
ENDTAB
  0
TABLE
  2
STYLE
  5
3
100
AcDbSymbolTable
 70
0
  0
ENDTAB
  0
TABLE
  2
VIEW
  5
6
100
AcDbSymbolTable
 70
0
  0
ENDTAB
  0
TABLE
  2
UCS
  5
7
100
AcDbSymbolTable
 70
0
  0
ENDTAB
  0
TABLE
  2
APPID
  5
9
100
AcDbSymbolTable
 70
1
  0
APPID
  5
43
100
AcDbSymbolTableRecord
100
AcDbRegAppTableRecord
  2
QCAD
 70
0
  0
ENDTAB
  0
TABLE
  2
DIMSTYLE
  5
A
100
AcDbSymbolTable
 70
1
100
AcDbDimStyleTable
 71
0
  0
DIMSTYLE
105
27
100
AcDbSymbolTableRecord
100
AcDbDimStyleTableRecord
  2
Standard
 41
0.18
 42
0.0625
 43
3.75
 44
0.18
 70
0
 73
0
 74
0
 77
1
 78
8
140
0.18
141
2.5
143
0.03937007874016
147
0.09
171
3
172
1
271
2
272
2
274
3
278
44
283
0
284
8
340
11
  0
ENDTAB
  0
TABLE
  2
BLOCK_RECORD
  5
1
100
AcDbSymbolTable
 70
1
  0
BLOCK_RECORD
  5
1F
100
AcDbSymbolTableRecord
100
AcDbBlockTableRecord
  2
*Model_Space
340
22
  0
BLOCK_RECORD
  5
1B
100
AcDbSymbolTableRecord
100
AcDbBlockTableRecord
  2
*Paper_Space
340
1E
  0
BLOCK_RECORD
  5
23
100
AcDbSymbolTableRecord
100
AcDbBlockTableRecord
  2
*Paper_Space0
340
26
  0
BLOCK_RECORD
  5
44
100
AcDbSymbolTableRecord
100
AcDbBlockTableRecord
  2
*Model_Space
340
0
  0
ENDTAB
  0
ENDSEC
  0
SECTION
  2
BLOCKS
  0
BLOCK
  5
20
100
AcDbEntity
  8
0
100
AcDbBlockBegin
  2
*Model_Space
 70
0
 10
0.0
 20
0.0
 30
0.0
  3
*Model_Space
  1

  0
ENDSEC
  0
SECTION
  2
ENTITIES
  0
LINE
  5
45
100
AcDbEntity
100
AcDbLine
  8
0
 62
0
370
-1
  6
BYLAYER
 10
1.9999999999999716
 20
134.30096409999999
 30
0.0
 11
1.8440000000000225
 21
134.29496409999999
 31
0.0
  0
LINE
  5
46
100
AcDbEntity
100
AcDbLine
  8
0
 62
0
370
-1
  6
BYLAYER
 10
1.8440000000000225
 20
134.29496409999999
 30
0.0
 11
1.688000000000045
 21
134.27696409999999
 31
0.0
  0
LINE
  5
47
100
AcDbEntity
100
AcDbLine
  8
0
 62
0
370
-1
  6
BYLAYER
 10
1.688000000000045
 20
134.27696409999999
 30
0.0
 11
1.5340000000000487
 21
134.24596409999998
 31
0.0
  0
LINE
  5
48
100
AcDbEntity
100
AcDbLine
  8
0
 62
0
370
-1
  6
BYLAYER
 10
1.5340000000000487
 20
134.24596409999998
 30
0.0
 11
1.3820000000000618
 21
134.20396409999998
 31
0.0
  0
LINE
  5
49
100
AcDbEntity
100
AcDbLine
  8
0
 62
0
370
-1
  6
BYLAYER
 10
1.3820000000000618
 20
134.20396409999998
 30
0.0
 11
1.2350000000000136
 21
134.1489641
 31
0.0
  0
LINE
  5
4A
100
AcDbEntity
100
AcDbLine
  8
0
 62
0
370
-1
  6
BYLAYER
 10
1.2350000000000136
 20
134.1489641
 30
0.0
 11
1.0930000000000177
 21
134.08496409999998
 31
0.0
  0
LINE
  5
4B
100
AcDbEntity
100
AcDbLine
  8
0
 62
0
370
-1
  6
BYLAYER
 10
1.0930000000000177
 20
134.08496409999998
 30
0.0
 11
0.9560000000000457
 21
134.0069641
 31
0.0
  0
LINE
  5
4C
100
AcDbEntity
100
AcDbLine
  8
0
 62
0
370
-1
  6
BYLAYER
 10
0.9560000000000457
 20
134.0069641
 30
0.0
 11
0.8260000000000218
 21
133.91996409999999
 31
0.0
  0
LINE
  5
4D
100
AcDbEntity
100
AcDbLine
  8
0
 62
0
370
-1
  6
BYLAYER
 10
0.8260000000000218
 20
133.91996409999999
 30
0.0
 11
0.7030000000000314
 21
133.82296410000001
 31
0.0
  0
LINE
  5
4E
100
AcDbEntity
100
AcDbLine
  8
0
 62
0
370
-1
  6
BYLAYER
 10
0.7030000000000314
 20
133.82296410000001
 30
0.0
 11
0.5860000000000127
 21
133.71696409999998
 31
0.0
  0
LINE
  5
4F
100
AcDbEntity
100
AcDbLine
  8
0
 62
0
370
-1
  6
BYLAYER
 10
0.5860000000000127
 20
133.71696409999998
 30
0.0
 11
0.4800000000000466
 21
133.6009641
 31
0.0
  0
LINE
  5
50
100
AcDbEntity
100
AcDbLine
  8
0
 62
0
370
-1
  6
BYLAYER
 10
0.4800000000000466
 20
133.6009641
 30
0.0
 11
0.382000000000005
 21
133.4769641
 31
0.0
  0
LINE
  5
51
100
AcDbEntity
100
AcDbLine
  8
0
 62
0
370
-1
  6
BYLAYER
 10
0.382000000000005
 20
133.4769641
 30
0.0
 11
0.2950000000000443
 21
133.34596409999997
 31
0.0
  0
LINE
  5
52
100
AcDbEntity
100
AcDbLine
  8
0
 62
0
370
-1
  6
BYLAYER
 10
0.2950000000000443
 20
133.34596409999997
 30
0.0
 11
0.2180000000000746
 21
133.20996409999998
 31
0.0
  0
LINE
  5
53
100
AcDbEntity
100
AcDbLine
  8
0
 62
0
370
-1
  6
BYLAYER
 10
0.2180000000000746
 20
133.20996409999998
 30
0.0
 11
0.15300000000002
 21
133.06696409999998
 31
0.0
  0
LINE
  5
54
100
AcDbEntity
100
AcDbLine
  8
0
 62
0
370
-1
  6
BYLAYER
 10
0.15300000000002
 20
133.06696409999998
 30
0.0
 11
0.09800000000007
 21
132.91996409999999
 31
0.0
  0
LINE
  5
55
100
AcDbEntity
100
AcDbLine
  8
0
 62
0
370
-1
  6
BYLAYER
 10
0.09800000000007
 20
132.91996409999999
 30
0.0
 11
0.0560000000000969
 21
132.76896410000001
 31
0.0
  0
LINE
  5
56
100
AcDbEntity
100
AcDbLine
  8
0
 62
0
370
-1
  6
BYLAYER
 10
0.0560000000000969
 20
132.76896410000001
 30
0.0
 11
0.0250000000000341
 21
132.6139641
 31
0.0
  0
LINE
  5
57
100
AcDbEntity
100
AcDbLine
  8
0
 62
0
370
-1
  6
BYLAYER
 10
0.0250000000000341
 20
132.6139641
 30
0.0
 11
0.007000000000005
 21
132.4589641
 31
0.0
  0
LINE
  5
58
100
AcDbEntity
100
AcDbLine
  8
0
 62
0
370
-1
  6
BYLAYER
 10
0.007000000000005
 20
132.4589641
 30
0.0
 11
0.0
 21
132.30096409999996
 31
0.0
  0
LINE
  5
59
100
AcDbEntity
100
AcDbLine
  8
0
 62
0
370
-1
  6
BYLAYER
 10
0.0
 20
132.30096409999996
 30
0.0
 11
0.0000000000000568
 21
1.9995340999999911
 31
0.0
  0
LINE
  5
5A
100
AcDbEntity
100
AcDbLine
  8
0
 62
0
370
-1
  6
BYLAYER
 10
0.0000000000000568
 20
1.9995340999999911
 30
0.0
 11
0.0070000000000618
 21
1.8438140999999959
 31
0.0
  0
LINE
  5
5B
100
AcDbEntity
100
AcDbLine
  8
0
 62
0
370
-1
  6
BYLAYER
 10
0.0070000000000618
 20
1.8438140999999959
 30
0.0
 11
0.0250000000000057
 21
1.6880940999999865
 31
0.0
  0
LINE
  5
5C
100
AcDbEntity
100
AcDbLine
  8
0
 62
0
370
-1
  6
BYLAYER
 10
0.0250000000000057
 20
1.6880940999999865
 30
0.0
 11
0.0559999999999832
 21
1.5337540999999888
 31
0.0
  0
LINE
  5
5D
100
AcDbEntity
100
AcDbLine
  8
0
 62
0
370
-1
  6
BYLAYER
 10
0.0559999999999832
 20
1.5337540999999888
 30
0.0
 11
0.09800000000007
 21
1.3821741000000003
 31
0.0
  0
LINE
  5
5E
100
AcDbEntity
100
AcDbLine
  8
0
 62
0
370
-1
  6
BYLAYER
 10
0.09800000000007
 20
1.3821741000000003
 30
0.0
 11
0.15300000000002
 21
1.2347241000000011
 31
0.0
  0
LINE
  5
5F
100
AcDbEntity
100
AcDbLine
  8
0
 62
0
370
-1
  6
BYLAYER
 10
0.15300000000002
 20
1.2347241000000011
 30
0.0
 11
0.2180000000000746
 21
1.0927840999999887
 31
0.0
  0
LINE
  5
60
100
AcDbEntity
100
AcDbLine
  8
0
 62
0
370
-1
  6
BYLAYER
 10
0.2180000000000746
 20
1.0927840999999887
 30
0.0
 11
0.2950000000000159
 21
0.9563540999999916
 31
0.0
  0
LINE
  5
61
100
AcDbEntity
100
AcDbLine
  8
0
 62
0
370
-1
  6
BYLAYER
 10
0.2950000000000159
 20
0.9563540999999916
 30
0.0
 11
0.3820000000000334
 21
0.8254471000000052
 31
0.0
  0
LINE
  5
62
100
AcDbEntity
100
AcDbLine
  8
0
 62
0
370
-1
  6
BYLAYER
 10
0.3820000000000334
 20
0.8254471000000052
 30
0.0
 11
0.4800000000000466
 21
0.7028000999999904
 31
0.0
  0
LINE
  5
63
100
AcDbEntity
100
AcDbLine
  8
0
 62
0
370
-1
  6
BYLAYER
 10
0.4800000000000466
 20
0.7028000999999904
 30
0.0
 11
0.5860000000000412
 21
0.585667100000002
 31
0.0
  0
LINE
  5
64
100
AcDbEntity
100
AcDbLine
  8
0
 62
0
370
-1
  6
BYLAYER
 10
0.5860000000000412
 20
0.585667100000002
 30
0.0
 11
0.7030000000000882
 21
0.4795590999999888
 31
0.0
  0
LINE
  5
65
100
AcDbEntity
100
AcDbLine
  8
0
 62
0
370
-1
  6
BYLAYER
 10
0.7030000000000882
 20
0.4795590999999888
 30
0.0
 11
0.8260000000000787
 21
0.3817160999999985
 31
0.0
  0
LINE
  5
66
100
AcDbEntity
100
AcDbLine
  8
0
 62
0
370
-1
  6
BYLAYER
 10
0.8260000000000787
 20
0.3817160999999985
 30
0.0
 11
0.9560000000001026
 21
0.294901099999997
 31
0.0
  0
LINE
  5
67
100
AcDbEntity
100
AcDbLine
  8
0
 62
0
370
-1
  6
BYLAYER
 10
0.9560000000001026
 20
0.294901099999997
 30
0.0
 11
1.0930000000000462
 21
0.2177300999999901
 31
0.0
  0
LINE
  5
68
100
AcDbEntity
100
AcDbLine
  8
0
 62
0
370
-1
  6
BYLAYER
 10
1.0930000000000462
 20
0.2177300999999901
 30
0.0
 11
1.2350000000000989
 21
0.1529620999999892
 31
0.0
  0
LINE
  5
69
100
AcDbEntity
100
AcDbLine
  8
0
 62
0
370
-1
  6
BYLAYER
 10
1.2350000000000989
 20
0.1529620999999892
 30
0.0
 11
1.382000000000005
 21
0.0978410999999895
 31
0.0
  0
LINE
  5
6A
100
AcDbEntity
100
AcDbLine
  8
0
 62
0
370
-1
  6
BYLAYER
 10
1.382000000000005
 20
0.0978410999999895
 30
0.0
 11
1.533999999999935
 21
0.0565000999999938
 31
0.0
  0
LINE
  5
6B
100
AcDbEntity
100
AcDbLine
  8
0
 62
0
370
-1
  6
BYLAYER
 10
1.533999999999935
 20
0.0565000999999938
 30
0.0
 11
1.688000000000045
 21
0.0248048999999924
 31
0.0
  0
LINE
  5
6C
100
AcDbEntity
100
AcDbLine
  8
0
 62
0
370
-1
  6
BYLAYER
 10
1.688000000000045
 20
0.0248048999999924
 30
0.0
 11
1.8439999999999941
 21
0.0068905000000044
 31
0.0
  0
LINE
  5
6D
100
AcDbEntity
100
AcDbLine
  8
0
 62
0
370
-1
  6
BYLAYER
 10
1.8439999999999941
 20
0.0068905000000044
 30
0.0
 11
2.0
 21
0.0
 31
0.0
  0
LINE
  5
6E
100
AcDbEntity
100
AcDbLine
  8
0
 62
0
370
-1
  6
BYLAYER
 10
2.0
 20
0.0
 30
0.0
 11
160.87638000000004
 21
-0.0000000000000213
 31
0.0
  0
LINE
  5
6F
100
AcDbEntity
100
AcDbLine
  8
0
 62
0
370
-1
  6
BYLAYER
 10
160.87638000000004
 20
-0.0000000000000213
 30
0.0
 11
161.03348
 21
0.0068905000000541
 31
0.0
  0
LINE
  5
70
100
AcDbEntity
100
AcDbLine
  8
0
 62
0
370
-1
  6
BYLAYER
 10
161.03348
 20
0.0068905000000541
 30
0.0
 11
161.18920000000003
 21
0.0248048999999853
 31
0.0
  0
LINE
  5
71
100
AcDbEntity
100
AcDbLine
  8
0
 62
0
370
-1
  6
BYLAYER
 10
161.18920000000003
 20
0.0248048999999853
 30
0.0
 11
161.34353999999996
 21
0.0565000999999867
 31
0.0
  0
LINE
  5
72
100
AcDbEntity
100
AcDbLine
  8
0
 62
0
370
-1
  6
BYLAYER
 10
161.34353999999996
 20
0.0565000999999867
 30
0.0
 11
161.49512000000004
 21
0.0978410999999824
 31
0.0
  0
LINE
  5
73
100
AcDbEntity
100
AcDbLine
  8
0
 62
0
370
-1
  6
BYLAYER
 10
161.49512000000004
 20
0.0978410999999824
 30
0.0
 11
161.64257000000009
 21
0.1529621000000816
 31
0.0
  0
LINE
  5
74
100
AcDbEntity
100
AcDbLine
  8
0
 62
0
370
-1
  6
BYLAYER
 10
161.64257000000009
 20
0.1529621000000816
 30
0.0
 11
161.78451000000007
 21
0.2177301000000966
 31
0.0
  0
LINE
  5
75
100
AcDbEntity
100
AcDbLine
  8
0
 62
0
370
-1
  6
BYLAYER
 10
161.78451000000007
 20
0.2177301000000966
 30
0.0
 11
161.92094000000003
 21
0.2949011000000184
 31
0.0
  0
LINE
  5
76
100
AcDbEntity
100
AcDbLine
  8
0
 62
0
370
-1
  6
BYLAYER
 10
161.92094000000003
 20
0.2949011000000184
 30
0.0
 11
162.05184800000001
 21
0.3817160999999629
 31
0.0
  0
LINE
  5
77
100
AcDbEntity
100
AcDbLine
  8
0
 62
0
370
-1
  6
BYLAYER
 10
162.05184800000001
 20
0.3817160999999629
 30
0.0
 11
162.17587100000003
 21
0.4795591000000101
 31
0.0
  0
LINE
  5
78
100
AcDbEntity
100
AcDbLine
  8
0
 62
0
370
-1
  6
BYLAYER
 10
162.17587100000003
 20
0.4795591000000101
 30
0.0
 11
162.29162800000006
 21
0.5856671000001512
 31
0.0
  0
LINE
  5
79
100
AcDbEntity
100
AcDbLine
  8
0
 62
0
370
-1
  6
BYLAYER
 10
162.29162800000006
 20
0.5856671000001512
 30
0.0
 11
162.39773600000012
 21
0.7028001000000828
 31
0.0
  0
LINE
  5
7A
100
AcDbEntity
100
AcDbLine
  8
0
 62
0
370
-1
  6
BYLAYER
 10
162.39773600000012
 20
0.7028001000000828
 30
0.0
 11
162.49557600000003
 21
0.8254470999999555
 31
0.0
  0
LINE
  5
7B
100
AcDbEntity
100
AcDbLine
  8
0
 62
0
370
-1
  6
BYLAYER
 10
162.49557600000003
 20
0.8254470999999555
 30
0.0
 11
162.58239400000002
 21
0.9563541000000271
 31
0.0
  0
LINE
  5
7C
100
AcDbEntity
100
AcDbLine
  8
0
 62
0
370
-1
  6
BYLAYER
 10
162.58239400000002
 20
0.9563541000000271
 30
0.0
 11
162.65956299999999
 21
1.092784099999939
 31
0.0
  0
LINE
  5
7D
100
AcDbEntity
100
AcDbLine
  8
0
 62
0
370
-1
  6
BYLAYER
 10
162.65956299999999
 20
1.092784099999939
 30
0.0
 11
162.72433100000012
 21
1.2347241000000508
 31
0.0
  0
LINE
  5
7E
100
AcDbEntity
100
AcDbLine
  8
0
 62
0
370
-1
  6
BYLAYER
 10
162.72433100000012
 20
1.2347241000000508
 30
0.0
 11
162.77945299999999
 21
1.3821741000000642
 31
0.0
  0
LINE
  5
7F
100
AcDbEntity
100
AcDbLine
  8
0
 62
0
370
-1
  6
BYLAYER
 10
162.77945299999999
 20
1.3821741000000642
 30
0.0
 11
162.82079400000003
 21
1.5337541000000741
 31
0.0
  0
LINE
  5
80
100
AcDbEntity
100
AcDbLine
  8
0
 62
0
370
-1
  6
BYLAYER
 10
162.82079400000003
 20
1.5337541000000741
 30
0.0
 11
162.85248899999999
 21
1.6880940999999083
 31
0.0
  0
LINE
  5
81
100
AcDbEntity
100
AcDbLine
  8
0
 62
0
370
-1
  6
BYLAYER
 10
162.85248899999999
 20
1.6880940999999083
 30
0.0
 11
162.87040300000001
 21
1.8438141000000599
 31
0.0
  0
LINE
  5
82
100
AcDbEntity
100
AcDbLine
  8
0
 62
0
370
-1
  6
BYLAYER
 10
162.87040300000001
 20
1.8438141000000599
 30
0.0
 11
162.87729339999999
 21
2.0009140999999389
 31
0.0
  0
LINE
  5
83
100
AcDbEntity
100
AcDbLine
  8
0
 62
0
370
-1
  6
BYLAYER
 10
162.87729339999999
 20
2.0009140999999389
 30
0.0
 11
162.8759154
 21
132.30096410000002
 31
0.0
  0
LINE
  5
84
100
AcDbEntity
100
AcDbLine
  8
0
 62
0
370
-1
  6
BYLAYER
 10
162.8759154
 20
132.30096410000002
 30
0.0
 11
162.87040300000007
 21
132.4589641
 31
0.0
  0
LINE
  5
85
100
AcDbEntity
100
AcDbLine
  8
0
 62
0
370
-1
  6
BYLAYER
 10
162.87040300000007
 20
132.4589641
 30
0.0
 11
162.85248899999999
 21
132.61396409999992
 31
0.0
  0
LINE
  5
86
100
AcDbEntity
100
AcDbLine
  8
0
 62
0
370
-1
  6
BYLAYER
 10
162.85248899999999
 20
132.61396409999992
 30
0.0
 11
162.82079400000003
 21
132.76896410000001
 31
0.0
  0
LINE
  5
87
100
AcDbEntity
100
AcDbLine
  8
0
 62
0
370
-1
  6
BYLAYER
 10
162.82079400000003
 20
132.76896410000001
 30
0.0
 11
162.77945299999999
 21
132.91996409999999
 31
0.0
  0
LINE
  5
88
100
AcDbEntity
100
AcDbLine
  8
0
 62
0
370
-1
  6
BYLAYER
 10
162.77945299999999
 20
132.91996409999999
 30
0.0
 11
162.72433100000012
 21
133.06696409999998
 31
0.0
  0
LINE
  5
89
100
AcDbEntity
100
AcDbLine
  8
0
 62
0
370
-1
  6
BYLAYER
 10
162.72433100000012
 20
133.06696409999998
 30
0.0
 11
162.65956300000005
 21
133.20996409999995
 31
0.0
  0
LINE
  5
8A
100
AcDbEntity
100
AcDbLine
  8
0
 62
0
370
-1
  6
BYLAYER
 10
162.65956300000005
 20
133.20996409999995
 30
0.0
 11
162.58239400000002
 21
133.34596409999997
 31
0.0
  0
LINE
  5
8B
100
AcDbEntity
100
AcDbLine
  8
0
 62
0
370
-1
  6
BYLAYER
 10
162.58239400000002
 20
133.34596409999997
 30
0.0
 11
162.49557600000003
 21
133.47696409999995
 31
0.0
  0
LINE
  5
8C
100
AcDbEntity
100
AcDbLine
  8
0
 62
0
370
-1
  6
BYLAYER
 10
162.49557600000003
 20
133.47696409999995
 30
0.0
 11
162.39773600000001
 21
133.60096409999991
 31
0.0
  0
LINE
  5
8D
100
AcDbEntity
100
AcDbLine
  8
0
 62
0
370
-1
  6
BYLAYER
 10
162.39773600000001
 20
133.60096409999991
 30
0.0
 11
162.29162800000006
 21
133.7169640999999
 31
0.0
  0
LINE
  5
8E
100
AcDbEntity
100
AcDbLine
  8
0
 62
0
370
-1
  6
BYLAYER
 10
162.29162800000006
 20
133.7169640999999
 30
0.0
 11
162.17587100000003
 21
133.82296409999998
 31
0.0
  0
LINE
  5
8F
100
AcDbEntity
100
AcDbLine
  8
0
 62
0
370
-1
  6
BYLAYER
 10
162.17587100000003
 20
133.82296409999998
 30
0.0
 11
162.05184800000006
 21
133.91996410000004
 31
0.0
  0
LINE
  5
90
100
AcDbEntity
100
AcDbLine
  8
0
 62
0
370
-1
  6
BYLAYER
 10
162.05184800000006
 20
133.91996410000004
 30
0.0
 11
161.92094000000003
 21
134.00696409999998
 31
0.0
  0
LINE
  5
91
100
AcDbEntity
100
AcDbLine
  8
0
 62
0
370
-1
  6
BYLAYER
 10
161.92094000000003
 20
134.00696409999998
 30
0.0
 11
161.78451000000001
 21
134.08496409999995
 31
0.0
  0
LINE
  5
92
100
AcDbEntity
100
AcDbLine
  8
0
 62
0
370
-1
  6
BYLAYER
 10
161.78451000000001
 20
134.08496409999995
 30
0.0
 11
161.64257000000003
 21
134.14896410000009
 31
0.0
  0
LINE
  5
93
100
AcDbEntity
100
AcDbLine
  8
0
 62
0
370
-1
  6
BYLAYER
 10
161.64257000000003
 20
134.14896410000009
 30
0.0
 11
161.49512000000004
 21
134.20396409999998
 31
0.0
  0
LINE
  5
94
100
AcDbEntity
100
AcDbLine
  8
0
 62
0
370
-1
  6
BYLAYER
 10
161.49512000000004
 20
134.20396409999998
 30
0.0
 11
161.34354000000002
 21
134.24596409999998
 31
0.0
  0
LINE
  5
95
100
AcDbEntity
100
AcDbLine
  8
0
 62
0
370
-1
  6
BYLAYER
 10
161.34354000000002
 20
134.24596409999998
 30
0.0
 11
161.18920000000003
 21
134.27696410000001
 31
0.0
  0
LINE
  5
96
100
AcDbEntity
100
AcDbLine
  8
0
 62
0
370
-1
  6
BYLAYER
 10
161.18920000000003
 20
134.27696410000001
 30
0.0
 11
161.03348000000005
 21
134.29496409999999
 31
0.0
  0
LINE
  5
97
100
AcDbEntity
100
AcDbLine
  8
0
 62
0
370
-1
  6
BYLAYER
 10
161.03348000000005
 20
134.29496409999999
 30
0.0
 11
160.87638000000004
 21
134.30196409999999
 31
0.0
  0
LINE
  5
98
100
AcDbEntity
100
AcDbLine
  8
0
 62
0
370
-1
  6
BYLAYER
 10
160.87638000000004
 20
134.30196409999999
 30
0.0
 11
1.9999999999999716
 21
134.30096409999999
 31
0.0
  0
LINE
  5
99
100
AcDbEntity
100
AcDbLine
  8
0
 62
0
370
-1
  6
BYLAYER
 10
3.9650000000000318
 20
4.9278741000000039
 30
0.0
 11
4.3820000000000334
 21
4.714264099999987
 31
0.0
  0
LINE
  5
9A
100
AcDbEntity
100
AcDbLine
  8
0
 62
0
370
-1
  6
BYLAYER
 10
4.3820000000000334
 20
4.714264099999987
 30
0.0
 11
4.7139999999999702
 21
4.3821640999999971
 31
0.0
  0
LINE
  5
9B
100
AcDbEntity
100
AcDbLine
  8
0
 62
0
370
-1
  6
BYLAYER
 10
4.7139999999999702
 20
4.3821640999999971
 30
0.0
 11
4.9280000000000541
 21
3.9646141000000128
 31
0.0
  0
LINE
  5
9C
100
AcDbEntity
100
AcDbLine
  8
0
 62
0
370
-1
  6
BYLAYER
 10
4.9280000000000541
 20
3.9646141000000128
 30
0.0
 11
5.0
 21
3.5002140999999938
 31
0.0
  0
LINE
  5
9D
100
AcDbEntity
100
AcDbLine
  8
0
 62
0
370
-1
  6
BYLAYER
 10
5.0
 20
3.5002140999999938
 30
0.0
 11
4.9279999999999973
 21
3.0371941000000007
 31
0.0
  0
LINE
  5
9E
100
AcDbEntity
100
AcDbLine
  8
0
 62
0
370
-1
  6
BYLAYER
 10
4.9279999999999973
 20
3.0371941000000007
 30
0.0
 11
4.7139999999999702
 21
2.6196540999999911
 31
0.0
  0
LINE
  5
9F
100
AcDbEntity
100
AcDbLine
  8
0
 62
0
370
-1
  6
BYLAYER
 10
4.7139999999999702
 20
2.6196540999999911
 30
0.0
 11
4.3820000000000618
 21
2.2875441000000052
 31
0.0
  0
LINE
  5
A0
100
AcDbEntity
100
AcDbLine
  8
0
 62
0
370
-1
  6
BYLAYER
 10
4.3820000000000618
 20
2.2875441000000052
 30
0.0
 11
3.9650000000000318
 21
2.0739440999999985
 31
0.0
  0
LINE
  5
A1
100
AcDbEntity
100
AcDbLine
  8
0
 62
0
370
-1
  6
BYLAYER
 10
3.9650000000000318
 20
2.0739440999999985
 30
0.0
 11
3.5000000000000568
 21
1.9995340999999911
 31
0.0
  0
LINE
  5
A2
100
AcDbEntity
100
AcDbLine
  8
0
 62
0
370
-1
  6
BYLAYER
 10
3.5000000000000568
 20
1.9995340999999911
 30
0.0
 11
3.0370000000000061
 21
2.0739440999999914
 31
0.0
  0
LINE
  5
A3
100
AcDbEntity
100
AcDbLine
  8
0
 62
0
370
-1
  6
BYLAYER
 10
3.0370000000000061
 20
2.0739440999999914
 30
0.0
 11
2.620000000000033
 21
2.2875440999999981
 31
0.0
  0
LINE
  5
A4
100
AcDbEntity
100
AcDbLine
  8
0
 62
0
370
-1
  6
BYLAYER
 10
2.620000000000033
 20
2.2875440999999981
 30
0.0
 11
2.2880000000000393
 21
2.6196540999999911
 31
0.0
  0
LINE
  5
A5
100
AcDbEntity
100
AcDbLine
  8
0
 62
0
370
-1
  6
BYLAYER
 10
2.2880000000000393
 20
2.6196540999999911
 30
0.0
 11
2.0740000000000407
 21
3.0371941000000007
 31
0.0
  0
LINE
  5
A6
100
AcDbEntity
100
AcDbLine
  8
0
 62
0
370
-1
  6
BYLAYER
 10
2.0740000000000407
 20
3.0371941000000007
 30
0.0
 11
2.0
 21
3.500214100000008
 31
0.0
  0
LINE
  5
A7
100
AcDbEntity
100
AcDbLine
  8
0
 62
0
370
-1
  6
BYLAYER
 10
2.0
 20
3.500214100000008
 30
0.0
 11
2.0740000000000407
 21
3.9646140999999986
 31
0.0
  0
LINE
  5
A8
100
AcDbEntity
100
AcDbLine
  8
0
 62
0
370
-1
  6
BYLAYER
 10
2.0740000000000407
 20
3.9646140999999986
 30
0.0
 11
2.2880000000000393
 21
4.38216409999999
 31
0.0
  0
LINE
  5
A9
100
AcDbEntity
100
AcDbLine
  8
0
 62
0
370
-1
  6
BYLAYER
 10
2.2880000000000393
 20
4.38216409999999
 30
0.0
 11
2.6200000000000045
 21
4.7142640999999941
 31
0.0
  0
LINE
  5
AA
100
AcDbEntity
100
AcDbLine
  8
0
 62
0
370
-1
  6
BYLAYER
 10
2.6200000000000045
 20
4.7142640999999941
 30
0.0
 11
3.0370000000000061
 21
4.9278740999999826
 31
0.0
  0
LINE
  5
AB
100
AcDbEntity
100
AcDbLine
  8
0
 62
0
370
-1
  6
BYLAYER
 10
3.0370000000000061
 20
4.9278740999999826
 30
0.0
 11
3.4999999999999716
 21
4.9995240999999879
 31
0.0
  0
LINE
  5
AC
100
AcDbEntity
100
AcDbLine
  8
0
 62
0
370
-1
  6
BYLAYER
 10
3.4999999999999716
 20
4.9995240999999879
 30
0.0
 11
3.9650000000000318
 21
4.9278741000000039
 31
0.0
  0
LINE
  5
AD
100
AcDbEntity
100
AcDbLine
  8
0
 62
0
370
-1
  6
BYLAYER
 10
81.902300000000025
 20
4.9278741000000039
 30
0.0
 11
82.32000000000005
 21
4.7142641000000367
 31
0.0
  0
LINE
  5
AE
100
AcDbEntity
100
AcDbLine
  8
0
 62
0
370
-1
  6
BYLAYER
 10
82.32000000000005
 20
4.7142641000000367
 30
0.0
 11
82.652000000000044
 21
4.3821641000000255
 31
0.0
  0
LINE
  5
AF
100
AcDbEntity
100
AcDbLine
  8
0
 62
0
370
-1
  6
BYLAYER
 10
82.652000000000044
 20
4.3821641000000255
 30
0.0
 11
82.865700000000004
 21
3.9646141000000128
 31
0.0
  0
LINE
  5
B0
100
AcDbEntity
100
AcDbLine
  8
0
 62
0
370
-1
  6
BYLAYER
 10
82.865700000000004
 20
3.9646141000000128
 30
0.0
 11
82.938800000000015
 21
3.5002140999999867
 31
0.0
  0
LINE
  5
B1
100
AcDbEntity
100
AcDbLine
  8
0
 62
0
370
-1
  6
BYLAYER
 10
82.938800000000015
 20
3.5002140999999867
 30
0.0
 11
82.865700000000061
 21
3.0371941000000291
 31
0.0
  0
LINE
  5
B2
100
AcDbEntity
100
AcDbLine
  8
0
 62
0
370
-1
  6
BYLAYER
 10
82.865700000000061
 20
3.0371941000000291
 30
0.0
 11
82.652000000000044
 21
2.6196541000000053
 31
0.0
  0
LINE
  5
B3
100
AcDbEntity
100
AcDbLine
  8
0
 62
0
370
-1
  6
BYLAYER
 10
82.652000000000044
 20
2.6196541000000053
 30
0.0
 11
82.32000000000005
 21
2.2875440999999981
 31
0.0
  0
LINE
  5
B4
100
AcDbEntity
100
AcDbLine
  8
0
 62
0
370
-1
  6
BYLAYER
 10
82.32000000000005
 20
2.2875440999999981
 30
0.0
 11
81.902300000000025
 21
2.073944100000034
 31
0.0
  0
LINE
  5
B5
100
AcDbEntity
100
AcDbLine
  8
0
 62
0
370
-1
  6
BYLAYER
 10
81.902300000000025
 20
2.073944100000034
 30
0.0
 11
81.43810000000002
 21
1.9995341000000124
 31
0.0
  0
LINE
  5
B6
100
AcDbEntity
100
AcDbLine
  8
0
 62
0
370
-1
  6
BYLAYER
 10
81.43810000000002
 20
1.9995341000000124
 30
0.0
 11
80.974900000000048
 21
2.0739440999999914
 31
0.0
  0
LINE
  5
B7
100
AcDbEntity
100
AcDbLine
  8
0
 62
0
370
-1
  6
BYLAYER
 10
80.974900000000048
 20
2.0739440999999914
 30
0.0
 11
80.557500000000005
 21
2.2875441000000478
 31
0.0
  0
LINE
  5
B8
100
AcDbEntity
100
AcDbLine
  8
0
 62
0
370
-1
  6
BYLAYER
 10
80.557500000000005
 20
2.2875441000000478
 30
0.0
 11
80.225200000000029
 21
2.6196541000000195
 31
0.0
  0
LINE
  5
B9
100
AcDbEntity
100
AcDbLine
  8
0
 62
0
370
-1
  6
BYLAYER
 10
80.225200000000029
 20
2.6196541000000195
 30
0.0
 11
80.011800000000051
 21
3.0371941000000078
 31
0.0
  0
LINE
  5
BA
100
AcDbEntity
100
AcDbLine
  8
0
 62
0
370
-1
  6
BYLAYER
 10
80.011800000000051
 20
3.0371941000000078
 30
0.0
 11
79.938800000000015
 21
3.5002141000000009
 31
0.0
  0
LINE
  5
BB
100
AcDbEntity
100
AcDbLine
  8
0
 62
0
370
-1
  6
BYLAYER
 10
79.938800000000015
 20
3.5002141000000009
 30
0.0
 11
80.011799999999994
 21
3.9646140999999915
 31
0.0
  0
LINE
  5
BC
100
AcDbEntity
100
AcDbLine
  8
0
 62
0
370
-1
  6
BYLAYER
 10
80.011799999999994
 20
3.9646140999999915
 30
0.0
 11
80.225200000000029
 21
4.3821641000000255
 31
0.0
  0
LINE
  5
BD
100
AcDbEntity
100
AcDbLine
  8
0
 62
0
370
-1
  6
BYLAYER
 10
80.225200000000029
 20
4.3821641000000255
 30
0.0
 11
80.557500000000005
 21
4.7142641000000012
 31
0.0
  0
LINE
  5
BE
100
AcDbEntity
100
AcDbLine
  8
0
 62
0
370
-1
  6
BYLAYER
 10
80.557500000000005
 20
4.7142641000000012
 30
0.0
 11
80.974900000000048
 21
4.9278740999999542
 31
0.0
  0
LINE
  5
BF
100
AcDbEntity
100
AcDbLine
  8
0
 62
0
370
-1
  6
BYLAYER
 10
80.974900000000048
 20
4.9278740999999542
 30
0.0
 11
81.43810000000002
 21
4.9995241000000163
 31
0.0
  0
LINE
  5
C0
100
AcDbEntity
100
AcDbLine
  8
0
 62
0
370
-1
  6
BYLAYER
 10
81.43810000000002
 20
4.9995241000000163
 30
0.0
 11
81.902300000000025
 21
4.9278741000000039
 31
0.0
  0
LINE
  5
C1
100
AcDbEntity
100
AcDbLine
  8
0
 62
0
370
-1
  6
BYLAYER
 10
159.84010000000001
 20
4.9278740999999187
 30
0.0
 11
160.25764000000004
 21
4.7142641000001078
 31
0.0
  0
LINE
  5
C2
100
AcDbEntity
100
AcDbLine
  8
0
 62
0
370
-1
  6
BYLAYER
 10
160.25764000000004
 20
4.7142641000001078
 30
0.0
 11
160.58975000000009
 21
4.3821641000000611
 31
0.0
  0
LINE
  5
C3
100
AcDbEntity
100
AcDbLine
  8
0
 62
0
370
-1
  6
BYLAYER
 10
160.58975000000009
 20
4.3821641000000611
 30
0.0
 11
160.80334999999997
 21
3.9646140999999773
 31
0.0
  0
LINE
  5
C4
100
AcDbEntity
100
AcDbLine
  8
0
 62
0
370
-1
  6
BYLAYER
 10
160.80334999999997
 20
3.9646140999999773
 30
0.0
 11
160.87775999999997
 21
3.5002141000000293
 31
0.0
  0
LINE
  5
C5
100
AcDbEntity
100
AcDbLine
  8
0
 62
0
370
-1
  6
BYLAYER
 10
160.87775999999997
 20
3.5002141000000293
 30
0.0
 11
160.80335000000002
 21
3.0371941000000717
 31
0.0
  0
LINE
  5
C6
100
AcDbEntity
100
AcDbLine
  8
0
 62
0
370
-1
  6
BYLAYER
 10
160.80335000000002
 20
3.0371941000000717
 30
0.0
 11
160.58975000000004
 21
2.6196541000000337
 31
0.0
  0
LINE
  5
C7
100
AcDbEntity
100
AcDbLine
  8
0
 62
0
370
-1
  6
BYLAYER
 10
160.58975000000004
 20
2.6196541000000337
 30
0.0
 11
160.25764000000004
 21
2.2875440999999554
 31
0.0
  0
LINE
  5
C8
100
AcDbEntity
100
AcDbLine
  8
0
 62
0
370
-1
  6
BYLAYER
 10
160.25764000000004
 20
2.2875440999999554
 30
0.0
 11
159.84010000000001
 21
2.073944100000034
 31
0.0
  0
LINE
  5
C9
100
AcDbEntity
100
AcDbLine
  8
0
 62
0
370
-1
  6
BYLAYER
 10
159.84010000000001
 20
2.073944100000034
 30
0.0
 11
159.37570000000005
 21
1.999534100000055
 31
0.0
  0
LINE
  5
CA
100
AcDbEntity
100
AcDbLine
  8
0
 62
0
370
-1
  6
BYLAYER
 10
159.37570000000005
 20
1.999534100000055
 30
0.0
 11
158.91268000000002
 21
2.0739440999999488
 31
0.0
  0
LINE
  5
CB
100
AcDbEntity
100
AcDbLine
  8
0
 62
0
370
-1
  6
BYLAYER
 10
158.91268000000002
 20
2.0739440999999488
 30
0.0
 11
158.49513000000002
 21
2.2875441000000549
 31
0.0
  0
LINE
  5
CC
100
AcDbEntity
100
AcDbLine
  8
0
 62
0
370
-1
  6
BYLAYER
 10
158.49513000000002
 20
2.2875441000000549
 30
0.0
 11
158.16303000000005
 21
2.6196540999999698
 31
0.0
  0
LINE
  5
CD
100
AcDbEntity
100
AcDbLine
  8
0
 62
0
370
-1
  6
BYLAYER
 10
158.16303000000005
 20
2.6196540999999698
 30
0.0
 11
157.95080000000002
 21
3.0371940999999083
 31
0.0
  0
LINE
  5
CE
100
AcDbEntity
100
AcDbLine
  8
0
 62
0
370
-1
  6
BYLAYER
 10
157.95080000000002
 20
3.0371940999999083
 30
0.0
 11
157.87639999999999
 21
3.5002140999999654
 31
0.0
  0
LINE
  5
CF
100
AcDbEntity
100
AcDbLine
  8
0
 62
0
370
-1
  6
BYLAYER
 10
157.87639999999999
 20
3.5002140999999654
 30
0.0
 11
157.95080000000002
 21
3.9646141000000483
 31
0.0
  0
LINE
  5
D0
100
AcDbEntity
100
AcDbLine
  8
0
 62
0
370
-1
  6
BYLAYER
 10
157.95080000000002
 20
3.9646141000000483
 30
0.0
 11
158.16303000000005
 21
4.3821640999999971
 31
0.0
  0
LINE
  5
D1
100
AcDbEntity
100
AcDbLine
  8
0
 62
0
370
-1
  6
BYLAYER
 10
158.16303000000005
 20
4.3821640999999971
 30
0.0
 11
158.49513000000002
 21
4.7142641000000864
 31
0.0
  0
LINE
  5
D2
100
AcDbEntity
100
AcDbLine
  8
0
 62
0
370
-1
  6
BYLAYER
 10
158.49513000000002
 20
4.7142641000000864
 30
0.0
 11
158.91268000000002
 21
4.9278741000000323
 31
0.0
  0
LINE
  5
D3
100
AcDbEntity
100
AcDbLine
  8
0
 62
0
370
-1
  6
BYLAYER
 10
158.91268000000002
 20
4.9278741000000323
 30
0.0
 11
159.37569999999999
 21
4.9995240999999808
 31
0.0
  0
LINE
  5
D4
100
AcDbEntity
100
AcDbLine
  8
0
 62
0
370
-1
  6
BYLAYER
 10
159.37569999999999
 20
4.9995240999999808
 30
0.0
 11
159.84010000000001
 21
4.9278740999999187
 31
0.0
  0
LINE
  5
D5
100
AcDbEntity
100
AcDbLine
  8
0
 62
0
370
-1
  6
BYLAYER
 10
152.87819999999999
 20
124.30296409999993
 30
0.0
 11
152.87819999999999
 21
105.25096409999996
 31
0.0
  0
LINE
  5
D6
100
AcDbEntity
100
AcDbLine
  8
0
 62
0
370
-1
  6
BYLAYER
 10
152.87819999999999
 20
105.25096409999996
 30
0.0
 11
152.87690000000003
 21
105.25096409999998
 31
0.0
  0
LINE
  5
D7
100
AcDbEntity
100
AcDbLine
  8
0
 62
0
370
-1
  6
BYLAYER
 10
152.87690000000003
 20
105.25096409999998
 30
0.0
 11
152.87689999999998
 21
67.151964100000299
 31
0.0
  0
LINE
  5
D8
100
AcDbEntity
100
AcDbLine
  8
0
 62
0
370
-1
  6
BYLAYER
 10
152.87689999999998
 20
67.151964100000299
 30
0.0
 11
152.87819999999999
 21
67.15196409999993
 31
0.0
  0
LINE
  5
D9
100
AcDbEntity
100
AcDbLine
  8
0
 62
0
370
-1
  6
BYLAYER
 10
152.87819999999999
 20
67.15196409999993
 30
0.0
 11
152.87819999999999
 21
48.100564100000085
 31
0.0
  0
LINE
  5
DA
100
AcDbEntity
100
AcDbLine
  8
0
 62
0
370
-1
  6
BYLAYER
 10
152.87819999999999
 20
48.100564100000085
 30
0.0
 11
152.87689999999998
 21
48.100564099999858
 31
0.0
  0
LINE
  5
DB
100
AcDbEntity
100
AcDbLine
  8
0
 62
0
370
-1
  6
BYLAYER
 10
152.87689999999998
 20
48.100564099999858
 30
0.0
 11
152.87690000000003
 21
29.05176410000011
 31
0.0
  0
LINE
  5
DC
100
AcDbEntity
100
AcDbLine
  8
0
 62
0
370
-1
  6
BYLAYER
 10
152.87690000000003
 20
29.05176410000011
 30
0.0
 11
148.1157
 21
29.051764100000064
 31
0.0
  0
LINE
  5
DD
100
AcDbEntity
100
AcDbLine
  8
0
 62
0
370
-1
  6
BYLAYER
 10
148.1157
 20
29.051764100000064
 30
0.0
 11
148.11570000000006
 21
10.001764100000024
 31
0.0
  0
LINE
  5
DE
100
AcDbEntity
100
AcDbLine
  8
0
 62
0
370
-1
  6
BYLAYER
 10
148.11570000000006
 20
10.001764100000024
 30
0.0
 11
90.963100000000054
 21
10.001764099999981
 31
0.0
  0
LINE
  5
DF
100
AcDbEntity
100
AcDbLine
  8
0
 62
0
370
-1
  6
BYLAYER
 10
90.963100000000054
 20
10.001764099999981
 30
0.0
 11
90.963099999999997
 21
29.051764099999986
 31
0.0
  0
LINE
  5
E0
100
AcDbEntity
100
AcDbLine
  8
0
 62
0
370
-1
  6
BYLAYER
 10
90.963099999999997
 20
29.051764099999986
 30
0.0
 11
33.816000000000031
 21
29.051764099999996
 31
0.0
  0
LINE
  5
E1
100
AcDbEntity
100
AcDbLine
  8
0
 62
0
370
-1
  6
BYLAYER
 10
33.816000000000031
 20
29.051764099999996
 30
0.0
 11
33.816000000000031
 21
10.001764100000003
 31
0.0
  0
LINE
  5
E2
100
AcDbEntity
100
AcDbLine
  8
0
 62
0
370
-1
  6
BYLAYER
 10
33.816000000000031
 20
10.001764100000003
 30
0.0
 11
10.001000000000062
 21
10.001764099999995
 31
0.0
  0
LINE
  5
E3
100
AcDbEntity
100
AcDbLine
  8
0
 62
0
370
-1
  6
BYLAYER
 10
10.001000000000062
 20
10.001764099999995
 30
0.0
 11
10.001000000000005
 21
48.101964099999989
 31
0.0
  0
LINE
  5
E4
100
AcDbEntity
100
AcDbLine
  8
0
 62
0
370
-1
  6
BYLAYER
 10
10.001000000000005
 20
48.101964099999989
 30
0.0
 11
19.52600000000001
 21
48.101964099999989
 31
0.0
  0
LINE
  5
E5
100
AcDbEntity
100
AcDbLine
  8
0
 62
0
370
-1
  6
BYLAYER
 10
19.52600000000001
 20
48.101964099999989
 30
0.0
 11
19.52600000000001
 21
67.150564099999983
 31
0.0
  0
LINE
  5
E6
100
AcDbEntity
100
AcDbLine
  8
0
 62
0
370
-1
  6
BYLAYER
 10
19.52600000000001
 20
67.150564099999983
 30
0.0
 11
14.763000000000005
 21
67.150564100000011
 31
0.0
  0
LINE
  5
E7
100
AcDbEntity
100
AcDbLine
  8
0
 62
0
370
-1
  6
BYLAYER
 10
14.763000000000005
 20
67.150564100000011
 30
0.0
 11
14.763000000000034
 21
86.200564099999994
 31
0.0
  0
LINE
  5
E8
100
AcDbEntity
100
AcDbLine
  8
0
 62
0
370
-1
  6
BYLAYER
 10
14.763000000000034
 20
86.200564099999994
 30
0.0
 11
10.001000000000005
 21
86.200564099999994
 31
0.0
  0
LINE
  5
E9
100
AcDbEntity
100
AcDbLine
  8
0
 62
0
370
-1
  6
BYLAYER
 10
10.001000000000005
 20
86.200564099999994
 30
0.0
 11
10.001000000000005
 21
105.25196409999998
 31
0.0
  0
LINE
  5
EA
100
AcDbEntity
100
AcDbLine
  8
0
 62
0
370
-1
  6
BYLAYER
 10
10.001000000000005
 20
105.25196409999998
 30
0.0
 11
19.52600000000001
 21
105.25196409999998
 31
0.0
  0
LINE
  5
EB
100
AcDbEntity
100
AcDbLine
  8
0
 62
0
370
-1
  6
BYLAYER
 10
19.52600000000001
 20
105.25196409999998
 30
0.0
 11
19.52600000000001
 21
124.30296409999998
 31
0.0
  0
LINE
  5
EC
100
AcDbEntity
100
AcDbLine
  8
0
 62
0
370
-1
  6
BYLAYER
 10
19.52600000000001
 20
124.30296409999998
 30
0.0
 11
152.87819999999999
 21
124.30296409999993
 31
0.0
  0
LINE
  5
ED
100
AcDbEntity
100
AcDbLine
  8
0
 62
0
370
-1
  6
BYLAYER
 10
3.9650000000000034
 20
68.578264099999998
 30
0.0
 11
4.382000000000005
 21
68.365864099999996
 31
0.0
  0
LINE
  5
EE
100
AcDbEntity
100
AcDbLine
  8
0
 62
0
370
-1
  6
BYLAYER
 10
4.382000000000005
 20
68.365864099999996
 30
0.0
 11
4.7139999999999986
 21
68.033864099999988
 31
0.0
  0
LINE
  5
EF
100
AcDbEntity
100
AcDbLine
  8
0
 62
0
370
-1
  6
BYLAYER
 10
4.7139999999999986
 20
68.033864099999988
 30
0.0
 11
4.9279999999999973
 21
67.614764099999988
 31
0.0
  0
LINE
  5
F0
100
AcDbEntity
100
AcDbLine
  8
0
 62
0
370
-1
  6
BYLAYER
 10
4.9279999999999973
 20
67.614764099999988
 30
0.0
 11
5.0
 21
67.151964099999987
 31
0.0
  0
LINE
  5
F1
100
AcDbEntity
100
AcDbLine
  8
0
 62
0
370
-1
  6
BYLAYER
 10
5.0
 20
67.151964099999987
 30
0.0
 11
4.9279999999999973
 21
66.687364099999996
 31
0.0
  0
LINE
  5
F2
100
AcDbEntity
100
AcDbLine
  8
0
 62
0
370
-1
  6
BYLAYER
 10
4.9279999999999973
 20
66.687364099999996
 30
0.0
 11
4.7139999999999986
 21
66.269964099999996
 31
0.0
  0
LINE
  5
F3
100
AcDbEntity
100
AcDbLine
  8
0
 62
0
370
-1
  6
BYLAYER
 10
4.7139999999999986
 20
66.269964099999996
 30
0.0
 11
4.382000000000005
 21
65.937664099999992
 31
0.0
  0
LINE
  5
F4
100
AcDbEntity
100
AcDbLine
  8
0
 62
0
370
-1
  6
BYLAYER
 10
4.382000000000005
 20
65.937664099999992
 30
0.0
 11
3.9650000000000034
 21
65.724264099999999
 31
0.0
  0
LINE
  5
F5
100
AcDbEntity
100
AcDbLine
  8
0
 62
0
370
-1
  6
BYLAYER
 10
3.9650000000000034
 20
65.724264099999999
 30
0.0
 11
3.5
 21
65.651264099999992
 31
0.0
  0
LINE
  5
F6
100
AcDbEntity
100
AcDbLine
  8
0
 62
0
370
-1
  6
BYLAYER
 10
3.5
 20
65.651264099999992
 30
0.0
 11
3.0370000000000061
 21
65.724264099999999
 31
0.0
  0
LINE
  5
F7
100
AcDbEntity
100
AcDbLine
  8
0
 62
0
370
-1
  6
BYLAYER
 10
3.0370000000000061
 20
65.724264099999999
 30
0.0
 11
2.6200000000000045
 21
65.937664099999992
 31
0.0
  0
LINE
  5
F8
100
AcDbEntity
100
AcDbLine
  8
0
 62
0
370
-1
  6
BYLAYER
 10
2.6200000000000045
 20
65.937664099999992
 30
0.0
 11
2.2880000000000109
 21
66.269964099999996
 31
0.0
  0
LINE
  5
F9
100
AcDbEntity
100
AcDbLine
  8
0
 62
0
370
-1
  6
BYLAYER
 10
2.2880000000000109
 20
66.269964099999996
 30
0.0
 11
2.0740000000000123
 21
66.687364099999996
 31
0.0
  0
LINE
  5
FA
100
AcDbEntity
100
AcDbLine
  8
0
 62
0
370
-1
  6
BYLAYER
 10
2.0740000000000123
 20
66.687364099999996
 30
0.0
 11
2.0
 21
67.151964099999972
 31
0.0
  0
LINE
  5
FB
100
AcDbEntity
100
AcDbLine
  8
0
 62
0
370
-1
  6
BYLAYER
 10
2.0
 20
67.151964099999972
 30
0.0
 11
2.0740000000000123
 21
67.614764099999988
 31
0.0
  0
LINE
  5
FC
100
AcDbEntity
100
AcDbLine
  8
0
 62
0
370
-1
  6
BYLAYER
 10
2.0740000000000123
 20
67.614764099999988
 30
0.0
 11
2.2880000000000109
 21
68.033864099999988
 31
0.0
  0
LINE
  5
FD
100
AcDbEntity
100
AcDbLine
  8
0
 62
0
370
-1
  6
BYLAYER
 10
2.2880000000000109
 20
68.033864099999988
 30
0.0
 11
2.6200000000000045
 21
68.365864099999996
 31
0.0
  0
LINE
  5
FE
100
AcDbEntity
100
AcDbLine
  8
0
 62
0
370
-1
  6
BYLAYER
 10
2.6200000000000045
 20
68.365864099999996
 30
0.0
 11
3.0370000000000061
 21
68.578264099999998
 31
0.0
  0
LINE
  5
FF
100
AcDbEntity
100
AcDbLine
  8
0
 62
0
370
-1
  6
BYLAYER
 10
3.0370000000000061
 20
68.578264099999998
 30
0.0
 11
3.5
 21
68.651264099999977
 31
0.0
  0
LINE
  5
100
100
AcDbEntity
100
AcDbLine
  8
0
 62
0
370
-1
  6
BYLAYER
 10
3.5
 20
68.651264099999977
 30
0.0
 11
3.9650000000000034
 21
68.578264099999998
 31
0.0
  0
LINE
  5
101
100
AcDbEntity
100
AcDbLine
  8
0
 62
0
370
-1
  6
BYLAYER
 10
159.84010000000001
 20
68.578264100000183
 30
0.0
 11
160.25764000000004
 21
68.365864100000096
 31
0.0
  0
LINE
  5
102
100
AcDbEntity
100
AcDbLine
  8
0
 62
0
370
-1
  6
BYLAYER
 10
160.25764000000004
 20
68.365864100000096
 30
0.0
 11
160.58974999999998
 21
68.033864100000159
 31
0.0
  0
LINE
  5
103
100
AcDbEntity
100
AcDbLine
  8
0
 62
0
370
-1
  6
BYLAYER
 10
160.58974999999998
 20
68.033864100000159
 30
0.0
 11
160.80335000000002
 21
67.61476410000013
 31
0.0
  0
LINE
  5
104
100
AcDbEntity
100
AcDbLine
  8
0
 62
0
370
-1
  6
BYLAYER
 10
160.80335000000002
 20
67.61476410000013
 30
0.0
 11
160.87775999999997
 21
67.151964100000043
 31
0.0
  0
LINE
  5
105
100
AcDbEntity
100
AcDbLine
  8
0
 62
0
370
-1
  6
BYLAYER
 10
160.87775999999997
 20
67.151964100000043
 30
0.0
 11
160.80335000000002
 21
66.687364100000082
 31
0.0
  0
LINE
  5
106
100
AcDbEntity
100
AcDbLine
  8
0
 62
0
370
-1
  6
BYLAYER
 10
160.80335000000002
 20
66.687364100000082
 30
0.0
 11
160.58974999999998
 21
66.269964099999726
 31
0.0
  0
LINE
  5
107
100
AcDbEntity
100
AcDbLine
  8
0
 62
0
370
-1
  6
BYLAYER
 10
160.58974999999998
 20
66.269964099999726
 30
0.0
 11
160.25764000000004
 21
65.937664100000049
 31
0.0
  0
LINE
  5
108
100
AcDbEntity
100
AcDbLine
  8
0
 62
0
370
-1
  6
BYLAYER
 10
160.25764000000004
 20
65.937664100000049
 30
0.0
 11
159.84010000000001
 21
65.724264100000326
 31
0.0
  0
LINE
  5
109
100
AcDbEntity
100
AcDbLine
  8
0
 62
0
370
-1
  6
BYLAYER
 10
159.84010000000001
 20
65.724264100000326
 30
0.0
 11
159.37569999999999
 21
65.651264100000233
 31
0.0
  0
LINE
  5
10A
100
AcDbEntity
100
AcDbLine
  8
0
 62
0
370
-1
  6
BYLAYER
 10
159.37569999999999
 20
65.651264100000233
 30
0.0
 11
158.91268000000002
 21
65.724264099999701
 31
0.0
  0
LINE
  5
10B
100
AcDbEntity
100
AcDbLine
  8
0
 62
0
370
-1
  6
BYLAYER
 10
158.91268000000002
 20
65.724264099999701
 30
0.0
 11
158.49513000000002
 21
65.937664099999893
 31
0.0
  0
LINE
  5
10C
100
AcDbEntity
100
AcDbLine
  8
0
 62
0
370
-1
  6
BYLAYER
 10
158.49513000000002
 20
65.937664099999893
 30
0.0
 11
158.16302999999999
 21
66.269964100000166
 31
0.0
  0
LINE
  5
10D
100
AcDbEntity
100
AcDbLine
  8
0
 62
0
370
-1
  6
BYLAYER
 10
158.16302999999999
 20
66.269964100000166
 30
0.0
 11
157.95080000000002
 21
66.687364100000238
 31
0.0
  0
LINE
  5
10E
100
AcDbEntity
100
AcDbLine
  8
0
 62
0
370
-1
  6
BYLAYER
 10
157.95080000000002
 20
66.687364100000238
 30
0.0
 11
157.87639999999999
 21
67.151964100000299
 31
0.0
  0
LINE
  5
10F
100
AcDbEntity
100
AcDbLine
  8
0
 62
0
370
-1
  6
BYLAYER
 10
157.87639999999999
 20
67.151964100000299
 30
0.0
 11
157.95080000000002
 21
67.614764100000002
 31
0.0
  0
LINE
  5
110
100
AcDbEntity
100
AcDbLine
  8
0
 62
0
370
-1
  6
BYLAYER
 10
157.95080000000002
 20
67.614764100000002
 30
0.0
 11
158.16302999999999
 21
68.033864099999818
 31
0.0
  0
LINE
  5
111
100
AcDbEntity
100
AcDbLine
  8
0
 62
0
370
-1
  6
BYLAYER
 10
158.16302999999999
 20
68.033864099999818
 30
0.0
 11
158.49513000000002
 21
68.365864099999726
 31
0.0
  0
LINE
  5
112
100
AcDbEntity
100
AcDbLine
  8
0
 62
0
370
-1
  6
BYLAYER
 10
158.49513000000002
 20
68.365864099999726
 30
0.0
 11
158.91268000000002
 21
68.578264099999913
 31
0.0
  0
LINE
  5
113
100
AcDbEntity
100
AcDbLine
  8
0
 62
0
370
-1
  6
BYLAYER
 10
158.91268000000002
 20
68.578264099999913
 30
0.0
 11
159.37569999999999
 21
68.651264100000006
 31
0.0
  0
LINE
  5
114
100
AcDbEntity
100
AcDbLine
  8
0
 62
0
370
-1
  6
BYLAYER
 10
159.37569999999999
 20
68.651264100000006
 30
0.0
 11
159.84010000000001
 21
68.578264100000183
 31
0.0
  0
LINE
  5
115
100
AcDbEntity
100
AcDbLine
  8
0
 62
0
370
-1
  6
BYLAYER
 10
81.902299999999968
 20
132.22796409999998
 30
0.0
 11
82.319999999999993
 21
132.01496409999996
 31
0.0
  0
LINE
  5
116
100
AcDbEntity
100
AcDbLine
  8
0
 62
0
370
-1
  6
BYLAYER
 10
82.319999999999993
 20
132.01496409999996
 30
0.0
 11
82.652000000000044
 21
131.68196409999999
 31
0.0
  0
LINE
  5
117
100
AcDbEntity
100
AcDbLine
  8
0
 62
0
370
-1
  6
BYLAYER
 10
82.652000000000044
 20
131.68196409999999
 30
0.0
 11
82.865700000000004
 21
131.26496409999996
 31
0.0
  0
LINE
  5
118
100
AcDbEntity
100
AcDbLine
  8
0
 62
0
370
-1
  6
BYLAYER
 10
82.865700000000004
 20
131.26496409999996
 30
0.0
 11
82.938800000000015
 21
130.80096409999996
 31
0.0
  0
LINE
  5
119
100
AcDbEntity
100
AcDbLine
  8
0
 62
0
370
-1
  6
BYLAYER
 10
82.938800000000015
 20
130.80096409999996
 30
0.0
 11
82.865700000000004
 21
130.33796409999999
 31
0.0
  0
LINE
  5
11A
100
AcDbEntity
100
AcDbLine
  8
0
 62
0
370
-1
  6
BYLAYER
 10
82.865700000000004
 20
130.33796409999999
 30
0.0
 11
82.652000000000044
 21
129.91996409999999
 31
0.0
  0
LINE
  5
11B
100
AcDbEntity
100
AcDbLine
  8
0
 62
0
370
-1
  6
BYLAYER
 10
82.652000000000044
 20
129.91996409999999
 30
0.0
 11
82.32000000000005
 21
129.58796409999999
 31
0.0
  0
LINE
  5
11C
100
AcDbEntity
100
AcDbLine
  8
0
 62
0
370
-1
  6
BYLAYER
 10
82.32000000000005
 20
129.58796409999999
 30
0.0
 11
81.902300000000025
 21
129.3759641
 31
0.0
  0
LINE
  5
11D
100
AcDbEntity
100
AcDbLine
  8
0
 62
0
370
-1
  6
BYLAYER
 10
81.902300000000025
 20
129.3759641
 30
0.0
 11
81.43810000000002
 21
129.30096409999999
 31
0.0
  0
LINE
  5
11E
100
AcDbEntity
100
AcDbLine
  8
0
 62
0
370
-1
  6
BYLAYER
 10
81.43810000000002
 20
129.30096409999999
 30
0.0
 11
80.974900000000048
 21
129.3759641
 31
0.0
  0
LINE
  5
11F
100
AcDbEntity
100
AcDbLine
  8
0
 62
0
370
-1
  6
BYLAYER
 10
80.974900000000048
 20
129.3759641
 30
0.0
 11
80.557500000000061
 21
129.58796409999997
 31
0.0
  0
LINE
  5
120
100
AcDbEntity
100
AcDbLine
  8
0
 62
0
370
-1
  6
BYLAYER
 10
80.557500000000061
 20
129.58796409999997
 30
0.0
 11
80.225199999999973
 21
129.91996409999999
 31
0.0
  0
LINE
  5
121
100
AcDbEntity
100
AcDbLine
  8
0
 62
0
370
-1
  6
BYLAYER
 10
80.225199999999973
 20
129.91996409999999
 30
0.0
 11
80.011800000000051
 21
130.33796409999994
 31
0.0
  0
LINE
  5
122
100
AcDbEntity
100
AcDbLine
  8
0
 62
0
370
-1
  6
BYLAYER
 10
80.011800000000051
 20
130.33796409999994
 30
0.0
 11
79.938800000000015
 21
130.80096409999999
 31
0.0
  0
LINE
  5
123
100
AcDbEntity
100
AcDbLine
  8
0
 62
0
370
-1
  6
BYLAYER
 10
79.938800000000015
 20
130.80096409999999
 30
0.0
 11
80.011800000000051
 21
131.26496409999999
 31
0.0
  0
LINE
  5
124
100
AcDbEntity
100
AcDbLine
  8
0
 62
0
370
-1
  6
BYLAYER
 10
80.011800000000051
 20
131.26496409999999
 30
0.0
 11
80.225200000000029
 21
131.68196409999999
 31
0.0
  0
LINE
  5
125
100
AcDbEntity
100
AcDbLine
  8
0
 62
0
370
-1
  6
BYLAYER
 10
80.225200000000029
 20
131.68196409999999
 30
0.0
 11
80.557500000000005
 21
132.01496409999996
 31
0.0
  0
LINE
  5
126
100
AcDbEntity
100
AcDbLine
  8
0
 62
0
370
-1
  6
BYLAYER
 10
80.557500000000005
 20
132.01496409999996
 30
0.0
 11
80.974899999999991
 21
132.22796409999998
 31
0.0
  0
LINE
  5
127
100
AcDbEntity
100
AcDbLine
  8
0
 62
0
370
-1
  6
BYLAYER
 10
80.974899999999991
 20
132.22796409999998
 30
0.0
 11
81.438100000000077
 21
132.30096409999996
 31
0.0
  0
LINE
  5
128
100
AcDbEntity
100
AcDbLine
  8
0
 62
0
370
-1
  6
BYLAYER
 10
81.438100000000077
 20
132.30096409999996
 30
0.0
 11
81.902299999999968
 21
132.22796409999998
 31
0.0
  0
LINE
  5
129
100
AcDbEntity
100
AcDbLine
  8
0
 62
0
370
-1
  6
BYLAYER
 10
3.9650000000000034
 20
132.22796409999998
 30
0.0
 11
4.3820000000000334
 21
132.01496409999999
 31
0.0
  0
LINE
  5
12A
100
AcDbEntity
100
AcDbLine
  8
0
 62
0
370
-1
  6
BYLAYER
 10
4.3820000000000334
 20
132.01496409999999
 30
0.0
 11
4.7139999999999986
 21
131.68196409999999
 31
0.0
  0
LINE
  5
12B
100
AcDbEntity
100
AcDbLine
  8
0
 62
0
370
-1
  6
BYLAYER
 10
4.7139999999999986
 20
131.68196409999999
 30
0.0
 11
4.9279999999999973
 21
131.26496409999999
 31
0.0
  0
LINE
  5
12C
100
AcDbEntity
100
AcDbLine
  8
0
 62
0
370
-1
  6
BYLAYER
 10
4.9279999999999973
 20
131.26496409999999
 30
0.0
 11
5.0000000000000568
 21
130.80096409999999
 31
0.0
  0
LINE
  5
12D
100
AcDbEntity
100
AcDbLine
  8
0
 62
0
370
-1
  6
BYLAYER
 10
5.0000000000000568
 20
130.80096409999999
 30
0.0
 11
4.9279999999999973
 21
130.33796409999999
 31
0.0
  0
LINE
  5
12E
100
AcDbEntity
100
AcDbLine
  8
0
 62
0
370
-1
  6
BYLAYER
 10
4.9279999999999973
 20
130.33796409999999
 30
0.0
 11
4.7140000000000271
 21
129.91996409999999
 31
0.0
  0
LINE
  5
12F
100
AcDbEntity
100
AcDbLine
  8
0
 62
0
370
-1
  6
BYLAYER
 10
4.7140000000000271
 20
129.91996409999999
 30
0.0
 11
4.382000000000005
 21
129.58796409999999
 31
0.0
  0
LINE
  5
130
100
AcDbEntity
100
AcDbLine
  8
0
 62
0
370
-1
  6
BYLAYER
 10
4.382000000000005
 20
129.58796409999999
 30
0.0
 11
3.9650000000000318
 21
129.3759641
 31
0.0
  0
LINE
  5
131
100
AcDbEntity
100
AcDbLine
  8
0
 62
0
370
-1
  6
BYLAYER
 10
3.9650000000000318
 20
129.3759641
 30
0.0
 11
3.5
 21
129.30096409999999
 31
0.0
  0
LINE
  5
132
100
AcDbEntity
100
AcDbLine
  8
0
 62
0
370
-1
  6
BYLAYER
 10
3.5
 20
129.30096409999999
 30
0.0
 11
3.0370000000000061
 21
129.3759641
 31
0.0
  0
LINE
  5
133
100
AcDbEntity
100
AcDbLine
  8
0
 62
0
370
-1
  6
BYLAYER
 10
3.0370000000000061
 20
129.3759641
 30
0.0
 11
2.6200000000000614
 21
129.58796409999999
 31
0.0
  0
LINE
  5
134
100
AcDbEntity
100
AcDbLine
  8
0
 62
0
370
-1
  6
BYLAYER
 10
2.6200000000000614
 20
129.58796409999999
 30
0.0
 11
2.2880000000000109
 21
129.91996409999999
 31
0.0
  0
LINE
  5
135
100
AcDbEntity
100
AcDbLine
  8
0
 62
0
370
-1
  6
BYLAYER
 10
2.2880000000000109
 20
129.91996409999999
 30
0.0
 11
2.0740000000000691
 21
130.33796409999999
 31
0.0
  0
LINE
  5
136
100
AcDbEntity
100
AcDbLine
  8
0
 62
0
370
-1
  6
BYLAYER
 10
2.0740000000000691
 20
130.33796409999999
 30
0.0
 11
2.0000000000000568
 21
130.80096409999999
 31
0.0
  0
LINE
  5
137
100
AcDbEntity
100
AcDbLine
  8
0
 62
0
370
-1
  6
BYLAYER
 10
2.0000000000000568
 20
130.80096409999999
 30
0.0
 11
2.0739999999999839
 21
131.26496410000001
 31
0.0
  0
LINE
  5
138
100
AcDbEntity
100
AcDbLine
  8
0
 62
0
370
-1
  6
BYLAYER
 10
2.0739999999999839
 20
131.26496410000001
 30
0.0
 11
2.2880000000000678
 21
131.68196409999999
 31
0.0
  0
LINE
  5
139
100
AcDbEntity
100
AcDbLine
  8
0
 62
0
370
-1
  6
BYLAYER
 10
2.2880000000000678
 20
131.68196409999999
 30
0.0
 11
2.6200000000000614
 21
132.01496409999999
 31
0.0
  0
LINE
  5
13A
100
AcDbEntity
100
AcDbLine
  8
0
 62
0
370
-1
  6
BYLAYER
 10
2.6200000000000614
 20
132.01496409999999
 30
0.0
 11
3.0370000000000346
 21
132.22796409999998
 31
0.0
  0
LINE
  5
13B
100
AcDbEntity
100
AcDbLine
  8
0
 62
0
370
-1
  6
BYLAYER
 10
3.0370000000000346
 20
132.22796409999998
 30
0.0
 11
3.5
 21
132.30096409999996
 31
0.0
  0
LINE
  5
13C
100
AcDbEntity
100
AcDbLine
  8
0
 62
0
370
-1
  6
BYLAYER
 10
3.5
 20
132.30096409999996
 30
0.0
 11
3.9650000000000034
 21
132.22796409999998
 31
0.0
  0
LINE
  5
13D
100
AcDbEntity
100
AcDbLine
  8
0
 62
0
370
-1
  6
BYLAYER
 10
159.84010000000001
 20
132.22796409999992
 30
0.0
 11
160.25764000000004
 21
132.01496409999984
 31
0.0
  0
LINE
  5
13E
100
AcDbEntity
100
AcDbLine
  8
0
 62
0
370
-1
  6
BYLAYER
 10
160.25764000000004
 20
132.01496409999984
 30
0.0
 11
160.58974999999998
 21
131.68196409999993
 31
0.0
  0
LINE
  5
13F
100
AcDbEntity
100
AcDbLine
  8
0
 62
0
370
-1
  6
BYLAYER
 10
160.58974999999998
 20
131.68196409999993
 30
0.0
 11
160.80335000000002
 21
131.26496409999999
 31
0.0
  0
LINE
  5
140
100
AcDbEntity
100
AcDbLine
  8
0
 62
0
370
-1
  6
BYLAYER
 10
160.80335000000002
 20
131.26496409999999
 30
0.0
 11
160.87776000000008
 21
130.80096409999993
 31
0.0
  0
LINE
  5
141
100
AcDbEntity
100
AcDbLine
  8
0
 62
0
370
-1
  6
BYLAYER
 10
160.87776000000008
 20
130.80096409999993
 30
0.0
 11
160.80335000000002
 21
130.33796409999999
 31
0.0
  0
LINE
  5
142
100
AcDbEntity
100
AcDbLine
  8
0
 62
0
370
-1
  6
BYLAYER
 10
160.80335000000002
 20
130.33796409999999
 30
0.0
 11
160.58975000000004
 21
129.91996409999993
 31
0.0
  0
LINE
  5
143
100
AcDbEntity
100
AcDbLine
  8
0
 62
0
370
-1
  6
BYLAYER
 10
160.58975000000004
 20
129.91996409999993
 30
0.0
 11
160.25764000000004
 21
129.58796409999991
 31
0.0
  0
LINE
  5
144
100
AcDbEntity
100
AcDbLine
  8
0
 62
0
370
-1
  6
BYLAYER
 10
160.25764000000004
 20
129.58796409999991
 30
0.0
 11
159.84010000000001
 21
129.37596409999995
 31
0.0
  0
LINE
  5
145
100
AcDbEntity
100
AcDbLine
  8
0
 62
0
370
-1
  6
BYLAYER
 10
159.84010000000001
 20
129.37596409999995
 30
0.0
 11
159.37570000000005
 21
129.30096409999999
 31
0.0
  0
LINE
  5
146
100
AcDbEntity
100
AcDbLine
  8
0
 62
0
370
-1
  6
BYLAYER
 10
159.37570000000005
 20
129.30096409999999
 30
0.0
 11
158.91268000000002
 21
129.3759641
 31
0.0
  0
LINE
  5
147
100
AcDbEntity
100
AcDbLine
  8
0
 62
0
370
-1
  6
BYLAYER
 10
158.91268000000002
 20
129.3759641
 30
0.0
 11
158.49513000000002
 21
129.58796409999997
 31
0.0
  0
LINE
  5
148
100
AcDbEntity
100
AcDbLine
  8
0
 62
0
370
-1
  6
BYLAYER
 10
158.49513000000002
 20
129.58796409999997
 30
0.0
 11
158.16302999999999
 21
129.91996409999999
 31
0.0
  0
LINE
  5
149
100
AcDbEntity
100
AcDbLine
  8
0
 62
0
370
-1
  6
BYLAYER
 10
158.16302999999999
 20
129.91996409999999
 30
0.0
 11
157.95080000000007
 21
130.33796409999999
 31
0.0
  0
LINE
  5
14A
100
AcDbEntity
100
AcDbLine
  8
0
 62
0
370
-1
  6
BYLAYER
 10
157.95080000000007
 20
130.33796409999999
 30
0.0
 11
157.87639999999999
 21
130.80096409999996
 31
0.0
  0
LINE
  5
14B
100
AcDbEntity
100
AcDbLine
  8
0
 62
0
370
-1
  6
BYLAYER
 10
157.87639999999999
 20
130.80096409999996
 30
0.0
 11
157.95080000000002
 21
131.26496409999993
 31
0.0
  0
LINE
  5
14C
100
AcDbEntity
100
AcDbLine
  8
0
 62
0
370
-1
  6
BYLAYER
 10
157.95080000000002
 20
131.26496409999993
 30
0.0
 11
158.16302999999999
 21
131.68196409999993
 31
0.0
  0
LINE
  5
14D
100
AcDbEntity
100
AcDbLine
  8
0
 62
0
370
-1
  6
BYLAYER
 10
158.16302999999999
 20
131.68196409999993
 30
0.0
 11
158.49513000000002
 21
132.01496409999996
 31
0.0
  0
LINE
  5
14E
100
AcDbEntity
100
AcDbLine
  8
0
 62
0
370
-1
  6
BYLAYER
 10
158.49513000000002
 20
132.01496409999996
 30
0.0
 11
158.91268000000002
 21
132.22796409999998
 31
0.0
  0
LINE
  5
14F
100
AcDbEntity
100
AcDbLine
  8
0
 62
0
370
-1
  6
BYLAYER
 10
158.91268000000002
 20
132.22796409999998
 30
0.0
 11
159.37569999999999
 21
132.30096409999996
 31
0.0
  0
LINE
  5
150
100
AcDbEntity
100
AcDbLine
  8
0
 62
0
370
-1
  6
BYLAYER
 10
159.37569999999999
 20
132.30096409999996
 30
0.0
 11
159.84010000000001
 21
132.22796409999992
 31
0.0
  0
ENDSEC
  0
SECTION
  2
OBJECTS
  0
DICTIONARY
  5
C
100
AcDbDictionary
280
0
281
1
  3
ACAD_GROUP
350
D
  3
ACAD_LAYOUT
350
1A
  3
ACAD_MLINESTYLE
350
17
  3
ACAD_PLOTSETTINGS
350
19
  3
ACAD_PLOTSTYLENAME
350
E
  3
AcDbVariableDictionary
350
151
  3
QCAD_OBJECTS
350
152
  0
DICTIONARY
  5
D
100
AcDbDictionary
280
0
281
1
  0
ACDBDICTIONARYWDFLT
  5
E
100
AcDbDictionary
281
1
  3
Normal
350
F
100
AcDbDictionaryWithDefault
340
F
  0
ACDBPLACEHOLDER
  5
F
  0
DICTIONARY
  5
17
100
AcDbDictionary
280
0
281
1
  3
Standard
350
18
  0
MLINESTYLE
  5
18
100
AcDbMlineStyle
  2
STANDARD
 70
0
  3

 62
256
 51
90.0
 52
90.0
 71
2
 49
0.5
 62
256
  6
BYLAYER
 49
-0.5
 62
256
  6
BYLAYER
  0
DICTIONARY
  5
19
100
AcDbDictionary
280
0
281
1
  0
DICTIONARY
  5
1A
100
AcDbDictionary
281
1
  3
Layout1
350
1E
  3
Layout2
350
26
  3
Model
350
22
  0
LAYOUT
  5
1E
100
AcDbPlotSettings
  1

  2
C:\Program Files\AutoCAD 2002\plotters\DWF ePlot (optimized for plotting).pc3
  4

  6

 40
0.0
 41
0.0
 42
0.0
 43
0.0
 44
0.0
 45
0.0
 46
0.0
 47
0.0
 48
0.0
 49
0.0
140
0.0
141
0.0
142
1.0
143
1.0
 70
688
 72
0
 73
0
 74
5
  7

 75
16
147
1.0
148
0.0
149
0.0
100
AcDbLayout
  1
Layout1
 70
1
 71
1
 10
0.0
 20
0.0
 11
420.0
 21
297.0
 12
0.0
 22
0.0
 32
0.0
 14
100000000000000000000.0
 24
100000000000000000000.0
 34
100000000000000000000.0
 15
-100000000000000000000.0
 25
-100000000000000000000.0
 35
-100000000000000000000.0
146
0.0
 13
0.0
 23
0.0
 33
0.0
 16
1.0
 26
0.0
 36
0.0
 17
0.0
 27
1.0
 37
0.0
 76
0
330
1B
  0
LAYOUT
  5
22
100
AcDbPlotSettings
  1

  2
C:\Program Files\AutoCAD 2002\plotters\DWF ePlot (optimized for plotting).pc3
  4

  6

 40
0.0
 41
0.0
 42
0.0
 43
0.0
 44
0.0
 45
0.0
 46
0.0
 47
0.0
 48
0.0
 49
0.0
140
0.0
141
0.0
142
1.0
143
1.0
 70
1712
 72
0
 73
0
 74
0
  7

 75
0
147
1.0
148
0.0
149
0.0
100
AcDbLayout
  1
Model
 70
1
 71
0
 10
0.0
 20
0.0
 11
12.0
 21
9.0
 12
0.0
 22
0.0
 32
0.0
 14
0.0
 24
0.0
 34
0.0
 15
0.0
 25
0.0
 35
0.0
146
0.0
 13
0.0
 23
0.0
 33
0.0
 16
1.0
 26
0.0
 36
0.0
 17
0.0
 27
1.0
 37
0.0
 76
0
330
1F
  0
LAYOUT
  5
26
100
AcDbPlotSettings
  1

  2
C:\Program Files\AutoCAD 2002\plotters\DWF ePlot (optimized for plotting).pc3
  4

  6

 40
0.0
 41
0.0
 42
0.0
 43
0.0
 44
0.0
 45
0.0
 46
0.0
 47
0.0
 48
0.0
 49
0.0
140
0.0
141
0.0
142
1.0
143
1.0
 70
688
 72
0
 73
0
 74
5
  7

 75
16
147
1.0
148
0.0
149
0.0
100
AcDbLayout
  1
Layout2
 70
1
 71
2
 10
0.0
 20
0.0
 11
12.0
 21
9.0
 12
0.0
 22
0.0
 32
0.0
 14
0.0
 24
0.0
 34
0.0
 15
0.0
 25
0.0
 35
0.0
146
0.0
 13
0.0
 23
0.0
 33
0.0
 16
1.0
 26
0.0
 36
0.0
 17
0.0
 27
1.0
 37
0.0
 76
0
330
23
  0
DICTIONARY
  5
151
100
AcDbDictionary
281
1
  3
DIMASSOC
350
154
  3
HIDETEXT
350
153
  0
DICTIONARYVAR
  5
153
100
DictionaryVariables
280
0
  1
2
  0
DICTIONARYVAR
  5
154
100
DictionaryVariables
280
0
  1
1
  0
DICTIONARY
  5
152
100
AcDbDictionary
281
1
  3
Grid/DisplayGrid00
350
155
  3
Grid/DisplayGrid01
350
156
  3
Grid/DisplayGrid02
350
157
  3
Grid/DisplayGrid03
350
158
  3
Grid/GridSpacingX00
350
159
  3
Grid/GridSpacingX01
350
15A
  3
Grid/GridSpacingX02
350
15B
  3
Grid/GridSpacingX03
350
15C
  3
Grid/GridSpacingY00
350
15D
  3
Grid/GridSpacingY01
350
15E
  3
Grid/GridSpacingY02
350
15F
  3
Grid/GridSpacingY03
350
160
  3
Grid/IsometricGrid00
350
161
  3
Grid/IsometricGrid01
350
162
  3
Grid/IsometricGrid02
350
163
  3
Grid/IsometricGrid03
350
164
  3
Grid/IsometricProjection00
350
165
  3
Grid/IsometricProjection01
350
166
  3
Grid/IsometricProjection02
350
167
  3
Grid/IsometricProjection03
350
168
  3
Grid/MetaGridSpacingX00
350
169
  3
Grid/MetaGridSpacingX01
350
16A
  3
Grid/MetaGridSpacingX02
350
16B
  3
Grid/MetaGridSpacingX03
350
16C
  3
Grid/MetaGridSpacingY00
350
16D
  3
Grid/MetaGridSpacingY01
350
16E
  3
Grid/MetaGridSpacingY02
350
16F
  3
Grid/MetaGridSpacingY03
350
170
  3
MultiPageSettings/Columns
350
171
  3
MultiPageSettings/GlueMarginsBottom
350
172
  3
MultiPageSettings/GlueMarginsLeft
350
173
  3
MultiPageSettings/GlueMarginsRight
350
174
  3
MultiPageSettings/GlueMarginsTop
350
175
  3
MultiPageSettings/PrintCropMarks
350
176
  3
MultiPageSettings/Rows
350
177
  3
PageSettings/OffsetX
350
178
  3
PageSettings/OffsetY
350
179
  3
PageSettings/PageOrientation
350
17A
  3
PageSettings/PaperHeight
350
17B
  3
PageSettings/PaperWidth
350
17C
  3
PageSettings/Scale
350
17D
  3
PageSettings/ShowPaperBorders
350
17E
  3
UnitSettings/PaperUnit
350
17F
  0
XRECORD
  5
155
330
152
100
AcDbXrecord
280
1
290
1
  0
XRECORD
  5
156
330
152
100
AcDbXrecord
280
1
290
1
  0
XRECORD
  5
157
330
152
100
AcDbXrecord
280
1
290
1
  0
XRECORD
  5
158
330
152
100
AcDbXrecord
280
1
290
1
  0
XRECORD
  5
159
330
152
100
AcDbXrecord
280
1
1000
auto
  0
XRECORD
  5
15A
330
152
100
AcDbXrecord
280
1
1000
auto
  0
XRECORD
  5
15B
330
152
100
AcDbXrecord
280
1
1000
auto
  0
XRECORD
  5
15C
330
152
100
AcDbXrecord
280
1
1000
auto
  0
XRECORD
  5
15D
330
152
100
AcDbXrecord
280
1
1000
auto
  0
XRECORD
  5
15E
330
152
100
AcDbXrecord
280
1
1000
auto
  0
XRECORD
  5
15F
330
152
100
AcDbXrecord
280
1
1000
auto
  0
XRECORD
  5
160
330
152
100
AcDbXrecord
280
1
1000
auto
  0
XRECORD
  5
161
330
152
100
AcDbXrecord
280
1
290
0
  0
XRECORD
  5
162
330
152
100
AcDbXrecord
280
1
290
0
  0
XRECORD
  5
163
330
152
100
AcDbXrecord
280
1
290
0
  0
XRECORD
  5
164
330
152
100
AcDbXrecord
280
1
290
0
  0
XRECORD
  5
165
330
152
100
AcDbXrecord
280
1
 90
0
  0
XRECORD
  5
166
330
152
100
AcDbXrecord
280
1
 90
0
  0
XRECORD
  5
167
330
152
100
AcDbXrecord
280
1
 90
0
  0
XRECORD
  5
168
330
152
100
AcDbXrecord
280
1
 90
0
  0
XRECORD
  5
169
330
152
100
AcDbXrecord
280
1
1000
auto
  0
XRECORD
  5
16A
330
152
100
AcDbXrecord
280
1
1000
auto
  0
XRECORD
  5
16B
330
152
100
AcDbXrecord
280
1
1000
auto
  0
XRECORD
  5
16C
330
152
100
AcDbXrecord
280
1
1000
auto
  0
XRECORD
  5
16D
330
152
100
AcDbXrecord
280
1
1000
auto
  0
XRECORD
  5
16E
330
152
100
AcDbXrecord
280
1
1000
auto
  0
XRECORD
  5
16F
330
152
100
AcDbXrecord
280
1
1000
auto
  0
XRECORD
  5
170
330
152
100
AcDbXrecord
280
1
1000
auto
  0
XRECORD
  5
171
330
152
100
AcDbXrecord
280
1
 90
1
  0
XRECORD
  5
172
330
152
100
AcDbXrecord
280
1
 40
10.0
  0
XRECORD
  5
173
330
152
100
AcDbXrecord
280
1
 40
10.0
  0
XRECORD
  5
174
330
152
100
AcDbXrecord
280
1
 40
10.0
  0
XRECORD
  5
175
330
152
100
AcDbXrecord
280
1
 40
10.0
  0
XRECORD
  5
176
330
152
100
AcDbXrecord
280
1
290
0
  0
XRECORD
  5
177
330
152
100
AcDbXrecord
280
1
 90
1
  0
XRECORD
  5
178
330
152
100
AcDbXrecord
280
1
 40
0.0
  0
XRECORD
  5
179
330
152
100
AcDbXrecord
280
1
 40
0.0
  0
XRECORD
  5
17A
330
152
100
AcDbXrecord
280
1
1000
Portrait
  0
XRECORD
  5
17B
330
152
100
AcDbXrecord
280
1
 40
297.0
  0
XRECORD
  5
17C
330
152
100
AcDbXrecord
280
1
 40
210.0
  0
XRECORD
  5
17D
330
152
100
AcDbXrecord
280
1
1000
1:1
  0
XRECORD
  5
17E
330
152
100
AcDbXrecord
280
1
290
1
  0
XRECORD
  5
17F
330
152
100
AcDbXrecord
280
1
 90
4
  0
ENDSEC
  0
EOF
