999
dxflib 3.2.3.0
  0
SECTION
  2
HEADER
  9
$ACADVER
  1
AC1015
  9
$HANDSEED
  5
FFFF
  9
$ANGBASE
 50
0.0
  9
$ATTMODE
 70
1
  9
$AUNITS
 70
0
  9
$AUPREC
 70
0
  9
$CELTSCALE
 40
1.0
  9
$CHAMFERA
 40
0.0
  9
$CHAMFERB
 40
0.0
  9
$CHAMFERC
 40
0.0
  9
$CHAMFERD
 40
0.0
  9
$CMLJUST
 70
0
  9
$CMLSCALE
 40
1.0
  9
$DIMADEC
 70
0
  9
$DIMALTD
 70
2
  9
$DIMALTF
 40
25.399999999999999
  9
$DIMALTRND
 40
0.0
  9
$DIMALTTD
 70
2
  9
$DIMALTTZ
 70
0
  9
$DIMALTU
 70
2
  9
$DIMALTZ
 70
0
  9
$DIMAPOST
  1

  9
$DIMASZ
 40
0.18
  9
$DIMATFIT
 70
3
  9
$DIMAUNIT
 70
0
  9
$DIMAZIN
 70
0
  9
$DIMCEN
 40
0.09
  9
$DIMDEC
 70
4
  9
$DIMDLE
 40
0.0
  9
$DIMDLI
 40
0.38
  9
$DIMDSEP
 70
46
  9
$DIMEXE
 40
0.18
  9
$DIMEXO
 40
0.0625
  9
$DIMFRAC
 70
0
  9
$DIMGAP
 40
0.09
  9
$DIMJUST
 70
0
  9
$DIMLFAC
 40
1.0
  9
$DIMLUNIT
 70
2
  9
$DIMLWD
 70
-2
  9
$DIMLWE
 70
-2
  9
$DIMPOST
  1

  9
$DIMRND
 40
0.0
  9
$DIMSCALE
 40
1.0
  9
$DIMTAD
 70
0
  9
$DIMTDEC
 70
4
  9
$DIMTFAC
 40
1.0
  9
$DIMTM
 40
0.0
  9
$DIMTOLJ
 70
1
  9
$DIMTP
 40
0.0
  9
$DIMTSZ
 40
0.0
  9
$DIMTVP
 40
0.0
  9
$DIMTXT
 40
0.18
  9
$DIMTZIN
 70
0
  9
$DIMZIN
 70
0
  9
$ELEVATION
 40
0.0
  9
$EXTMAX
 10
1000.0
 20
1000.0
 30
0.0
  9
$EXTMIN
 10
0.0
 20
0.0
 30
0.0
  9
$FILLETRAD
 40
0.5
  9
$INSBASE
 10
0.0
 20
0.0
 30
0.0
  9
$INSUNITS
 70
0
  9
$LIMMAX
 10
12.0
 20
9.0
  9
$LIMMIN
 10
0.0
 20
0.0
  9
$LTSCALE
 40
1.0
  9
$LUNITS
 70
2
  9
$LUPREC
 70
4
  9
$MAXACTVP
 70
64
  9
$PDMODE
 70
0
  9
$PDSIZE
 40
0.0
  9
$PELEVATION
 40
0.0
  9
$PEXTMAX
 10
-100000000000000000000.0
 20
-100000000000000000000.0
 30
-100000000000000000000.0
  9
$PEXTMIN
 10
100000000000000000000.0
 20
100000000000000000000.0
 30
100000000000000000000.0
  9
$PINSBASE
 10
0.0
 20
0.0
 30
0.0
  9
$PLIMMAX
 10
12.0
 20
9.0
  9
$PLIMMIN
 10
0.0
 20
0.0
  9
$PLINEWID
 40
0.0
  9
$PROXYGRAPHICS
 70
1
  9
$PUCSORG
 10
0.0
 20
0.0
 30
0.0
  9
$PUCSXDIR
 10
1.0
 20
0.0
 30
0.0
  9
$PUCSYDIR
 10
0.0
 20
1.0
 30
0.0
  9
$SHADEDGE
 70
3
  9
$SHADEDIF
 70
70
  9
$SKETCHINC
 40
0.1
  9
$SPLINESEGS
 70
8
  9
$SPLINETYPE
 70
6
  9
$SURFTAB1
 70
6
  9
$SURFTAB2
 70
6
  9
$SURFTYPE
 70
6
  9
$SURFU
 70
6
  9
$SURFV
 70
6
  9
$TEXTSIZE
 40
0.2
  9
$THICKNESS
 40
0.0
  9
$TRACEWID
 40
0.05
  9
$TREEDEPTH
 70
3020
  9
$UCSORG
 10
0.0
 20
0.0
 30
0.0
  9
$UCSXDIR
 10
1.0
 20
0.0
 30
0.0
  9
$UCSYDIR
 10
0.0
 20
1.0
 30
0.0
  9
$UNITMODE
 70
0
  9
$USERI1
 70
0
  9
$USERI2
 70
0
  9
$USERI3
 70
0
  9
$USERI4
 70
0
  9
$USERI5
 70
0
  9
$USERR1
 40
0.0
  9
$USERR2
 40
0.0
  9
$USERR3
 40
0.0
  9
$USERR4
 40
0.0
  9
$USERR5
 40
0.0
  0
ENDSEC
  0
SECTION
  2
TABLES
  0
TABLE
  2
VPORT
  5
8
100
AcDbSymbolTable
 70
1
  0
VPORT
  5
30
100
AcDbSymbolTableRecord
100
AcDbViewportTableRecord
  2
*Active
 70
0
 10
0.0
 20
0.0
 11
1.0
 21
1.0
 12
286.30555555555549
 22
148.5
 13
0.0
 23
0.0
 14
10.0
 24
10.0
 15
10.0
 25
10.0
 16
0.0
 26
0.0
 36
1.0
 17
0.0
 27
0.0
 37
0.0
 40
297.0
 41
1.92798353909465
 42
50.0
 43
0.0
 44
0.0
 50
0.0
 51
0.0
 71
0
 72
100
 73
1
 74
3
 75
1
 76
1
 77
0
 78
0
281
0
 65
1
110
0.0
120
0.0
130
0.0
111
1.0
121
0.0
131
0.0
112
0.0
122
1.0
132
0.0
 79
0
146
0.0
  0
ENDTAB
  0
TABLE
  2
LTYPE
  5
5
100
AcDbSymbolTable
 70
21
  0
LTYPE
  5
31
100
AcDbSymbolTableRecord
100
AcDbLinetypeTableRecord
  2
CENTER2
 70
0
  3
Center (.5x) ___ _ ___ _ ___ _ ___ _ ___ _ ___
 72
65
 73
4
 40
28.574999999999999
 49
19.050000000000001
 74
0
 49
-3.1749999999999998
 74
0
 49
3.1749999999999998
 74
0
 49
-3.1749999999999998
 74
0
  0
LTYPE
  5
32
100
AcDbSymbolTableRecord
100
AcDbLinetypeTableRecord
  2
DIVIDEX2
 70
0
  3
Divide (2x) ________  .  .  ________  .  .  _
 72
65
 73
6
 40
63.5
 49
25.399999999999999
 74
0
 49
-12.699999999999999
 74
0
 49
0.0
 74
0
 49
-12.699999999999999
 74
0
 49
0.0
 74
0
 49
-12.699999999999999
 74
0
  0
LTYPE
  5
33
100
AcDbSymbolTableRecord
100
AcDbLinetypeTableRecord
  2
DOT2
 70
0
  3
Dot (.5x) .....................................
 72
65
 73
2
 40
3.1749999999999998
 49
0.0
 74
0
 49
-3.1749999999999998
 74
0
  0
LTYPE
  5
34
100
AcDbSymbolTableRecord
100
AcDbLinetypeTableRecord
  2
DASHDOT2
 70
0
  3
Dash dot (.5x) _._._._._._._._._._._._._._._.
 72
65
 73
4
 40
12.699999999999999
 49
6.3499999999999996
 74
0
 49
-3.1749999999999998
 74
0
 49
0.0
 74
0
 49
-3.1749999999999998
 74
0
  0
LTYPE
  5
35
100
AcDbSymbolTableRecord
100
AcDbLinetypeTableRecord
  2
DIVIDE
 70
0
  3
Divide ____ . . ____ . . ____ . . ____ . . ____
 72
65
 73
6
 40
31.75
 49
12.699999999999999
 74
0
 49
-6.3499999999999996
 74
0
 49
0.0
 74
0
 49
-6.3499999999999996
 74
0
 49
0.0
 74
0
 49
-6.3499999999999996
 74
0
  0
LTYPE
  5
36
100
AcDbSymbolTableRecord
100
AcDbLinetypeTableRecord
  2
DASHDOT
 70
0
  3
Dash dot __ . __ . __ . __ . __ . __ . __ . __
 72
65
 73
4
 40
25.399999999999999
 49
12.699999999999999
 74
0
 49
-6.3499999999999996
 74
0
 49
0.0
 74
0
 49
-6.3499999999999996
 74
0
  0
LTYPE
  5
37
100
AcDbSymbolTableRecord
100
AcDbLinetypeTableRecord
  2
BORDER
 70
0
  3
Border __ __ . __ __ . __ __ . __ __ . __ __ .
 72
65
 73
6
 40
44.450000000000003
 49
12.699999999999999
 74
0
 49
-6.3499999999999996
 74
0
 49
12.699999999999999
 74
0
 49
-6.3499999999999996
 74
0
 49
0.0
 74
0
 49
-6.3499999999999996
 74
0
  0
LTYPE
  5
38
100
AcDbSymbolTableRecord
100
AcDbLinetypeTableRecord
  2
DASHDOTX2
 70
0
  3
Dash dot (2x) ____  .  ____  .  ____  .  ___
 72
65
 73
4
 40
50.799999999999997
 49
25.399999999999999
 74
0
 49
-12.699999999999999
 74
0
 49
0.0
 74
0
 49
-12.699999999999999
 74
0
  0
LTYPE
  5
39
100
AcDbSymbolTableRecord
100
AcDbLinetypeTableRecord
  2
CENTERX2
 70
0
  3
Center (2x) ________  __  ________  __  _____
 72
65
 73
4
 40
101.59999999999999
 49
63.5
 74
0
 49
-12.699999999999999
 74
0
 49
12.699999999999999
 74
0
 49
-12.699999999999999
 74
0
  0
LTYPE
  5
3A
100
AcDbSymbolTableRecord
100
AcDbLinetypeTableRecord
  2
BORDER2
 70
0
  3
Border (.5x) __.__.__.__.__.__.__.__.__.__.__.
 72
65
 73
6
 40
22.225000000000001
 49
6.3499999999999996
 74
0
 49
-3.1749999999999998
 74
0
 49
6.3499999999999996
 74
0
 49
-3.1749999999999998
 74
0
 49
0.0
 74
0
 49
-3.1749999999999998
 74
0
  0
LTYPE
  5
3B
100
AcDbSymbolTableRecord
100
AcDbLinetypeTableRecord
  2
BORDERX2
 70
0
  3
Border (2x) ____  ____  .  ____  ____  .  ___
 72
65
 73
6
 40
88.900000000000006
 49
25.399999999999999
 74
0
 49
-12.699999999999999
 74
0
 49
25.399999999999999
 74
0
 49
-12.699999999999999
 74
0
 49
0.0
 74
0
 49
-12.699999999999999
 74
0
  0
LTYPE
  5
16
100
AcDbSymbolTableRecord
100
AcDbLinetypeTableRecord
  2
CONTINUOUS
 70
0
  3
Solid line
 72
65
 73
0
 40
0.0
  0
LTYPE
  5
14
100
AcDbSymbolTableRecord
100
AcDbLinetypeTableRecord
  2
BYBLOCK
 70
0
  3

 72
65
 73
0
 40
0.0
  0
LTYPE
  5
15
100
AcDbSymbolTableRecord
100
AcDbLinetypeTableRecord
  2
BYLAYER
 70
0
  3

 72
65
 73
0
 40
0.0
  0
LTYPE
  5
3C
100
AcDbSymbolTableRecord
100
AcDbLinetypeTableRecord
  2
DASHED2
 70
0
  3
Dashed (.5x) _ _ _ _ _ _ _ _ _ _ _ _ _ _ _ _ _
 72
65
 73
2
 40
9.5250000000000004
 49
6.3499999999999996
 74
0
 49
-3.1749999999999998
 74
0
  0
LTYPE
  5
3D
100
AcDbSymbolTableRecord
100
AcDbLinetypeTableRecord
  2
CENTER
 70
0
  3
Center ____ _ ____ _ ____ _ ____ _ ____ _ ____
 72
65
 73
4
 40
50.799999999999997
 49
31.75
 74
0
 49
-6.3499999999999996
 74
0
 49
6.3499999999999996
 74
0
 49
-6.3499999999999996
 74
0
  0
LTYPE
  5
3E
100
AcDbSymbolTableRecord
100
AcDbLinetypeTableRecord
  2
DIVIDE2
 70
0
  3
Divide (.5x) __..__..__..__..__..__..__..__.._
 72
65
 73
6
 40
15.875
 49
6.3499999999999996
 74
0
 49
-3.1749999999999998
 74
0
 49
0.0
 74
0
 49
-3.1749999999999998
 74
0
 49
0.0
 74
0
 49
-3.1749999999999998
 74
0
  0
LTYPE
  5
3F
100
AcDbSymbolTableRecord
100
AcDbLinetypeTableRecord
  2
DASHED
 70
0
  3
Dashed __ __ __ __ __ __ __ __ __ __ __ __ __ _
 72
65
 73
2
 40
19.050000000000001
 49
12.699999999999999
 74
0
 49
-6.3499999999999996
 74
0
  0
LTYPE
  5
40
100
AcDbSymbolTableRecord
100
AcDbLinetypeTableRecord
  2
DOTX2
 70
0
  3
Dot (2x) .  .  .  .  .  .  .  .  .  .  .  .  .
 72
65
 73
2
 40
12.699999999999999
 49
0.0
 74
0
 49
-12.699999999999999
 74
0
  0
LTYPE
  5
41
100
AcDbSymbolTableRecord
100
AcDbLinetypeTableRecord
  2
DASHEDX2
 70
0
  3
Dashed (2x) ____  ____  ____  ____  ____  ___
 72
65
 73
2
 40
38.100000000000001
 49
25.399999999999999
 74
0
 49
-12.699999999999999
 74
0
  0
LTYPE
  5
42
100
AcDbSymbolTableRecord
100
AcDbLinetypeTableRecord
  2
DOT
 70
0
  3
Dot . . . . . . . . . . . . . . . . . . . . . .
 72
65
 73
2
 40
6.3499999999999996
 49
0.0
 74
0
 49
-6.3499999999999996
 74
0
  0
ENDTAB
  0
TABLE
  2
LAYER
  5
2
100
AcDbSymbolTable
 70
1
  0
LAYER
  5
10
100
AcDbSymbolTableRecord
100
AcDbLayerTableRecord
  2
0
 70
0
 62
7
420
16777215
  6
CONTINUOUS
370
-3
390
F
  0
ENDTAB
  0
TABLE
  2
STYLE
  5
3
100
AcDbSymbolTable
 70
0
  0
ENDTAB
  0
TABLE
  2
VIEW
  5
6
100
AcDbSymbolTable
 70
0
  0
ENDTAB
  0
TABLE
  2
UCS
  5
7
100
AcDbSymbolTable
 70
0
  0
ENDTAB
  0
TABLE
  2
APPID
  5
9
100
AcDbSymbolTable
 70
1
  0
APPID
  5
43
100
AcDbSymbolTableRecord
100
AcDbRegAppTableRecord
  2
QCAD
 70
0
  0
ENDTAB
  0
TABLE
  2
DIMSTYLE
  5
A
100
AcDbSymbolTable
 70
1
100
AcDbDimStyleTable
 71
0
  0
DIMSTYLE
105
27
100
AcDbSymbolTableRecord
100
AcDbDimStyleTableRecord
  2
Standard
 41
0.18
 42
0.0625
 43
3.75
 44
0.18
 70
0
 73
0
 74
0
 77
1
 78
8
140
0.18
141
2.5
143
0.03937007874016
147
0.09
171
3
172
1
271
2
272
2
274
3
278
44
283
0
284
8
340
11
  0
ENDTAB
  0
TABLE
  2
BLOCK_RECORD
  5
1
100
AcDbSymbolTable
 70
1
  0
BLOCK_RECORD
  5
1F
100
AcDbSymbolTableRecord
100
AcDbBlockTableRecord
  2
*Model_Space
340
22
  0
BLOCK_RECORD
  5
1B
100
AcDbSymbolTableRecord
100
AcDbBlockTableRecord
  2
*Paper_Space
340
1E
  0
BLOCK_RECORD
  5
23
100
AcDbSymbolTableRecord
100
AcDbBlockTableRecord
  2
*Paper_Space0
340
26
  0
BLOCK_RECORD
  5
44
100
AcDbSymbolTableRecord
100
AcDbBlockTableRecord
  2
*Model_Space
340
0
  0
BLOCK_RECORD
  5
45
100
AcDbSymbolTableRecord
100
AcDbBlockTableRecord
  2
*Paper_Space
340
0
  0
ENDTAB
  0
ENDSEC
  0
SECTION
  2
BLOCKS
  0
BLOCK
  5
20
100
AcDbEntity
  8
0
100
AcDbBlockBegin
  2
*Model_Space
 70
0
 10
0.0
 20
0.0
 30
0.0
  3
*Model_Space
  1

  0
BLOCK
  5
1C
100
AcDbEntity
 67
1
  8
0
100
AcDbBlockBegin
  2
*Paper_Space
 70
0
 10
0.0
 20
0.0
 30
0.0
  3
*Paper_Space
  1

  0
ENDBLK
  5
1D
100
AcDbEntity
 67
1
  8
0
100
AcDbBlockEnd
  0
ENDSEC
  0
SECTION
  2
ENTITIES
  0
LINE
  5
46
100
AcDbEntity
100
AcDbLine
  8
0
 62
0
370
-1
  6
BYLAYER
 10
126.57599999999999
 20
116.093
 30
0.0
 11
126.733
 21
116.087
 31
0.0
  0
LINE
  5
47
100
AcDbEntity
100
AcDbLine
  8
0
 62
0
370
-1
  6
BYLAYER
 10
126.733
 20
116.087
 30
0.0
 11
126.889
 21
116.06999999999999
 31
0.0
  0
LINE
  5
48
100
AcDbEntity
100
AcDbLine
  8
0
 62
0
370
-1
  6
BYLAYER
 10
126.889
 20
116.06999999999999
 30
0.0
 11
127.04300000000001
 21
116.038
 31
0.0
  0
LINE
  5
49
100
AcDbEntity
100
AcDbLine
  8
0
 62
0
370
-1
  6
BYLAYER
 10
127.04300000000001
 20
116.038
 30
0.0
 11
127.194
 21
115.997
 31
0.0
  0
LINE
  5
4A
100
AcDbEntity
100
AcDbLine
  8
0
 62
0
370
-1
  6
BYLAYER
 10
127.194
 20
115.997
 30
0.0
 11
127.34
 21
115.941
 31
0.0
  0
LINE
  5
4B
100
AcDbEntity
100
AcDbLine
  8
0
 62
0
370
-1
  6
BYLAYER
 10
127.34
 20
115.941
 30
0.0
 11
127.48399999999999
 21
115.877
 31
0.0
  0
LINE
  5
4C
100
AcDbEntity
100
AcDbLine
  8
0
 62
0
370
-1
  6
BYLAYER
 10
127.48399999999999
 20
115.877
 30
0.0
 11
127.62
 21
115.79900000000001
 31
0.0
  0
LINE
  5
4D
100
AcDbEntity
100
AcDbLine
  8
0
 62
0
370
-1
  6
BYLAYER
 10
127.62
 20
115.79900000000001
 30
0.0
 11
127.751
 21
115.71299999999999
 31
0.0
  0
LINE
  5
4E
100
AcDbEntity
100
AcDbLine
  8
0
 62
0
370
-1
  6
BYLAYER
 10
127.751
 20
115.71299999999999
 30
0.0
 11
127.875
 21
115.61499999999999
 31
0.0
  0
LINE
  5
4F
100
AcDbEntity
100
AcDbLine
  8
0
 62
0
370
-1
  6
BYLAYER
 10
127.875
 20
115.61499999999999
 30
0.0
 11
127.98999999999999
 21
115.509
 31
0.0
  0
LINE
  5
50
100
AcDbEntity
100
AcDbLine
  8
0
 62
0
370
-1
  6
BYLAYER
 10
127.98999999999999
 20
115.509
 30
0.0
 11
128.095
 21
115.393
 31
0.0
  0
LINE
  5
51
100
AcDbEntity
100
AcDbLine
  8
0
 62
0
370
-1
  6
BYLAYER
 10
128.095
 20
115.393
 30
0.0
 11
128.19300000000001
 21
115.26900000000001
 31
0.0
  0
LINE
  5
52
100
AcDbEntity
100
AcDbLine
  8
0
 62
0
370
-1
  6
BYLAYER
 10
128.19300000000001
 20
115.26900000000001
 30
0.0
 11
128.28
 21
115.13800000000001
 31
0.0
  0
LINE
  5
53
100
AcDbEntity
100
AcDbLine
  8
0
 62
0
370
-1
  6
BYLAYER
 10
128.28
 20
115.13800000000001
 30
0.0
 11
128.357
 21
115.001
 31
0.0
  0
LINE
  5
54
100
AcDbEntity
100
AcDbLine
  8
0
 62
0
370
-1
  6
BYLAYER
 10
128.357
 20
115.001
 30
0.0
 11
128.422
 21
114.86
 31
0.0
  0
LINE
  5
55
100
AcDbEntity
100
AcDbLine
  8
0
 62
0
370
-1
  6
BYLAYER
 10
128.422
 20
114.86
 30
0.0
 11
128.477
 21
114.712
 31
0.0
  0
LINE
  5
56
100
AcDbEntity
100
AcDbLine
  8
0
 62
0
370
-1
  6
BYLAYER
 10
128.477
 20
114.712
 30
0.0
 11
128.52000000000001
 21
114.56
 31
0.0
  0
LINE
  5
57
100
AcDbEntity
100
AcDbLine
  8
0
 62
0
370
-1
  6
BYLAYER
 10
128.52000000000001
 20
114.56
 30
0.0
 11
128.55000000000001
 21
114.40600000000001
 31
0.0
  0
LINE
  5
58
100
AcDbEntity
100
AcDbLine
  8
0
 62
0
370
-1
  6
BYLAYER
 10
128.55000000000001
 20
114.40600000000001
 30
0.0
 11
128.56999999999999
 21
114.25
 31
0.0
  0
LINE
  5
59
100
AcDbEntity
100
AcDbLine
  8
0
 62
0
370
-1
  6
BYLAYER
 10
128.56999999999999
 20
114.25
 30
0.0
 11
128.57499999999999
 21
114.093
 31
0.0
  0
LINE
  5
5A
100
AcDbEntity
100
AcDbLine
  8
0
 62
0
370
-1
  6
BYLAYER
 10
128.57499999999999
 20
114.093
 30
0.0
 11
128.57499999999999
 21
2.0808399999999998
 31
0.0
  0
LINE
  5
5B
100
AcDbEntity
100
AcDbLine
  8
0
 62
0
370
-1
  6
BYLAYER
 10
128.57499999999999
 20
2.0808399999999998
 30
0.0
 11
128.56999999999999
 21
1.92374
 31
0.0
  0
LINE
  5
5C
100
AcDbEntity
100
AcDbLine
  8
0
 62
0
370
-1
  6
BYLAYER
 10
128.56999999999999
 20
1.92374
 30
0.0
 11
128.55000000000001
 21
1.76664
 31
0.0
  0
LINE
  5
5D
100
AcDbEntity
100
AcDbLine
  8
0
 62
0
370
-1
  6
BYLAYER
 10
128.55000000000001
 20
1.76664
 30
0.0
 11
128.52000000000001
 21
1.61368
 31
0.0
  0
LINE
  5
5E
100
AcDbEntity
100
AcDbLine
  8
0
 62
0
370
-1
  6
BYLAYER
 10
128.52000000000001
 20
1.61368
 30
0.0
 11
128.477
 21
1.4621
 31
0.0
  0
LINE
  5
5F
100
AcDbEntity
100
AcDbLine
  8
0
 62
0
370
-1
  6
BYLAYER
 10
128.477
 20
1.4621
 30
0.0
 11
128.422
 21
1.3146500000000001
 31
0.0
  0
LINE
  5
60
100
AcDbEntity
100
AcDbLine
  8
0
 62
0
370
-1
  6
BYLAYER
 10
128.422
 20
1.3146500000000001
 30
0.0
 11
128.357
 21
1.1727099999999999
 31
0.0
  0
LINE
  5
61
100
AcDbEntity
100
AcDbLine
  8
0
 62
0
370
-1
  6
BYLAYER
 10
128.357
 20
1.1727099999999999
 30
0.0
 11
128.28
 21
1.03491
 31
0.0
  0
LINE
  5
62
100
AcDbEntity
100
AcDbLine
  8
0
 62
0
370
-1
  6
BYLAYER
 10
128.28
 20
1.03491
 30
0.0
 11
128.19300000000001
 21
0.9039930000000001
 31
0.0
  0
LINE
  5
63
100
AcDbEntity
100
AcDbLine
  8
0
 62
0
370
-1
  6
BYLAYER
 10
128.19300000000001
 20
0.9039930000000001
 30
0.0
 11
128.095
 21
0.781346
 31
0.0
  0
LINE
  5
64
100
AcDbEntity
100
AcDbLine
  8
0
 62
0
370
-1
  6
BYLAYER
 10
128.095
 20
0.781346
 30
0.0
 11
127.98999999999999
 21
0.665593
 31
0.0
  0
LINE
  5
65
100
AcDbEntity
100
AcDbLine
  8
0
 62
0
370
-1
  6
BYLAYER
 10
127.98999999999999
 20
0.665593
 30
0.0
 11
127.875
 21
0.559484
 31
0.0
  0
LINE
  5
66
100
AcDbEntity
100
AcDbLine
  8
0
 62
0
370
-1
  6
BYLAYER
 10
127.875
 20
0.559484
 30
0.0
 11
127.751
 21
0.461641
 31
0.0
  0
LINE
  5
67
100
AcDbEntity
100
AcDbLine
  8
0
 62
0
370
-1
  6
BYLAYER
 10
127.751
 20
0.461641
 30
0.0
 11
127.62
 21
0.374826
 31
0.0
  0
LINE
  5
68
100
AcDbEntity
100
AcDbLine
  8
0
 62
0
370
-1
  6
BYLAYER
 10
127.62
 20
0.374826
 30
0.0
 11
127.48399999999999
 21
0.297656
 31
0.0
  0
LINE
  5
69
100
AcDbEntity
100
AcDbLine
  8
0
 62
0
370
-1
  6
BYLAYER
 10
127.48399999999999
 20
0.297656
 30
0.0
 11
127.34
 21
0.23151
 31
0.0
  0
LINE
  5
6A
100
AcDbEntity
100
AcDbLine
  8
0
 62
0
370
-1
  6
BYLAYER
 10
127.34
 20
0.23151
 30
0.0
 11
127.194
 21
0.177767
 31
0.0
  0
LINE
  5
6B
100
AcDbEntity
100
AcDbLine
  8
0
 62
0
370
-1
  6
BYLAYER
 10
127.194
 20
0.177767
 30
0.0
 11
127.04300000000001
 21
0.135048
 31
0.0
  0
LINE
  5
6C
100
AcDbEntity
100
AcDbLine
  8
0
 62
0
370
-1
  6
BYLAYER
 10
127.04300000000001
 20
0.135048
 30
0.0
 11
126.889
 21
0.104731
 31
0.0
  0
LINE
  5
6D
100
AcDbEntity
100
AcDbLine
  8
0
 62
0
370
-1
  6
BYLAYER
 10
126.889
 20
0.104731
 30
0.0
 11
126.733
 21
0.0868165
 31
0.0
  0
LINE
  5
6E
100
AcDbEntity
100
AcDbLine
  8
0
 62
0
370
-1
  6
BYLAYER
 10
126.733
 20
0.0868165
 30
0.0
 11
126.57599999999999
 21
0.0799264
 31
0.0
  0
LINE
  5
6F
100
AcDbEntity
100
AcDbLine
  8
0
 62
0
370
-1
  6
BYLAYER
 10
126.57599999999999
 20
0.0799264
 30
0.0
 11
2.0946199999999999
 21
0.0799264
 31
0.0
  0
LINE
  5
70
100
AcDbEntity
100
AcDbLine
  8
0
 62
0
370
-1
  6
BYLAYER
 10
2.0946199999999999
 20
0.0799264
 30
0.0
 11
1.9375199999999999
 21
0.0868165
 31
0.0
  0
LINE
  5
71
100
AcDbEntity
100
AcDbLine
  8
0
 62
0
370
-1
  6
BYLAYER
 10
1.9375199999999999
 20
0.0868165
 30
0.0
 11
1.7818000000000001
 21
0.104731
 31
0.0
  0
LINE
  5
72
100
AcDbEntity
100
AcDbLine
  8
0
 62
0
370
-1
  6
BYLAYER
 10
1.7818000000000001
 20
0.104731
 30
0.0
 11
1.6274599999999999
 21
0.135048
 31
0.0
  0
LINE
  5
73
100
AcDbEntity
100
AcDbLine
  8
0
 62
0
370
-1
  6
BYLAYER
 10
1.6274599999999999
 20
0.135048
 30
0.0
 11
1.4758800000000001
 21
0.177767
 31
0.0
  0
LINE
  5
74
100
AcDbEntity
100
AcDbLine
  8
0
 62
0
370
-1
  6
BYLAYER
 10
1.4758800000000001
 20
0.177767
 30
0.0
 11
1.32843
 21
0.23151
 31
0.0
  0
LINE
  5
75
100
AcDbEntity
100
AcDbLine
  8
0
 62
0
370
-1
  6
BYLAYER
 10
1.32843
 20
0.23151
 30
0.0
 11
1.18649
 21
0.297656
 31
0.0
  0
LINE
  5
76
100
AcDbEntity
100
AcDbLine
  8
0
 62
0
370
-1
  6
BYLAYER
 10
1.18649
 20
0.297656
 30
0.0
 11
1.05006
 21
0.374826
 31
0.0
  0
LINE
  5
77
100
AcDbEntity
100
AcDbLine
  8
0
 62
0
370
-1
  6
BYLAYER
 10
1.05006
 20
0.374826
 30
0.0
 11
0.919152
 21
0.461641
 31
0.0
  0
LINE
  5
78
100
AcDbEntity
100
AcDbLine
  8
0
 62
0
370
-1
  6
BYLAYER
 10
0.919152
 20
0.461641
 30
0.0
 11
0.795129
 21
0.559484
 31
0.0
  0
LINE
  5
79
100
AcDbEntity
100
AcDbLine
  8
0
 62
0
370
-1
  6
BYLAYER
 10
0.795129
 20
0.559484
 30
0.0
 11
0.679372
 21
0.665593
 31
0.0
  0
LINE
  5
7A
100
AcDbEntity
100
AcDbLine
  8
0
 62
0
370
-1
  6
BYLAYER
 10
0.679372
 20
0.665593
 30
0.0
 11
0.573264
 21
0.781346
 31
0.0
  0
LINE
  5
7B
100
AcDbEntity
100
AcDbLine
  8
0
 62
0
370
-1
  6
BYLAYER
 10
0.573264
 20
0.781346
 30
0.0
 11
0.475424
 21
0.9039930000000001
 31
0.0
  0
LINE
  5
7C
100
AcDbEntity
100
AcDbLine
  8
0
 62
0
370
-1
  6
BYLAYER
 10
0.475424
 20
0.9039930000000001
 30
0.0
 11
0.388606
 21
1.03491
 31
0.0
  0
LINE
  5
7D
100
AcDbEntity
100
AcDbLine
  8
0
 62
0
370
-1
  6
BYLAYER
 10
0.388606
 20
1.03491
 30
0.0
 11
0.311437
 21
1.1727099999999999
 31
0.0
  0
LINE
  5
7E
100
AcDbEntity
100
AcDbLine
  8
0
 62
0
370
-1
  6
BYLAYER
 10
0.311437
 20
1.1727099999999999
 30
0.0
 11
0.246669
 21
1.3146500000000001
 31
0.0
  0
LINE
  5
7F
100
AcDbEntity
100
AcDbLine
  8
0
 62
0
370
-1
  6
BYLAYER
 10
0.246669
 20
1.3146500000000001
 30
0.0
 11
0.191547
 21
1.4621
 31
0.0
  0
LINE
  5
80
100
AcDbEntity
100
AcDbLine
  8
0
 62
0
370
-1
  6
BYLAYER
 10
0.191547
 20
1.4621
 30
0.0
 11
0.150206
 21
1.61368
 31
0.0
  0
LINE
  5
81
100
AcDbEntity
100
AcDbLine
  8
0
 62
0
370
-1
  6
BYLAYER
 10
0.150206
 20
1.61368
 30
0.0
 11
0.118511
 21
1.76664
 31
0.0
  0
LINE
  5
82
100
AcDbEntity
100
AcDbLine
  8
0
 62
0
370
-1
  6
BYLAYER
 10
0.118511
 20
1.76664
 30
0.0
 11
0.100597
 21
1.92374
 31
0.0
  0
LINE
  5
83
100
AcDbEntity
100
AcDbLine
  8
0
 62
0
370
-1
  6
BYLAYER
 10
0.100597
 20
1.92374
 30
0.0
 11
0.0937066
 21
2.0808399999999998
 31
0.0
  0
LINE
  5
84
100
AcDbEntity
100
AcDbLine
  8
0
 62
0
370
-1
  6
BYLAYER
 10
0.0937066
 20
2.0808399999999998
 30
0.0
 11
0.0950846
 21
114.093
 31
0.0
  0
LINE
  5
85
100
AcDbEntity
100
AcDbLine
  8
0
 62
0
370
-1
  6
BYLAYER
 10
0.0950846
 20
114.093
 30
0.0
 11
0.100597
 21
114.25
 31
0.0
  0
LINE
  5
86
100
AcDbEntity
100
AcDbLine
  8
0
 62
0
370
-1
  6
BYLAYER
 10
0.100597
 20
114.25
 30
0.0
 11
0.118511
 21
114.40600000000001
 31
0.0
  0
LINE
  5
87
100
AcDbEntity
100
AcDbLine
  8
0
 62
0
370
-1
  6
BYLAYER
 10
0.118511
 20
114.40600000000001
 30
0.0
 11
0.150206
 21
114.56
 31
0.0
  0
LINE
  5
88
100
AcDbEntity
100
AcDbLine
  8
0
 62
0
370
-1
  6
BYLAYER
 10
0.150206
 20
114.56
 30
0.0
 11
0.191547
 21
114.712
 31
0.0
  0
LINE
  5
89
100
AcDbEntity
100
AcDbLine
  8
0
 62
0
370
-1
  6
BYLAYER
 10
0.191547
 20
114.712
 30
0.0
 11
0.246669
 21
114.86
 31
0.0
  0
LINE
  5
8A
100
AcDbEntity
100
AcDbLine
  8
0
 62
0
370
-1
  6
BYLAYER
 10
0.246669
 20
114.86
 30
0.0
 11
0.311437
 21
115.001
 31
0.0
  0
LINE
  5
8B
100
AcDbEntity
100
AcDbLine
  8
0
 62
0
370
-1
  6
BYLAYER
 10
0.311437
 20
115.001
 30
0.0
 11
0.388606
 21
115.13800000000001
 31
0.0
  0
LINE
  5
8C
100
AcDbEntity
100
AcDbLine
  8
0
 62
0
370
-1
  6
BYLAYER
 10
0.388606
 20
115.13800000000001
 30
0.0
 11
0.475424
 21
115.26900000000001
 31
0.0
  0
LINE
  5
8D
100
AcDbEntity
100
AcDbLine
  8
0
 62
0
370
-1
  6
BYLAYER
 10
0.475424
 20
115.26900000000001
 30
0.0
 11
0.573264
 21
115.393
 31
0.0
  0
LINE
  5
8E
100
AcDbEntity
100
AcDbLine
  8
0
 62
0
370
-1
  6
BYLAYER
 10
0.573264
 20
115.393
 30
0.0
 11
0.679372
 21
115.509
 31
0.0
  0
LINE
  5
8F
100
AcDbEntity
100
AcDbLine
  8
0
 62
0
370
-1
  6
BYLAYER
 10
0.679372
 20
115.509
 30
0.0
 11
0.795129
 21
115.61499999999999
 31
0.0
  0
LINE
  5
90
100
AcDbEntity
100
AcDbLine
  8
0
 62
0
370
-1
  6
BYLAYER
 10
0.795129
 20
115.61499999999999
 30
0.0
 11
0.919152
 21
115.71299999999999
 31
0.0
  0
LINE
  5
91
100
AcDbEntity
100
AcDbLine
  8
0
 62
0
370
-1
  6
BYLAYER
 10
0.919152
 20
115.71299999999999
 30
0.0
 11
1.05006
 21
115.79900000000001
 31
0.0
  0
LINE
  5
92
100
AcDbEntity
100
AcDbLine
  8
0
 62
0
370
-1
  6
BYLAYER
 10
1.05006
 20
115.79900000000001
 30
0.0
 11
1.18649
 21
115.877
 31
0.0
  0
LINE
  5
93
100
AcDbEntity
100
AcDbLine
  8
0
 62
0
370
-1
  6
BYLAYER
 10
1.18649
 20
115.877
 30
0.0
 11
1.32843
 21
115.941
 31
0.0
  0
LINE
  5
94
100
AcDbEntity
100
AcDbLine
  8
0
 62
0
370
-1
  6
BYLAYER
 10
1.32843
 20
115.941
 30
0.0
 11
1.4758800000000001
 21
115.997
 31
0.0
  0
LINE
  5
95
100
AcDbEntity
100
AcDbLine
  8
0
 62
0
370
-1
  6
BYLAYER
 10
1.4758800000000001
 20
115.997
 30
0.0
 11
1.6274599999999999
 21
116.038
 31
0.0
  0
LINE
  5
96
100
AcDbEntity
100
AcDbLine
  8
0
 62
0
370
-1
  6
BYLAYER
 10
1.6274599999999999
 20
116.038
 30
0.0
 11
1.7818000000000001
 21
116.06999999999999
 31
0.0
  0
LINE
  5
97
100
AcDbEntity
100
AcDbLine
  8
0
 62
0
370
-1
  6
BYLAYER
 10
1.7818000000000001
 20
116.06999999999999
 30
0.0
 11
1.9375199999999999
 21
116.087
 31
0.0
  0
LINE
  5
98
100
AcDbEntity
100
AcDbLine
  8
0
 62
0
370
-1
  6
BYLAYER
 10
1.9375199999999999
 20
116.087
 30
0.0
 11
2.0946199999999999
 21
116.09399999999999
 31
0.0
  0
LINE
  5
99
100
AcDbEntity
100
AcDbLine
  8
0
 62
0
370
-1
  6
BYLAYER
 10
115.56338644246101
 20
116.09308846795849
 30
0.0
 11
126.57599999999999
 21
116.093
 31
0.0
  0
LINE
  5
9A
100
AcDbEntity
100
AcDbLine
  8
0
 62
0
370
-1
  6
BYLAYER
 10
125.61199999999999
 20
4.0073400000000001
 30
0.0
 11
125.193
 21
3.7937400000000001
 31
0.0
  0
LINE
  5
9B
100
AcDbEntity
100
AcDbLine
  8
0
 62
0
370
-1
  6
BYLAYER
 10
125.193
 20
3.7937400000000001
 30
0.0
 11
124.861
 21
3.46163
 31
0.0
  0
LINE
  5
9C
100
AcDbEntity
100
AcDbLine
  8
0
 62
0
370
-1
  6
BYLAYER
 10
124.861
 20
3.46163
 30
0.0
 11
124.649
 21
3.0440900000000002
 31
0.0
  0
LINE
  5
9D
100
AcDbEntity
100
AcDbLine
  8
0
 62
0
370
-1
  6
BYLAYER
 10
124.649
 20
3.0440900000000002
 30
0.0
 11
124.57599999999999
 21
2.5796899999999998
 31
0.0
  0
LINE
  5
9E
100
AcDbEntity
100
AcDbLine
  8
0
 62
0
370
-1
  6
BYLAYER
 10
124.57599999999999
 20
2.5796899999999998
 30
0.0
 11
124.649
 21
2.1166700000000001
 31
0.0
  0
LINE
  5
9F
100
AcDbEntity
100
AcDbLine
  8
0
 62
0
370
-1
  6
BYLAYER
 10
124.649
 20
2.1166700000000001
 30
0.0
 11
124.861
 21
1.69774
 31
0.0
  0
LINE
  5
A0
100
AcDbEntity
100
AcDbLine
  8
0
 62
0
370
-1
  6
BYLAYER
 10
124.861
 20
1.69774
 30
0.0
 11
125.193
 21
1.3656299999999999
 31
0.0
  0
LINE
  5
A1
100
AcDbEntity
100
AcDbLine
  8
0
 62
0
370
-1
  6
BYLAYER
 10
125.193
 20
1.3656299999999999
 30
0.0
 11
125.61199999999999
 21
1.1534199999999999
 31
0.0
  0
LINE
  5
A2
100
AcDbEntity
100
AcDbLine
  8
0
 62
0
370
-1
  6
BYLAYER
 10
125.61199999999999
 20
1.1534199999999999
 30
0.0
 11
126.075
 21
1.0803799999999999
 31
0.0
  0
LINE
  5
A3
100
AcDbEntity
100
AcDbLine
  8
0
 62
0
370
-1
  6
BYLAYER
 10
126.075
 20
1.0803799999999999
 30
0.0
 11
126.538
 21
1.1534199999999999
 31
0.0
  0
LINE
  5
A4
100
AcDbEntity
100
AcDbLine
  8
0
 62
0
370
-1
  6
BYLAYER
 10
126.538
 20
1.1534199999999999
 30
0.0
 11
126.95699999999999
 21
1.3656299999999999
 31
0.0
  0
LINE
  5
A5
100
AcDbEntity
100
AcDbLine
  8
0
 62
0
370
-1
  6
BYLAYER
 10
126.95699999999999
 20
1.3656299999999999
 30
0.0
 11
127.289
 21
1.69774
 31
0.0
  0
LINE
  5
A6
100
AcDbEntity
100
AcDbLine
  8
0
 62
0
370
-1
  6
BYLAYER
 10
127.289
 20
1.69774
 30
0.0
 11
127.502
 21
2.1166700000000001
 31
0.0
  0
LINE
  5
A7
100
AcDbEntity
100
AcDbLine
  8
0
 62
0
370
-1
  6
BYLAYER
 10
127.502
 20
2.1166700000000001
 30
0.0
 11
127.57599999999999
 21
2.5796899999999998
 31
0.0
  0
LINE
  5
A8
100
AcDbEntity
100
AcDbLine
  8
0
 62
0
370
-1
  6
BYLAYER
 10
127.57599999999999
 20
2.5796899999999998
 30
0.0
 11
127.502
 21
3.0440900000000002
 31
0.0
  0
LINE
  5
A9
100
AcDbEntity
100
AcDbLine
  8
0
 62
0
370
-1
  6
BYLAYER
 10
127.502
 20
3.0440900000000002
 30
0.0
 11
127.289
 21
3.46163
 31
0.0
  0
LINE
  5
AA
100
AcDbEntity
100
AcDbLine
  8
0
 62
0
370
-1
  6
BYLAYER
 10
127.289
 20
3.46163
 30
0.0
 11
126.95699999999999
 21
3.7937400000000001
 31
0.0
  0
LINE
  5
AB
100
AcDbEntity
100
AcDbLine
  8
0
 62
0
370
-1
  6
BYLAYER
 10
126.95699999999999
 20
3.7937400000000001
 30
0.0
 11
126.538
 21
4.0073400000000001
 31
0.0
  0
LINE
  5
AC
100
AcDbEntity
100
AcDbLine
  8
0
 62
0
370
-1
  6
BYLAYER
 10
126.538
 20
4.0073400000000001
 30
0.0
 11
126.075
 21
4.0803700000000003
 31
0.0
  0
LINE
  5
AD
100
AcDbEntity
100
AcDbLine
  8
0
 62
0
370
-1
  6
BYLAYER
 10
126.075
 20
4.0803700000000003
 30
0.0
 11
125.61199999999999
 21
4.0073400000000001
 31
0.0
  0
LINE
  5
AE
100
AcDbEntity
100
AcDbLine
  8
0
 62
0
370
-1
  6
BYLAYER
 10
63.872199999999999
 20
4.0073400000000001
 30
0.0
 11
63.453099999999999
 21
3.7937400000000001
 31
0.0
  0
LINE
  5
AF
100
AcDbEntity
100
AcDbLine
  8
0
 62
0
370
-1
  6
BYLAYER
 10
63.453099999999999
 20
3.7937400000000001
 30
0.0
 11
63.122500000000002
 21
3.46163
 31
0.0
  0
LINE
  5
B0
100
AcDbEntity
100
AcDbLine
  8
0
 62
0
370
-1
  6
BYLAYER
 10
63.122500000000002
 20
3.46163
 30
0.0
 11
62.908700000000003
 21
3.0440900000000002
 31
0.0
  0
LINE
  5
B1
100
AcDbEntity
100
AcDbLine
  8
0
 62
0
370
-1
  6
BYLAYER
 10
62.908700000000003
 20
3.0440900000000002
 30
0.0
 11
62.834299999999999
 21
2.5796899999999998
 31
0.0
  0
LINE
  5
B2
100
AcDbEntity
100
AcDbLine
  8
0
 62
0
370
-1
  6
BYLAYER
 10
62.834299999999999
 20
2.5796899999999998
 30
0.0
 11
62.908700000000003
 21
2.1166700000000001
 31
0.0
  0
LINE
  5
B3
100
AcDbEntity
100
AcDbLine
  8
0
 62
0
370
-1
  6
BYLAYER
 10
62.908700000000003
 20
2.1166700000000001
 30
0.0
 11
63.122500000000002
 21
1.69774
 31
0.0
  0
LINE
  5
B4
100
AcDbEntity
100
AcDbLine
  8
0
 62
0
370
-1
  6
BYLAYER
 10
63.122500000000002
 20
1.69774
 30
0.0
 11
63.453099999999999
 21
1.3656299999999999
 31
0.0
  0
LINE
  5
B5
100
AcDbEntity
100
AcDbLine
  8
0
 62
0
370
-1
  6
BYLAYER
 10
63.453099999999999
 20
1.3656299999999999
 30
0.0
 11
63.872199999999999
 21
1.1534199999999999
 31
0.0
  0
LINE
  5
B6
100
AcDbEntity
100
AcDbLine
  8
0
 62
0
370
-1
  6
BYLAYER
 10
63.872199999999999
 20
1.1534199999999999
 30
0.0
 11
64.334999999999994
 21
1.0803799999999999
 31
0.0
  0
LINE
  5
B7
100
AcDbEntity
100
AcDbLine
  8
0
 62
0
370
-1
  6
BYLAYER
 10
64.334999999999994
 20
1.0803799999999999
 30
0.0
 11
64.798199999999994
 21
1.1534199999999999
 31
0.0
  0
LINE
  5
B8
100
AcDbEntity
100
AcDbLine
  8
0
 62
0
370
-1
  6
BYLAYER
 10
64.798199999999994
 20
1.1534199999999999
 30
0.0
 11
65.216999999999999
 21
1.3656299999999999
 31
0.0
  0
LINE
  5
B9
100
AcDbEntity
100
AcDbLine
  8
0
 62
0
370
-1
  6
BYLAYER
 10
65.216999999999999
 20
1.3656299999999999
 30
0.0
 11
65.549300000000002
 21
1.69774
 31
0.0
  0
LINE
  5
BA
100
AcDbEntity
100
AcDbLine
  8
0
 62
0
370
-1
  6
BYLAYER
 10
65.549300000000002
 20
1.69774
 30
0.0
 11
65.761300000000006
 21
2.1166700000000001
 31
0.0
  0
LINE
  5
BB
100
AcDbEntity
100
AcDbLine
  8
0
 62
0
370
-1
  6
BYLAYER
 10
65.761300000000006
 20
2.1166700000000001
 30
0.0
 11
65.834299999999999
 21
2.5796899999999998
 31
0.0
  0
LINE
  5
BC
100
AcDbEntity
100
AcDbLine
  8
0
 62
0
370
-1
  6
BYLAYER
 10
65.834299999999999
 20
2.5796899999999998
 30
0.0
 11
65.761300000000006
 21
3.0440900000000002
 31
0.0
  0
LINE
  5
BD
100
AcDbEntity
100
AcDbLine
  8
0
 62
0
370
-1
  6
BYLAYER
 10
65.761300000000006
 20
3.0440900000000002
 30
0.0
 11
65.549300000000002
 21
3.46163
 31
0.0
  0
LINE
  5
BE
100
AcDbEntity
100
AcDbLine
  8
0
 62
0
370
-1
  6
BYLAYER
 10
65.549300000000002
 20
3.46163
 30
0.0
 11
65.216999999999999
 21
3.7937400000000001
 31
0.0
  0
LINE
  5
BF
100
AcDbEntity
100
AcDbLine
  8
0
 62
0
370
-1
  6
BYLAYER
 10
65.216999999999999
 20
3.7937400000000001
 30
0.0
 11
64.798199999999994
 21
4.0073400000000001
 31
0.0
  0
LINE
  5
C0
100
AcDbEntity
100
AcDbLine
  8
0
 62
0
370
-1
  6
BYLAYER
 10
64.798199999999994
 20
4.0073400000000001
 30
0.0
 11
64.334999999999994
 21
4.0803700000000003
 31
0.0
  0
LINE
  5
C1
100
AcDbEntity
100
AcDbLine
  8
0
 62
0
370
-1
  6
BYLAYER
 10
64.334999999999994
 20
4.0803700000000003
 30
0.0
 11
63.872199999999999
 21
4.0073400000000001
 31
0.0
  0
LINE
  5
C2
100
AcDbEntity
100
AcDbLine
  8
0
 62
0
370
-1
  6
BYLAYER
 10
2.1304500000000002
 20
4.0073400000000001
 30
0.0
 11
1.7129000000000001
 21
3.7937400000000001
 31
0.0
  0
LINE
  5
C3
100
AcDbEntity
100
AcDbLine
  8
0
 62
0
370
-1
  6
BYLAYER
 10
1.7129000000000001
 20
3.7937400000000001
 30
0.0
 11
1.38079
 21
3.46163
 31
0.0
  0
LINE
  5
C4
100
AcDbEntity
100
AcDbLine
  8
0
 62
0
370
-1
  6
BYLAYER
 10
1.38079
 20
3.46163
 30
0.0
 11
1.1672
 21
3.0440900000000002
 31
0.0
  0
LINE
  5
C5
100
AcDbEntity
100
AcDbLine
  8
0
 62
0
370
-1
  6
BYLAYER
 10
1.1672
 20
3.0440900000000002
 30
0.0
 11
1.09416
 21
2.5796899999999998
 31
0.0
  0
LINE
  5
C6
100
AcDbEntity
100
AcDbLine
  8
0
 62
0
370
-1
  6
BYLAYER
 10
1.09416
 20
2.5796899999999998
 30
0.0
 11
1.1672
 21
2.1166700000000001
 31
0.0
  0
LINE
  5
C7
100
AcDbEntity
100
AcDbLine
  8
0
 62
0
370
-1
  6
BYLAYER
 10
1.1672
 20
2.1166700000000001
 30
0.0
 11
1.38079
 21
1.69774
 31
0.0
  0
LINE
  5
C8
100
AcDbEntity
100
AcDbLine
  8
0
 62
0
370
-1
  6
BYLAYER
 10
1.38079
 20
1.69774
 30
0.0
 11
1.7129000000000001
 21
1.3656299999999999
 31
0.0
  0
LINE
  5
C9
100
AcDbEntity
100
AcDbLine
  8
0
 62
0
370
-1
  6
BYLAYER
 10
1.7129000000000001
 20
1.3656299999999999
 30
0.0
 11
2.1304500000000002
 21
1.1534199999999999
 31
0.0
  0
LINE
  5
CA
100
AcDbEntity
100
AcDbLine
  8
0
 62
0
370
-1
  6
BYLAYER
 10
2.1304500000000002
 20
1.1534199999999999
 30
0.0
 11
2.5948500000000001
 21
1.0803799999999999
 31
0.0
  0
LINE
  5
CB
100
AcDbEntity
100
AcDbLine
  8
0
 62
0
370
-1
  6
BYLAYER
 10
2.5948500000000001
 20
1.0803799999999999
 30
0.0
 11
3.0578699999999999
 21
1.1534199999999999
 31
0.0
  0
LINE
  5
CC
100
AcDbEntity
100
AcDbLine
  8
0
 62
0
370
-1
  6
BYLAYER
 10
3.0578699999999999
 20
1.1534199999999999
 30
0.0
 11
3.4754100000000001
 21
1.3656299999999999
 31
0.0
  0
LINE
  5
CD
100
AcDbEntity
100
AcDbLine
  8
0
 62
0
370
-1
  6
BYLAYER
 10
3.4754100000000001
 20
1.3656299999999999
 30
0.0
 11
3.8075299999999999
 21
1.69774
 31
0.0
  0
LINE
  5
CE
100
AcDbEntity
100
AcDbLine
  8
0
 62
0
370
-1
  6
BYLAYER
 10
3.8075299999999999
 20
1.69774
 30
0.0
 11
4.0210999999999997
 21
2.1166700000000001
 31
0.0
  0
LINE
  5
CF
100
AcDbEntity
100
AcDbLine
  8
0
 62
0
370
-1
  6
BYLAYER
 10
4.0210999999999997
 20
2.1166700000000001
 30
0.0
 11
4.0941599999999996
 21
2.5796899999999998
 31
0.0
  0
LINE
  5
D0
100
AcDbEntity
100
AcDbLine
  8
0
 62
0
370
-1
  6
BYLAYER
 10
4.0941599999999996
 20
2.5796899999999998
 30
0.0
 11
4.0210999999999997
 21
3.0440900000000002
 31
0.0
  0
LINE
  5
D1
100
AcDbEntity
100
AcDbLine
  8
0
 62
0
370
-1
  6
BYLAYER
 10
4.0210999999999997
 20
3.0440900000000002
 30
0.0
 11
3.8075299999999999
 21
3.46163
 31
0.0
  0
LINE
  5
D2
100
AcDbEntity
100
AcDbLine
  8
0
 62
0
370
-1
  6
BYLAYER
 10
3.8075299999999999
 20
3.46163
 30
0.0
 11
3.4754100000000001
 21
3.7937400000000001
 31
0.0
  0
LINE
  5
D3
100
AcDbEntity
100
AcDbLine
  8
0
 62
0
370
-1
  6
BYLAYER
 10
3.4754100000000001
 20
3.7937400000000001
 30
0.0
 11
3.0578699999999999
 21
4.0073400000000001
 31
0.0
  0
LINE
  5
D4
100
AcDbEntity
100
AcDbLine
  8
0
 62
0
370
-1
  6
BYLAYER
 10
3.0578699999999999
 20
4.0073400000000001
 30
0.0
 11
2.5948500000000001
 21
4.0803700000000003
 31
0.0
  0
LINE
  5
D5
100
AcDbEntity
100
AcDbLine
  8
0
 62
0
370
-1
  6
BYLAYER
 10
2.5948500000000001
 20
4.0803700000000003
 30
0.0
 11
2.1304500000000002
 21
4.0073400000000001
 31
0.0
  0
LINE
  5
D6
100
AcDbEntity
100
AcDbLine
  8
0
 62
0
370
-1
  6
BYLAYER
 10
5.0945999999999998
 20
111.093
 30
0.0
 11
80.769500000000406
 21
111.09300000000002
 31
0.0
  0
LINE
  5
D7
100
AcDbEntity
100
AcDbLine
  8
0
 62
0
370
-1
  6
BYLAYER
 10
123.57599999999999
 20
111.093
 30
0.0
 11
123.57599999999999
 21
5.0808099999999996
 31
0.0
  0
LINE
  5
D8
100
AcDbEntity
100
AcDbLine
  8
0
 62
0
370
-1
  6
BYLAYER
 10
123.57599999999999
 20
5.0808099999999996
 30
0.0
 11
5.0945999999999998
 21
5.0808099999999996
 31
0.0
  0
LINE
  5
D9
100
AcDbEntity
100
AcDbLine
  8
0
 62
0
370
-1
  6
BYLAYER
 10
5.0945999999999998
 20
5.0808099999999996
 30
0.0
 11
5.0945999999999998
 21
111.093
 31
0.0
  0
LINE
  5
DA
100
AcDbEntity
100
AcDbLine
  8
0
 62
0
370
-1
  6
BYLAYER
 10
125.61199999999999
 20
59.513300000000001
 30
0.0
 11
125.193
 21
59.299799999999998
 31
0.0
  0
LINE
  5
DB
100
AcDbEntity
100
AcDbLine
  8
0
 62
0
370
-1
  6
BYLAYER
 10
125.193
 20
59.299799999999998
 30
0.0
 11
124.861
 21
58.967500000000001
 31
0.0
  0
LINE
  5
DC
100
AcDbEntity
100
AcDbLine
  8
0
 62
0
370
-1
  6
BYLAYER
 10
124.861
 20
58.967500000000001
 30
0.0
 11
124.649
 21
58.550199999999997
 31
0.0
  0
LINE
  5
DD
100
AcDbEntity
100
AcDbLine
  8
0
 62
0
370
-1
  6
BYLAYER
 10
124.649
 20
58.550199999999997
 30
0.0
 11
124.57599999999999
 21
58.087000000000003
 31
0.0
  0
LINE
  5
DE
100
AcDbEntity
100
AcDbLine
  8
0
 62
0
370
-1
  6
BYLAYER
 10
124.57599999999999
 20
58.087000000000003
 30
0.0
 11
124.649
 21
57.622700000000002
 31
0.0
  0
LINE
  5
DF
100
AcDbEntity
100
AcDbLine
  8
0
 62
0
370
-1
  6
BYLAYER
 10
124.649
 20
57.622700000000002
 30
0.0
 11
124.861
 21
57.204999999999998
 31
0.0
  0
LINE
  5
E0
100
AcDbEntity
100
AcDbLine
  8
0
 62
0
370
-1
  6
BYLAYER
 10
124.861
 20
57.204999999999998
 30
0.0
 11
125.193
 21
56.873100000000001
 31
0.0
  0
LINE
  5
E1
100
AcDbEntity
100
AcDbLine
  8
0
 62
0
370
-1
  6
BYLAYER
 10
125.193
 20
56.873100000000001
 30
0.0
 11
125.61199999999999
 21
56.660699999999999
 31
0.0
  0
LINE
  5
E2
100
AcDbEntity
100
AcDbLine
  8
0
 62
0
370
-1
  6
BYLAYER
 10
125.61199999999999
 20
56.660699999999999
 30
0.0
 11
126.075
 21
56.587699999999998
 31
0.0
  0
LINE
  5
E3
100
AcDbEntity
100
AcDbLine
  8
0
 62
0
370
-1
  6
BYLAYER
 10
126.075
 20
56.587699999999998
 30
0.0
 11
126.538
 21
56.660699999999999
 31
0.0
  0
LINE
  5
E4
100
AcDbEntity
100
AcDbLine
  8
0
 62
0
370
-1
  6
BYLAYER
 10
126.538
 20
56.660699999999999
 30
0.0
 11
126.95699999999999
 21
56.873100000000001
 31
0.0
  0
LINE
  5
E5
100
AcDbEntity
100
AcDbLine
  8
0
 62
0
370
-1
  6
BYLAYER
 10
126.95699999999999
 20
56.873100000000001
 30
0.0
 11
127.289
 21
57.204999999999998
 31
0.0
  0
LINE
  5
E6
100
AcDbEntity
100
AcDbLine
  8
0
 62
0
370
-1
  6
BYLAYER
 10
127.289
 20
57.204999999999998
 30
0.0
 11
127.502
 21
57.622700000000002
 31
0.0
  0
LINE
  5
E7
100
AcDbEntity
100
AcDbLine
  8
0
 62
0
370
-1
  6
BYLAYER
 10
127.502
 20
57.622700000000002
 30
0.0
 11
127.57599999999999
 21
58.087000000000003
 31
0.0
  0
LINE
  5
E8
100
AcDbEntity
100
AcDbLine
  8
0
 62
0
370
-1
  6
BYLAYER
 10
127.57599999999999
 20
58.087000000000003
 30
0.0
 11
127.502
 21
58.550199999999997
 31
0.0
  0
LINE
  5
E9
100
AcDbEntity
100
AcDbLine
  8
0
 62
0
370
-1
  6
BYLAYER
 10
127.502
 20
58.550199999999997
 30
0.0
 11
127.289
 21
58.967500000000001
 31
0.0
  0
LINE
  5
EA
100
AcDbEntity
100
AcDbLine
  8
0
 62
0
370
-1
  6
BYLAYER
 10
127.289
 20
58.967500000000001
 30
0.0
 11
126.95699999999999
 21
59.299799999999998
 31
0.0
  0
LINE
  5
EB
100
AcDbEntity
100
AcDbLine
  8
0
 62
0
370
-1
  6
BYLAYER
 10
126.95699999999999
 20
59.299799999999998
 30
0.0
 11
126.538
 21
59.513300000000001
 31
0.0
  0
LINE
  5
EC
100
AcDbEntity
100
AcDbLine
  8
0
 62
0
370
-1
  6
BYLAYER
 10
126.538
 20
59.513300000000001
 30
0.0
 11
126.075
 21
59.587699999999998
 31
0.0
  0
LINE
  5
ED
100
AcDbEntity
100
AcDbLine
  8
0
 62
0
370
-1
  6
BYLAYER
 10
126.075
 20
59.587699999999998
 30
0.0
 11
125.61199999999999
 21
59.513300000000001
 31
0.0
  0
LINE
  5
EE
100
AcDbEntity
100
AcDbLine
  8
0
 62
0
370
-1
  6
BYLAYER
 10
2.1304500000000002
 20
59.513300000000001
 30
0.0
 11
1.7129000000000001
 21
59.299799999999998
 31
0.0
  0
LINE
  5
EF
100
AcDbEntity
100
AcDbLine
  8
0
 62
0
370
-1
  6
BYLAYER
 10
1.7129000000000001
 20
59.299799999999998
 30
0.0
 11
1.38079
 21
58.967500000000001
 31
0.0
  0
LINE
  5
F0
100
AcDbEntity
100
AcDbLine
  8
0
 62
0
370
-1
  6
BYLAYER
 10
1.38079
 20
58.967500000000001
 30
0.0
 11
1.1672
 21
58.550199999999997
 31
0.0
  0
LINE
  5
F1
100
AcDbEntity
100
AcDbLine
  8
0
 62
0
370
-1
  6
BYLAYER
 10
1.1672
 20
58.550199999999997
 30
0.0
 11
1.09416
 21
58.087000000000003
 31
0.0
  0
LINE
  5
F2
100
AcDbEntity
100
AcDbLine
  8
0
 62
0
370
-1
  6
BYLAYER
 10
1.09416
 20
58.087000000000003
 30
0.0
 11
1.1672
 21
57.622700000000002
 31
0.0
  0
LINE
  5
F3
100
AcDbEntity
100
AcDbLine
  8
0
 62
0
370
-1
  6
BYLAYER
 10
1.1672
 20
57.622700000000002
 30
0.0
 11
1.38079
 21
57.204999999999998
 31
0.0
  0
LINE
  5
F4
100
AcDbEntity
100
AcDbLine
  8
0
 62
0
370
-1
  6
BYLAYER
 10
1.38079
 20
57.204999999999998
 30
0.0
 11
1.7129000000000001
 21
56.873100000000001
 31
0.0
  0
LINE
  5
F5
100
AcDbEntity
100
AcDbLine
  8
0
 62
0
370
-1
  6
BYLAYER
 10
1.7129000000000001
 20
56.873100000000001
 30
0.0
 11
2.1304500000000002
 21
56.660699999999999
 31
0.0
  0
LINE
  5
F6
100
AcDbEntity
100
AcDbLine
  8
0
 62
0
370
-1
  6
BYLAYER
 10
2.1304500000000002
 20
56.660699999999999
 30
0.0
 11
2.5948500000000001
 21
56.587699999999998
 31
0.0
  0
LINE
  5
F7
100
AcDbEntity
100
AcDbLine
  8
0
 62
0
370
-1
  6
BYLAYER
 10
2.5948500000000001
 20
56.587699999999998
 30
0.0
 11
3.0578699999999999
 21
56.660699999999999
 31
0.0
  0
LINE
  5
F8
100
AcDbEntity
100
AcDbLine
  8
0
 62
0
370
-1
  6
BYLAYER
 10
3.0578699999999999
 20
56.660699999999999
 30
0.0
 11
3.4754100000000001
 21
56.873100000000001
 31
0.0
  0
LINE
  5
F9
100
AcDbEntity
100
AcDbLine
  8
0
 62
0
370
-1
  6
BYLAYER
 10
3.4754100000000001
 20
56.873100000000001
 30
0.0
 11
3.8075299999999999
 21
57.204999999999998
 31
0.0
  0
LINE
  5
FA
100
AcDbEntity
100
AcDbLine
  8
0
 62
0
370
-1
  6
BYLAYER
 10
3.8075299999999999
 20
57.204999999999998
 30
0.0
 11
4.0210999999999997
 21
57.622700000000002
 31
0.0
  0
LINE
  5
FB
100
AcDbEntity
100
AcDbLine
  8
0
 62
0
370
-1
  6
BYLAYER
 10
4.0210999999999997
 20
57.622700000000002
 30
0.0
 11
4.0941599999999996
 21
58.087000000000003
 31
0.0
  0
LINE
  5
FC
100
AcDbEntity
100
AcDbLine
  8
0
 62
0
370
-1
  6
BYLAYER
 10
4.0941599999999996
 20
58.087000000000003
 30
0.0
 11
4.0210999999999997
 21
58.550199999999997
 31
0.0
  0
LINE
  5
FD
100
AcDbEntity
100
AcDbLine
  8
0
 62
0
370
-1
  6
BYLAYER
 10
4.0210999999999997
 20
58.550199999999997
 30
0.0
 11
3.8075299999999999
 21
58.967500000000001
 31
0.0
  0
LINE
  5
FE
100
AcDbEntity
100
AcDbLine
  8
0
 62
0
370
-1
  6
BYLAYER
 10
3.8075299999999999
 20
58.967500000000001
 30
0.0
 11
3.4754100000000001
 21
59.299799999999998
 31
0.0
  0
LINE
  5
FF
100
AcDbEntity
100
AcDbLine
  8
0
 62
0
370
-1
  6
BYLAYER
 10
3.4754100000000001
 20
59.299799999999998
 30
0.0
 11
3.0578699999999999
 21
59.513300000000001
 31
0.0
  0
LINE
  5
100
100
AcDbEntity
100
AcDbLine
  8
0
 62
0
370
-1
  6
BYLAYER
 10
3.0578699999999999
 20
59.513300000000001
 30
0.0
 11
2.5948500000000001
 21
59.587699999999998
 31
0.0
  0
LINE
  5
101
100
AcDbEntity
100
AcDbLine
  8
0
 62
0
370
-1
  6
BYLAYER
 10
2.5948500000000001
 20
59.587699999999998
 30
0.0
 11
2.1304500000000002
 21
59.513300000000001
 31
0.0
  0
LINE
  5
102
100
AcDbEntity
100
AcDbLine
  8
0
 62
0
370
-1
  6
BYLAYER
 10
63.872199999999999
 20
115.021
 30
0.0
 11
63.453099999999999
 21
114.807
 31
0.0
  0
LINE
  5
103
100
AcDbEntity
100
AcDbLine
  8
0
 62
0
370
-1
  6
BYLAYER
 10
63.453099999999999
 20
114.807
 30
0.0
 11
63.122500000000002
 21
114.47499999999999
 31
0.0
  0
LINE
  5
104
100
AcDbEntity
100
AcDbLine
  8
0
 62
0
370
-1
  6
BYLAYER
 10
63.122500000000002
 20
114.47499999999999
 30
0.0
 11
62.908700000000003
 21
114.05800000000001
 31
0.0
  0
LINE
  5
105
100
AcDbEntity
100
AcDbLine
  8
0
 62
0
370
-1
  6
BYLAYER
 10
62.908700000000003
 20
114.05800000000001
 30
0.0
 11
62.834299999999999
 21
113.593
 31
0.0
  0
LINE
  5
106
100
AcDbEntity
100
AcDbLine
  8
0
 62
0
370
-1
  6
BYLAYER
 10
62.834299999999999
 20
113.593
 30
0.0
 11
62.908700000000003
 21
113.13
 31
0.0
  0
LINE
  5
107
100
AcDbEntity
100
AcDbLine
  8
0
 62
0
370
-1
  6
BYLAYER
 10
62.908700000000003
 20
113.13
 30
0.0
 11
63.122500000000002
 21
112.71299999999999
 31
0.0
  0
LINE
  5
108
100
AcDbEntity
100
AcDbLine
  8
0
 62
0
370
-1
  6
BYLAYER
 10
63.122500000000002
 20
112.71299999999999
 30
0.0
 11
63.453099999999999
 21
112.381
 31
0.0
  0
LINE
  5
109
100
AcDbEntity
100
AcDbLine
  8
0
 62
0
370
-1
  6
BYLAYER
 10
63.453099999999999
 20
112.381
 30
0.0
 11
63.872199999999999
 21
112.167
 31
0.0
  0
LINE
  5
10A
100
AcDbEntity
100
AcDbLine
  8
0
 62
0
370
-1
  6
BYLAYER
 10
63.872199999999999
 20
112.167
 30
0.0
 11
64.334999999999994
 21
112.09399999999999
 31
0.0
  0
LINE
  5
10B
100
AcDbEntity
100
AcDbLine
  8
0
 62
0
370
-1
  6
BYLAYER
 10
64.334999999999994
 20
112.09399999999999
 30
0.0
 11
64.798199999999994
 21
112.167
 31
0.0
  0
LINE
  5
10C
100
AcDbEntity
100
AcDbLine
  8
0
 62
0
370
-1
  6
BYLAYER
 10
64.798199999999994
 20
112.167
 30
0.0
 11
65.216999999999999
 21
112.381
 31
0.0
  0
LINE
  5
10D
100
AcDbEntity
100
AcDbLine
  8
0
 62
0
370
-1
  6
BYLAYER
 10
65.216999999999999
 20
112.381
 30
0.0
 11
65.549300000000002
 21
112.71299999999999
 31
0.0
  0
LINE
  5
10E
100
AcDbEntity
100
AcDbLine
  8
0
 62
0
370
-1
  6
BYLAYER
 10
65.549300000000002
 20
112.71299999999999
 30
0.0
 11
65.761300000000006
 21
113.13
 31
0.0
  0
LINE
  5
10F
100
AcDbEntity
100
AcDbLine
  8
0
 62
0
370
-1
  6
BYLAYER
 10
65.761300000000006
 20
113.13
 30
0.0
 11
65.834299999999999
 21
113.593
 31
0.0
  0
LINE
  5
110
100
AcDbEntity
100
AcDbLine
  8
0
 62
0
370
-1
  6
BYLAYER
 10
65.834299999999999
 20
113.593
 30
0.0
 11
65.761300000000006
 21
114.05800000000001
 31
0.0
  0
LINE
  5
111
100
AcDbEntity
100
AcDbLine
  8
0
 62
0
370
-1
  6
BYLAYER
 10
65.761300000000006
 20
114.05800000000001
 30
0.0
 11
65.549300000000002
 21
114.47499999999999
 31
0.0
  0
LINE
  5
112
100
AcDbEntity
100
AcDbLine
  8
0
 62
0
370
-1
  6
BYLAYER
 10
65.549300000000002
 20
114.47499999999999
 30
0.0
 11
65.216999999999999
 21
114.807
 31
0.0
  0
LINE
  5
113
100
AcDbEntity
100
AcDbLine
  8
0
 62
0
370
-1
  6
BYLAYER
 10
65.216999999999999
 20
114.807
 30
0.0
 11
64.798199999999994
 21
115.021
 31
0.0
  0
LINE
  5
114
100
AcDbEntity
100
AcDbLine
  8
0
 62
0
370
-1
  6
BYLAYER
 10
64.798199999999994
 20
115.021
 30
0.0
 11
64.334999999999994
 21
115.09399999999999
 31
0.0
  0
LINE
  5
115
100
AcDbEntity
100
AcDbLine
  8
0
 62
0
370
-1
  6
BYLAYER
 10
64.334999999999994
 20
115.09399999999999
 30
0.0
 11
63.872199999999999
 21
115.021
 31
0.0
  0
LINE
  5
116
100
AcDbEntity
100
AcDbLine
  8
0
 62
0
370
-1
  6
BYLAYER
 10
125.61199999999999
 20
115.021
 30
0.0
 11
125.193
 21
114.807
 31
0.0
  0
LINE
  5
117
100
AcDbEntity
100
AcDbLine
  8
0
 62
0
370
-1
  6
BYLAYER
 10
125.193
 20
114.807
 30
0.0
 11
124.861
 21
114.47499999999999
 31
0.0
  0
LINE
  5
118
100
AcDbEntity
100
AcDbLine
  8
0
 62
0
370
-1
  6
BYLAYER
 10
124.861
 20
114.47499999999999
 30
0.0
 11
124.649
 21
114.05800000000001
 31
0.0
  0
LINE
  5
119
100
AcDbEntity
100
AcDbLine
  8
0
 62
0
370
-1
  6
BYLAYER
 10
124.649
 20
114.05800000000001
 30
0.0
 11
124.57599999999999
 21
113.593
 31
0.0
  0
LINE
  5
11A
100
AcDbEntity
100
AcDbLine
  8
0
 62
0
370
-1
  6
BYLAYER
 10
124.57599999999999
 20
113.593
 30
0.0
 11
124.649
 21
113.13
 31
0.0
  0
LINE
  5
11B
100
AcDbEntity
100
AcDbLine
  8
0
 62
0
370
-1
  6
BYLAYER
 10
124.649
 20
113.13
 30
0.0
 11
124.861
 21
112.71299999999999
 31
0.0
  0
LINE
  5
11C
100
AcDbEntity
100
AcDbLine
  8
0
 62
0
370
-1
  6
BYLAYER
 10
124.861
 20
112.71299999999999
 30
0.0
 11
125.193
 21
112.381
 31
0.0
  0
LINE
  5
11D
100
AcDbEntity
100
AcDbLine
  8
0
 62
0
370
-1
  6
BYLAYER
 10
125.193
 20
112.381
 30
0.0
 11
125.61199999999999
 21
112.167
 31
0.0
  0
LINE
  5
11E
100
AcDbEntity
100
AcDbLine
  8
0
 62
0
370
-1
  6
BYLAYER
 10
125.61199999999999
 20
112.167
 30
0.0
 11
126.075
 21
112.09399999999999
 31
0.0
  0
LINE
  5
11F
100
AcDbEntity
100
AcDbLine
  8
0
 62
0
370
-1
  6
BYLAYER
 10
126.075
 20
112.09399999999999
 30
0.0
 11
126.538
 21
112.167
 31
0.0
  0
LINE
  5
120
100
AcDbEntity
100
AcDbLine
  8
0
 62
0
370
-1
  6
BYLAYER
 10
126.538
 20
112.167
 30
0.0
 11
126.95699999999999
 21
112.381
 31
0.0
  0
LINE
  5
121
100
AcDbEntity
100
AcDbLine
  8
0
 62
0
370
-1
  6
BYLAYER
 10
126.95699999999999
 20
112.381
 30
0.0
 11
127.289
 21
112.71299999999999
 31
0.0
  0
LINE
  5
122
100
AcDbEntity
100
AcDbLine
  8
0
 62
0
370
-1
  6
BYLAYER
 10
127.289
 20
112.71299999999999
 30
0.0
 11
127.502
 21
113.13
 31
0.0
  0
LINE
  5
123
100
AcDbEntity
100
AcDbLine
  8
0
 62
0
370
-1
  6
BYLAYER
 10
127.502
 20
113.13
 30
0.0
 11
127.57599999999999
 21
113.593
 31
0.0
  0
LINE
  5
124
100
AcDbEntity
100
AcDbLine
  8
0
 62
0
370
-1
  6
BYLAYER
 10
127.57599999999999
 20
113.593
 30
0.0
 11
127.502
 21
114.05800000000001
 31
0.0
  0
LINE
  5
125
100
AcDbEntity
100
AcDbLine
  8
0
 62
0
370
-1
  6
BYLAYER
 10
127.502
 20
114.05800000000001
 30
0.0
 11
127.289
 21
114.47499999999999
 31
0.0
  0
LINE
  5
126
100
AcDbEntity
100
AcDbLine
  8
0
 62
0
370
-1
  6
BYLAYER
 10
127.289
 20
114.47499999999999
 30
0.0
 11
126.95699999999999
 21
114.807
 31
0.0
  0
LINE
  5
127
100
AcDbEntity
100
AcDbLine
  8
0
 62
0
370
-1
  6
BYLAYER
 10
126.95699999999999
 20
114.807
 30
0.0
 11
126.538
 21
115.021
 31
0.0
  0
LINE
  5
128
100
AcDbEntity
100
AcDbLine
  8
0
 62
0
370
-1
  6
BYLAYER
 10
126.538
 20
115.021
 30
0.0
 11
126.075
 21
115.09399999999999
 31
0.0
  0
LINE
  5
129
100
AcDbEntity
100
AcDbLine
  8
0
 62
0
370
-1
  6
BYLAYER
 10
126.075
 20
115.09399999999999
 30
0.0
 11
125.61199999999999
 21
115.021
 31
0.0
  0
LINE
  5
12A
100
AcDbEntity
100
AcDbLine
  8
0
 62
0
370
-1
  6
BYLAYER
 10
2.1304500000000002
 20
115.021
 30
0.0
 11
1.7129000000000001
 21
114.807
 31
0.0
  0
LINE
  5
12B
100
AcDbEntity
100
AcDbLine
  8
0
 62
0
370
-1
  6
BYLAYER
 10
1.7129000000000001
 20
114.807
 30
0.0
 11
1.38079
 21
114.47499999999999
 31
0.0
  0
LINE
  5
12C
100
AcDbEntity
100
AcDbLine
  8
0
 62
0
370
-1
  6
BYLAYER
 10
1.38079
 20
114.47499999999999
 30
0.0
 11
1.1672
 21
114.05800000000001
 31
0.0
  0
LINE
  5
12D
100
AcDbEntity
100
AcDbLine
  8
0
 62
0
370
-1
  6
BYLAYER
 10
1.1672
 20
114.05800000000001
 30
0.0
 11
1.09416
 21
113.593
 31
0.0
  0
LINE
  5
12E
100
AcDbEntity
100
AcDbLine
  8
0
 62
0
370
-1
  6
BYLAYER
 10
1.09416
 20
113.593
 30
0.0
 11
1.1672
 21
113.13
 31
0.0
  0
LINE
  5
12F
100
AcDbEntity
100
AcDbLine
  8
0
 62
0
370
-1
  6
BYLAYER
 10
1.1672
 20
113.13
 30
0.0
 11
1.38079
 21
112.71299999999999
 31
0.0
  0
LINE
  5
130
100
AcDbEntity
100
AcDbLine
  8
0
 62
0
370
-1
  6
BYLAYER
 10
1.38079
 20
112.71299999999999
 30
0.0
 11
1.7129000000000001
 21
112.381
 31
0.0
  0
LINE
  5
131
100
AcDbEntity
100
AcDbLine
  8
0
 62
0
370
-1
  6
BYLAYER
 10
1.7129000000000001
 20
112.381
 30
0.0
 11
2.1304500000000002
 21
112.167
 31
0.0
  0
LINE
  5
132
100
AcDbEntity
100
AcDbLine
  8
0
 62
0
370
-1
  6
BYLAYER
 10
2.1304500000000002
 20
112.167
 30
0.0
 11
2.5948500000000001
 21
112.09399999999999
 31
0.0
  0
LINE
  5
133
100
AcDbEntity
100
AcDbLine
  8
0
 62
0
370
-1
  6
BYLAYER
 10
2.5948500000000001
 20
112.09399999999999
 30
0.0
 11
3.0578699999999999
 21
112.167
 31
0.0
  0
LINE
  5
134
100
AcDbEntity
100
AcDbLine
  8
0
 62
0
370
-1
  6
BYLAYER
 10
3.0578699999999999
 20
112.167
 30
0.0
 11
3.4754100000000001
 21
112.381
 31
0.0
  0
LINE
  5
135
100
AcDbEntity
100
AcDbLine
  8
0
 62
0
370
-1
  6
BYLAYER
 10
3.4754100000000001
 20
112.381
 30
0.0
 11
3.8075299999999999
 21
112.71299999999999
 31
0.0
  0
LINE
  5
136
100
AcDbEntity
100
AcDbLine
  8
0
 62
0
370
-1
  6
BYLAYER
 10
3.8075299999999999
 20
112.71299999999999
 30
0.0
 11
4.0210999999999997
 21
113.13
 31
0.0
  0
LINE
  5
137
100
AcDbEntity
100
AcDbLine
  8
0
 62
0
370
-1
  6
BYLAYER
 10
4.0210999999999997
 20
113.13
 30
0.0
 11
4.0941599999999996
 21
113.593
 31
0.0
  0
LINE
  5
138
100
AcDbEntity
100
AcDbLine
  8
0
 62
0
370
-1
  6
BYLAYER
 10
4.0941599999999996
 20
113.593
 30
0.0
 11
4.0210999999999997
 21
114.05800000000001
 31
0.0
  0
LINE
  5
139
100
AcDbEntity
100
AcDbLine
  8
0
 62
0
370
-1
  6
BYLAYER
 10
4.0210999999999997
 20
114.05800000000001
 30
0.0
 11
3.8075299999999999
 21
114.47499999999999
 31
0.0
  0
LINE
  5
13A
100
AcDbEntity
100
AcDbLine
  8
0
 62
0
370
-1
  6
BYLAYER
 10
3.8075299999999999
 20
114.47499999999999
 30
0.0
 11
3.4754100000000001
 21
114.807
 31
0.0
  0
LINE
  5
13B
100
AcDbEntity
100
AcDbLine
  8
0
 62
0
370
-1
  6
BYLAYER
 10
3.4754100000000001
 20
114.807
 30
0.0
 11
3.0578699999999999
 21
115.021
 31
0.0
  0
LINE
  5
13C
100
AcDbEntity
100
AcDbLine
  8
0
 62
0
370
-1
  6
BYLAYER
 10
3.0578699999999999
 20
115.021
 30
0.0
 11
2.5948500000000001
 21
115.09399999999999
 31
0.0
  0
LINE
  5
13D
100
AcDbEntity
100
AcDbLine
  8
0
 62
0
370
-1
  6
BYLAYER
 10
2.5948500000000001
 20
115.09399999999999
 30
0.0
 11
2.1304500000000002
 21
115.021
 31
0.0
  0
LINE
  5
13E
100
AcDbEntity
100
AcDbLine
  8
0
 62
256
370
-1
  6
BYLAYER
 10
80.769500000000406
 20
111.093
 30
0.0
 11
80.769540169606302
 21
116.09336797840633
 31
0.0
  0
LINE
  5
13F
100
AcDbEntity
100
AcDbLine
  8
0
 62
256
370
0
  6
BYLAYER
 10
115.563386442461
 20
116.09308846795848
 30
0.0
 11
115.56338126819124
 21
111.093
 31
0.0
  0
LINE
  5
140
100
AcDbEntity
100
AcDbLine
  8
0
 62
256
370
-1
  6
BYLAYER
 10
123.57599999999999
 20
111.093
 30
0.0
 11
115.56338126819124
 21
111.093
 31
0.0
  0
LINE
  5
141
100
AcDbEntity
100
AcDbLine
  8
0
 62
256
370
-1
  6
BYLAYER
 10
80.769540169606302
 20
116.09336797840633
 30
0.0
 11
2.0946199999999999
 21
116.09399999999999
 31
0.0
  0
ENDSEC
  0
SECTION
  2
OBJECTS
  0
DICTIONARY
  5
C
100
AcDbDictionary
280
0
281
1
  3
ACAD_GROUP
350
D
  3
ACAD_LAYOUT
350
1A
  3
ACAD_MLINESTYLE
350
17
  3
ACAD_PLOTSETTINGS
350
19
  3
ACAD_PLOTSTYLENAME
350
E
  3
AcDbVariableDictionary
350
142
  3
QCAD_OBJECTS
350
143
  0
DICTIONARY
  5
D
100
AcDbDictionary
280
0
281
1
  0
ACDBDICTIONARYWDFLT
  5
E
100
AcDbDictionary
281
1
  3
Normal
350
F
100
AcDbDictionaryWithDefault
340
F
  0
ACDBPLACEHOLDER
  5
F
  0
DICTIONARY
  5
17
100
AcDbDictionary
280
0
281
1
  3
Standard
350
18
  0
MLINESTYLE
  5
18
100
AcDbMlineStyle
  2
STANDARD
 70
0
  3

 62
256
 51
90.0
 52
90.0
 71
2
 49
0.5
 62
256
  6
BYLAYER
 49
-0.5
 62
256
  6
BYLAYER
  0
DICTIONARY
  5
19
100
AcDbDictionary
280
0
281
1
  0
DICTIONARY
  5
1A
100
AcDbDictionary
281
1
  3
Layout1
350
1E
  3
Layout2
350
26
  3
Model
350
22
  0
LAYOUT
  5
1E
100
AcDbPlotSettings
  1

  2
C:\Program Files\AutoCAD 2002\plotters\DWF ePlot (optimized for plotting).pc3
  4

  6

 40
0.0
 41
0.0
 42
0.0
 43
0.0
 44
0.0
 45
0.0
 46
0.0
 47
0.0
 48
0.0
 49
0.0
140
0.0
141
0.0
142
1.0
143
1.0
 70
688
 72
0
 73
0
 74
5
  7

 75
16
147
1.0
148
0.0
149
0.0
100
AcDbLayout
  1
Layout1
 70
1
 71
1
 10
0.0
 20
0.0
 11
420.0
 21
297.0
 12
0.0
 22
0.0
 32
0.0
 14
100000000000000000000.0
 24
100000000000000000000.0
 34
100000000000000000000.0
 15
-100000000000000000000.0
 25
-100000000000000000000.0
 35
-100000000000000000000.0
146
0.0
 13
0.0
 23
0.0
 33
0.0
 16
1.0
 26
0.0
 36
0.0
 17
0.0
 27
1.0
 37
0.0
 76
0
330
1B
  0
LAYOUT
  5
22
100
AcDbPlotSettings
  1

  2
C:\Program Files\AutoCAD 2002\plotters\DWF ePlot (optimized for plotting).pc3
  4

  6

 40
0.0
 41
0.0
 42
0.0
 43
0.0
 44
0.0
 45
0.0
 46
0.0
 47
0.0
 48
0.0
 49
0.0
140
0.0
141
0.0
142
1.0
143
1.0
 70
1712
 72
0
 73
0
 74
0
  7

 75
0
147
1.0
148
0.0
149
0.0
100
AcDbLayout
  1
Model
 70
1
 71
0
 10
0.0
 20
0.0
 11
12.0
 21
9.0
 12
0.0
 22
0.0
 32
0.0
 14
0.0
 24
0.0
 34
0.0
 15
0.0
 25
0.0
 35
0.0
146
0.0
 13
0.0
 23
0.0
 33
0.0
 16
1.0
 26
0.0
 36
0.0
 17
0.0
 27
1.0
 37
0.0
 76
0
330
1F
  0
LAYOUT
  5
26
100
AcDbPlotSettings
  1

  2
C:\Program Files\AutoCAD 2002\plotters\DWF ePlot (optimized for plotting).pc3
  4

  6

 40
0.0
 41
0.0
 42
0.0
 43
0.0
 44
0.0
 45
0.0
 46
0.0
 47
0.0
 48
0.0
 49
0.0
140
0.0
141
0.0
142
1.0
143
1.0
 70
688
 72
0
 73
0
 74
5
  7

 75
16
147
1.0
148
0.0
149
0.0
100
AcDbLayout
  1
Layout2
 70
1
 71
2
 10
0.0
 20
0.0
 11
12.0
 21
9.0
 12
0.0
 22
0.0
 32
0.0
 14
0.0
 24
0.0
 34
0.0
 15
0.0
 25
0.0
 35
0.0
146
0.0
 13
0.0
 23
0.0
 33
0.0
 16
1.0
 26
0.0
 36
0.0
 17
0.0
 27
1.0
 37
0.0
 76
0
330
23
  0
DICTIONARY
  5
142
100
AcDbDictionary
281
1
  3
DIMASSOC
350
145
  3
HIDETEXT
350
144
  0
DICTIONARYVAR
  5
144
100
DictionaryVariables
280
0
  1
2
  0
DICTIONARYVAR
  5
145
100
DictionaryVariables
280
0
  1
1
  0
DICTIONARY
  5
143
100
AcDbDictionary
281
1
  3
Grid/DisplayGrid00
350
146
  3
Grid/DisplayGrid01
350
147
  3
Grid/DisplayGrid02
350
148
  3
Grid/DisplayGrid03
350
149
  3
Grid/GridSpacingX00
350
14A
  3
Grid/GridSpacingX01
350
14B
  3
Grid/GridSpacingX02
350
14C
  3
Grid/GridSpacingX03
350
14D
  3
Grid/GridSpacingY00
350
14E
  3
Grid/GridSpacingY01
350
14F
  3
Grid/GridSpacingY02
350
150
  3
Grid/GridSpacingY03
350
151
  3
Grid/IsometricGrid00
350
152
  3
Grid/IsometricGrid01
350
153
  3
Grid/IsometricGrid02
350
154
  3
Grid/IsometricGrid03
350
155
  3
Grid/IsometricProjection00
350
156
  3
Grid/IsometricProjection01
350
157
  3
Grid/IsometricProjection02
350
158
  3
Grid/IsometricProjection03
350
159
  3
Grid/MetaGridSpacingX00
350
15A
  3
Grid/MetaGridSpacingX01
350
15B
  3
Grid/MetaGridSpacingX02
350
15C
  3
Grid/MetaGridSpacingX03
350
15D
  3
Grid/MetaGridSpacingY00
350
15E
  3
Grid/MetaGridSpacingY01
350
15F
  3
Grid/MetaGridSpacingY02
350
160
  3
Grid/MetaGridSpacingY03
350
161
  3
MultiPageSettings/Columns
350
162
  3
MultiPageSettings/GlueMarginsBottom
350
163
  3
MultiPageSettings/GlueMarginsLeft
350
164
  3
MultiPageSettings/GlueMarginsRight
350
165
  3
MultiPageSettings/GlueMarginsTop
350
166
  3
MultiPageSettings/PrintCropMarks
350
167
  3
MultiPageSettings/Rows
350
168
  3
PageSettings/OffsetX
350
169
  3
PageSettings/OffsetY
350
16A
  3
PageSettings/PageOrientation
350
16B
  3
PageSettings/PaperHeight
350
16C
  3
PageSettings/PaperWidth
350
16D
  3
PageSettings/Scale
350
16E
  3
PageSettings/ShowPaperBorders
350
16F
  3
UnitSettings/PaperUnit
350
170
  0
XRECORD
  5
146
330
143
100
AcDbXrecord
280
1
290
1
  0
XRECORD
  5
147
330
143
100
AcDbXrecord
280
1
290
1
  0
XRECORD
  5
148
330
143
100
AcDbXrecord
280
1
290
1
  0
XRECORD
  5
149
330
143
100
AcDbXrecord
280
1
290
1
  0
XRECORD
  5
14A
330
143
100
AcDbXrecord
280
1
1000
auto
  0
XRECORD
  5
14B
330
143
100
AcDbXrecord
280
1
1000
auto
  0
XRECORD
  5
14C
330
143
100
AcDbXrecord
280
1
1000
auto
  0
XRECORD
  5
14D
330
143
100
AcDbXrecord
280
1
1000
auto
  0
XRECORD
  5
14E
330
143
100
AcDbXrecord
280
1
1000
auto
  0
XRECORD
  5
14F
330
143
100
AcDbXrecord
280
1
1000
auto
  0
XRECORD
  5
150
330
143
100
AcDbXrecord
280
1
1000
auto
  0
XRECORD
  5
151
330
143
100
AcDbXrecord
280
1
1000
auto
  0
XRECORD
  5
152
330
143
100
AcDbXrecord
280
1
290
0
  0
XRECORD
  5
153
330
143
100
AcDbXrecord
280
1
290
0
  0
XRECORD
  5
154
330
143
100
AcDbXrecord
280
1
290
0
  0
XRECORD
  5
155
330
143
100
AcDbXrecord
280
1
290
0
  0
XRECORD
  5
156
330
143
100
AcDbXrecord
280
1
 90
0
  0
XRECORD
  5
157
330
143
100
AcDbXrecord
280
1
 90
0
  0
XRECORD
  5
158
330
143
100
AcDbXrecord
280
1
 90
0
  0
XRECORD
  5
159
330
143
100
AcDbXrecord
280
1
 90
0
  0
XRECORD
  5
15A
330
143
100
AcDbXrecord
280
1
1000
auto
  0
XRECORD
  5
15B
330
143
100
AcDbXrecord
280
1
1000
auto
  0
XRECORD
  5
15C
330
143
100
AcDbXrecord
280
1
1000
auto
  0
XRECORD
  5
15D
330
143
100
AcDbXrecord
280
1
1000
auto
  0
XRECORD
  5
15E
330
143
100
AcDbXrecord
280
1
1000
auto
  0
XRECORD
  5
15F
330
143
100
AcDbXrecord
280
1
1000
auto
  0
XRECORD
  5
160
330
143
100
AcDbXrecord
280
1
1000
auto
  0
XRECORD
  5
161
330
143
100
AcDbXrecord
280
1
1000
auto
  0
XRECORD
  5
162
330
143
100
AcDbXrecord
280
1
 90
1
  0
XRECORD
  5
163
330
143
100
AcDbXrecord
280
1
 40
10.0
  0
XRECORD
  5
164
330
143
100
AcDbXrecord
280
1
 40
10.0
  0
XRECORD
  5
165
330
143
100
AcDbXrecord
280
1
 40
10.0
  0
XRECORD
  5
166
330
143
100
AcDbXrecord
280
1
 40
10.0
  0
XRECORD
  5
167
330
143
100
AcDbXrecord
280
1
290
0
  0
XRECORD
  5
168
330
143
100
AcDbXrecord
280
1
 90
1
  0
XRECORD
  5
169
330
143
100
AcDbXrecord
280
1
 40
0.0
  0
XRECORD
  5
16A
330
143
100
AcDbXrecord
280
1
 40
0.0
  0
XRECORD
  5
16B
330
143
100
AcDbXrecord
280
1
1000
Portrait
  0
XRECORD
  5
16C
330
143
100
AcDbXrecord
280
1
 40
297.0
  0
XRECORD
  5
16D
330
143
100
AcDbXrecord
280
1
 40
210.0
  0
XRECORD
  5
16E
330
143
100
AcDbXrecord
280
1
1000
1:1
  0
XRECORD
  5
16F
330
143
100
AcDbXrecord
280
1
290
1
  0
XRECORD
  5
170
330
143
100
AcDbXrecord
280
1
 90
4
  0
ENDSEC
  0
EOF
