999
dxflib 3.2.3.0
  0
SECTION
  2
HEADER
  9
$ACADVER
  1
AC1015
  9
$HANDSEED
  5
FFFF
  9
$ANGBASE
 50
0.0
  9
$ANGDIR
 70
0
  9
$ATTMODE
 70
1
  9
$AUNITS
 70
0
  9
$AUPREC
 70
0
  9
$CECOLOR
 62
18
  9
$CELTSCALE
 40
1.0
  9
$CHAMFERA
 40
0.0
  9
$CHAMFERB
 40
0.0
  9
$CHAMFERC
 40
0.0
  9
$CHAMFERD
 40
0.0
  9
$CMLJUST
 70
0
  9
$CMLSCALE
 40
1.0
  9
$DIMADEC
 70
0
  9
$DIMALT
 70
0
  9
$DIMALTD
 70
2
  9
$DIMALTF
 40
25.399999999999999
  9
$DIMALTRND
 40
0.0
  9
$DIMALTTD
 70
2
  9
$DIMALTTZ
 70
0
  9
$DIMALTU
 70
2
  9
$DIMALTZ
 70
0
  9
$DIMAPOST
  1

  9
$DIMASZ
 40
0.18
  9
$DIMATFIT
 70
3
  9
$DIMAUNIT
 70
0
  9
$DIMAZIN
 70
0
  9
$DIMBLK
  1

  9
$DIMBLK1
  1

  9
$DIMBLK2
  1

  9
$DIMCEN
 40
0.09
  9
$DIMCLRD
 70
18
  9
$DIMCLRE
 70
18
  9
$DIMCLRT
 70
18
  9
$DIMDEC
 70
4
  9
$DIMDLE
 40
0.0
  9
$DIMDLI
 40
0.38
  9
$DIMDSEP
 70
46
  9
$DIMEXE
 40
0.18
  9
$DIMEXO
 40
0.0625
  9
$DIMFRAC
 70
0
  9
$DIMGAP
 40
0.09
  9
$DIMJUST
 70
0
  9
$DIMLDRBLK
  1

  9
$DIMLFAC
 40
1.0
  9
$DIMLIM
 70
0
  9
$DIMLUNIT
 70
2
  9
$DIMLWD
 70
-2
  9
$DIMLWE
 70
-2
  9
$DIMPOST
  1

  9
$DIMRND
 40
0.0
  9
$DIMSAH
 70
0
  9
$DIMSCALE
 40
1.0
  9
$DIMSD1
 70
0
  9
$DIMSD2
 70
0
  9
$DIMSE1
 70
0
  9
$DIMSE2
 70
0
  9
$DIMSOXD
 70
0
  9
$DIMTAD
 70
0
  9
$DIMTDEC
 70
4
  9
$DIMTFAC
 40
1.0
  9
$DIMTIH
 70
1
  9
$DIMTIX
 70
0
  9
$DIMTM
 40
0.0
  9
$DIMTOFL
 70
0
  9
$DIMTOH
 70
1
  9
$DIMTOL
 70
0
  9
$DIMTOLJ
 70
1
  9
$DIMTP
 40
0.0
  9
$DIMTSZ
 40
0.0
  9
$DIMTVP
 40
0.0
  9
$DIMTXSTY
  7
Standard
  9
$DIMTXT
 40
0.18
  9
$DIMTZIN
 70
0
  9
$DIMUPT
 70
0
  9
$DIMZIN
 70
0
  9
$DISPSILH
 70
0
  9
$DWGCODEPAGE
  3
ANSI_1252
  9
$ELEVATION
 40
0.0
  9
$EXTMAX
 10
1000.0
 20
1000.0
 30
0.0
  9
$EXTMIN
 10
0.0
 20
0.0
 30
0.0
  9
$FILLETRAD
 40
0.5
  9
$FILLMODE
 70
0
  9
$INSBASE
 10
0.0
 20
0.0
 30
0.0
  9
$INSUNITS
 70
0
  9
$LIMCHECK
 70
0
  9
$LIMMAX
 10
12.0
 20
9.0
  9
$LIMMIN
 10
0.0
 20
0.0
  9
$LTSCALE
 40
1.0
  9
$LUNITS
 70
2
  9
$LUPREC
 70
4
  9
$MAXACTVP
 70
64
  9
$MIRRTEXT
 70
1
  9
$ORTHOMODE
 70
0
  9
$PDMODE
 70
0
  9
$PDSIZE
 40
0.0
  9
$PELEVATION
 40
0.0
  9
$PEXTMAX
 10
-100000000000000000000.0
 20
-100000000000000000000.0
 30
-100000000000000000000.0
  9
$PEXTMIN
 10
100000000000000000000.0
 20
100000000000000000000.0
 30
100000000000000000000.0
  9
$PINSBASE
 10
0.0
 20
0.0
 30
0.0
  9
$PLIMCHECK
 70
0
  9
$PLIMMAX
 10
12.0
 20
9.0
  9
$PLIMMIN
 10
0.0
 20
0.0
  9
$PLINEGEN
 70
0
  9
$PLINEWID
 40
0.0
  9
$PROXYGRAPHICS
 70
1
  9
$PSLTSCALE
 70
1
  9
$PUCSNAME
  2

  9
$PUCSORG
 10
0.0
 20
0.0
 30
0.0
  9
$PUCSXDIR
 10
1.0
 20
0.0
 30
0.0
  9
$PUCSYDIR
 10
0.0
 20
1.0
 30
0.0
  9
$QTEXTMODE
 70
0
  9
$REGENMODE
 70
1
  9
$SHADEDGE
 70
3
  9
$SHADEDIF
 70
70
  9
$SKETCHINC
 40
0.1
  9
$SKPOLY
 70
0
  9
$SPLFRAME
 70
1
  9
$SPLINESEGS
 70
8
  9
$SPLINETYPE
 70
6
  9
$SURFTAB1
 70
6
  9
$SURFTAB2
 70
6
  9
$SURFTYPE
 70
6
  9
$SURFU
 70
6
  9
$SURFV
 70
6
  9
$TEXTSIZE
 40
0.2
  9
$TEXTSTYLE
  7
Standard
  9
$THICKNESS
 40
0.0
  9
$TILEMODE
 70
1
  9
$TRACEWID
 40
0.05
  9
$TREEDEPTH
 70
3020
  9
$UCSNAME
  2

  9
$UCSORG
 10
0.0
 20
0.0
 30
0.0
  9
$UCSXDIR
 10
1.0
 20
0.0
 30
0.0
  9
$UCSYDIR
 10
0.0
 20
1.0
 30
0.0
  9
$UNITMODE
 70
0
  9
$USERI1
 70
0
  9
$USERI2
 70
0
  9
$USERI3
 70
0
  9
$USERI4
 70
0
  9
$USERI5
 70
0
  9
$USERR1
 40
0.0
  9
$USERR2
 40
0.0
  9
$USERR3
 40
0.0
  9
$USERR4
 40
0.0
  9
$USERR5
 40
0.0
  9
$USRTIMER
 70
1
  9
$VISRETAIN
 70
1
  0
ENDSEC
  0
SECTION
  2
TABLES
  0
TABLE
  2
VPORT
  5
8
100
AcDbSymbolTable
 70
1
  0
VPORT
  5
30
100
AcDbSymbolTableRecord
100
AcDbViewportTableRecord
  2
*Active
 70
0
 10
0.0
 20
0.0
 11
1.0
 21
1.0
 12
286.30555555555549
 22
148.5
 13
0.0
 23
0.0
 14
10.0
 24
10.0
 15
10.0
 25
10.0
 16
0.0
 26
0.0
 36
1.0
 17
0.0
 27
0.0
 37
0.0
 40
297.0
 41
1.92798353909465
 42
50.0
 43
0.0
 44
0.0
 50
0.0
 51
0.0
 71
0
 72
100
 73
1
 74
3
 75
1
 76
1
 77
0
 78
0
281
0
 65
1
110
0.0
120
0.0
130
0.0
111
1.0
121
0.0
131
0.0
112
0.0
122
1.0
132
0.0
 79
0
146
0.0
  0
ENDTAB
  0
TABLE
  2
LTYPE
  5
5
100
AcDbSymbolTable
 70
21
  0
LTYPE
  5
31
100
AcDbSymbolTableRecord
100
AcDbLinetypeTableRecord
  2
CENTER2
 70
0
  3
Center (.5x) ___ _ ___ _ ___ _ ___ _ ___ _ ___
 72
65
 73
4
 40
28.574999999999999
 49
19.050000000000001
 74
0
 49
-3.1749999999999998
 74
0
 49
3.1749999999999998
 74
0
 49
-3.1749999999999998
 74
0
  0
LTYPE
  5
32
100
AcDbSymbolTableRecord
100
AcDbLinetypeTableRecord
  2
DIVIDEX2
 70
0
  3
Divide (2x) ________  .  .  ________  .  .  _
 72
65
 73
6
 40
63.5
 49
25.399999999999999
 74
0
 49
-12.699999999999999
 74
0
 49
0.0
 74
0
 49
-12.699999999999999
 74
0
 49
0.0
 74
0
 49
-12.699999999999999
 74
0
  0
LTYPE
  5
33
100
AcDbSymbolTableRecord
100
AcDbLinetypeTableRecord
  2
DOT2
 70
0
  3
Dot (.5x) .....................................
 72
65
 73
2
 40
3.1749999999999998
 49
0.0
 74
0
 49
-3.1749999999999998
 74
0
  0
LTYPE
  5
34
100
AcDbSymbolTableRecord
100
AcDbLinetypeTableRecord
  2
DASHDOT2
 70
0
  3
Dash dot (.5x) _._._._._._._._._._._._._._._.
 72
65
 73
4
 40
12.699999999999999
 49
6.3499999999999996
 74
0
 49
-3.1749999999999998
 74
0
 49
0.0
 74
0
 49
-3.1749999999999998
 74
0
  0
LTYPE
  5
35
100
AcDbSymbolTableRecord
100
AcDbLinetypeTableRecord
  2
DIVIDE
 70
0
  3
Divide ____ . . ____ . . ____ . . ____ . . ____
 72
65
 73
6
 40
31.75
 49
12.699999999999999
 74
0
 49
-6.3499999999999996
 74
0
 49
0.0
 74
0
 49
-6.3499999999999996
 74
0
 49
0.0
 74
0
 49
-6.3499999999999996
 74
0
  0
LTYPE
  5
36
100
AcDbSymbolTableRecord
100
AcDbLinetypeTableRecord
  2
DASHDOT
 70
0
  3
Dash dot __ . __ . __ . __ . __ . __ . __ . __
 72
65
 73
4
 40
25.399999999999999
 49
12.699999999999999
 74
0
 49
-6.3499999999999996
 74
0
 49
0.0
 74
0
 49
-6.3499999999999996
 74
0
  0
LTYPE
  5
37
100
AcDbSymbolTableRecord
100
AcDbLinetypeTableRecord
  2
BORDER
 70
0
  3
Border __ __ . __ __ . __ __ . __ __ . __ __ .
 72
65
 73
6
 40
44.450000000000003
 49
12.699999999999999
 74
0
 49
-6.3499999999999996
 74
0
 49
12.699999999999999
 74
0
 49
-6.3499999999999996
 74
0
 49
0.0
 74
0
 49
-6.3499999999999996
 74
0
  0
LTYPE
  5
38
100
AcDbSymbolTableRecord
100
AcDbLinetypeTableRecord
  2
DASHDOTX2
 70
0
  3
Dash dot (2x) ____  .  ____  .  ____  .  ___
 72
65
 73
4
 40
50.799999999999997
 49
25.399999999999999
 74
0
 49
-12.699999999999999
 74
0
 49
0.0
 74
0
 49
-12.699999999999999
 74
0
  0
LTYPE
  5
39
100
AcDbSymbolTableRecord
100
AcDbLinetypeTableRecord
  2
CENTERX2
 70
0
  3
Center (2x) ________  __  ________  __  _____
 72
65
 73
4
 40
101.59999999999999
 49
63.5
 74
0
 49
-12.699999999999999
 74
0
 49
12.699999999999999
 74
0
 49
-12.699999999999999
 74
0
  0
LTYPE
  5
3A
100
AcDbSymbolTableRecord
100
AcDbLinetypeTableRecord
  2
BORDER2
 70
0
  3
Border (.5x) __.__.__.__.__.__.__.__.__.__.__.
 72
65
 73
6
 40
22.225000000000001
 49
6.3499999999999996
 74
0
 49
-3.1749999999999998
 74
0
 49
6.3499999999999996
 74
0
 49
-3.1749999999999998
 74
0
 49
0.0
 74
0
 49
-3.1749999999999998
 74
0
  0
LTYPE
  5
3B
100
AcDbSymbolTableRecord
100
AcDbLinetypeTableRecord
  2
BORDERX2
 70
0
  3
Border (2x) ____  ____  .  ____  ____  .  ___
 72
65
 73
6
 40
88.900000000000006
 49
25.399999999999999
 74
0
 49
-12.699999999999999
 74
0
 49
25.399999999999999
 74
0
 49
-12.699999999999999
 74
0
 49
0.0
 74
0
 49
-12.699999999999999
 74
0
  0
LTYPE
  5
16
100
AcDbSymbolTableRecord
100
AcDbLinetypeTableRecord
  2
CONTINUOUS
 70
0
  3
Solid line
 72
65
 73
0
 40
0.0
  0
LTYPE
  5
14
100
AcDbSymbolTableRecord
100
AcDbLinetypeTableRecord
  2
BYBLOCK
 70
0
  3

 72
65
 73
0
 40
0.0
  0
LTYPE
  5
15
100
AcDbSymbolTableRecord
100
AcDbLinetypeTableRecord
  2
BYLAYER
 70
0
  3

 72
65
 73
0
 40
0.0
  0
LTYPE
  5
3C
100
AcDbSymbolTableRecord
100
AcDbLinetypeTableRecord
  2
DASHED2
 70
0
  3
Dashed (.5x) _ _ _ _ _ _ _ _ _ _ _ _ _ _ _ _ _
 72
65
 73
2
 40
9.5250000000000004
 49
6.3499999999999996
 74
0
 49
-3.1749999999999998
 74
0
  0
LTYPE
  5
3D
100
AcDbSymbolTableRecord
100
AcDbLinetypeTableRecord
  2
CENTER
 70
0
  3
Center ____ _ ____ _ ____ _ ____ _ ____ _ ____
 72
65
 73
4
 40
50.799999999999997
 49
31.75
 74
0
 49
-6.3499999999999996
 74
0
 49
6.3499999999999996
 74
0
 49
-6.3499999999999996
 74
0
  0
LTYPE
  5
3E
100
AcDbSymbolTableRecord
100
AcDbLinetypeTableRecord
  2
DIVIDE2
 70
0
  3
Divide (.5x) __..__..__..__..__..__..__..__.._
 72
65
 73
6
 40
15.875
 49
6.3499999999999996
 74
0
 49
-3.1749999999999998
 74
0
 49
0.0
 74
0
 49
-3.1749999999999998
 74
0
 49
0.0
 74
0
 49
-3.1749999999999998
 74
0
  0
LTYPE
  5
3F
100
AcDbSymbolTableRecord
100
AcDbLinetypeTableRecord
  2
DASHED
 70
0
  3
Dashed __ __ __ __ __ __ __ __ __ __ __ __ __ _
 72
65
 73
2
 40
19.050000000000001
 49
12.699999999999999
 74
0
 49
-6.3499999999999996
 74
0
  0
LTYPE
  5
40
100
AcDbSymbolTableRecord
100
AcDbLinetypeTableRecord
  2
DOTX2
 70
0
  3
Dot (2x) .  .  .  .  .  .  .  .  .  .  .  .  .
 72
65
 73
2
 40
12.699999999999999
 49
0.0
 74
0
 49
-12.699999999999999
 74
0
  0
LTYPE
  5
41
100
AcDbSymbolTableRecord
100
AcDbLinetypeTableRecord
  2
DASHEDX2
 70
0
  3
Dashed (2x) ____  ____  ____  ____  ____  ___
 72
65
 73
2
 40
38.100000000000001
 49
25.399999999999999
 74
0
 49
-12.699999999999999
 74
0
  0
LTYPE
  5
42
100
AcDbSymbolTableRecord
100
AcDbLinetypeTableRecord
  2
DOT
 70
0
  3
Dot . . . . . . . . . . . . . . . . . . . . . .
 72
65
 73
2
 40
6.3499999999999996
 49
0.0
 74
0
 49
-6.3499999999999996
 74
0
  0
ENDTAB
  0
TABLE
  2
LAYER
  5
2
100
AcDbSymbolTable
 70
1
  0
LAYER
  5
10
100
AcDbSymbolTableRecord
100
AcDbLayerTableRecord
  2
0
 70
0
 62
7
420
16777215
  6
CONTINUOUS
370
-3
390
F
  0
ENDTAB
  0
TABLE
  2
STYLE
  5
3
100
AcDbSymbolTable
 70
0
  0
ENDTAB
  0
TABLE
  2
VIEW
  5
6
100
AcDbSymbolTable
 70
0
  0
ENDTAB
  0
TABLE
  2
UCS
  5
7
100
AcDbSymbolTable
 70
0
  0
ENDTAB
  0
TABLE
  2
APPID
  5
9
100
AcDbSymbolTable
 70
1
  0
APPID
  5
43
100
AcDbSymbolTableRecord
100
AcDbRegAppTableRecord
  2
QCAD
 70
0
  0
ENDTAB
  0
TABLE
  2
DIMSTYLE
  5
A
100
AcDbSymbolTable
 70
1
100
AcDbDimStyleTable
 71
0
  0
DIMSTYLE
105
27
100
AcDbSymbolTableRecord
100
AcDbDimStyleTableRecord
  2
Standard
 41
0.18
 42
0.0625
 43
3.75
 44
0.18
 70
0
 73
0
 74
0
 77
1
 78
8
140
0.18
141
2.5
143
0.03937007874016
147
0.09
171
3
172
1
271
2
272
2
274
3
278
44
283
0
284
8
340
11
  0
ENDTAB
  0
TABLE
  2
BLOCK_RECORD
  5
1
100
AcDbSymbolTable
 70
1
  0
BLOCK_RECORD
  5
1F
100
AcDbSymbolTableRecord
100
AcDbBlockTableRecord
  2
*Model_Space
340
22
  0
BLOCK_RECORD
  5
1B
100
AcDbSymbolTableRecord
100
AcDbBlockTableRecord
  2
*Paper_Space
340
1E
  0
BLOCK_RECORD
  5
23
100
AcDbSymbolTableRecord
100
AcDbBlockTableRecord
  2
*Paper_Space0
340
26
  0
BLOCK_RECORD
  5
44
100
AcDbSymbolTableRecord
100
AcDbBlockTableRecord
  2
*Model_Space
340
0
  0
BLOCK_RECORD
  5
45
100
AcDbSymbolTableRecord
100
AcDbBlockTableRecord
  2
*Paper_Space
340
0
  0
BLOCK_RECORD
  5
46
100
AcDbSymbolTableRecord
100
AcDbBlockTableRecord
  2
*Paper_Space0
340
0
  0
ENDTAB
  0
ENDSEC
  0
SECTION
  2
BLOCKS
  0
BLOCK
  5
20
100
AcDbEntity
  8
0
100
AcDbBlockBegin
  2
*Model_Space
 70
0
 10
0.0
 20
0.0
 30
0.0
  3
*Model_Space
  1

  0
BLOCK
  5
1C
100
AcDbEntity
 67
1
  8
0
100
AcDbBlockBegin
  2
*Paper_Space
 70
0
 10
0.0
 20
0.0
 30
0.0
  3
*Paper_Space
  1

  0
ENDBLK
  5
1D
100
AcDbEntity
 67
1
  8
0
100
AcDbBlockEnd
  0
BLOCK
  5
24
100
AcDbEntity
  8
0
100
AcDbBlockBegin
  2
*Paper_Space0
 70
0
 10
0.0
 20
0.0
 30
0.0
  3
*Paper_Space0
  1

  0
ENDBLK
  5
25
100
AcDbEntity
  8
0
100
AcDbBlockEnd
  0
ENDSEC
  0
SECTION
  2
ENTITIES
  0
LINE
  5
47
100
AcDbEntity
100
AcDbLine
  8
0
 62
0
370
0
  6
BYLAYER
 10
125.48137999999997
 20
116.01307360000001
 30
0.0
 11
125.63838000000001
 21
116.00707360000001
 31
0.0
  0
LINE
  5
48
100
AcDbEntity
100
AcDbLine
  8
0
 62
0
370
0
  6
BYLAYER
 10
125.63838000000001
 20
116.00707360000001
 30
0.0
 11
125.79438000000002
 21
115.99007359999999
 31
0.0
  0
LINE
  5
49
100
AcDbEntity
100
AcDbLine
  8
0
 62
0
370
0
  6
BYLAYER
 10
125.79438000000002
 20
115.99007359999999
 30
0.0
 11
125.94838000000001
 21
115.95807360000001
 31
0.0
  0
LINE
  5
4A
100
AcDbEntity
100
AcDbLine
  8
0
 62
0
370
0
  6
BYLAYER
 10
125.94838000000001
 20
115.95807360000001
 30
0.0
 11
126.09937999999997
 21
115.91707360000001
 31
0.0
  0
LINE
  5
4B
100
AcDbEntity
100
AcDbLine
  8
0
 62
0
370
0
  6
BYLAYER
 10
126.09937999999997
 20
115.91707360000001
 30
0.0
 11
126.24537999999998
 21
115.8610736
 31
0.0
  0
LINE
  5
4C
100
AcDbEntity
100
AcDbLine
  8
0
 62
0
370
0
  6
BYLAYER
 10
126.24537999999998
 20
115.8610736
 30
0.0
 11
126.38937999999999
 21
115.7970736
 31
0.0
  0
LINE
  5
4D
100
AcDbEntity
100
AcDbLine
  8
0
 62
0
370
0
  6
BYLAYER
 10
126.38937999999999
 20
115.7970736
 30
0.0
 11
126.52538000000001
 21
115.7190736
 31
0.0
  0
LINE
  5
4E
100
AcDbEntity
100
AcDbLine
  8
0
 62
0
370
0
  6
BYLAYER
 10
126.52538000000001
 20
115.7190736
 30
0.0
 11
126.65637999999998
 21
115.63307359999999
 31
0.0
  0
LINE
  5
4F
100
AcDbEntity
100
AcDbLine
  8
0
 62
0
370
0
  6
BYLAYER
 10
126.65637999999998
 20
115.63307359999999
 30
0.0
 11
126.78038000000001
 21
115.5350736
 31
0.0
  0
LINE
  5
50
100
AcDbEntity
100
AcDbLine
  8
0
 62
0
370
0
  6
BYLAYER
 10
126.78038000000001
 20
115.5350736
 30
0.0
 11
126.89538000000002
 21
115.42907360000001
 31
0.0
  0
LINE
  5
51
100
AcDbEntity
100
AcDbLine
  8
0
 62
0
370
0
  6
BYLAYER
 10
126.89538000000002
 20
115.42907360000001
 30
0.0
 11
127.00037999999998
 21
115.3130736
 31
0.0
  0
LINE
  5
52
100
AcDbEntity
100
AcDbLine
  8
0
 62
0
370
0
  6
BYLAYER
 10
127.00037999999998
 20
115.3130736
 30
0.0
 11
127.09837999999999
 21
115.1890736
 31
0.0
  0
LINE
  5
53
100
AcDbEntity
100
AcDbLine
  8
0
 62
0
370
0
  6
BYLAYER
 10
127.09837999999999
 20
115.1890736
 30
0.0
 11
127.18537999999998
 21
115.0580736
 31
0.0
  0
LINE
  5
54
100
AcDbEntity
100
AcDbLine
  8
0
 62
0
370
0
  6
BYLAYER
 10
127.18537999999998
 20
115.0580736
 30
0.0
 11
127.26237999999998
 21
114.9210736
 31
0.0
  0
LINE
  5
55
100
AcDbEntity
100
AcDbLine
  8
0
 62
0
370
0
  6
BYLAYER
 10
127.26237999999998
 20
114.9210736
 30
0.0
 11
127.32737999999998
 21
114.78007360000001
 31
0.0
  0
LINE
  5
56
100
AcDbEntity
100
AcDbLine
  8
0
 62
0
370
0
  6
BYLAYER
 10
127.32737999999998
 20
114.78007360000001
 30
0.0
 11
127.38237999999998
 21
114.63207360000001
 31
0.0
  0
LINE
  5
57
100
AcDbEntity
100
AcDbLine
  8
0
 62
0
370
0
  6
BYLAYER
 10
127.38237999999998
 20
114.63207360000001
 30
0.0
 11
127.42537999999999
 21
114.4800736
 31
0.0
  0
LINE
  5
58
100
AcDbEntity
100
AcDbLine
  8
0
 62
0
370
0
  6
BYLAYER
 10
127.42537999999999
 20
114.4800736
 30
0.0
 11
127.45538000000002
 21
114.3260736
 31
0.0
  0
LINE
  5
59
100
AcDbEntity
100
AcDbLine
  8
0
 62
0
370
0
  6
BYLAYER
 10
127.45538000000002
 20
114.3260736
 30
0.0
 11
127.47538
 21
114.17007359999999
 31
0.0
  0
LINE
  5
5A
100
AcDbEntity
100
AcDbLine
  8
0
 62
0
370
0
  6
BYLAYER
 10
127.47538
 20
114.17007359999999
 30
0.0
 11
127.48038
 21
114.01307360000001
 31
0.0
  0
LINE
  5
5B
100
AcDbEntity
100
AcDbLine
  8
0
 62
0
370
0
  6
BYLAYER
 10
127.48038
 20
2.0009136000000041
 30
0.0
 11
127.47538
 21
1.8438136000000043
 31
0.0
  0
LINE
  5
5C
100
AcDbEntity
100
AcDbLine
  8
0
 62
0
370
0
  6
BYLAYER
 10
127.47538
 20
1.8438136000000043
 30
0.0
 11
127.45538000000002
 21
1.6867136000000045
 31
0.0
  0
LINE
  5
5D
100
AcDbEntity
100
AcDbLine
  8
0
 62
0
370
0
  6
BYLAYER
 10
127.45538000000002
 20
1.6867136000000045
 30
0.0
 11
127.42537999999999
 21
1.5337536000000043
 31
0.0
  0
LINE
  5
5E
100
AcDbEntity
100
AcDbLine
  8
0
 62
0
370
0
  6
BYLAYER
 10
127.42537999999999
 20
1.5337536000000043
 30
0.0
 11
127.38237999999998
 21
1.3821736000000016
 31
0.0
  0
LINE
  5
5F
100
AcDbEntity
100
AcDbLine
  8
0
 62
0
370
0
  6
BYLAYER
 10
127.38237999999998
 20
1.3821736000000016
 30
0.0
 11
127.32737999999998
 21
1.2347236000000024
 31
0.0
  0
LINE
  5
60
100
AcDbEntity
100
AcDbLine
  8
0
 62
0
370
0
  6
BYLAYER
 10
127.32737999999998
 20
1.2347236000000024
 30
0.0
 11
127.26237999999998
 21
1.0927836000000042
 31
0.0
  0
LINE
  5
61
100
AcDbEntity
100
AcDbLine
  8
0
 62
0
370
0
  6
BYLAYER
 10
127.26237999999998
 20
1.0927836000000042
 30
0.0
 11
127.18537999999998
 21
0.9549835999999985
 31
0.0
  0
LINE
  5
62
100
AcDbEntity
100
AcDbLine
  8
0
 62
0
370
0
  6
BYLAYER
 10
127.18537999999998
 20
0.9549835999999985
 30
0.0
 11
127.09837999999999
 21
0.8240666000000019
 31
0.0
  0
LINE
  5
63
100
AcDbEntity
100
AcDbLine
  8
0
 62
0
370
0
  6
BYLAYER
 10
127.09837999999999
 20
0.8240666000000019
 30
0.0
 11
127.00037999999998
 21
0.7014196000000013
 31
0.0
  0
LINE
  5
64
100
AcDbEntity
100
AcDbLine
  8
0
 62
0
370
0
  6
BYLAYER
 10
127.00037999999998
 20
0.7014196000000013
 30
0.0
 11
126.89538000000002
 21
0.5856666000000033
 31
0.0
  0
LINE
  5
65
100
AcDbEntity
100
AcDbLine
  8
0
 62
0
370
0
  6
BYLAYER
 10
126.89538000000002
 20
0.5856666000000033
 30
0.0
 11
126.78038000000001
 21
0.4795575999999997
 31
0.0
  0
LINE
  5
66
100
AcDbEntity
100
AcDbLine
  8
0
 62
0
370
0
  6
BYLAYER
 10
126.78038000000001
 20
0.4795575999999997
 30
0.0
 11
126.65637999999998
 21
0.3817146000000022
 31
0.0
  0
LINE
  5
67
100
AcDbEntity
100
AcDbLine
  8
0
 62
0
370
0
  6
BYLAYER
 10
126.65637999999998
 20
0.3817146000000022
 30
0.0
 11
126.52538000000001
 21
0.2948996000000008
 31
0.0
  0
LINE
  5
68
100
AcDbEntity
100
AcDbLine
  8
0
 62
0
370
0
  6
BYLAYER
 10
126.52538000000001
 20
0.2948996000000008
 30
0.0
 11
126.38937999999999
 21
0.2177296000000055
 31
0.0
  0
LINE
  5
69
100
AcDbEntity
100
AcDbLine
  8
0
 62
0
370
0
  6
BYLAYER
 10
126.38937999999999
 20
0.2177296000000055
 30
0.0
 11
126.24537999999998
 21
0.1515836000000022
 31
0.0
  0
LINE
  5
6A
100
AcDbEntity
100
AcDbLine
  8
0
 62
0
370
0
  6
BYLAYER
 10
126.24537999999998
 20
0.1515836000000022
 30
0.0
 11
126.09937999999997
 21
0.0978406000000049
 31
0.0
  0
LINE
  5
6B
100
AcDbEntity
100
AcDbLine
  8
0
 62
0
370
0
  6
BYLAYER
 10
126.09937999999997
 20
0.0978406000000049
 30
0.0
 11
125.94838000000001
 21
0.0551215999999997
 31
0.0
  0
LINE
  5
6C
100
AcDbEntity
100
AcDbLine
  8
0
 62
0
370
0
  6
BYLAYER
 10
125.94838000000001
 20
0.0551215999999997
 30
0.0
 11
125.79438000000002
 21
0.0248046000000031
 31
0.0
  0
LINE
  5
6D
100
AcDbEntity
100
AcDbLine
  8
0
 62
0
370
0
  6
BYLAYER
 10
125.79438000000002
 20
0.0248046000000031
 30
0.0
 11
125.63838000000001
 21
0.0068900999999997
 31
0.0
  0
LINE
  5
6E
100
AcDbEntity
100
AcDbLine
  8
0
 62
0
370
0
  6
BYLAYER
 10
125.63838000000001
 20
0.0068900999999997
 30
0.0
 11
125.48137999999997
 21
0.0
 31
0.0
  0
LINE
  5
6F
100
AcDbEntity
100
AcDbLine
  8
0
 62
0
370
0
  6
BYLAYER
 10
125.48137999999997
 20
0.0
 30
0.0
 11
1.0
 21
0.0
 31
0.0
  0
LINE
  5
70
100
AcDbEntity
100
AcDbLine
  8
0
 62
0
370
0
  6
BYLAYER
 10
1.0
 20
0.0
 30
0.0
 11
0.842899999999986
 21
0.0068900999999997
 31
0.0
  0
LINE
  5
71
100
AcDbEntity
100
AcDbLine
  8
0
 62
0
370
0
  6
BYLAYER
 10
0.842899999999986
 20
0.0068900999999997
 30
0.0
 11
0.6871799999999837
 21
0.0248046000000031
 31
0.0
  0
LINE
  5
72
100
AcDbEntity
100
AcDbLine
  8
0
 62
0
370
0
  6
BYLAYER
 10
0.6871799999999837
 20
0.0248046000000031
 30
0.0
 11
0.5328399999999931
 21
0.0551215999999997
 31
0.0
  0
LINE
  5
73
100
AcDbEntity
100
AcDbLine
  8
0
 62
0
370
0
  6
BYLAYER
 10
0.5328399999999931
 20
0.0551215999999997
 30
0.0
 11
0.3812599999999975
 21
0.0978406000000049
 31
0.0
  0
LINE
  5
74
100
AcDbEntity
100
AcDbLine
  8
0
 62
0
370
0
  6
BYLAYER
 10
0.3812599999999975
 20
0.0978406000000049
 30
0.0
 11
0.233809999999977
 21
0.1515836000000022
 31
0.0
  0
LINE
  5
75
100
AcDbEntity
100
AcDbLine
  8
0
 62
0
370
0
  6
BYLAYER
 10
0.233809999999977
 20
0.1515836000000022
 30
0.0
 11
0.0918700000000001
 21
0.2177296000000055
 31
0.0
  0
LINE
  5
76
100
AcDbEntity
100
AcDbLine
  8
0
 62
0
370
0
  6
BYLAYER
 10
0.0918700000000001
 20
0.2177296000000055
 30
0.0
 11
-0.0445600000000184
 21
0.2948996000000008
 31
0.0
  0
LINE
  5
77
100
AcDbEntity
100
AcDbLine
  8
0
 62
0
370
0
  6
BYLAYER
 10
-0.0445600000000184
 20
0.2948996000000008
 30
0.0
 11
-0.1754679999999951
 21
0.3817146000000022
 31
0.0
  0
LINE
  5
78
100
AcDbEntity
100
AcDbLine
  8
0
 62
0
370
0
  6
BYLAYER
 10
-0.1754679999999951
 20
0.3817146000000022
 30
0.0
 11
-0.2994910000000175
 21
0.4795575999999997
 31
0.0
  0
LINE
  5
79
100
AcDbEntity
100
AcDbLine
  8
0
 62
0
370
0
  6
BYLAYER
 10
-0.2994910000000175
 20
0.4795575999999997
 30
0.0
 11
-0.4152479999999912
 21
0.5856666000000033
 31
0.0
  0
LINE
  5
7A
100
AcDbEntity
100
AcDbLine
  8
0
 62
0
370
0
  6
BYLAYER
 10
-0.4152479999999912
 20
0.5856666000000033
 30
0.0
 11
-0.5213559999999973
 21
0.7014196000000013
 31
0.0
  0
LINE
  5
7B
100
AcDbEntity
100
AcDbLine
  8
0
 62
0
370
0
  6
BYLAYER
 10
-0.5213559999999973
 20
0.7014196000000013
 30
0.0
 11
-0.6191960000000165
 21
0.8240666000000019
 31
0.0
  0
LINE
  5
7C
100
AcDbEntity
100
AcDbLine
  8
0
 62
0
370
0
  6
BYLAYER
 10
-0.6191960000000165
 20
0.8240666000000019
 30
0.0
 11
-0.7060140000000104
 21
0.9549835999999985
 31
0.0
  0
LINE
  5
7D
100
AcDbEntity
100
AcDbLine
  8
0
 62
0
370
0
  6
BYLAYER
 10
-0.7060140000000104
 20
0.9549835999999985
 30
0.0
 11
-0.7831830000000082
 21
1.0927836000000042
 31
0.0
  0
LINE
  5
7E
100
AcDbEntity
100
AcDbLine
  8
0
 62
0
370
0
  6
BYLAYER
 10
-0.7831830000000082
 20
1.0927836000000042
 30
0.0
 11
-0.8479509999999948
 21
1.2347236000000024
 31
0.0
  0
LINE
  5
7F
100
AcDbEntity
100
AcDbLine
  8
0
 62
0
370
0
  6
BYLAYER
 10
-0.8479509999999948
 20
1.2347236000000024
 30
0.0
 11
-0.9030730000000062
 21
1.3821736000000016
 31
0.0
  0
LINE
  5
80
100
AcDbEntity
100
AcDbLine
  8
0
 62
0
370
0
  6
BYLAYER
 10
-0.9030730000000062
 20
1.3821736000000016
 30
0.0
 11
-0.9444140000000232
 21
1.5337536000000043
 31
0.0
  0
LINE
  5
81
100
AcDbEntity
100
AcDbLine
  8
0
 62
0
370
0
  6
BYLAYER
 10
-0.9444140000000232
 20
1.5337536000000043
 30
0.0
 11
-0.9761090000000081
 21
1.6867136000000045
 31
0.0
  0
LINE
  5
82
100
AcDbEntity
100
AcDbLine
  8
0
 62
0
370
0
  6
BYLAYER
 10
-0.9761090000000081
 20
1.6867136000000045
 30
0.0
 11
-0.9940229999999986
 21
1.8438136000000043
 31
0.0
  0
LINE
  5
83
100
AcDbEntity
100
AcDbLine
  8
0
 62
0
370
0
  6
BYLAYER
 10
-0.9940229999999986
 20
1.8438136000000043
 30
0.0
 11
-1.0009134000000017
 21
2.0009136000000041
 31
0.0
  0
LINE
  5
84
100
AcDbEntity
100
AcDbLine
  8
0
 62
0
370
0
  6
BYLAYER
 10
-0.999535399999985
 20
114.01307360000001
 30
0.0
 11
-0.9940229999999986
 21
114.17007359999999
 31
0.0
  0
LINE
  5
85
100
AcDbEntity
100
AcDbLine
  8
0
 62
0
370
0
  6
BYLAYER
 10
-0.9940229999999986
 20
114.17007359999999
 30
0.0
 11
-0.9761090000000081
 21
114.3260736
 31
0.0
  0
LINE
  5
86
100
AcDbEntity
100
AcDbLine
  8
0
 62
0
370
0
  6
BYLAYER
 10
-0.9761090000000081
 20
114.3260736
 30
0.0
 11
-0.9444140000000232
 21
114.4800736
 31
0.0
  0
LINE
  5
87
100
AcDbEntity
100
AcDbLine
  8
0
 62
0
370
0
  6
BYLAYER
 10
-0.9444140000000232
 20
114.4800736
 30
0.0
 11
-0.9030730000000062
 21
114.63207360000001
 31
0.0
  0
LINE
  5
88
100
AcDbEntity
100
AcDbLine
  8
0
 62
0
370
0
  6
BYLAYER
 10
-0.9030730000000062
 20
114.63207360000001
 30
0.0
 11
-0.8479509999999948
 21
114.78007360000001
 31
0.0
  0
LINE
  5
89
100
AcDbEntity
100
AcDbLine
  8
0
 62
0
370
0
  6
BYLAYER
 10
-0.8479509999999948
 20
114.78007360000001
 30
0.0
 11
-0.7831830000000082
 21
114.9210736
 31
0.0
  0
LINE
  5
8A
100
AcDbEntity
100
AcDbLine
  8
0
 62
0
370
0
  6
BYLAYER
 10
-0.7831830000000082
 20
114.9210736
 30
0.0
 11
-0.7060140000000104
 21
115.0580736
 31
0.0
  0
LINE
  5
8B
100
AcDbEntity
100
AcDbLine
  8
0
 62
0
370
0
  6
BYLAYER
 10
-0.7060140000000104
 20
115.0580736
 30
0.0
 11
-0.6191960000000165
 21
115.1890736
 31
0.0
  0
LINE
  5
8C
100
AcDbEntity
100
AcDbLine
  8
0
 62
0
370
0
  6
BYLAYER
 10
-0.6191960000000165
 20
115.1890736
 30
0.0
 11
-0.5213559999999973
 21
115.3130736
 31
0.0
  0
LINE
  5
8D
100
AcDbEntity
100
AcDbLine
  8
0
 62
0
370
0
  6
BYLAYER
 10
-0.5213559999999973
 20
115.3130736
 30
0.0
 11
-0.4152479999999912
 21
115.42907360000001
 31
0.0
  0
LINE
  5
8E
100
AcDbEntity
100
AcDbLine
  8
0
 62
0
370
0
  6
BYLAYER
 10
-0.4152479999999912
 20
115.42907360000001
 30
0.0
 11
-0.2994910000000175
 21
115.5350736
 31
0.0
  0
LINE
  5
8F
100
AcDbEntity
100
AcDbLine
  8
0
 62
0
370
0
  6
BYLAYER
 10
-0.2994910000000175
 20
115.5350736
 30
0.0
 11
-0.1754679999999951
 21
115.63307359999999
 31
0.0
  0
LINE
  5
90
100
AcDbEntity
100
AcDbLine
  8
0
 62
0
370
0
  6
BYLAYER
 10
-0.1754679999999951
 20
115.63307359999999
 30
0.0
 11
-0.0445600000000184
 21
115.7190736
 31
0.0
  0
LINE
  5
91
100
AcDbEntity
100
AcDbLine
  8
0
 62
0
370
0
  6
BYLAYER
 10
-0.0445600000000184
 20
115.7190736
 30
0.0
 11
0.0918700000000001
 21
115.7970736
 31
0.0
  0
LINE
  5
92
100
AcDbEntity
100
AcDbLine
  8
0
 62
0
370
0
  6
BYLAYER
 10
0.0918700000000001
 20
115.7970736
 30
0.0
 11
0.233809999999977
 21
115.8610736
 31
0.0
  0
LINE
  5
93
100
AcDbEntity
100
AcDbLine
  8
0
 62
0
370
0
  6
BYLAYER
 10
0.233809999999977
 20
115.8610736
 30
0.0
 11
0.3812599999999975
 21
115.91707360000001
 31
0.0
  0
LINE
  5
94
100
AcDbEntity
100
AcDbLine
  8
0
 62
0
370
0
  6
BYLAYER
 10
0.3812599999999975
 20
115.91707360000001
 30
0.0
 11
0.5328399999999931
 21
115.95807360000001
 31
0.0
  0
LINE
  5
95
100
AcDbEntity
100
AcDbLine
  8
0
 62
0
370
0
  6
BYLAYER
 10
0.5328399999999931
 20
115.95807360000001
 30
0.0
 11
0.6871799999999837
 21
115.99007359999999
 31
0.0
  0
LINE
  5
96
100
AcDbEntity
100
AcDbLine
  8
0
 62
0
370
0
  6
BYLAYER
 10
0.6871799999999837
 20
115.99007359999999
 30
0.0
 11
0.842899999999986
 21
116.00707360000001
 31
0.0
  0
LINE
  5
97
100
AcDbEntity
100
AcDbLine
  8
0
 62
0
370
0
  6
BYLAYER
 10
0.842899999999986
 20
116.00707360000001
 30
0.0
 11
1.0
 21
116.01407359999999
 31
0.0
  0
LINE
  5
98
100
AcDbEntity
100
AcDbLine
  8
0
 62
0
370
0
  6
BYLAYER
 10
1.0
 20
116.01407359999999
 30
0.0
 11
81.338550055087339
 21
116.01342821391852
 31
0.0
  0
LINE
  5
99
100
AcDbEntity
100
AcDbLine
  8
0
 62
0
370
0
  6
BYLAYER
 10
62.651979999999952
 20
112.70307430014
 30
0.0
 11
62.931679999999943
 21
112.56207430013998
 31
0.0
  0
LINE
  5
9A
100
AcDbEntity
100
AcDbLine
  8
0
 62
0
370
0
  6
BYLAYER
 10
62.931679999999943
 20
112.56207430013998
 30
0.0
 11
63.240379999999931
 21
112.51307430014
 31
0.0
  0
LINE
  5
9B
100
AcDbEntity
100
AcDbLine
  8
0
 62
0
370
0
  6
BYLAYER
 10
63.240379999999931
 20
112.51307430014
 30
0.0
 11
63.549079999999947
 21
112.56207430013998
 31
0.0
  0
LINE
  5
9C
100
AcDbEntity
100
AcDbLine
  8
0
 62
0
370
0
  6
BYLAYER
 10
63.549079999999947
 20
112.56207430013998
 30
0.0
 11
63.827379999999948
 21
112.70307430014
 31
0.0
  0
LINE
  5
9D
100
AcDbEntity
100
AcDbLine
  8
0
 62
0
370
0
  6
BYLAYER
 10
63.827379999999948
 20
112.70307430014
 30
0.0
 11
64.049279999999953
 21
112.92507430013998
 31
0.0
  0
LINE
  5
9E
100
AcDbEntity
100
AcDbLine
  8
0
 62
0
370
0
  6
BYLAYER
 10
64.049279999999953
 20
112.92507430013998
 30
0.0
 11
64.191479999999956
 21
113.20407430014001
 31
0.0
  0
LINE
  5
9F
100
AcDbEntity
100
AcDbLine
  8
0
 62
0
370
0
  6
BYLAYER
 10
64.191479999999956
 20
113.20407430014001
 30
0.0
 11
64.239479999999958
 21
113.51207430014
 31
0.0
  0
LINE
  5
A0
100
AcDbEntity
100
AcDbLine
  8
0
 62
0
370
0
  6
BYLAYER
 10
64.239479999999958
 20
113.51207430014
 30
0.0
 11
64.191479999999956
 21
113.82207430014
 31
0.0
  0
LINE
  5
A1
100
AcDbEntity
100
AcDbLine
  8
0
 62
0
370
0
  6
BYLAYER
 10
64.191479999999956
 20
113.82207430014
 30
0.0
 11
64.049279999999953
 21
114.10107430014
 31
0.0
  0
LINE
  5
A2
100
AcDbEntity
100
AcDbLine
  8
0
 62
0
370
0
  6
BYLAYER
 10
64.049279999999953
 20
114.10107430014
 30
0.0
 11
63.827379999999948
 21
114.32307430014001
 31
0.0
  0
LINE
  5
A3
100
AcDbEntity
100
AcDbLine
  8
0
 62
0
370
0
  6
BYLAYER
 10
63.827379999999948
 20
114.32307430014001
 30
0.0
 11
63.549079999999947
 21
114.46507430014
 31
0.0
  0
LINE
  5
A4
100
AcDbEntity
100
AcDbLine
  8
0
 62
0
370
0
  6
BYLAYER
 10
63.549079999999947
 20
114.46507430014
 30
0.0
 11
63.240379999999931
 21
114.51307430014
 31
0.0
  0
LINE
  5
A5
100
AcDbEntity
100
AcDbLine
  8
0
 62
0
370
0
  6
BYLAYER
 10
63.240379999999931
 20
114.51307430014
 30
0.0
 11
62.931679999999943
 21
114.46507430014
 31
0.0
  0
LINE
  5
A6
100
AcDbEntity
100
AcDbLine
  8
0
 62
0
370
0
  6
BYLAYER
 10
62.931679999999943
 20
114.46507430014
 30
0.0
 11
62.651979999999952
 21
114.32307430014001
 31
0.0
  0
LINE
  5
A7
100
AcDbEntity
100
AcDbLine
  8
0
 62
0
370
0
  6
BYLAYER
 10
62.651979999999952
 20
114.32307430014001
 30
0.0
 11
62.431479999999937
 21
114.10107430014
 31
0.0
  0
LINE
  5
A8
100
AcDbEntity
100
AcDbLine
  8
0
 62
0
370
0
  6
BYLAYER
 10
62.431479999999937
 20
114.10107430014
 30
0.0
 11
62.289679999999947
 21
113.82207430014
 31
0.0
  0
LINE
  5
A9
100
AcDbEntity
100
AcDbLine
  8
0
 62
0
370
0
  6
BYLAYER
 10
62.289679999999947
 20
113.82207430014
 30
0.0
 11
62.239879999999943
 21
113.51407430013998
 31
0.0
  0
LINE
  5
AA
100
AcDbEntity
100
AcDbLine
  8
0
 62
0
370
0
  6
BYLAYER
 10
62.239879999999943
 20
113.51407430013998
 30
0.0
 11
62.289679999999947
 21
113.20407430014001
 31
0.0
  0
LINE
  5
AB
100
AcDbEntity
100
AcDbLine
  8
0
 62
0
370
0
  6
BYLAYER
 10
62.289679999999947
 20
113.20407430014001
 30
0.0
 11
62.431479999999937
 21
112.92507430013998
 31
0.0
  0
LINE
  5
AC
100
AcDbEntity
100
AcDbLine
  8
0
 62
0
370
0
  6
BYLAYER
 10
62.431479999999937
 20
112.92507430013998
 30
0.0
 11
62.651979999999952
 21
112.70307430014
 31
0.0
  0
LINE
  5
AD
100
AcDbEntity
100
AcDbLine
  8
0
 62
0
370
0
  6
BYLAYER
 10
124.39198000000002
 20
114.32307430014006
 30
0.0
 11
124.17148
 21
114.10107430014006
 31
0.0
  0
LINE
  5
AE
100
AcDbEntity
100
AcDbLine
  8
0
 62
0
370
0
  6
BYLAYER
 10
124.17148
 20
114.10107430014006
 30
0.0
 11
124.02968000000001
 21
113.82207430014006
 31
0.0
  0
LINE
  5
AF
100
AcDbEntity
100
AcDbLine
  8
0
 62
0
370
0
  6
BYLAYER
 10
124.02968000000001
 20
113.82207430014006
 30
0.0
 11
123.97988000000001
 21
113.51407430014007
 31
0.0
  0
LINE
  5
B0
100
AcDbEntity
100
AcDbLine
  8
0
 62
0
370
0
  6
BYLAYER
 10
123.97988000000001
 20
113.51407430014007
 30
0.0
 11
124.02968000000001
 21
113.20407430014006
 31
0.0
  0
LINE
  5
B1
100
AcDbEntity
100
AcDbLine
  8
0
 62
0
370
0
  6
BYLAYER
 10
124.02968000000001
 20
113.20407430014006
 30
0.0
 11
124.17148
 21
112.92507430014007
 31
0.0
  0
LINE
  5
B2
100
AcDbEntity
100
AcDbLine
  8
0
 62
0
370
0
  6
BYLAYER
 10
124.17148
 20
112.92507430014007
 30
0.0
 11
124.39198000000002
 21
112.70307430014006
 31
0.0
  0
LINE
  5
B3
100
AcDbEntity
100
AcDbLine
  8
0
 62
0
370
0
  6
BYLAYER
 10
124.39198000000002
 20
112.70307430014006
 30
0.0
 11
124.67168000000001
 21
112.56207430014007
 31
0.0
  0
LINE
  5
B4
100
AcDbEntity
100
AcDbLine
  8
0
 62
0
370
0
  6
BYLAYER
 10
124.67168000000001
 20
112.56207430014007
 30
0.0
 11
124.98038
 21
112.51307430014006
 31
0.0
  0
LINE
  5
B5
100
AcDbEntity
100
AcDbLine
  8
0
 62
0
370
0
  6
BYLAYER
 10
124.98038
 20
112.51307430014006
 30
0.0
 11
125.28907999999998
 21
112.56207430014007
 31
0.0
  0
LINE
  5
B6
100
AcDbEntity
100
AcDbLine
  8
0
 62
0
370
0
  6
BYLAYER
 10
125.28907999999998
 20
112.56207430014007
 30
0.0
 11
125.56737999999999
 21
112.70307430014006
 31
0.0
  0
LINE
  5
B7
100
AcDbEntity
100
AcDbLine
  8
0
 62
0
370
0
  6
BYLAYER
 10
125.56737999999999
 20
112.70307430014006
 30
0.0
 11
125.78927999999999
 21
112.92507430014007
 31
0.0
  0
LINE
  5
B8
100
AcDbEntity
100
AcDbLine
  8
0
 62
0
370
0
  6
BYLAYER
 10
125.78927999999999
 20
112.92507430014007
 30
0.0
 11
125.93147999999999
 21
113.20407430014006
 31
0.0
  0
LINE
  5
B9
100
AcDbEntity
100
AcDbLine
  8
0
 62
0
370
0
  6
BYLAYER
 10
125.93147999999999
 20
113.20407430014006
 30
0.0
 11
125.97948
 21
113.51207430014006
 31
0.0
  0
LINE
  5
BA
100
AcDbEntity
100
AcDbLine
  8
0
 62
0
370
0
  6
BYLAYER
 10
125.97948
 20
113.51207430014006
 30
0.0
 11
125.93147999999999
 21
113.82207430014006
 31
0.0
  0
LINE
  5
BB
100
AcDbEntity
100
AcDbLine
  8
0
 62
0
370
0
  6
BYLAYER
 10
125.93147999999999
 20
113.82207430014006
 30
0.0
 11
125.78927999999999
 21
114.10107430014006
 31
0.0
  0
LINE
  5
BC
100
AcDbEntity
100
AcDbLine
  8
0
 62
0
370
0
  6
BYLAYER
 10
125.78927999999999
 20
114.10107430014006
 30
0.0
 11
125.56737999999999
 21
114.32307430014006
 31
0.0
  0
LINE
  5
BD
100
AcDbEntity
100
AcDbLine
  8
0
 62
0
370
0
  6
BYLAYER
 10
125.56737999999999
 20
114.32307430014006
 30
0.0
 11
125.28907999999998
 21
114.46507430014006
 31
0.0
  0
LINE
  5
BE
100
AcDbEntity
100
AcDbLine
  8
0
 62
0
370
0
  6
BYLAYER
 10
125.28907999999998
 20
114.46507430014006
 30
0.0
 11
124.98038
 21
114.51307430014006
 31
0.0
  0
LINE
  5
BF
100
AcDbEntity
100
AcDbLine
  8
0
 62
0
370
0
  6
BYLAYER
 10
124.98038
 20
114.51307430014006
 30
0.0
 11
124.67168000000001
 21
114.46507430014006
 31
0.0
  0
LINE
  5
C0
100
AcDbEntity
100
AcDbLine
  8
0
 62
0
370
0
  6
BYLAYER
 10
124.67168000000001
 20
114.46507430014006
 30
0.0
 11
124.39198000000002
 21
114.32307430014006
 31
0.0
  0
LINE
  5
C1
100
AcDbEntity
100
AcDbLine
  8
0
 62
0
370
0
  6
BYLAYER
 10
124.39197999999996
 20
58.817074300140078
 30
0.0
 11
124.17147999999995
 21
58.59507430014007
 31
0.0
  0
LINE
  5
C2
100
AcDbEntity
100
AcDbLine
  8
0
 62
0
370
0
  6
BYLAYER
 10
124.17147999999995
 20
58.59507430014007
 30
0.0
 11
124.02967999999996
 21
58.316074300140073
 31
0.0
  0
LINE
  5
C3
100
AcDbEntity
100
AcDbLine
  8
0
 62
0
370
0
  6
BYLAYER
 10
124.02967999999996
 20
58.316074300140073
 30
0.0
 11
123.97987999999995
 21
58.008074300140066
 31
0.0
  0
LINE
  5
C4
100
AcDbEntity
100
AcDbLine
  8
0
 62
0
370
0
  6
BYLAYER
 10
123.97987999999995
 20
58.008074300140066
 30
0.0
 11
124.02967999999996
 21
57.698074300140078
 31
0.0
  0
LINE
  5
C5
100
AcDbEntity
100
AcDbLine
  8
0
 62
0
370
0
  6
BYLAYER
 10
124.02967999999996
 20
57.698074300140078
 30
0.0
 11
124.17147999999995
 21
57.419074300140068
 31
0.0
  0
LINE
  5
C6
100
AcDbEntity
100
AcDbLine
  8
0
 62
0
370
0
  6
BYLAYER
 10
124.17147999999995
 20
57.419074300140068
 30
0.0
 11
124.39197999999996
 21
57.197074300140073
 31
0.0
  0
LINE
  5
C7
100
AcDbEntity
100
AcDbLine
  8
0
 62
0
370
0
  6
BYLAYER
 10
124.39197999999996
 20
57.197074300140073
 30
0.0
 11
124.67167999999995
 21
57.056074300140068
 31
0.0
  0
LINE
  5
C8
100
AcDbEntity
100
AcDbLine
  8
0
 62
0
370
0
  6
BYLAYER
 10
124.67167999999995
 20
57.056074300140068
 30
0.0
 11
124.98037999999994
 21
57.007074300140076
 31
0.0
  0
LINE
  5
C9
100
AcDbEntity
100
AcDbLine
  8
0
 62
0
370
0
  6
BYLAYER
 10
124.98037999999994
 20
57.007074300140076
 30
0.0
 11
125.28907999999993
 21
57.056074300140068
 31
0.0
  0
LINE
  5
CA
100
AcDbEntity
100
AcDbLine
  8
0
 62
0
370
0
  6
BYLAYER
 10
125.28907999999993
 20
57.056074300140068
 30
0.0
 11
125.56737999999993
 21
57.197074300140073
 31
0.0
  0
LINE
  5
CB
100
AcDbEntity
100
AcDbLine
  8
0
 62
0
370
0
  6
BYLAYER
 10
125.56737999999993
 20
57.197074300140073
 30
0.0
 11
125.78927999999993
 21
57.419074300140068
 31
0.0
  0
LINE
  5
CC
100
AcDbEntity
100
AcDbLine
  8
0
 62
0
370
0
  6
BYLAYER
 10
125.78927999999993
 20
57.419074300140068
 30
0.0
 11
125.93147999999994
 21
57.698074300140078
 31
0.0
  0
LINE
  5
CD
100
AcDbEntity
100
AcDbLine
  8
0
 62
0
370
0
  6
BYLAYER
 10
125.93147999999994
 20
57.698074300140078
 30
0.0
 11
125.97947999999994
 21
58.006074300140071
 31
0.0
  0
LINE
  5
CE
100
AcDbEntity
100
AcDbLine
  8
0
 62
0
370
0
  6
BYLAYER
 10
125.97947999999994
 20
58.006074300140071
 30
0.0
 11
125.93147999999994
 21
58.316074300140073
 31
0.0
  0
LINE
  5
CF
100
AcDbEntity
100
AcDbLine
  8
0
 62
0
370
0
  6
BYLAYER
 10
125.93147999999994
 20
58.316074300140073
 30
0.0
 11
125.78927999999993
 21
58.59507430014007
 31
0.0
  0
LINE
  5
D0
100
AcDbEntity
100
AcDbLine
  8
0
 62
0
370
0
  6
BYLAYER
 10
125.78927999999993
 20
58.59507430014007
 30
0.0
 11
125.56737999999993
 21
58.817074300140078
 31
0.0
  0
LINE
  5
D1
100
AcDbEntity
100
AcDbLine
  8
0
 62
0
370
0
  6
BYLAYER
 10
125.56737999999993
 20
58.817074300140078
 30
0.0
 11
125.28907999999993
 21
58.959074300140074
 31
0.0
  0
LINE
  5
D2
100
AcDbEntity
100
AcDbLine
  8
0
 62
0
370
0
  6
BYLAYER
 10
125.28907999999993
 20
58.959074300140074
 30
0.0
 11
124.98037999999994
 21
59.007074300140076
 31
0.0
  0
LINE
  5
D3
100
AcDbEntity
100
AcDbLine
  8
0
 62
0
370
0
  6
BYLAYER
 10
124.98037999999994
 20
59.007074300140076
 30
0.0
 11
124.67167999999995
 21
58.959074300140074
 31
0.0
  0
LINE
  5
D4
100
AcDbEntity
100
AcDbLine
  8
0
 62
0
370
0
  6
BYLAYER
 10
124.67167999999995
 20
58.959074300140074
 30
0.0
 11
124.39197999999996
 21
58.817074300140078
 31
0.0
  0
LINE
  5
D5
100
AcDbEntity
100
AcDbLine
  8
0
 62
0
370
0
  6
BYLAYER
 10
124.39297999999994
 20
3.3097643001400598
 30
0.0
 11
124.17247999999992
 21
3.0877643001400514
 31
0.0
  0
LINE
  5
D6
100
AcDbEntity
100
AcDbLine
  8
0
 62
0
370
0
  6
BYLAYER
 10
124.17247999999992
 20
3.0877643001400514
 30
0.0
 11
124.03067999999993
 21
2.8087643001400551
 31
0.0
  0
LINE
  5
D7
100
AcDbEntity
100
AcDbLine
  8
0
 62
0
370
0
  6
BYLAYER
 10
124.03067999999993
 20
2.8087643001400551
 30
0.0
 11
123.98087999999993
 21
2.5007643001400481
 31
0.0
  0
LINE
  5
D8
100
AcDbEntity
100
AcDbLine
  8
0
 62
0
370
0
  6
BYLAYER
 10
123.98087999999993
 20
2.5007643001400481
 30
0.0
 11
124.03067999999993
 21
2.1907643001400601
 31
0.0
  0
LINE
  5
D9
100
AcDbEntity
100
AcDbLine
  8
0
 62
0
370
0
  6
BYLAYER
 10
124.03067999999993
 20
2.1907643001400601
 30
0.0
 11
124.17247999999992
 21
1.9117643001400495
 31
0.0
  0
LINE
  5
DA
100
AcDbEntity
100
AcDbLine
  8
0
 62
0
370
0
  6
BYLAYER
 10
124.17247999999992
 20
1.9117643001400495
 30
0.0
 11
124.39297999999994
 21
1.6897643001400553
 31
0.0
  0
LINE
  5
DB
100
AcDbEntity
100
AcDbLine
  8
0
 62
0
370
0
  6
BYLAYER
 10
124.39297999999994
 20
1.6897643001400553
 30
0.0
 11
124.67267999999993
 21
1.54876430014005
 31
0.0
  0
LINE
  5
DC
100
AcDbEntity
100
AcDbLine
  8
0
 62
0
370
0
  6
BYLAYER
 10
124.67267999999993
 20
1.54876430014005
 30
0.0
 11
124.98137999999992
 21
1.4997643001400576
 31
0.0
  0
LINE
  5
DD
100
AcDbEntity
100
AcDbLine
  8
0
 62
0
370
0
  6
BYLAYER
 10
124.98137999999992
 20
1.4997643001400576
 30
0.0
 11
125.2900799999999
 21
1.54876430014005
 31
0.0
  0
LINE
  5
DE
100
AcDbEntity
100
AcDbLine
  8
0
 62
0
370
0
  6
BYLAYER
 10
125.2900799999999
 20
1.54876430014005
 30
0.0
 11
125.56837999999991
 21
1.6897643001400553
 31
0.0
  0
LINE
  5
DF
100
AcDbEntity
100
AcDbLine
  8
0
 62
0
370
0
  6
BYLAYER
 10
125.56837999999991
 20
1.6897643001400553
 30
0.0
 11
125.79027999999991
 21
1.9117643001400495
 31
0.0
  0
LINE
  5
E0
100
AcDbEntity
100
AcDbLine
  8
0
 62
0
370
0
  6
BYLAYER
 10
125.79027999999991
 20
1.9117643001400495
 30
0.0
 11
125.93247999999991
 21
2.1907643001400601
 31
0.0
  0
LINE
  5
E1
100
AcDbEntity
100
AcDbLine
  8
0
 62
0
370
0
  6
BYLAYER
 10
125.93247999999991
 20
2.1907643001400601
 30
0.0
 11
125.98047999999991
 21
2.4987643001400528
 31
0.0
  0
LINE
  5
E2
100
AcDbEntity
100
AcDbLine
  8
0
 62
0
370
0
  6
BYLAYER
 10
125.98047999999991
 20
2.4987643001400528
 30
0.0
 11
125.93247999999991
 21
2.8087643001400551
 31
0.0
  0
LINE
  5
E3
100
AcDbEntity
100
AcDbLine
  8
0
 62
0
370
0
  6
BYLAYER
 10
125.93247999999991
 20
2.8087643001400551
 30
0.0
 11
125.79027999999991
 21
3.0877643001400514
 31
0.0
  0
LINE
  5
E4
100
AcDbEntity
100
AcDbLine
  8
0
 62
0
370
0
  6
BYLAYER
 10
125.79027999999991
 20
3.0877643001400514
 30
0.0
 11
125.56837999999991
 21
3.3097643001400598
 31
0.0
  0
LINE
  5
E5
100
AcDbEntity
100
AcDbLine
  8
0
 62
0
370
0
  6
BYLAYER
 10
125.56837999999991
 20
3.3097643001400598
 30
0.0
 11
125.2900799999999
 21
3.4517643001400558
 31
0.0
  0
LINE
  5
E6
100
AcDbEntity
100
AcDbLine
  8
0
 62
0
370
0
  6
BYLAYER
 10
125.2900799999999
 20
3.4517643001400558
 30
0.0
 11
124.98137999999992
 21
3.4997643001400576
 31
0.0
  0
LINE
  5
E7
100
AcDbEntity
100
AcDbLine
  8
0
 62
0
370
0
  6
BYLAYER
 10
124.98137999999992
 20
3.4997643001400576
 30
0.0
 11
124.67267999999993
 21
3.4517643001400558
 31
0.0
  0
LINE
  5
E8
100
AcDbEntity
100
AcDbLine
  8
0
 62
0
370
0
  6
BYLAYER
 10
124.67267999999993
 20
3.4517643001400558
 30
0.0
 11
124.39297999999994
 21
3.3097643001400598
 31
0.0
  0
LINE
  5
E9
100
AcDbEntity
100
AcDbLine
  8
0
 62
0
370
0
  6
BYLAYER
 10
62.651979999999952
 20
3.3097643001400456
 30
0.0
 11
62.431479999999937
 21
3.0877643001400372
 31
0.0
  0
LINE
  5
EA
100
AcDbEntity
100
AcDbLine
  8
0
 62
0
370
0
  6
BYLAYER
 10
62.431479999999937
 20
3.0877643001400372
 30
0.0
 11
62.289679999999947
 21
2.8087643001400409
 31
0.0
  0
LINE
  5
EB
100
AcDbEntity
100
AcDbLine
  8
0
 62
0
370
0
  6
BYLAYER
 10
62.289679999999947
 20
2.8087643001400409
 30
0.0
 11
62.239879999999943
 21
2.5007643001400339
 31
0.0
  0
LINE
  5
EC
100
AcDbEntity
100
AcDbLine
  8
0
 62
0
370
0
  6
BYLAYER
 10
62.239879999999943
 20
2.5007643001400339
 30
0.0
 11
62.289679999999947
 21
2.1907643001400459
 31
0.0
  0
LINE
  5
ED
100
AcDbEntity
100
AcDbLine
  8
0
 62
0
370
0
  6
BYLAYER
 10
62.289679999999947
 20
2.1907643001400459
 30
0.0
 11
62.431479999999937
 21
1.9117643001400353
 31
0.0
  0
LINE
  5
EE
100
AcDbEntity
100
AcDbLine
  8
0
 62
0
370
0
  6
BYLAYER
 10
62.431479999999937
 20
1.9117643001400353
 30
0.0
 11
62.651979999999952
 21
1.6897643001400411
 31
0.0
  0
LINE
  5
EF
100
AcDbEntity
100
AcDbLine
  8
0
 62
0
370
0
  6
BYLAYER
 10
62.651979999999952
 20
1.6897643001400411
 30
0.0
 11
62.931679999999943
 21
1.5487643001400357
 31
0.0
  0
LINE
  5
F0
100
AcDbEntity
100
AcDbLine
  8
0
 62
0
370
0
  6
BYLAYER
 10
62.931679999999943
 20
1.5487643001400357
 30
0.0
 11
63.240379999999931
 21
1.4997643001400434
 31
0.0
  0
LINE
  5
F1
100
AcDbEntity
100
AcDbLine
  8
0
 62
0
370
0
  6
BYLAYER
 10
63.240379999999931
 20
1.4997643001400434
 30
0.0
 11
63.549079999999947
 21
1.5487643001400357
 31
0.0
  0
LINE
  5
F2
100
AcDbEntity
100
AcDbLine
  8
0
 62
0
370
0
  6
BYLAYER
 10
63.549079999999947
 20
1.5487643001400357
 30
0.0
 11
63.827379999999948
 21
1.6897643001400411
 31
0.0
  0
LINE
  5
F3
100
AcDbEntity
100
AcDbLine
  8
0
 62
0
370
0
  6
BYLAYER
 10
63.827379999999948
 20
1.6897643001400411
 30
0.0
 11
64.049279999999953
 21
1.9117643001400353
 31
0.0
  0
LINE
  5
F4
100
AcDbEntity
100
AcDbLine
  8
0
 62
0
370
0
  6
BYLAYER
 10
64.049279999999953
 20
1.9117643001400353
 30
0.0
 11
64.191479999999956
 21
2.1907643001400459
 31
0.0
  0
LINE
  5
F5
100
AcDbEntity
100
AcDbLine
  8
0
 62
0
370
0
  6
BYLAYER
 10
64.191479999999956
 20
2.1907643001400459
 30
0.0
 11
64.239479999999958
 21
2.4987643001400386
 31
0.0
  0
LINE
  5
F6
100
AcDbEntity
100
AcDbLine
  8
0
 62
0
370
0
  6
BYLAYER
 10
64.239479999999958
 20
2.4987643001400386
 30
0.0
 11
64.191479999999956
 21
2.8087643001400409
 31
0.0
  0
LINE
  5
F7
100
AcDbEntity
100
AcDbLine
  8
0
 62
0
370
0
  6
BYLAYER
 10
64.191479999999956
 20
2.8087643001400409
 30
0.0
 11
64.049279999999953
 21
3.0877643001400372
 31
0.0
  0
LINE
  5
F8
100
AcDbEntity
100
AcDbLine
  8
0
 62
0
370
0
  6
BYLAYER
 10
64.049279999999953
 20
3.0877643001400372
 30
0.0
 11
63.827379999999948
 21
3.3097643001400456
 31
0.0
  0
LINE
  5
F9
100
AcDbEntity
100
AcDbLine
  8
0
 62
0
370
0
  6
BYLAYER
 10
63.827379999999948
 20
3.3097643001400456
 30
0.0
 11
63.549079999999947
 21
3.4517643001400415
 31
0.0
  0
LINE
  5
FA
100
AcDbEntity
100
AcDbLine
  8
0
 62
0
370
0
  6
BYLAYER
 10
63.549079999999947
 20
3.4517643001400415
 30
0.0
 11
63.240379999999931
 21
3.4997643001400434
 31
0.0
  0
LINE
  5
FB
100
AcDbEntity
100
AcDbLine
  8
0
 62
0
370
0
  6
BYLAYER
 10
63.240379999999931
 20
3.4997643001400434
 30
0.0
 11
62.931679999999943
 21
3.4517643001400415
 31
0.0
  0
LINE
  5
FC
100
AcDbEntity
100
AcDbLine
  8
0
 62
0
370
0
  6
BYLAYER
 10
62.931679999999943
 20
3.4517643001400415
 30
0.0
 11
62.651979999999952
 21
3.3097643001400456
 31
0.0
  0
LINE
  5
FD
100
AcDbEntity
100
AcDbLine
  8
0
 62
0
370
0
  6
BYLAYER
 10
0.9118299999999522
 20
3.3097643001400385
 30
0.0
 11
0.6913299999999651
 21
3.0877643001400301
 31
0.0
  0
LINE
  5
FE
100
AcDbEntity
100
AcDbLine
  8
0
 62
0
370
0
  6
BYLAYER
 10
0.6913299999999651
 20
3.0877643001400301
 30
0.0
 11
0.5495299999999759
 21
2.8087643001400338
 31
0.0
  0
LINE
  5
FF
100
AcDbEntity
100
AcDbLine
  8
0
 62
0
370
0
  6
BYLAYER
 10
0.5495299999999759
 20
2.8087643001400338
 30
0.0
 11
0.4997299999999711
 21
2.5007643001400268
 31
0.0
  0
LINE
  5
100
100
AcDbEntity
100
AcDbLine
  8
0
 62
0
370
0
  6
BYLAYER
 10
0.4997299999999711
 20
2.5007643001400268
 30
0.0
 11
0.5495299999999759
 21
2.1907643001400388
 31
0.0
  0
LINE
  5
101
100
AcDbEntity
100
AcDbLine
  8
0
 62
0
370
0
  6
BYLAYER
 10
0.5495299999999759
 20
2.1907643001400388
 30
0.0
 11
0.6913299999999651
 21
1.9117643001400282
 31
0.0
  0
LINE
  5
102
100
AcDbEntity
100
AcDbLine
  8
0
 62
0
370
0
  6
BYLAYER
 10
0.6913299999999651
 20
1.9117643001400282
 30
0.0
 11
0.9118299999999522
 21
1.689764300140034
 31
0.0
  0
LINE
  5
103
100
AcDbEntity
100
AcDbLine
  8
0
 62
0
370
0
  6
BYLAYER
 10
0.9118299999999522
 20
1.689764300140034
 30
0.0
 11
1.1915299999999718
 21
1.5487643001400286
 31
0.0
  0
LINE
  5
104
100
AcDbEntity
100
AcDbLine
  8
0
 62
0
370
0
  6
BYLAYER
 10
1.1915299999999718
 20
1.5487643001400286
 30
0.0
 11
1.5002299999999593
 21
1.4997643001400363
 31
0.0
  0
LINE
  5
105
100
AcDbEntity
100
AcDbLine
  8
0
 62
0
370
0
  6
BYLAYER
 10
1.5002299999999593
 20
1.4997643001400363
 30
0.0
 11
1.8089299999999469
 21
1.5487643001400286
 31
0.0
  0
LINE
  5
106
100
AcDbEntity
100
AcDbLine
  8
0
 62
0
370
0
  6
BYLAYER
 10
1.8089299999999469
 20
1.5487643001400286
 30
0.0
 11
2.0872299999999484
 21
1.689764300140034
 31
0.0
  0
LINE
  5
107
100
AcDbEntity
100
AcDbLine
  8
0
 62
0
370
0
  6
BYLAYER
 10
2.0872299999999484
 20
1.689764300140034
 30
0.0
 11
2.3091299999999535
 21
1.9117643001400282
 31
0.0
  0
LINE
  5
108
100
AcDbEntity
100
AcDbLine
  8
0
 62
0
370
0
  6
BYLAYER
 10
2.3091299999999535
 20
1.9117643001400282
 30
0.0
 11
2.451329999999956
 21
2.1907643001400388
 31
0.0
  0
LINE
  5
109
100
AcDbEntity
100
AcDbLine
  8
0
 62
0
370
0
  6
BYLAYER
 10
2.451329999999956
 20
2.1907643001400388
 30
0.0
 11
2.4993299999999579
 21
2.4987643001400315
 31
0.0
  0
LINE
  5
10A
100
AcDbEntity
100
AcDbLine
  8
0
 62
0
370
0
  6
BYLAYER
 10
2.4993299999999579
 20
2.4987643001400315
 30
0.0
 11
2.451329999999956
 21
2.8087643001400338
 31
0.0
  0
LINE
  5
10B
100
AcDbEntity
100
AcDbLine
  8
0
 62
0
370
0
  6
BYLAYER
 10
2.451329999999956
 20
2.8087643001400338
 30
0.0
 11
2.3091299999999535
 21
3.0877643001400301
 31
0.0
  0
LINE
  5
10C
100
AcDbEntity
100
AcDbLine
  8
0
 62
0
370
0
  6
BYLAYER
 10
2.3091299999999535
 20
3.0877643001400301
 30
0.0
 11
2.0872299999999484
 21
3.3097643001400385
 31
0.0
  0
LINE
  5
10D
100
AcDbEntity
100
AcDbLine
  8
0
 62
0
370
0
  6
BYLAYER
 10
2.0872299999999484
 20
3.3097643001400385
 30
0.0
 11
1.8089299999999469
 21
3.4517643001400344
 31
0.0
  0
LINE
  5
10E
100
AcDbEntity
100
AcDbLine
  8
0
 62
0
370
0
  6
BYLAYER
 10
1.8089299999999469
 20
3.4517643001400344
 30
0.0
 11
1.5002299999999593
 21
3.4997643001400363
 31
0.0
  0
LINE
  5
10F
100
AcDbEntity
100
AcDbLine
  8
0
 62
0
370
0
  6
BYLAYER
 10
1.5002299999999593
 20
3.4997643001400363
 30
0.0
 11
1.1915299999999718
 21
3.4517643001400344
 31
0.0
  0
LINE
  5
110
100
AcDbEntity
100
AcDbLine
  8
0
 62
0
370
0
  6
BYLAYER
 10
1.1915299999999718
 20
3.4517643001400344
 30
0.0
 11
0.9118299999999522
 21
3.3097643001400385
 31
0.0
  0
LINE
  5
111
100
AcDbEntity
100
AcDbLine
  8
0
 62
0
370
0
  6
BYLAYER
 10
0.9118299999999522
 20
58.817074300140042
 30
0.0
 11
0.6913299999999651
 21
58.595074300140034
 31
0.0
  0
LINE
  5
112
100
AcDbEntity
100
AcDbLine
  8
0
 62
0
370
0
  6
BYLAYER
 10
0.6913299999999651
 20
58.595074300140034
 30
0.0
 11
0.5495299999999475
 21
58.316074300140038
 31
0.0
  0
LINE
  5
113
100
AcDbEntity
100
AcDbLine
  8
0
 62
0
370
0
  6
BYLAYER
 10
0.5495299999999475
 20
58.316074300140038
 30
0.0
 11
0.4997299999999427
 21
58.008074300140031
 31
0.0
  0
LINE
  5
114
100
AcDbEntity
100
AcDbLine
  8
0
 62
0
370
0
  6
BYLAYER
 10
0.4997299999999427
 20
58.008074300140031
 30
0.0
 11
0.5495299999999475
 21
57.698074300140043
 31
0.0
  0
LINE
  5
115
100
AcDbEntity
100
AcDbLine
  8
0
 62
0
370
0
  6
BYLAYER
 10
0.5495299999999475
 20
57.698074300140043
 30
0.0
 11
0.6913299999999651
 21
57.419074300140032
 31
0.0
  0
LINE
  5
116
100
AcDbEntity
100
AcDbLine
  8
0
 62
0
370
0
  6
BYLAYER
 10
0.6913299999999651
 20
57.419074300140032
 30
0.0
 11
0.9118299999999522
 21
57.197074300140038
 31
0.0
  0
LINE
  5
117
100
AcDbEntity
100
AcDbLine
  8
0
 62
0
370
0
  6
BYLAYER
 10
0.9118299999999522
 20
57.197074300140038
 30
0.0
 11
1.1915299999999718
 21
57.056074300140033
 31
0.0
  0
LINE
  5
118
100
AcDbEntity
100
AcDbLine
  8
0
 62
0
370
0
  6
BYLAYER
 10
1.1915299999999718
 20
57.056074300140033
 30
0.0
 11
1.5002299999999593
 21
57.00707430014004
 31
0.0
  0
LINE
  5
119
100
AcDbEntity
100
AcDbLine
  8
0
 62
0
370
0
  6
BYLAYER
 10
1.5002299999999593
 20
57.00707430014004
 30
0.0
 11
1.8089299999999469
 21
57.056074300140033
 31
0.0
  0
LINE
  5
11A
100
AcDbEntity
100
AcDbLine
  8
0
 62
0
370
0
  6
BYLAYER
 10
1.8089299999999469
 20
57.056074300140033
 30
0.0
 11
2.0872299999999484
 21
57.197074300140038
 31
0.0
  0
LINE
  5
11B
100
AcDbEntity
100
AcDbLine
  8
0
 62
0
370
0
  6
BYLAYER
 10
2.0872299999999484
 20
57.197074300140038
 30
0.0
 11
2.3091299999999535
 21
57.419074300140032
 31
0.0
  0
LINE
  5
11C
100
AcDbEntity
100
AcDbLine
  8
0
 62
0
370
0
  6
BYLAYER
 10
2.3091299999999535
 20
57.419074300140032
 30
0.0
 11
2.451329999999956
 21
57.698074300140043
 31
0.0
  0
LINE
  5
11D
100
AcDbEntity
100
AcDbLine
  8
0
 62
0
370
0
  6
BYLAYER
 10
2.451329999999956
 20
57.698074300140043
 30
0.0
 11
2.4993299999999579
 21
58.006074300140035
 31
0.0
  0
LINE
  5
11E
100
AcDbEntity
100
AcDbLine
  8
0
 62
0
370
0
  6
BYLAYER
 10
2.4993299999999579
 20
58.006074300140035
 30
0.0
 11
2.451329999999956
 21
58.316074300140038
 31
0.0
  0
LINE
  5
11F
100
AcDbEntity
100
AcDbLine
  8
0
 62
0
370
0
  6
BYLAYER
 10
2.451329999999956
 20
58.316074300140038
 30
0.0
 11
2.3091299999999535
 21
58.595074300140034
 31
0.0
  0
LINE
  5
120
100
AcDbEntity
100
AcDbLine
  8
0
 62
0
370
0
  6
BYLAYER
 10
2.3091299999999535
 20
58.595074300140034
 30
0.0
 11
2.0872299999999484
 21
58.817074300140042
 31
0.0
  0
LINE
  5
121
100
AcDbEntity
100
AcDbLine
  8
0
 62
0
370
0
  6
BYLAYER
 10
2.0872299999999484
 20
58.817074300140042
 30
0.0
 11
1.8089299999999469
 21
58.959074300140038
 31
0.0
  0
LINE
  5
122
100
AcDbEntity
100
AcDbLine
  8
0
 62
0
370
0
  6
BYLAYER
 10
1.8089299999999469
 20
58.959074300140038
 30
0.0
 11
1.5002299999999593
 21
59.00707430014004
 31
0.0
  0
LINE
  5
123
100
AcDbEntity
100
AcDbLine
  8
0
 62
0
370
0
  6
BYLAYER
 10
1.5002299999999593
 20
59.00707430014004
 30
0.0
 11
1.1915299999999718
 21
58.959074300140038
 31
0.0
  0
LINE
  5
124
100
AcDbEntity
100
AcDbLine
  8
0
 62
0
370
0
  6
BYLAYER
 10
1.1915299999999718
 20
58.959074300140038
 30
0.0
 11
0.9118299999999522
 21
58.817074300140042
 31
0.0
  0
LINE
  5
125
100
AcDbEntity
100
AcDbLine
  8
0
 62
0
370
0
  6
BYLAYER
 10
0.9118299999999806
 20
114.32307430014004
 30
0.0
 11
0.6913299999999936
 21
114.10107430014003
 31
0.0
  0
LINE
  5
126
100
AcDbEntity
100
AcDbLine
  8
0
 62
0
370
0
  6
BYLAYER
 10
0.6913299999999936
 20
114.10107430014003
 30
0.0
 11
0.5495300000000043
 21
113.82207430014003
 31
0.0
  0
LINE
  5
127
100
AcDbEntity
100
AcDbLine
  8
0
 62
0
370
0
  6
BYLAYER
 10
0.5495300000000043
 20
113.82207430014003
 30
0.0
 11
0.4997299999999996
 21
113.51407430014001
 31
0.0
  0
LINE
  5
128
100
AcDbEntity
100
AcDbLine
  8
0
 62
0
370
0
  6
BYLAYER
 10
0.4997299999999996
 20
113.51407430014001
 30
0.0
 11
0.5495300000000043
 21
113.20407430014004
 31
0.0
  0
LINE
  5
129
100
AcDbEntity
100
AcDbLine
  8
0
 62
0
370
0
  6
BYLAYER
 10
0.5495300000000043
 20
113.20407430014004
 30
0.0
 11
0.6913299999999936
 21
112.92507430014001
 31
0.0
  0
LINE
  5
12A
100
AcDbEntity
100
AcDbLine
  8
0
 62
0
370
0
  6
BYLAYER
 10
0.6913299999999936
 20
112.92507430014001
 30
0.0
 11
0.9118299999999806
 21
112.70307430014003
 31
0.0
  0
LINE
  5
12B
100
AcDbEntity
100
AcDbLine
  8
0
 62
0
370
0
  6
BYLAYER
 10
0.9118299999999806
 20
112.70307430014003
 30
0.0
 11
1.1915300000000002
 21
112.56207430014001
 31
0.0
  0
LINE
  5
12C
100
AcDbEntity
100
AcDbLine
  8
0
 62
0
370
0
  6
BYLAYER
 10
1.1915300000000002
 20
112.56207430014001
 30
0.0
 11
1.5002299999999877
 21
112.51307430014003
 31
0.0
  0
LINE
  5
12D
100
AcDbEntity
100
AcDbLine
  8
0
 62
0
370
0
  6
BYLAYER
 10
1.5002299999999877
 20
112.51307430014003
 30
0.0
 11
1.8089300000000037
 21
112.56207430014001
 31
0.0
  0
LINE
  5
12E
100
AcDbEntity
100
AcDbLine
  8
0
 62
0
370
0
  6
BYLAYER
 10
1.8089300000000037
 20
112.56207430014001
 30
0.0
 11
2.0872300000000052
 21
112.70307430014003
 31
0.0
  0
LINE
  5
12F
100
AcDbEntity
100
AcDbLine
  8
0
 62
0
370
0
  6
BYLAYER
 10
2.0872300000000052
 20
112.70307430014003
 30
0.0
 11
2.3091300000000103
 21
112.92507430014001
 31
0.0
  0
LINE
  5
130
100
AcDbEntity
100
AcDbLine
  8
0
 62
0
370
0
  6
BYLAYER
 10
2.3091300000000103
 20
112.92507430014001
 30
0.0
 11
2.4513300000000129
 21
113.20407430014004
 31
0.0
  0
LINE
  5
131
100
AcDbEntity
100
AcDbLine
  8
0
 62
0
370
0
  6
BYLAYER
 10
2.4513300000000129
 20
113.20407430014004
 30
0.0
 11
2.4993300000000147
 21
113.51207430014003
 31
0.0
  0
LINE
  5
132
100
AcDbEntity
100
AcDbLine
  8
0
 62
0
370
0
  6
BYLAYER
 10
2.4993300000000147
 20
113.51207430014003
 30
0.0
 11
2.4513300000000129
 21
113.82207430014003
 31
0.0
  0
LINE
  5
133
100
AcDbEntity
100
AcDbLine
  8
0
 62
0
370
0
  6
BYLAYER
 10
2.4513300000000129
 20
113.82207430014003
 30
0.0
 11
2.3091300000000103
 21
114.10107430014003
 31
0.0
  0
LINE
  5
134
100
AcDbEntity
100
AcDbLine
  8
0
 62
0
370
0
  6
BYLAYER
 10
2.3091300000000103
 20
114.10107430014003
 30
0.0
 11
2.0872300000000052
 21
114.32307430014004
 31
0.0
  0
LINE
  5
135
100
AcDbEntity
100
AcDbLine
  8
0
 62
0
370
0
  6
BYLAYER
 10
2.0872300000000052
 20
114.32307430014004
 30
0.0
 11
1.8089300000000037
 21
114.46507430014003
 31
0.0
  0
LINE
  5
136
100
AcDbEntity
100
AcDbLine
  8
0
 62
0
370
0
  6
BYLAYER
 10
1.8089300000000037
 20
114.46507430014003
 30
0.0
 11
1.5002299999999877
 21
114.51307430014003
 31
0.0
  0
LINE
  5
137
100
AcDbEntity
100
AcDbLine
  8
0
 62
0
370
0
  6
BYLAYER
 10
1.5002299999999877
 20
114.51307430014003
 30
0.0
 11
1.1915300000000002
 21
114.46507430014003
 31
0.0
  0
LINE
  5
138
100
AcDbEntity
100
AcDbLine
  8
0
 62
0
370
0
  6
BYLAYER
 10
1.1915300000000002
 20
114.46507430014003
 30
0.0
 11
0.9118299999999806
 21
114.32307430014004
 31
0.0
  0
LINE
  5
139
100
AcDbEntity
100
AcDbLine
  8
0
 62
0
370
0
  6
BYLAYER
 10
25.050229999999971
 20
28.338023950070053
 30
0.0
 11
25.358930000000015
 21
28.387023950070045
 31
0.0
  0
LINE
  5
13A
100
AcDbEntity
100
AcDbLine
  8
0
 62
0
370
0
  6
BYLAYER
 10
25.358930000000015
 20
28.387023950070045
 30
0.0
 11
25.637230000000017
 21
28.529023950070055
 31
0.0
  0
LINE
  5
13B
100
AcDbEntity
100
AcDbLine
  8
0
 62
0
370
0
  6
BYLAYER
 10
25.637230000000017
 20
28.529023950070055
 30
0.0
 11
25.859130000000022
 21
28.751023950070049
 31
0.0
  0
LINE
  5
13C
100
AcDbEntity
100
AcDbLine
  8
0
 62
0
370
0
  6
BYLAYER
 10
25.859130000000022
 20
28.751023950070049
 30
0.0
 11
26.001330000000024
 21
29.029023950070055
 31
0.0
  0
LINE
  5
13D
100
AcDbEntity
100
AcDbLine
  8
0
 62
0
370
0
  6
BYLAYER
 10
26.001330000000024
 20
29.029023950070055
 30
0.0
 11
26.049330000000026
 21
29.338023950070053
 31
0.0
  0
LINE
  5
13E
100
AcDbEntity
100
AcDbLine
  8
0
 62
0
370
0
  6
BYLAYER
 10
26.049330000000026
 20
29.338023950070053
 30
0.0
 11
26.001330000000024
 21
29.648023950070055
 31
0.0
  0
LINE
  5
13F
100
AcDbEntity
100
AcDbLine
  8
0
 62
0
370
0
  6
BYLAYER
 10
26.001330000000024
 20
29.648023950070055
 30
0.0
 11
25.859130000000022
 21
29.926023950070046
 31
0.0
  0
LINE
  5
140
100
AcDbEntity
100
AcDbLine
  8
0
 62
0
370
0
  6
BYLAYER
 10
25.859130000000022
 20
29.926023950070046
 30
0.0
 11
25.637230000000017
 21
30.148023950070055
 31
0.0
  0
LINE
  5
141
100
AcDbEntity
100
AcDbLine
  8
0
 62
0
370
0
  6
BYLAYER
 10
25.637230000000017
 20
30.148023950070055
 30
0.0
 11
25.358930000000015
 21
30.290023950070051
 31
0.0
  0
LINE
  5
142
100
AcDbEntity
100
AcDbLine
  8
0
 62
0
370
0
  6
BYLAYER
 10
25.358930000000015
 20
30.290023950070051
 30
0.0
 11
25.050229999999971
 21
30.339023950070043
 31
0.0
  0
LINE
  5
143
100
AcDbEntity
100
AcDbLine
  8
0
 62
0
370
0
  6
BYLAYER
 10
25.050229999999971
 20
30.339023950070043
 30
0.0
 11
24.741529999999983
 21
30.290023950070051
 31
0.0
  0
LINE
  5
144
100
AcDbEntity
100
AcDbLine
  8
0
 62
0
370
0
  6
BYLAYER
 10
24.741529999999983
 20
30.290023950070051
 30
0.0
 11
24.461829999999992
 21
30.148023950070055
 31
0.0
  0
LINE
  5
145
100
AcDbEntity
100
AcDbLine
  8
0
 62
0
370
0
  6
BYLAYER
 10
24.461829999999992
 20
30.148023950070055
 30
0.0
 11
24.241329999999977
 21
29.926023950070046
 31
0.0
  0
LINE
  5
146
100
AcDbEntity
100
AcDbLine
  8
0
 62
0
370
0
  6
BYLAYER
 10
24.241329999999977
 20
29.926023950070046
 30
0.0
 11
24.099529999999987
 21
29.648023950070055
 31
0.0
  0
LINE
  5
147
100
AcDbEntity
100
AcDbLine
  8
0
 62
0
370
0
  6
BYLAYER
 10
24.099529999999987
 20
29.648023950070055
 30
0.0
 11
24.049729999999983
 21
29.339023950070043
 31
0.0
  0
LINE
  5
148
100
AcDbEntity
100
AcDbLine
  8
0
 62
0
370
0
  6
BYLAYER
 10
24.049729999999983
 20
29.339023950070043
 30
0.0
 11
24.099529999999987
 21
29.029023950070055
 31
0.0
  0
LINE
  5
149
100
AcDbEntity
100
AcDbLine
  8
0
 62
0
370
0
  6
BYLAYER
 10
24.099529999999987
 20
29.029023950070055
 30
0.0
 11
24.241329999999977
 21
28.751023950070049
 31
0.0
  0
LINE
  5
14A
100
AcDbEntity
100
AcDbLine
  8
0
 62
0
370
0
  6
BYLAYER
 10
24.241329999999977
 20
28.751023950070049
 30
0.0
 11
24.461829999999992
 21
28.529023950070055
 31
0.0
  0
LINE
  5
14B
100
AcDbEntity
100
AcDbLine
  8
0
 62
0
370
0
  6
BYLAYER
 10
24.461829999999992
 20
28.529023950070055
 30
0.0
 11
24.741529999999983
 21
28.387023950070045
 31
0.0
  0
LINE
  5
14C
100
AcDbEntity
100
AcDbLine
  8
0
 62
0
370
0
  6
BYLAYER
 10
24.741529999999983
 20
28.387023950070045
 30
0.0
 11
25.050229999999971
 21
28.338023950070053
 31
0.0
  0
LINE
  5
14D
100
AcDbEntity
100
AcDbLine
  8
0
 62
0
370
0
  6
BYLAYER
 10
25.358929999999958
 20
85.152023950070031
 30
0.0
 11
25.050229999999971
 21
85.201023950070024
 31
0.0
  0
LINE
  5
14E
100
AcDbEntity
100
AcDbLine
  8
0
 62
0
370
0
  6
BYLAYER
 10
25.050229999999971
 20
85.201023950070024
 30
0.0
 11
24.741529999999983
 21
85.152023950070031
 31
0.0
  0
LINE
  5
14F
100
AcDbEntity
100
AcDbLine
  8
0
 62
0
370
0
  6
BYLAYER
 10
24.741529999999983
 20
85.152023950070031
 30
0.0
 11
24.461829999999992
 21
85.010023950070035
 31
0.0
  0
LINE
  5
150
100
AcDbEntity
100
AcDbLine
  8
0
 62
0
370
0
  6
BYLAYER
 10
24.461829999999992
 20
85.010023950070035
 30
0.0
 11
24.241329999999977
 21
84.788023950070027
 31
0.0
  0
LINE
  5
151
100
AcDbEntity
100
AcDbLine
  8
0
 62
0
370
0
  6
BYLAYER
 10
24.241329999999977
 20
84.788023950070027
 30
0.0
 11
24.099529999999987
 21
84.510023950070035
 31
0.0
  0
LINE
  5
152
100
AcDbEntity
100
AcDbLine
  8
0
 62
0
370
0
  6
BYLAYER
 10
24.099529999999987
 20
84.510023950070035
 30
0.0
 11
24.049729999999983
 21
84.201023950070024
 31
0.0
  0
LINE
  5
153
100
AcDbEntity
100
AcDbLine
  8
0
 62
0
370
0
  6
BYLAYER
 10
24.049729999999983
 20
84.201023950070024
 30
0.0
 11
24.099529999999987
 21
83.891023950070036
 31
0.0
  0
LINE
  5
154
100
AcDbEntity
100
AcDbLine
  8
0
 62
0
370
0
  6
BYLAYER
 10
24.099529999999987
 20
83.891023950070036
 30
0.0
 11
24.241329999999977
 21
83.61302395007003
 31
0.0
  0
LINE
  5
155
100
AcDbEntity
100
AcDbLine
  8
0
 62
0
370
0
  6
BYLAYER
 10
24.241329999999977
 20
83.61302395007003
 30
0.0
 11
24.461829999999992
 21
83.391023950070036
 31
0.0
  0
LINE
  5
156
100
AcDbEntity
100
AcDbLine
  8
0
 62
0
370
0
  6
BYLAYER
 10
24.461829999999992
 20
83.391023950070036
 30
0.0
 11
24.741529999999983
 21
83.249023950070026
 31
0.0
  0
LINE
  5
157
100
AcDbEntity
100
AcDbLine
  8
0
 62
0
370
0
  6
BYLAYER
 10
24.741529999999983
 20
83.249023950070026
 30
0.0
 11
25.050229999999971
 21
83.200023950070033
 31
0.0
  0
LINE
  5
158
100
AcDbEntity
100
AcDbLine
  8
0
 62
0
370
0
  6
BYLAYER
 10
25.050229999999971
 20
83.200023950070033
 30
0.0
 11
25.358929999999958
 21
83.249023950070026
 31
0.0
  0
LINE
  5
159
100
AcDbEntity
100
AcDbLine
  8
0
 62
0
370
0
  6
BYLAYER
 10
25.358929999999958
 20
83.249023950070026
 30
0.0
 11
25.637230000000017
 21
83.391023950070036
 31
0.0
  0
LINE
  5
15A
100
AcDbEntity
100
AcDbLine
  8
0
 62
0
370
0
  6
BYLAYER
 10
25.637230000000017
 20
83.391023950070036
 30
0.0
 11
25.859130000000022
 21
83.61302395007003
 31
0.0
  0
LINE
  5
15B
100
AcDbEntity
100
AcDbLine
  8
0
 62
0
370
0
  6
BYLAYER
 10
-1.0009134000000017
 20
2.0009136000000396
 30
0.0
 11
-0.999535399999985
 21
114.01307360000004
 31
0.0
  0
LINE
  5
15C
100
AcDbEntity
100
AcDbLine
  8
0
 62
0
370
0
  6
BYLAYER
 10
25.859130000000022
 20
83.61302395007003
 30
0.0
 11
26.001330000000024
 21
83.891023950070036
 31
0.0
  0
LINE
  5
15D
100
AcDbEntity
100
AcDbLine
  8
0
 62
0
370
0
  6
BYLAYER
 10
26.001330000000024
 20
83.891023950070036
 30
0.0
 11
26.049330000000026
 21
84.200023950070033
 31
0.0
  0
LINE
  5
15E
100
AcDbEntity
100
AcDbLine
  8
0
 62
0
370
0
  6
BYLAYER
 10
26.049330000000026
 20
84.200023950070033
 30
0.0
 11
26.001330000000024
 21
84.510023950070035
 31
0.0
  0
LINE
  5
15F
100
AcDbEntity
100
AcDbLine
  8
0
 62
0
370
0
  6
BYLAYER
 10
26.001330000000024
 20
84.510023950070035
 30
0.0
 11
25.859130000000022
 21
84.788023950070027
 31
0.0
  0
LINE
  5
160
100
AcDbEntity
100
AcDbLine
  8
0
 62
0
370
0
  6
BYLAYER
 10
25.859130000000022
 20
84.788023950070027
 30
0.0
 11
25.637230000000017
 21
85.010023950070035
 31
0.0
  0
LINE
  5
161
100
AcDbEntity
100
AcDbLine
  8
0
 62
0
370
0
  6
BYLAYER
 10
25.637230000000017
 20
85.010023950070035
 30
0.0
 11
25.358929999999958
 21
85.152023950070031
 31
0.0
  0
LINE
  5
162
100
AcDbEntity
100
AcDbLine
  8
0
 62
0
370
0
  6
BYLAYER
 10
101.24993000000002
 20
71.19987395006909
 30
0.0
 11
101.55863000000001
 21
71.248873950069083
 31
0.0
  0
LINE
  5
163
100
AcDbEntity
100
AcDbLine
  8
0
 62
0
370
0
  6
BYLAYER
 10
101.55863000000001
 20
71.248873950069083
 30
0.0
 11
101.83693000000001
 21
71.390873950069093
 31
0.0
  0
LINE
  5
164
100
AcDbEntity
100
AcDbLine
  8
0
 62
0
370
0
  6
BYLAYER
 10
101.83693000000001
 20
71.390873950069093
 30
0.0
 11
102.05883000000001
 21
71.612873950069087
 31
0.0
  0
LINE
  5
165
100
AcDbEntity
100
AcDbLine
  8
0
 62
0
370
0
  6
BYLAYER
 10
102.05883000000001
 20
71.612873950069087
 30
0.0
 11
102.20103000000002
 21
71.890873950069093
 31
0.0
  0
LINE
  5
166
100
AcDbEntity
100
AcDbLine
  8
0
 62
0
370
0
  6
BYLAYER
 10
102.20103000000002
 20
71.890873950069093
 30
0.0
 11
102.24903000000002
 21
72.19987395006909
 31
0.0
  0
LINE
  5
167
100
AcDbEntity
100
AcDbLine
  8
0
 62
0
370
0
  6
BYLAYER
 10
102.24903000000002
 20
72.19987395006909
 30
0.0
 11
102.20103000000002
 21
72.509873950069093
 31
0.0
  0
LINE
  5
168
100
AcDbEntity
100
AcDbLine
  8
0
 62
0
370
0
  6
BYLAYER
 10
102.20103000000002
 20
72.509873950069093
 30
0.0
 11
102.05883000000001
 21
72.787873950069084
 31
0.0
  0
LINE
  5
169
100
AcDbEntity
100
AcDbLine
  8
0
 62
0
370
0
  6
BYLAYER
 10
102.05883000000001
 20
72.787873950069084
 30
0.0
 11
101.83693000000001
 21
73.009873950069093
 31
0.0
  0
LINE
  5
16A
100
AcDbEntity
100
AcDbLine
  8
0
 62
0
370
0
  6
BYLAYER
 10
100.66253596735261
 20
28.527049011499003
 30
0.0
 11
100.9422359673526
 21
28.385049011498992
 31
0.0
  0
LINE
  5
16B
100
AcDbEntity
100
AcDbLine
  8
0
 62
0
370
0
  6
BYLAYER
 10
100.9422359673526
 20
28.385049011498992
 30
0.0
 11
101.25093596735259
 21
28.336049011499
 31
0.0
  0
LINE
  5
16C
100
AcDbEntity
100
AcDbLine
  8
0
 62
0
370
0
  6
BYLAYER
 10
101.25093596735259
 20
28.336049011499
 30
0.0
 11
101.55963596735258
 21
28.385049011498992
 31
0.0
  0
LINE
  5
16D
100
AcDbEntity
100
AcDbLine
  8
0
 62
0
370
0
  6
BYLAYER
 10
101.55963596735258
 20
28.385049011498992
 30
0.0
 11
101.83793596735258
 21
28.527049011499003
 31
0.0
  0
LINE
  5
16E
100
AcDbEntity
100
AcDbLine
  8
0
 62
0
370
0
  6
BYLAYER
 10
101.83793596735258
 20
28.527049011499003
 30
0.0
 11
102.05983596735258
 21
28.749049011498997
 31
0.0
  0
LINE
  5
16F
100
AcDbEntity
100
AcDbLine
  8
0
 62
0
370
0
  6
BYLAYER
 10
102.05983596735258
 20
28.749049011498997
 30
0.0
 11
102.20203596735259
 21
29.027049011499003
 31
0.0
  0
LINE
  5
170
100
AcDbEntity
100
AcDbLine
  8
0
 62
0
370
0
  6
BYLAYER
 10
102.20203596735259
 20
29.027049011499003
 30
0.0
 11
102.25003596735259
 21
29.336049011499
 31
0.0
  0
LINE
  5
171
100
AcDbEntity
100
AcDbLine
  8
0
 62
0
370
0
  6
BYLAYER
 10
102.25003596735259
 20
29.336049011499
 30
0.0
 11
102.20203596735259
 21
29.646049011499002
 31
0.0
  0
LINE
  5
172
100
AcDbEntity
100
AcDbLine
  8
0
 62
0
370
0
  6
BYLAYER
 10
102.20203596735259
 20
29.646049011499002
 30
0.0
 11
102.05983596735258
 21
29.924049011498994
 31
0.0
  0
LINE
  5
173
100
AcDbEntity
100
AcDbLine
  8
0
 62
0
370
0
  6
BYLAYER
 10
63.73733
 20
89.773723599999116
 30
0.0
 11
63.459029999999998
 21
89.915723599999112
 31
0.0
  0
LINE
  5
174
100
AcDbEntity
100
AcDbLine
  8
0
 62
0
370
0
  6
BYLAYER
 10
102.05983596735258
 20
29.924049011498994
 30
0.0
 11
101.83793596735258
 21
30.146049011499002
 31
0.0
  0
LINE
  5
175
100
AcDbEntity
100
AcDbLine
  8
0
 62
0
370
0
  6
BYLAYER
 10
63.459029999999998
 20
89.915723599999112
 30
0.0
 11
63.150330000000011
 21
89.964723599999104
 31
0.0
  0
LINE
  5
176
100
AcDbEntity
100
AcDbLine
  8
0
 62
0
370
0
  6
BYLAYER
 10
63.150330000000011
 20
89.964723599999104
 30
0.0
 11
62.841630000000023
 21
89.915723599999112
 31
0.0
  0
LINE
  5
177
100
AcDbEntity
100
AcDbLine
  8
0
 62
0
370
0
  6
BYLAYER
 10
101.83793596735258
 20
30.146049011499002
 30
0.0
 11
101.55963596735258
 21
30.288049011498998
 31
0.0
  0
LINE
  5
178
100
AcDbEntity
100
AcDbLine
  8
0
 62
0
370
0
  6
BYLAYER
 10
62.841630000000023
 20
89.915723599999112
 30
0.0
 11
62.561930000000032
 21
89.773723599999116
 31
0.0
  0
LINE
  5
179
100
AcDbEntity
100
AcDbLine
  8
0
 62
0
370
0
  6
BYLAYER
 10
62.561930000000032
 20
89.773723599999116
 30
0.0
 11
62.341430000000017
 21
89.551723599999107
 31
0.0
  0
LINE
  5
17A
100
AcDbEntity
100
AcDbLine
  8
0
 62
0
370
0
  6
BYLAYER
 10
101.55963596735258
 20
30.288049011498998
 30
0.0
 11
101.25093596735259
 21
30.337049011498991
 31
0.0
  0
LINE
  5
17B
100
AcDbEntity
100
AcDbLine
  8
0
 62
0
370
0
  6
BYLAYER
 10
62.341430000000017
 20
89.551723599999107
 30
0.0
 11
62.199630000000028
 21
89.273723599999116
 31
0.0
  0
LINE
  5
17C
100
AcDbEntity
100
AcDbLine
  8
0
 62
0
370
0
  6
BYLAYER
 10
62.199630000000028
 20
89.273723599999116
 30
0.0
 11
62.149830000000023
 21
88.964723599999104
 31
0.0
  0
LINE
  5
17D
100
AcDbEntity
100
AcDbLine
  8
0
 62
0
370
0
  6
BYLAYER
 10
101.25093596735259
 20
30.337049011498991
 30
0.0
 11
100.9422359673526
 21
30.288049011498998
 31
0.0
  0
LINE
  5
17E
100
AcDbEntity
100
AcDbLine
  8
0
 62
0
370
0
  6
BYLAYER
 10
62.149830000000023
 20
88.964723599999104
 30
0.0
 11
62.199630000000028
 21
88.654723599999116
 31
0.0
  0
LINE
  5
17F
100
AcDbEntity
100
AcDbLine
  8
0
 62
0
370
0
  6
BYLAYER
 10
62.199630000000028
 20
88.654723599999116
 30
0.0
 11
62.341430000000017
 21
88.37672359999911
 31
0.0
  0
LINE
  5
180
100
AcDbEntity
100
AcDbLine
  8
0
 62
0
370
0
  6
BYLAYER
 10
100.9422359673526
 20
30.288049011498998
 30
0.0
 11
100.66253596735261
 21
30.146049011499002
 31
0.0
  0
LINE
  5
181
100
AcDbEntity
100
AcDbLine
  8
0
 62
0
370
0
  6
BYLAYER
 10
62.341430000000017
 20
88.37672359999911
 30
0.0
 11
62.561930000000032
 21
88.154723599999116
 31
0.0
  0
LINE
  5
182
100
AcDbEntity
100
AcDbLine
  8
0
 62
0
370
0
  6
BYLAYER
 10
62.561930000000032
 20
88.154723599999116
 30
0.0
 11
62.841630000000023
 21
88.012723599999106
 31
0.0
  0
LINE
  5
183
100
AcDbEntity
100
AcDbLine
  8
0
 62
0
370
0
  6
BYLAYER
 10
100.66253596735261
 20
30.146049011499002
 30
0.0
 11
100.4420359673526
 21
29.924049011498994
 31
0.0
  0
LINE
  5
184
100
AcDbEntity
100
AcDbLine
  8
0
 62
0
370
0
  6
BYLAYER
 10
62.841630000000023
 20
88.012723599999106
 30
0.0
 11
63.150330000000011
 21
87.963723599999113
 31
0.0
  0
LINE
  5
185
100
AcDbEntity
100
AcDbLine
  8
0
 62
0
370
0
  6
BYLAYER
 10
100.4420359673526
 20
29.924049011498994
 30
0.0
 11
100.30023596735261
 21
29.646049011499002
 31
0.0
  0
LINE
  5
186
100
AcDbEntity
100
AcDbLine
  8
0
 62
0
370
0
  6
BYLAYER
 10
63.150330000000011
 20
87.963723599999113
 30
0.0
 11
63.459029999999998
 21
88.012723599999106
 31
0.0
  0
LINE
  5
187
100
AcDbEntity
100
AcDbLine
  8
0
 62
0
370
0
  6
BYLAYER
 10
100.30023596735261
 20
29.646049011499002
 30
0.0
 11
100.2504359673526
 21
29.337049011498991
 31
0.0
  0
LINE
  5
188
100
AcDbEntity
100
AcDbLine
  8
0
 62
0
370
0
  6
BYLAYER
 10
63.459029999999998
 20
88.012723599999106
 30
0.0
 11
63.73733
 21
88.154723599999116
 31
0.0
  0
LINE
  5
189
100
AcDbEntity
100
AcDbLine
  8
0
 62
0
370
0
  6
BYLAYER
 10
100.2504359673526
 20
29.337049011498991
 30
0.0
 11
100.30023596735261
 21
29.027049011499003
 31
0.0
  0
LINE
  5
18A
100
AcDbEntity
100
AcDbLine
  8
0
 62
0
370
0
  6
BYLAYER
 10
63.73733
 20
88.154723599999116
 30
0.0
 11
63.959230000000005
 21
88.37672359999911
 31
0.0
  0
LINE
  5
18B
100
AcDbEntity
100
AcDbLine
  8
0
 62
0
370
0
  6
BYLAYER
 10
100.30023596735261
 20
29.027049011499003
 30
0.0
 11
100.4420359673526
 21
28.749049011498997
 31
0.0
  0
LINE
  5
18C
100
AcDbEntity
100
AcDbLine
  8
0
 62
0
370
0
  6
BYLAYER
 10
63.959230000000005
 20
88.37672359999911
 30
0.0
 11
64.101430000000008
 21
88.654723599999116
 31
0.0
  0
LINE
  5
18D
100
AcDbEntity
100
AcDbLine
  8
0
 62
0
370
0
  6
BYLAYER
 10
100.4420359673526
 20
28.749049011498997
 30
0.0
 11
100.66253596735261
 21
28.527049011499003
 31
0.0
  0
LINE
  5
18E
100
AcDbEntity
100
AcDbLine
  8
0
 62
0
370
0
  6
BYLAYER
 10
64.101430000000008
 20
88.654723599999116
 30
0.0
 11
64.149430000000009
 21
88.963723599999113
 31
0.0
  0
LINE
  5
18F
100
AcDbEntity
100
AcDbLine
  8
0
 62
0
370
0
  6
BYLAYER
 10
64.149430000000009
 20
88.963723599999113
 30
0.0
 11
64.101430000000008
 21
89.273723599999116
 31
0.0
  0
LINE
  5
190
100
AcDbEntity
100
AcDbLine
  8
0
 62
0
370
0
  6
BYLAYER
 10
64.101430000000008
 20
89.273723599999116
 30
0.0
 11
63.959230000000005
 21
89.551723599999107
 31
0.0
  0
LINE
  5
191
100
AcDbEntity
100
AcDbLine
  8
0
 62
0
370
0
  6
BYLAYER
 10
63.959230000000005
 20
89.551723599999107
 30
0.0
 11
63.73733
 21
89.773723599999116
 31
0.0
  0
LINE
  5
192
100
AcDbEntity
100
AcDbLine
  8
0
 62
0
370
0
  6
BYLAYER
 10
63.73733
 20
50.053323950069085
 30
0.0
 11
63.959230000000005
 21
50.27532395006908
 31
0.0
  0
LINE
  5
193
100
AcDbEntity
100
AcDbLine
  8
0
 62
0
370
0
  6
BYLAYER
 10
63.959230000000005
 20
50.27532395006908
 30
0.0
 11
64.101430000000008
 21
50.553323950069085
 31
0.0
  0
LINE
  5
194
100
AcDbEntity
100
AcDbLine
  8
0
 62
0
370
0
  6
BYLAYER
 10
64.101430000000008
 20
50.553323950069085
 30
0.0
 11
64.149430000000009
 21
50.862323950069083
 31
0.0
  0
LINE
  5
195
100
AcDbEntity
100
AcDbLine
  8
0
 62
0
370
0
  6
BYLAYER
 10
64.149430000000009
 20
50.862323950069083
 30
0.0
 11
64.101430000000008
 21
51.172323950069085
 31
0.0
  0
LINE
  5
196
100
AcDbEntity
100
AcDbLine
  8
0
 62
0
370
0
  6
BYLAYER
 10
64.101430000000008
 20
51.172323950069085
 30
0.0
 11
63.959230000000005
 21
51.450323950069077
 31
0.0
  0
LINE
  5
197
100
AcDbEntity
100
AcDbLine
  8
0
 62
0
370
0
  6
BYLAYER
 10
63.959230000000005
 20
51.450323950069077
 30
0.0
 11
63.73733
 21
51.672323950069085
 31
0.0
  0
LINE
  5
198
100
AcDbEntity
100
AcDbLine
  8
0
 62
0
370
0
  6
BYLAYER
 10
63.73733
 20
51.672323950069085
 30
0.0
 11
63.459029999999942
 21
51.814323950069081
 31
0.0
  0
LINE
  5
199
100
AcDbEntity
100
AcDbLine
  8
0
 62
0
370
0
  6
BYLAYER
 10
63.459029999999942
 20
51.814323950069081
 30
0.0
 11
63.150330000000011
 21
51.863323950069073
 31
0.0
  0
LINE
  5
19A
100
AcDbEntity
100
AcDbLine
  8
0
 62
0
370
0
  6
BYLAYER
 10
63.150330000000011
 20
51.863323950069073
 30
0.0
 11
62.841629999999967
 21
51.814323950069081
 31
0.0
  0
LINE
  5
19B
100
AcDbEntity
100
AcDbLine
  8
0
 62
0
370
0
  6
BYLAYER
 10
62.841629999999967
 20
51.814323950069081
 30
0.0
 11
62.561929999999975
 21
51.672323950069085
 31
0.0
  0
LINE
  5
19C
100
AcDbEntity
100
AcDbLine
  8
0
 62
0
370
0
  6
BYLAYER
 10
62.561929999999975
 20
51.672323950069085
 30
0.0
 11
62.341430000000017
 21
51.450323950069077
 31
0.0
  0
LINE
  5
19D
100
AcDbEntity
100
AcDbLine
  8
0
 62
0
370
0
  6
BYLAYER
 10
127.48037999999998
 20
114.01307359999907
 30
0.0
 11
127.48037999999998
 21
2.0009135999990804
 31
0.0
  0
LINE
  5
19E
100
AcDbEntity
100
AcDbLine
  8
0
 62
0
370
0
  6
BYLAYER
 10
62.341430000000017
 20
51.450323950069077
 30
0.0
 11
62.199630000000028
 21
51.172323950069085
 31
0.0
  0
LINE
  5
19F
100
AcDbEntity
100
AcDbLine
  8
0
 62
0
370
0
  6
BYLAYER
 10
62.199630000000028
 20
51.172323950069085
 30
0.0
 11
62.149830000000023
 21
50.863323950069073
 31
0.0
  0
LINE
  5
1A0
100
AcDbEntity
100
AcDbLine
  8
0
 62
0
370
0
  6
BYLAYER
 10
62.149830000000023
 20
50.863323950069073
 30
0.0
 11
62.199630000000028
 21
50.553323950069085
 31
0.0
  0
LINE
  5
1A1
100
AcDbEntity
100
AcDbLine
  8
0
 62
0
370
0
  6
BYLAYER
 10
62.199630000000028
 20
50.553323950069085
 30
0.0
 11
62.341430000000017
 21
50.27532395006908
 31
0.0
  0
LINE
  5
1A2
100
AcDbEntity
100
AcDbLine
  8
0
 62
0
370
0
  6
BYLAYER
 10
62.341430000000017
 20
50.27532395006908
 30
0.0
 11
62.561929999999975
 21
50.053323950069085
 31
0.0
  0
LINE
  5
1A3
100
AcDbEntity
100
AcDbLine
  8
0
 62
0
370
0
  6
BYLAYER
 10
62.561929999999975
 20
50.053323950069085
 30
0.0
 11
62.841629999999967
 21
49.911323950069075
 31
0.0
  0
LINE
  5
1A4
100
AcDbEntity
100
AcDbLine
  8
0
 62
0
370
0
  6
BYLAYER
 10
62.841629999999967
 20
49.911323950069075
 30
0.0
 11
63.150330000000011
 21
49.862323950069083
 31
0.0
  0
LINE
  5
1A5
100
AcDbEntity
100
AcDbLine
  8
0
 62
0
370
0
  6
BYLAYER
 10
63.150330000000011
 20
49.862323950069083
 30
0.0
 11
63.459029999999942
 21
49.911323950069075
 31
0.0
  0
LINE
  5
1A6
100
AcDbEntity
100
AcDbLine
  8
0
 62
0
370
0
  6
BYLAYER
 10
63.459029999999942
 20
49.911323950069075
 30
0.0
 11
63.73733
 21
50.053323950069085
 31
0.0
  0
LINE
  5
1A7
100
AcDbEntity
100
AcDbLine
  8
0
 62
0
370
0
  6
BYLAYER
 10
101.83693000000001
 20
73.009873950069093
 30
0.0
 11
101.55863000000001
 21
73.151873950069088
 31
0.0
  0
LINE
  5
1A8
100
AcDbEntity
100
AcDbLine
  8
0
 62
0
370
0
  6
BYLAYER
 10
101.55863000000001
 20
73.151873950069088
 30
0.0
 11
101.24993000000002
 21
73.200873950069081
 31
0.0
  0
LINE
  5
1A9
100
AcDbEntity
100
AcDbLine
  8
0
 62
0
370
0
  6
BYLAYER
 10
101.24993000000002
 20
73.200873950069081
 30
0.0
 11
100.94123000000003
 21
73.151873950069088
 31
0.0
  0
LINE
  5
1AA
100
AcDbEntity
100
AcDbLine
  8
0
 62
0
370
0
  6
BYLAYER
 10
100.94123000000003
 20
73.151873950069088
 30
0.0
 11
100.66152999999998
 21
73.009873950069093
 31
0.0
  0
LINE
  5
1AB
100
AcDbEntity
100
AcDbLine
  8
0
 62
0
370
0
  6
BYLAYER
 10
100.66152999999998
 20
73.009873950069093
 30
0.0
 11
100.44103000000003
 21
72.787873950069084
 31
0.0
  0
LINE
  5
1AC
100
AcDbEntity
100
AcDbLine
  8
0
 62
0
370
0
  6
BYLAYER
 10
100.44103000000003
 20
72.787873950069084
 30
0.0
 11
100.29922999999998
 21
72.509873950069093
 31
0.0
  0
LINE
  5
1AD
100
AcDbEntity
100
AcDbLine
  8
0
 62
0
370
0
  6
BYLAYER
 10
100.29922999999998
 20
72.509873950069093
 30
0.0
 11
100.24942999999998
 21
72.200873950069081
 31
0.0
  0
LINE
  5
1AE
100
AcDbEntity
100
AcDbLine
  8
0
 62
0
370
0
  6
BYLAYER
 10
100.24942999999998
 20
72.200873950069081
 30
0.0
 11
100.29922999999998
 21
71.890873950069093
 31
0.0
  0
LINE
  5
1AF
100
AcDbEntity
100
AcDbLine
  8
0
 62
0
370
0
  6
BYLAYER
 10
100.29922999999998
 20
71.890873950069093
 30
0.0
 11
100.44103000000003
 21
71.612873950069087
 31
0.0
  0
LINE
  5
1B0
100
AcDbEntity
100
AcDbLine
  8
0
 62
0
370
0
  6
BYLAYER
 10
100.44103000000003
 20
71.612873950069087
 30
0.0
 11
100.66152999999998
 21
71.390873950069093
 31
0.0
  0
LINE
  5
1B1
100
AcDbEntity
100
AcDbLine
  8
0
 62
0
370
0
  6
BYLAYER
 10
100.66152999999998
 20
71.390873950069093
 30
0.0
 11
100.94123000000003
 21
71.248873950069083
 31
0.0
  0
LINE
  5
1B2
100
AcDbEntity
100
AcDbLine
  8
0
 62
0
370
0
  6
BYLAYER
 10
100.94123000000003
 20
71.248873950069083
 30
0.0
 11
101.24993000000002
 21
71.19987395006909
 31
0.0
  0
LINE
  5
1B3
100
AcDbEntity
100
AcDbLine
  8
0
 62
256
370
0
  6
BYLAYER
 10
81.337925505965728
 20
78.991801894350331
 30
0.0
 11
81.338550055087339
 21
116.01342821391853
 31
0.0
  0
LINE
  5
1B4
100
AcDbEntity
100
AcDbLine
  8
0
 62
256
370
0
  6
BYLAYER
 10
102.51294974503267
 20
78.991422008315297
 30
0.0
 11
102.51338072011677
 21
103.0141735999991
 31
0.0
  0
LINE
  5
1B5
100
AcDbEntity
100
AcDbLine
  8
0
 62
256
370
0
  6
BYLAYER
 10
112.26924226942103
 20
103.0141735999991
 30
0.0
 11
112.26943584278027
 21
116.0131797359069
 31
0.0
  0
LINE
  5
1B6
100
AcDbEntity
100
AcDbLine
  8
0
 62
256
370
0
  6
BYLAYER
 10
81.337925505965785
 20
78.991801894350331
 30
0.0
 11
102.51294974503267
 21
78.991422008315297
 31
0.0
  0
LINE
  5
1B7
100
AcDbEntity
100
AcDbLine
  8
0
 62
256
370
0
  6
BYLAYER
 10
102.51338072011671
 20
103.0141735999991
 30
0.0
 11
112.26924226942108
 21
103.0141735999991
 31
0.0
  0
LINE
  5
1B8
100
AcDbEntity
100
AcDbLine
  8
0
 62
0
370
0
  6
BYLAYER
 10
112.26943584278027
 20
116.0131797359069
 30
0.0
 11
125.48137999999997
 21
116.01307360000001
 31
0.0
  0
ENDSEC
  0
SECTION
  2
OBJECTS
  0
DICTIONARY
  5
C
100
AcDbDictionary
280
0
281
1
  3
ACAD_GROUP
350
D
  3
ACAD_LAYOUT
350
1A
  3
ACAD_MLINESTYLE
350
17
  3
ACAD_PLOTSETTINGS
350
19
  3
ACAD_PLOTSTYLENAME
350
E
  3
AcDbVariableDictionary
350
1B9
  3
QCAD_OBJECTS
350
1BA
  0
DICTIONARY
  5
D
100
AcDbDictionary
280
0
281
1
  0
ACDBDICTIONARYWDFLT
  5
E
100
AcDbDictionary
281
1
  3
Normal
350
F
100
AcDbDictionaryWithDefault
340
F
  0
ACDBPLACEHOLDER
  5
F
  0
DICTIONARY
  5
17
100
AcDbDictionary
280
0
281
1
  3
Standard
350
18
  0
MLINESTYLE
  5
18
100
AcDbMlineStyle
  2
STANDARD
 70
0
  3

 62
256
 51
90.0
 52
90.0
 71
2
 49
0.5
 62
256
  6
BYLAYER
 49
-0.5
 62
256
  6
BYLAYER
  0
DICTIONARY
  5
19
100
AcDbDictionary
280
0
281
1
  0
DICTIONARY
  5
1A
100
AcDbDictionary
281
1
  3
Layout1
350
1E
  3
Layout2
350
26
  3
Model
350
22
  0
LAYOUT
  5
1E
100
AcDbPlotSettings
  1

  2
C:\Program Files\AutoCAD 2002\plotters\DWF ePlot (optimized for plotting).pc3
  4

  6

 40
0.0
 41
0.0
 42
0.0
 43
0.0
 44
0.0
 45
0.0
 46
0.0
 47
0.0
 48
0.0
 49
0.0
140
0.0
141
0.0
142
1.0
143
1.0
 70
688
 72
0
 73
0
 74
5
  7

 75
16
147
1.0
148
0.0
149
0.0
100
AcDbLayout
  1
Layout1
 70
1
 71
1
 10
0.0
 20
0.0
 11
420.0
 21
297.0
 12
0.0
 22
0.0
 32
0.0
 14
100000000000000000000.0
 24
100000000000000000000.0
 34
100000000000000000000.0
 15
-100000000000000000000.0
 25
-100000000000000000000.0
 35
-100000000000000000000.0
146
0.0
 13
0.0
 23
0.0
 33
0.0
 16
1.0
 26
0.0
 36
0.0
 17
0.0
 27
1.0
 37
0.0
 76
0
330
1B
  0
LAYOUT
  5
22
100
AcDbPlotSettings
  1

  2
C:\Program Files\AutoCAD 2002\plotters\DWF ePlot (optimized for plotting).pc3
  4

  6

 40
0.0
 41
0.0
 42
0.0
 43
0.0
 44
0.0
 45
0.0
 46
0.0
 47
0.0
 48
0.0
 49
0.0
140
0.0
141
0.0
142
1.0
143
1.0
 70
1712
 72
0
 73
0
 74
0
  7

 75
0
147
1.0
148
0.0
149
0.0
100
AcDbLayout
  1
Model
 70
1
 71
0
 10
0.0
 20
0.0
 11
12.0
 21
9.0
 12
0.0
 22
0.0
 32
0.0
 14
0.0
 24
0.0
 34
0.0
 15
0.0
 25
0.0
 35
0.0
146
0.0
 13
0.0
 23
0.0
 33
0.0
 16
1.0
 26
0.0
 36
0.0
 17
0.0
 27
1.0
 37
0.0
 76
0
330
1F
  0
LAYOUT
  5
26
100
AcDbPlotSettings
  1

  2
C:\Program Files\AutoCAD 2002\plotters\DWF ePlot (optimized for plotting).pc3
  4

  6

 40
0.0
 41
0.0
 42
0.0
 43
0.0
 44
0.0
 45
0.0
 46
0.0
 47
0.0
 48
0.0
 49
0.0
140
0.0
141
0.0
142
1.0
143
1.0
 70
688
 72
0
 73
0
 74
5
  7

 75
16
147
1.0
148
0.0
149
0.0
100
AcDbLayout
  1
Layout2
 70
1
 71
2
 10
0.0
 20
0.0
 11
12.0
 21
9.0
 12
0.0
 22
0.0
 32
0.0
 14
0.0
 24
0.0
 34
0.0
 15
0.0
 25
0.0
 35
0.0
146
0.0
 13
0.0
 23
0.0
 33
0.0
 16
1.0
 26
0.0
 36
0.0
 17
0.0
 27
1.0
 37
0.0
 76
0
330
23
  0
DICTIONARY
  5
1B9
100
AcDbDictionary
281
1
  3
DIMASSOC
350
1BC
  3
HIDETEXT
350
1BB
  0
DICTIONARYVAR
  5
1BB
100
DictionaryVariables
280
0
  1
2
  0
DICTIONARYVAR
  5
1BC
100
DictionaryVariables
280
0
  1
1
  0
DICTIONARY
  5
1BA
100
AcDbDictionary
281
1
  3
Grid/DisplayGrid00
350
1BD
  3
Grid/DisplayGrid01
350
1BE
  3
Grid/DisplayGrid02
350
1BF
  3
Grid/DisplayGrid03
350
1C0
  3
Grid/GridSpacingX00
350
1C1
  3
Grid/GridSpacingX01
350
1C2
  3
Grid/GridSpacingX02
350
1C3
  3
Grid/GridSpacingX03
350
1C4
  3
Grid/GridSpacingY00
350
1C5
  3
Grid/GridSpacingY01
350
1C6
  3
Grid/GridSpacingY02
350
1C7
  3
Grid/GridSpacingY03
350
1C8
  3
Grid/IsometricGrid00
350
1C9
  3
Grid/IsometricGrid01
350
1CA
  3
Grid/IsometricGrid02
350
1CB
  3
Grid/IsometricGrid03
350
1CC
  3
Grid/IsometricProjection00
350
1CD
  3
Grid/IsometricProjection01
350
1CE
  3
Grid/IsometricProjection02
350
1CF
  3
Grid/IsometricProjection03
350
1D0
  3
Grid/MetaGridSpacingX00
350
1D1
  3
Grid/MetaGridSpacingX01
350
1D2
  3
Grid/MetaGridSpacingX02
350
1D3
  3
Grid/MetaGridSpacingX03
350
1D4
  3
Grid/MetaGridSpacingY00
350
1D5
  3
Grid/MetaGridSpacingY01
350
1D6
  3
Grid/MetaGridSpacingY02
350
1D7
  3
Grid/MetaGridSpacingY03
350
1D8
  3
MultiPageSettings/Columns
350
1D9
  3
MultiPageSettings/GlueMarginsBottom
350
1DA
  3
MultiPageSettings/GlueMarginsLeft
350
1DB
  3
MultiPageSettings/GlueMarginsRight
350
1DC
  3
MultiPageSettings/GlueMarginsTop
350
1DD
  3
MultiPageSettings/PrintCropMarks
350
1DE
  3
MultiPageSettings/Rows
350
1DF
  3
PageSettings/OffsetX
350
1E0
  3
PageSettings/OffsetY
350
1E1
  3
PageSettings/PageOrientation
350
1E2
  3
PageSettings/PaperHeight
350
1E3
  3
PageSettings/PaperWidth
350
1E4
  3
PageSettings/Scale
350
1E5
  3
PageSettings/ShowPaperBorders
350
1E6
  3
UnitSettings/PaperUnit
350
1E7
  0
XRECORD
  5
1BD
330
1BA
100
AcDbXrecord
280
1
290
1
  0
XRECORD
  5
1BE
330
1BA
100
AcDbXrecord
280
1
290
1
  0
XRECORD
  5
1BF
330
1BA
100
AcDbXrecord
280
1
290
1
  0
XRECORD
  5
1C0
330
1BA
100
AcDbXrecord
280
1
290
1
  0
XRECORD
  5
1C1
330
1BA
100
AcDbXrecord
280
1
1000
auto
  0
XRECORD
  5
1C2
330
1BA
100
AcDbXrecord
280
1
1000
auto
  0
XRECORD
  5
1C3
330
1BA
100
AcDbXrecord
280
1
1000
auto
  0
XRECORD
  5
1C4
330
1BA
100
AcDbXrecord
280
1
1000
auto
  0
XRECORD
  5
1C5
330
1BA
100
AcDbXrecord
280
1
1000
auto
  0
XRECORD
  5
1C6
330
1BA
100
AcDbXrecord
280
1
1000
auto
  0
XRECORD
  5
1C7
330
1BA
100
AcDbXrecord
280
1
1000
auto
  0
XRECORD
  5
1C8
330
1BA
100
AcDbXrecord
280
1
1000
auto
  0
XRECORD
  5
1C9
330
1BA
100
AcDbXrecord
280
1
290
0
  0
XRECORD
  5
1CA
330
1BA
100
AcDbXrecord
280
1
290
0
  0
XRECORD
  5
1CB
330
1BA
100
AcDbXrecord
280
1
290
0
  0
XRECORD
  5
1CC
330
1BA
100
AcDbXrecord
280
1
290
0
  0
XRECORD
  5
1CD
330
1BA
100
AcDbXrecord
280
1
 90
0
  0
XRECORD
  5
1CE
330
1BA
100
AcDbXrecord
280
1
 90
0
  0
XRECORD
  5
1CF
330
1BA
100
AcDbXrecord
280
1
 90
0
  0
XRECORD
  5
1D0
330
1BA
100
AcDbXrecord
280
1
 90
0
  0
XRECORD
  5
1D1
330
1BA
100
AcDbXrecord
280
1
1000
auto
  0
XRECORD
  5
1D2
330
1BA
100
AcDbXrecord
280
1
1000
auto
  0
XRECORD
  5
1D3
330
1BA
100
AcDbXrecord
280
1
1000
auto
  0
XRECORD
  5
1D4
330
1BA
100
AcDbXrecord
280
1
1000
auto
  0
XRECORD
  5
1D5
330
1BA
100
AcDbXrecord
280
1
1000
auto
  0
XRECORD
  5
1D6
330
1BA
100
AcDbXrecord
280
1
1000
auto
  0
XRECORD
  5
1D7
330
1BA
100
AcDbXrecord
280
1
1000
auto
  0
XRECORD
  5
1D8
330
1BA
100
AcDbXrecord
280
1
1000
auto
  0
XRECORD
  5
1D9
330
1BA
100
AcDbXrecord
280
1
 90
1
  0
XRECORD
  5
1DA
330
1BA
100
AcDbXrecord
280
1
 40
10.0
  0
XRECORD
  5
1DB
330
1BA
100
AcDbXrecord
280
1
 40
10.0
  0
XRECORD
  5
1DC
330
1BA
100
AcDbXrecord
280
1
 40
10.0
  0
XRECORD
  5
1DD
330
1BA
100
AcDbXrecord
280
1
 40
10.0
  0
XRECORD
  5
1DE
330
1BA
100
AcDbXrecord
280
1
290
0
  0
XRECORD
  5
1DF
330
1BA
100
AcDbXrecord
280
1
 90
1
  0
XRECORD
  5
1E0
330
1BA
100
AcDbXrecord
280
1
 40
0.0
  0
XRECORD
  5
1E1
330
1BA
100
AcDbXrecord
280
1
 40
0.0
  0
XRECORD
  5
1E2
330
1BA
100
AcDbXrecord
280
1
1000
Portrait
  0
XRECORD
  5
1E3
330
1BA
100
AcDbXrecord
280
1
 40
297.0
  0
XRECORD
  5
1E4
330
1BA
100
AcDbXrecord
280
1
 40
210.0
  0
XRECORD
  5
1E5
330
1BA
100
AcDbXrecord
280
1
1000
1:1
  0
XRECORD
  5
1E6
330
1BA
100
AcDbXrecord
280
1
290
1
  0
XRECORD
  5
1E7
330
1BA
100
AcDbXrecord
280
1
 90
4
  0
ENDSEC
  0
EOF
