999
dxflib 3.2.3.0
  0
SECTION
  2
HEADER
  9
$ACADVER
  1
AC1015
  9
$HANDSEED
  5
FFFF
  9
$ANGBASE
 50
0.0
  9
$ANGDIR
 70
0
  9
$ATTMODE
 70
1
  9
$AUNITS
 70
0
  9
$AUPREC
 70
0
  9
$CECOLOR
 62
18
  9
$CELTSCALE
 40
1.0
  9
$CHAMFERA
 40
0.0
  9
$CHAMFERB
 40
0.0
  9
$CHAMFERC
 40
0.0
  9
$CHAMFERD
 40
0.0
  9
$CMLJUST
 70
0
  9
$CMLSCALE
 40
1.0
  9
$DIMADEC
 70
0
  9
$DIMALT
 70
0
  9
$DIMALTD
 70
2
  9
$DIMALTF
 40
25.399999999999999
  9
$DIMALTRND
 40
0.0
  9
$DIMALTTD
 70
2
  9
$DIMALTTZ
 70
0
  9
$DIMALTU
 70
2
  9
$DIMALTZ
 70
0
  9
$DIMAPOST
  1

  9
$DIMASZ
 40
0.18
  9
$DIMATFIT
 70
3
  9
$DIMAUNIT
 70
0
  9
$DIMAZIN
 70
0
  9
$DIMBLK
  1

  9
$DIMBLK1
  1

  9
$DIMBLK2
  1

  9
$DIMCEN
 40
0.09
  9
$DIMCLRD
 70
18
  9
$DIMCLRE
 70
18
  9
$DIMCLRT
 70
18
  9
$DIMDEC
 70
4
  9
$DIMDLE
 40
0.0
  9
$DIMDLI
 40
0.38
  9
$DIMDSEP
 70
46
  9
$DIMEXE
 40
0.18
  9
$DIMEXO
 40
0.0625
  9
$DIMFRAC
 70
0
  9
$DIMGAP
 40
0.09
  9
$DIMJUST
 70
0
  9
$DIMLDRBLK
  1

  9
$DIMLFAC
 40
1.0
  9
$DIMLIM
 70
0
  9
$DIMLUNIT
 70
2
  9
$DIMLWD
 70
-2
  9
$DIMLWE
 70
-2
  9
$DIMPOST
  1

  9
$DIMRND
 40
0.0
  9
$DIMSAH
 70
0
  9
$DIMSCALE
 40
1.0
  9
$DIMSD1
 70
0
  9
$DIMSD2
 70
0
  9
$DIMSE1
 70
0
  9
$DIMSE2
 70
0
  9
$DIMSOXD
 70
0
  9
$DIMTAD
 70
0
  9
$DIMTDEC
 70
4
  9
$DIMTFAC
 40
1.0
  9
$DIMTIH
 70
1
  9
$DIMTIX
 70
0
  9
$DIMTM
 40
0.0
  9
$DIMTOFL
 70
0
  9
$DIMTOH
 70
1
  9
$DIMTOL
 70
0
  9
$DIMTOLJ
 70
1
  9
$DIMTP
 40
0.0
  9
$DIMTSZ
 40
0.0
  9
$DIMTVP
 40
0.0
  9
$DIMTXSTY
  7
Standard
  9
$DIMTXT
 40
0.18
  9
$DIMTZIN
 70
0
  9
$DIMUPT
 70
0
  9
$DIMZIN
 70
0
  9
$DISPSILH
 70
0
  9
$DWGCODEPAGE
  3
ANSI_1252
  9
$ELEVATION
 40
0.0
  9
$EXTMAX
 10
1000.0
 20
1000.0
 30
0.0
  9
$EXTMIN
 10
0.0
 20
0.0
 30
0.0
  9
$FILLETRAD
 40
0.5
  9
$FILLMODE
 70
0
  9
$INSBASE
 10
0.0
 20
0.0
 30
0.0
  9
$INSUNITS
 70
0
  9
$LIMCHECK
 70
0
  9
$LIMMAX
 10
12.0
 20
9.0
  9
$LIMMIN
 10
0.0
 20
0.0
  9
$LTSCALE
 40
1.0
  9
$LUNITS
 70
2
  9
$LUPREC
 70
4
  9
$MAXACTVP
 70
64
  9
$MIRRTEXT
 70
1
  9
$ORTHOMODE
 70
0
  9
$PDMODE
 70
0
  9
$PDSIZE
 40
0.0
  9
$PELEVATION
 40
0.0
  9
$PEXTMAX
 10
-100000000000000000000.0
 20
-100000000000000000000.0
 30
-100000000000000000000.0
  9
$PEXTMIN
 10
100000000000000000000.0
 20
100000000000000000000.0
 30
100000000000000000000.0
  9
$PINSBASE
 10
0.0
 20
0.0
 30
0.0
  9
$PLIMCHECK
 70
0
  9
$PLIMMAX
 10
12.0
 20
9.0
  9
$PLIMMIN
 10
0.0
 20
0.0
  9
$PLINEGEN
 70
0
  9
$PLINEWID
 40
0.0
  9
$PROXYGRAPHICS
 70
1
  9
$PSLTSCALE
 70
1
  9
$PUCSNAME
  2

  9
$PUCSORG
 10
0.0
 20
0.0
 30
0.0
  9
$PUCSXDIR
 10
1.0
 20
0.0
 30
0.0
  9
$PUCSYDIR
 10
0.0
 20
1.0
 30
0.0
  9
$QTEXTMODE
 70
0
  9
$REGENMODE
 70
1
  9
$SHADEDGE
 70
3
  9
$SHADEDIF
 70
70
  9
$SKETCHINC
 40
0.1
  9
$SKPOLY
 70
0
  9
$SPLFRAME
 70
1
  9
$SPLINESEGS
 70
8
  9
$SPLINETYPE
 70
6
  9
$SURFTAB1
 70
6
  9
$SURFTAB2
 70
6
  9
$SURFTYPE
 70
6
  9
$SURFU
 70
6
  9
$SURFV
 70
6
  9
$TEXTSIZE
 40
0.2
  9
$TEXTSTYLE
  7
Standard
  9
$THICKNESS
 40
0.0
  9
$TILEMODE
 70
1
  9
$TRACEWID
 40
0.05
  9
$TREEDEPTH
 70
3020
  9
$UCSNAME
  2

  9
$UCSORG
 10
0.0
 20
0.0
 30
0.0
  9
$UCSXDIR
 10
1.0
 20
0.0
 30
0.0
  9
$UCSYDIR
 10
0.0
 20
1.0
 30
0.0
  9
$UNITMODE
 70
0
  9
$USERI1
 70
0
  9
$USERI2
 70
0
  9
$USERI3
 70
0
  9
$USERI4
 70
0
  9
$USERI5
 70
0
  9
$USERR1
 40
0.0
  9
$USERR2
 40
0.0
  9
$USERR3
 40
0.0
  9
$USERR4
 40
0.0
  9
$USERR5
 40
0.0
  9
$USRTIMER
 70
1
  9
$VISRETAIN
 70
1
  0
ENDSEC
  0
SECTION
  2
TABLES
  0
TABLE
  2
VPORT
  5
8
100
AcDbSymbolTable
 70
1
  0
VPORT
  5
30
100
AcDbSymbolTableRecord
100
AcDbViewportTableRecord
  2
*Active
 70
0
 10
0.0
 20
0.0
 11
1.0
 21
1.0
 12
286.30555555555549
 22
148.5
 13
0.0
 23
0.0
 14
10.0
 24
10.0
 15
10.0
 25
10.0
 16
0.0
 26
0.0
 36
1.0
 17
0.0
 27
0.0
 37
0.0
 40
297.0
 41
1.92798353909465
 42
50.0
 43
0.0
 44
0.0
 50
0.0
 51
0.0
 71
0
 72
100
 73
1
 74
3
 75
1
 76
1
 77
0
 78
0
281
0
 65
1
110
0.0
120
0.0
130
0.0
111
1.0
121
0.0
131
0.0
112
0.0
122
1.0
132
0.0
 79
0
146
0.0
  0
ENDTAB
  0
TABLE
  2
LTYPE
  5
5
100
AcDbSymbolTable
 70
21
  0
LTYPE
  5
31
100
AcDbSymbolTableRecord
100
AcDbLinetypeTableRecord
  2
CENTER2
 70
0
  3
Center (.5x) ___ _ ___ _ ___ _ ___ _ ___ _ ___
 72
65
 73
4
 40
28.574999999999999
 49
19.050000000000001
 74
0
 49
-3.1749999999999998
 74
0
 49
3.1749999999999998
 74
0
 49
-3.1749999999999998
 74
0
  0
LTYPE
  5
32
100
AcDbSymbolTableRecord
100
AcDbLinetypeTableRecord
  2
DIVIDEX2
 70
0
  3
Divide (2x) ________  .  .  ________  .  .  _
 72
65
 73
6
 40
63.5
 49
25.399999999999999
 74
0
 49
-12.699999999999999
 74
0
 49
0.0
 74
0
 49
-12.699999999999999
 74
0
 49
0.0
 74
0
 49
-12.699999999999999
 74
0
  0
LTYPE
  5
33
100
AcDbSymbolTableRecord
100
AcDbLinetypeTableRecord
  2
DOT2
 70
0
  3
Dot (.5x) .....................................
 72
65
 73
2
 40
3.1749999999999998
 49
0.0
 74
0
 49
-3.1749999999999998
 74
0
  0
LTYPE
  5
34
100
AcDbSymbolTableRecord
100
AcDbLinetypeTableRecord
  2
DASHDOT2
 70
0
  3
Dash dot (.5x) _._._._._._._._._._._._._._._.
 72
65
 73
4
 40
12.699999999999999
 49
6.3499999999999996
 74
0
 49
-3.1749999999999998
 74
0
 49
0.0
 74
0
 49
-3.1749999999999998
 74
0
  0
LTYPE
  5
35
100
AcDbSymbolTableRecord
100
AcDbLinetypeTableRecord
  2
DIVIDE
 70
0
  3
Divide ____ . . ____ . . ____ . . ____ . . ____
 72
65
 73
6
 40
31.75
 49
12.699999999999999
 74
0
 49
-6.3499999999999996
 74
0
 49
0.0
 74
0
 49
-6.3499999999999996
 74
0
 49
0.0
 74
0
 49
-6.3499999999999996
 74
0
  0
LTYPE
  5
36
100
AcDbSymbolTableRecord
100
AcDbLinetypeTableRecord
  2
DASHDOT
 70
0
  3
Dash dot __ . __ . __ . __ . __ . __ . __ . __
 72
65
 73
4
 40
25.399999999999999
 49
12.699999999999999
 74
0
 49
-6.3499999999999996
 74
0
 49
0.0
 74
0
 49
-6.3499999999999996
 74
0
  0
LTYPE
  5
37
100
AcDbSymbolTableRecord
100
AcDbLinetypeTableRecord
  2
BORDER
 70
0
  3
Border __ __ . __ __ . __ __ . __ __ . __ __ .
 72
65
 73
6
 40
44.450000000000003
 49
12.699999999999999
 74
0
 49
-6.3499999999999996
 74
0
 49
12.699999999999999
 74
0
 49
-6.3499999999999996
 74
0
 49
0.0
 74
0
 49
-6.3499999999999996
 74
0
  0
LTYPE
  5
38
100
AcDbSymbolTableRecord
100
AcDbLinetypeTableRecord
  2
DASHDOTX2
 70
0
  3
Dash dot (2x) ____  .  ____  .  ____  .  ___
 72
65
 73
4
 40
50.799999999999997
 49
25.399999999999999
 74
0
 49
-12.699999999999999
 74
0
 49
0.0
 74
0
 49
-12.699999999999999
 74
0
  0
LTYPE
  5
39
100
AcDbSymbolTableRecord
100
AcDbLinetypeTableRecord
  2
CENTERX2
 70
0
  3
Center (2x) ________  __  ________  __  _____
 72
65
 73
4
 40
101.59999999999999
 49
63.5
 74
0
 49
-12.699999999999999
 74
0
 49
12.699999999999999
 74
0
 49
-12.699999999999999
 74
0
  0
LTYPE
  5
3A
100
AcDbSymbolTableRecord
100
AcDbLinetypeTableRecord
  2
BORDER2
 70
0
  3
Border (.5x) __.__.__.__.__.__.__.__.__.__.__.
 72
65
 73
6
 40
22.225000000000001
 49
6.3499999999999996
 74
0
 49
-3.1749999999999998
 74
0
 49
6.3499999999999996
 74
0
 49
-3.1749999999999998
 74
0
 49
0.0
 74
0
 49
-3.1749999999999998
 74
0
  0
LTYPE
  5
3B
100
AcDbSymbolTableRecord
100
AcDbLinetypeTableRecord
  2
BORDERX2
 70
0
  3
Border (2x) ____  ____  .  ____  ____  .  ___
 72
65
 73
6
 40
88.900000000000006
 49
25.399999999999999
 74
0
 49
-12.699999999999999
 74
0
 49
25.399999999999999
 74
0
 49
-12.699999999999999
 74
0
 49
0.0
 74
0
 49
-12.699999999999999
 74
0
  0
LTYPE
  5
16
100
AcDbSymbolTableRecord
100
AcDbLinetypeTableRecord
  2
CONTINUOUS
 70
0
  3
Solid line
 72
65
 73
0
 40
0.0
  0
LTYPE
  5
14
100
AcDbSymbolTableRecord
100
AcDbLinetypeTableRecord
  2
BYBLOCK
 70
0
  3

 72
65
 73
0
 40
0.0
  0
LTYPE
  5
15
100
AcDbSymbolTableRecord
100
AcDbLinetypeTableRecord
  2
BYLAYER
 70
0
  3

 72
65
 73
0
 40
0.0
  0
LTYPE
  5
3C
100
AcDbSymbolTableRecord
100
AcDbLinetypeTableRecord
  2
DASHED2
 70
0
  3
Dashed (.5x) _ _ _ _ _ _ _ _ _ _ _ _ _ _ _ _ _
 72
65
 73
2
 40
9.5250000000000004
 49
6.3499999999999996
 74
0
 49
-3.1749999999999998
 74
0
  0
LTYPE
  5
3D
100
AcDbSymbolTableRecord
100
AcDbLinetypeTableRecord
  2
CENTER
 70
0
  3
Center ____ _ ____ _ ____ _ ____ _ ____ _ ____
 72
65
 73
4
 40
50.799999999999997
 49
31.75
 74
0
 49
-6.3499999999999996
 74
0
 49
6.3499999999999996
 74
0
 49
-6.3499999999999996
 74
0
  0
LTYPE
  5
3E
100
AcDbSymbolTableRecord
100
AcDbLinetypeTableRecord
  2
DIVIDE2
 70
0
  3
Divide (.5x) __..__..__..__..__..__..__..__.._
 72
65
 73
6
 40
15.875
 49
6.3499999999999996
 74
0
 49
-3.1749999999999998
 74
0
 49
0.0
 74
0
 49
-3.1749999999999998
 74
0
 49
0.0
 74
0
 49
-3.1749999999999998
 74
0
  0
LTYPE
  5
3F
100
AcDbSymbolTableRecord
100
AcDbLinetypeTableRecord
  2
DASHED
 70
0
  3
Dashed __ __ __ __ __ __ __ __ __ __ __ __ __ _
 72
65
 73
2
 40
19.050000000000001
 49
12.699999999999999
 74
0
 49
-6.3499999999999996
 74
0
  0
LTYPE
  5
40
100
AcDbSymbolTableRecord
100
AcDbLinetypeTableRecord
  2
DOTX2
 70
0
  3
Dot (2x) .  .  .  .  .  .  .  .  .  .  .  .  .
 72
65
 73
2
 40
12.699999999999999
 49
0.0
 74
0
 49
-12.699999999999999
 74
0
  0
LTYPE
  5
41
100
AcDbSymbolTableRecord
100
AcDbLinetypeTableRecord
  2
DASHEDX2
 70
0
  3
Dashed (2x) ____  ____  ____  ____  ____  ___
 72
65
 73
2
 40
38.100000000000001
 49
25.399999999999999
 74
0
 49
-12.699999999999999
 74
0
  0
LTYPE
  5
42
100
AcDbSymbolTableRecord
100
AcDbLinetypeTableRecord
  2
DOT
 70
0
  3
Dot . . . . . . . . . . . . . . . . . . . . . .
 72
65
 73
2
 40
6.3499999999999996
 49
0.0
 74
0
 49
-6.3499999999999996
 74
0
  0
ENDTAB
  0
TABLE
  2
LAYER
  5
2
100
AcDbSymbolTable
 70
1
  0
LAYER
  5
10
100
AcDbSymbolTableRecord
100
AcDbLayerTableRecord
  2
0
 70
0
 62
7
420
16777215
  6
CONTINUOUS
370
-3
390
F
  0
ENDTAB
  0
TABLE
  2
STYLE
  5
3
100
AcDbSymbolTable
 70
0
  0
ENDTAB
  0
TABLE
  2
VIEW
  5
6
100
AcDbSymbolTable
 70
0
  0
ENDTAB
  0
TABLE
  2
UCS
  5
7
100
AcDbSymbolTable
 70
0
  0
ENDTAB
  0
TABLE
  2
APPID
  5
9
100
AcDbSymbolTable
 70
1
  0
APPID
  5
43
100
AcDbSymbolTableRecord
100
AcDbRegAppTableRecord
  2
QCAD
 70
0
  0
ENDTAB
  0
TABLE
  2
DIMSTYLE
  5
A
100
AcDbSymbolTable
 70
1
100
AcDbDimStyleTable
 71
0
  0
DIMSTYLE
105
27
100
AcDbSymbolTableRecord
100
AcDbDimStyleTableRecord
  2
Standard
 41
0.18
 42
0.0625
 43
3.75
 44
0.18
 70
0
 73
0
 74
0
 77
1
 78
8
140
0.18
141
2.5
143
0.03937007874016
147
0.09
171
3
172
1
271
2
272
2
274
3
278
44
283
0
284
8
340
11
  0
ENDTAB
  0
TABLE
  2
BLOCK_RECORD
  5
1
100
AcDbSymbolTable
 70
1
  0
BLOCK_RECORD
  5
1F
100
AcDbSymbolTableRecord
100
AcDbBlockTableRecord
  2
*Model_Space
340
22
  0
BLOCK_RECORD
  5
1B
100
AcDbSymbolTableRecord
100
AcDbBlockTableRecord
  2
*Paper_Space
340
1E
  0
BLOCK_RECORD
  5
23
100
AcDbSymbolTableRecord
100
AcDbBlockTableRecord
  2
*Paper_Space0
340
26
  0
BLOCK_RECORD
  5
44
100
AcDbSymbolTableRecord
100
AcDbBlockTableRecord
  2
*Model_Space
340
0
  0
BLOCK_RECORD
  5
45
100
AcDbSymbolTableRecord
100
AcDbBlockTableRecord
  2
*Paper_Space
340
0
  0
BLOCK_RECORD
  5
46
100
AcDbSymbolTableRecord
100
AcDbBlockTableRecord
  2
*Paper_Space0
340
0
  0
ENDTAB
  0
ENDSEC
  0
SECTION
  2
BLOCKS
  0
BLOCK
  5
20
100
AcDbEntity
  8
0
100
AcDbBlockBegin
  2
*Model_Space
 70
0
 10
0.0
 20
0.0
 30
0.0
  3
*Model_Space
  1

  0
BLOCK
  5
1C
100
AcDbEntity
 67
1
  8
0
100
AcDbBlockBegin
  2
*Paper_Space
 70
0
 10
0.0
 20
0.0
 30
0.0
  3
*Paper_Space
  1

  0
ENDBLK
  5
1D
100
AcDbEntity
 67
1
  8
0
100
AcDbBlockEnd
  0
BLOCK
  5
24
100
AcDbEntity
  8
0
100
AcDbBlockBegin
  2
*Paper_Space0
 70
0
 10
0.0
 20
0.0
 30
0.0
  3
*Paper_Space0
  1

  0
ENDBLK
  5
25
100
AcDbEntity
  8
0
100
AcDbBlockEnd
  0
ENDSEC
  0
SECTION
  2
ENTITIES
  0
LINE
  5
47
100
AcDbEntity
100
AcDbLine
  8
0
 62
0
370
0
  6
BYLAYER
 10
126.48011738585267
 20
52.436997223108044
 30
0.0
 11
126.6371173858527
 21
52.430997223108044
 31
0.0
  0
LINE
  5
48
100
AcDbEntity
100
AcDbLine
  8
0
 62
0
370
0
  6
BYLAYER
 10
126.6371173858527
 20
52.430997223108044
 30
0.0
 11
126.79311738585271
 21
52.413997223108019
 31
0.0
  0
LINE
  5
49
100
AcDbEntity
100
AcDbLine
  8
0
 62
0
370
0
  6
BYLAYER
 10
126.79311738585271
 20
52.413997223108019
 30
0.0
 11
126.94711738585271
 21
52.381997223108037
 31
0.0
  0
LINE
  5
4A
100
AcDbEntity
100
AcDbLine
  8
0
 62
0
370
0
  6
BYLAYER
 10
126.94711738585271
 20
52.381997223108037
 30
0.0
 11
127.09811738585266
 21
52.34099722310804
 31
0.0
  0
LINE
  5
4B
100
AcDbEntity
100
AcDbLine
  8
0
 62
0
370
0
  6
BYLAYER
 10
127.09811738585266
 20
52.34099722310804
 30
0.0
 11
127.24411738585268
 21
52.284997223108029
 31
0.0
  0
LINE
  5
4C
100
AcDbEntity
100
AcDbLine
  8
0
 62
0
370
0
  6
BYLAYER
 10
127.24411738585268
 20
52.284997223108029
 30
0.0
 11
127.38811738585268
 21
52.220997223108036
 31
0.0
  0
LINE
  5
4D
100
AcDbEntity
100
AcDbLine
  8
0
 62
0
370
0
  6
BYLAYER
 10
127.38811738585268
 20
52.220997223108036
 30
0.0
 11
127.5241173858527
 21
52.142997223108033
 31
0.0
  0
LINE
  5
4E
100
AcDbEntity
100
AcDbLine
  8
0
 62
0
370
0
  6
BYLAYER
 10
127.5241173858527
 20
52.142997223108033
 30
0.0
 11
127.65511738585268
 21
52.05699722310802
 31
0.0
  0
LINE
  5
4F
100
AcDbEntity
100
AcDbLine
  8
0
 62
0
370
0
  6
BYLAYER
 10
127.65511738585268
 20
52.05699722310802
 30
0.0
 11
127.7791173858527
 21
51.958997223108035
 31
0.0
  0
LINE
  5
50
100
AcDbEntity
100
AcDbLine
  8
0
 62
0
370
0
  6
BYLAYER
 10
127.7791173858527
 20
51.958997223108035
 30
0.0
 11
127.89411738585271
 21
51.852997223108041
 31
0.0
  0
LINE
  5
51
100
AcDbEntity
100
AcDbLine
  8
0
 62
0
370
0
  6
BYLAYER
 10
127.89411738585271
 20
51.852997223108041
 30
0.0
 11
127.99911738585267
 21
51.736997223108027
 31
0.0
  0
LINE
  5
52
100
AcDbEntity
100
AcDbLine
  8
0
 62
0
370
0
  6
BYLAYER
 10
127.99911738585267
 20
51.736997223108027
 30
0.0
 11
128.0971173858527
 21
51.612997223108032
 31
0.0
  0
LINE
  5
53
100
AcDbEntity
100
AcDbLine
  8
0
 62
0
370
0
  6
BYLAYER
 10
128.0971173858527
 20
51.612997223108032
 30
0.0
 11
128.18411738585269
 21
51.481997223108031
 31
0.0
  0
LINE
  5
54
100
AcDbEntity
100
AcDbLine
  8
0
 62
0
370
0
  6
BYLAYER
 10
128.18411738585269
 20
51.481997223108031
 30
0.0
 11
128.26111738585269
 21
51.344997223108031
 31
0.0
  0
LINE
  5
55
100
AcDbEntity
100
AcDbLine
  8
0
 62
0
370
0
  6
BYLAYER
 10
128.26111738585269
 20
51.344997223108031
 30
0.0
 11
128.32611738585268
 21
51.20399722310804
 31
0.0
  0
LINE
  5
56
100
AcDbEntity
100
AcDbLine
  8
0
 62
0
370
0
  6
BYLAYER
 10
128.32611738585268
 20
51.20399722310804
 30
0.0
 11
128.38111738585269
 21
51.055997223108044
 31
0.0
  0
LINE
  5
57
100
AcDbEntity
100
AcDbLine
  8
0
 62
0
370
0
  6
BYLAYER
 10
128.38111738585269
 20
51.055997223108044
 30
0.0
 11
128.4241173858527
 21
50.903997223108028
 31
0.0
  0
LINE
  5
58
100
AcDbEntity
100
AcDbLine
  8
0
 62
0
370
0
  6
BYLAYER
 10
128.4241173858527
 20
50.903997223108028
 30
0.0
 11
128.45411738585273
 21
50.749997223108032
 31
0.0
  0
LINE
  5
59
100
AcDbEntity
100
AcDbLine
  8
0
 62
0
370
0
  6
BYLAYER
 10
128.45411738585273
 20
50.749997223108032
 30
0.0
 11
128.47411738585271
 21
50.593997223108026
 31
0.0
  0
LINE
  5
5A
100
AcDbEntity
100
AcDbLine
  8
0
 62
0
370
0
  6
BYLAYER
 10
128.47411738585271
 20
50.593997223108026
 30
0.0
 11
128.4791173858527
 21
50.436997223108044
 31
0.0
  0
LINE
  5
5B
100
AcDbEntity
100
AcDbLine
  8
0
 62
0
370
0
  6
BYLAYER
 10
-0.0007980141472879
 20
50.436997223108044
 30
0.0
 11
0.0047143858526986
 21
50.593997223108026
 31
0.0
  0
LINE
  5
5C
100
AcDbEntity
100
AcDbLine
  8
0
 62
0
370
0
  6
BYLAYER
 10
0.0047143858526986
 20
50.593997223108026
 30
0.0
 11
0.022628385852689
 21
50.749997223108032
 31
0.0
  0
LINE
  5
5D
100
AcDbEntity
100
AcDbLine
  8
0
 62
0
370
0
  6
BYLAYER
 10
0.022628385852689
 20
50.749997223108032
 30
0.0
 11
0.0543233858526739
 21
50.903997223108028
 31
0.0
  0
LINE
  5
5E
100
AcDbEntity
100
AcDbLine
  8
0
 62
0
370
0
  6
BYLAYER
 10
0.0543233858526739
 20
50.903997223108028
 30
0.0
 11
0.0956643858526909
 21
51.055997223108044
 31
0.0
  0
LINE
  5
5F
100
AcDbEntity
100
AcDbLine
  8
0
 62
0
370
0
  6
BYLAYER
 10
0.0956643858526909
 20
51.055997223108044
 30
0.0
 11
0.1507863858527023
 21
51.20399722310804
 31
0.0
  0
LINE
  5
60
100
AcDbEntity
100
AcDbLine
  8
0
 62
0
370
0
  6
BYLAYER
 10
0.1507863858527023
 20
51.20399722310804
 30
0.0
 11
0.2155543858526889
 21
51.344997223108031
 31
0.0
  0
LINE
  5
61
100
AcDbEntity
100
AcDbLine
  8
0
 62
0
370
0
  6
BYLAYER
 10
0.2155543858526889
 20
51.344997223108031
 30
0.0
 11
0.2927233858526868
 21
51.481997223108031
 31
0.0
  0
LINE
  5
62
100
AcDbEntity
100
AcDbLine
  8
0
 62
0
370
0
  6
BYLAYER
 10
0.2927233858526868
 20
51.481997223108031
 30
0.0
 11
0.3795413858526806
 21
51.612997223108032
 31
0.0
  0
LINE
  5
63
100
AcDbEntity
100
AcDbLine
  8
0
 62
0
370
0
  6
BYLAYER
 10
0.3795413858526806
 20
51.612997223108032
 30
0.0
 11
0.4773813858526999
 21
51.736997223108027
 31
0.0
  0
LINE
  5
64
100
AcDbEntity
100
AcDbLine
  8
0
 62
0
370
0
  6
BYLAYER
 10
0.4773813858526999
 20
51.736997223108027
 30
0.0
 11
0.5834893858527059
 21
51.852997223108041
 31
0.0
  0
LINE
  5
65
100
AcDbEntity
100
AcDbLine
  8
0
 62
0
370
0
  6
BYLAYER
 10
0.5834893858527059
 20
51.852997223108041
 30
0.0
 11
0.6992463858526796
 21
51.958997223108035
 31
0.0
  0
LINE
  5
66
100
AcDbEntity
100
AcDbLine
  8
0
 62
0
370
0
  6
BYLAYER
 10
0.6992463858526796
 20
51.958997223108035
 30
0.0
 11
0.823269385852702
 21
52.05699722310802
 31
0.0
  0
LINE
  5
67
100
AcDbEntity
100
AcDbLine
  8
0
 62
0
370
0
  6
BYLAYER
 10
0.823269385852702
 20
52.05699722310802
 30
0.0
 11
0.9541773858526788
 21
52.142997223108033
 31
0.0
  0
LINE
  5
68
100
AcDbEntity
100
AcDbLine
  8
0
 62
0
370
0
  6
BYLAYER
 10
0.9541773858526788
 20
52.142997223108033
 30
0.0
 11
1.0906073858526972
 21
52.220997223108036
 31
0.0
  0
LINE
  5
69
100
AcDbEntity
100
AcDbLine
  8
0
 62
0
370
0
  6
BYLAYER
 10
1.0906073858526972
 20
52.220997223108036
 30
0.0
 11
1.2325473858526741
 21
52.284997223108029
 31
0.0
  0
LINE
  5
6A
100
AcDbEntity
100
AcDbLine
  8
0
 62
0
370
0
  6
BYLAYER
 10
1.2325473858526741
 20
52.284997223108029
 30
0.0
 11
1.3799973858526946
 21
52.34099722310804
 31
0.0
  0
LINE
  5
6B
100
AcDbEntity
100
AcDbLine
  8
0
 62
0
370
0
  6
BYLAYER
 10
1.3799973858526946
 20
52.34099722310804
 30
0.0
 11
1.5315773858526902
 21
52.381997223108037
 31
0.0
  0
LINE
  5
6C
100
AcDbEntity
100
AcDbLine
  8
0
 62
0
370
0
  6
BYLAYER
 10
1.5315773858526902
 20
52.381997223108037
 30
0.0
 11
1.6859173858526808
 21
52.413997223108019
 31
0.0
  0
LINE
  5
6D
100
AcDbEntity
100
AcDbLine
  8
0
 62
0
370
0
  6
BYLAYER
 10
1.6859173858526808
 20
52.413997223108019
 30
0.0
 11
1.8416373858526831
 21
52.430997223108044
 31
0.0
  0
LINE
  5
6E
100
AcDbEntity
100
AcDbLine
  8
0
 62
0
370
0
  6
BYLAYER
 10
1.8416373858526831
 20
52.430997223108044
 30
0.0
 11
1.9987373858526971
 21
52.43799722310802
 31
0.0
  0
LINE
  5
6F
100
AcDbEntity
100
AcDbLine
  8
0
 62
0
370
0
  6
BYLAYER
 10
1.9987373858526971
 20
52.43799722310802
 30
0.0
 11
126.48011738585267
 21
52.436997223108044
 31
0.0
  0
LINE
  5
70
100
AcDbEntity
100
AcDbLine
  8
0
 62
0
370
0
  6
BYLAYER
 10
63.650717385852651
 20
49.126997923248034
 30
0.0
 11
63.930417385852643
 21
48.985997923248014
 31
0.0
  0
LINE
  5
71
100
AcDbEntity
100
AcDbLine
  8
0
 62
0
370
0
  6
BYLAYER
 10
63.930417385852643
 20
48.985997923248014
 30
0.0
 11
64.239117385852623
 21
48.936997923248036
 31
0.0
  0
LINE
  5
72
100
AcDbEntity
100
AcDbLine
  8
0
 62
0
370
0
  6
BYLAYER
 10
64.239117385852623
 20
48.936997923248036
 30
0.0
 11
64.547817385852639
 21
48.985997923248014
 31
0.0
  0
LINE
  5
73
100
AcDbEntity
100
AcDbLine
  8
0
 62
0
370
0
  6
BYLAYER
 10
64.547817385852639
 20
48.985997923248014
 30
0.0
 11
64.82611738585264
 21
49.126997923248034
 31
0.0
  0
LINE
  5
74
100
AcDbEntity
100
AcDbLine
  8
0
 62
0
370
0
  6
BYLAYER
 10
64.82611738585264
 20
49.126997923248034
 30
0.0
 11
65.048017385852646
 21
49.348997923248014
 31
0.0
  0
LINE
  5
75
100
AcDbEntity
100
AcDbLine
  8
0
 62
0
370
0
  6
BYLAYER
 10
65.048017385852646
 20
49.348997923248014
 30
0.0
 11
65.190217385852648
 21
49.627997923248039
 31
0.0
  0
LINE
  5
76
100
AcDbEntity
100
AcDbLine
  8
0
 62
0
370
0
  6
BYLAYER
 10
65.190217385852648
 20
49.627997923248039
 30
0.0
 11
65.23821738585265
 21
49.935997923248031
 31
0.0
  0
LINE
  5
77
100
AcDbEntity
100
AcDbLine
  8
0
 62
0
370
0
  6
BYLAYER
 10
65.23821738585265
 20
49.935997923248031
 30
0.0
 11
65.190217385852648
 21
50.245997923248034
 31
0.0
  0
LINE
  5
78
100
AcDbEntity
100
AcDbLine
  8
0
 62
0
370
0
  6
BYLAYER
 10
65.190217385852648
 20
50.245997923248034
 30
0.0
 11
65.048017385852646
 21
50.52499792324803
 31
0.0
  0
LINE
  5
79
100
AcDbEntity
100
AcDbLine
  8
0
 62
0
370
0
  6
BYLAYER
 10
65.048017385852646
 20
50.52499792324803
 30
0.0
 11
64.82611738585264
 21
50.746997923248038
 31
0.0
  0
LINE
  5
7A
100
AcDbEntity
100
AcDbLine
  8
0
 62
0
370
0
  6
BYLAYER
 10
64.82611738585264
 20
50.746997923248038
 30
0.0
 11
64.547817385852639
 21
50.888997923248034
 31
0.0
  0
LINE
  5
7B
100
AcDbEntity
100
AcDbLine
  8
0
 62
0
370
0
  6
BYLAYER
 10
64.547817385852639
 20
50.888997923248034
 30
0.0
 11
64.239117385852623
 21
50.936997923248036
 31
0.0
  0
LINE
  5
7C
100
AcDbEntity
100
AcDbLine
  8
0
 62
0
370
0
  6
BYLAYER
 10
64.239117385852623
 20
50.936997923248036
 30
0.0
 11
63.930417385852643
 21
50.888997923248034
 31
0.0
  0
LINE
  5
7D
100
AcDbEntity
100
AcDbLine
  8
0
 62
0
370
0
  6
BYLAYER
 10
63.930417385852643
 20
50.888997923248034
 30
0.0
 11
63.650717385852651
 21
50.746997923248038
 31
0.0
  0
LINE
  5
7E
100
AcDbEntity
100
AcDbLine
  8
0
 62
0
370
0
  6
BYLAYER
 10
63.650717385852651
 20
50.746997923248038
 30
0.0
 11
63.430217385852636
 21
50.52499792324803
 31
0.0
  0
LINE
  5
7F
100
AcDbEntity
100
AcDbLine
  8
0
 62
0
370
0
  6
BYLAYER
 10
63.430217385852636
 20
50.52499792324803
 30
0.0
 11
63.288417385852647
 21
50.245997923248034
 31
0.0
  0
LINE
  5
80
100
AcDbEntity
100
AcDbLine
  8
0
 62
0
370
0
  6
BYLAYER
 10
63.288417385852647
 20
50.245997923248034
 30
0.0
 11
63.238617385852642
 21
49.937997923248012
 31
0.0
  0
LINE
  5
81
100
AcDbEntity
100
AcDbLine
  8
0
 62
0
370
0
  6
BYLAYER
 10
63.238617385852642
 20
49.937997923248012
 30
0.0
 11
63.288417385852647
 21
49.627997923248039
 31
0.0
  0
LINE
  5
82
100
AcDbEntity
100
AcDbLine
  8
0
 62
0
370
0
  6
BYLAYER
 10
63.288417385852647
 20
49.627997923248039
 30
0.0
 11
63.430217385852636
 21
49.348997923248014
 31
0.0
  0
LINE
  5
83
100
AcDbEntity
100
AcDbLine
  8
0
 62
0
370
0
  6
BYLAYER
 10
63.430217385852636
 20
49.348997923248014
 30
0.0
 11
63.650717385852651
 21
49.126997923248034
 31
0.0
  0
LINE
  5
84
100
AcDbEntity
100
AcDbLine
  8
0
 62
0
370
0
  6
BYLAYER
 10
125.39071738585271
 20
50.746997923248095
 30
0.0
 11
125.17021738585269
 21
50.524997923248087
 31
0.0
  0
LINE
  5
85
100
AcDbEntity
100
AcDbLine
  8
0
 62
0
370
0
  6
BYLAYER
 10
125.17021738585269
 20
50.524997923248087
 30
0.0
 11
125.02841738585271
 21
50.24599792324809
 31
0.0
  0
LINE
  5
86
100
AcDbEntity
100
AcDbLine
  8
0
 62
0
370
0
  6
BYLAYER
 10
125.02841738585271
 20
50.24599792324809
 30
0.0
 11
124.9786173858527
 21
49.937997923248098
 31
0.0
  0
LINE
  5
87
100
AcDbEntity
100
AcDbLine
  8
0
 62
0
370
0
  6
BYLAYER
 10
124.9786173858527
 20
49.937997923248098
 30
0.0
 11
125.02841738585271
 21
49.627997923248095
 31
0.0
  0
LINE
  5
88
100
AcDbEntity
100
AcDbLine
  8
0
 62
0
370
0
  6
BYLAYER
 10
125.02841738585271
 20
49.627997923248095
 30
0.0
 11
125.17021738585269
 21
49.348997923248099
 31
0.0
  0
LINE
  5
89
100
AcDbEntity
100
AcDbLine
  8
0
 62
0
370
0
  6
BYLAYER
 10
125.17021738585269
 20
49.348997923248099
 30
0.0
 11
125.39071738585271
 21
49.126997923248091
 31
0.0
  0
LINE
  5
8A
100
AcDbEntity
100
AcDbLine
  8
0
 62
0
370
0
  6
BYLAYER
 10
125.39071738585271
 20
49.126997923248091
 30
0.0
 11
125.6704173858527
 21
48.9859979232481
 31
0.0
  0
LINE
  5
8B
100
AcDbEntity
100
AcDbLine
  8
0
 62
0
370
0
  6
BYLAYER
 10
125.6704173858527
 20
48.9859979232481
 30
0.0
 11
125.97911738585269
 21
48.936997923248093
 31
0.0
  0
LINE
  5
8C
100
AcDbEntity
100
AcDbLine
  8
0
 62
0
370
0
  6
BYLAYER
 10
125.97911738585269
 20
48.936997923248093
 30
0.0
 11
126.28781738585268
 21
48.9859979232481
 31
0.0
  0
LINE
  5
8D
100
AcDbEntity
100
AcDbLine
  8
0
 62
0
370
0
  6
BYLAYER
 10
126.28781738585268
 20
48.9859979232481
 30
0.0
 11
126.56611738585268
 21
49.126997923248091
 31
0.0
  0
LINE
  5
8E
100
AcDbEntity
100
AcDbLine
  8
0
 62
0
370
0
  6
BYLAYER
 10
126.56611738585268
 20
49.126997923248091
 30
0.0
 11
126.78801738585268
 21
49.348997923248099
 31
0.0
  0
LINE
  5
8F
100
AcDbEntity
100
AcDbLine
  8
0
 62
0
370
0
  6
BYLAYER
 10
126.78801738585268
 20
49.348997923248099
 30
0.0
 11
126.93021738585269
 21
49.627997923248095
 31
0.0
  0
LINE
  5
90
100
AcDbEntity
100
AcDbLine
  8
0
 62
0
370
0
  6
BYLAYER
 10
126.93021738585269
 20
49.627997923248095
 30
0.0
 11
126.97821738585269
 21
49.935997923248088
 31
0.0
  0
LINE
  5
91
100
AcDbEntity
100
AcDbLine
  8
0
 62
0
370
0
  6
BYLAYER
 10
126.97821738585269
 20
49.935997923248088
 30
0.0
 11
126.93021738585269
 21
50.24599792324809
 31
0.0
  0
LINE
  5
92
100
AcDbEntity
100
AcDbLine
  8
0
 62
0
370
0
  6
BYLAYER
 10
126.93021738585269
 20
50.24599792324809
 30
0.0
 11
126.78801738585268
 21
50.524997923248087
 31
0.0
  0
LINE
  5
93
100
AcDbEntity
100
AcDbLine
  8
0
 62
0
370
0
  6
BYLAYER
 10
126.78801738585268
 20
50.524997923248087
 30
0.0
 11
126.56611738585268
 21
50.746997923248095
 31
0.0
  0
LINE
  5
94
100
AcDbEntity
100
AcDbLine
  8
0
 62
0
370
0
  6
BYLAYER
 10
126.56611738585268
 20
50.746997923248095
 30
0.0
 11
126.28781738585268
 21
50.888997923248091
 31
0.0
  0
LINE
  5
95
100
AcDbEntity
100
AcDbLine
  8
0
 62
0
370
0
  6
BYLAYER
 10
126.28781738585268
 20
50.888997923248091
 30
0.0
 11
125.97911738585269
 21
50.936997923248093
 31
0.0
  0
LINE
  5
96
100
AcDbEntity
100
AcDbLine
  8
0
 62
0
370
0
  6
BYLAYER
 10
125.97911738585269
 20
50.936997923248093
 30
0.0
 11
125.6704173858527
 21
50.888997923248091
 31
0.0
  0
LINE
  5
97
100
AcDbEntity
100
AcDbLine
  8
0
 62
0
370
0
  6
BYLAYER
 10
125.6704173858527
 20
50.888997923248091
 30
0.0
 11
125.39071738585271
 21
50.746997923248095
 31
0.0
  0
LINE
  5
98
100
AcDbEntity
100
AcDbLine
  8
0
 62
0
370
0
  6
BYLAYER
 10
1.9105673858526777
 20
50.746997923248067
 30
0.0
 11
1.6900673858526907
 21
50.524997923248058
 31
0.0
  0
LINE
  5
99
100
AcDbEntity
100
AcDbLine
  8
0
 62
0
370
0
  6
BYLAYER
 10
1.6900673858526907
 20
50.524997923248058
 30
0.0
 11
1.5482673858527014
 21
50.245997923248062
 31
0.0
  0
LINE
  5
9A
100
AcDbEntity
100
AcDbLine
  8
0
 62
0
370
0
  6
BYLAYER
 10
1.5482673858527014
 20
50.245997923248062
 30
0.0
 11
1.4984673858526967
 21
49.937997923248041
 31
0.0
  0
LINE
  5
9B
100
AcDbEntity
100
AcDbLine
  8
0
 62
0
370
0
  6
BYLAYER
 10
1.4984673858526967
 20
49.937997923248041
 30
0.0
 11
1.5482673858527014
 21
49.627997923248067
 31
0.0
  0
LINE
  5
9C
100
AcDbEntity
100
AcDbLine
  8
0
 62
0
370
0
  6
BYLAYER
 10
1.5482673858527014
 20
49.627997923248067
 30
0.0
 11
1.6900673858526907
 21
49.348997923248042
 31
0.0
  0
LINE
  5
9D
100
AcDbEntity
100
AcDbLine
  8
0
 62
0
370
0
  6
BYLAYER
 10
1.6900673858526907
 20
49.348997923248042
 30
0.0
 11
1.9105673858526777
 21
49.126997923248062
 31
0.0
  0
LINE
  5
9E
100
AcDbEntity
100
AcDbLine
  8
0
 62
0
370
0
  6
BYLAYER
 10
1.9105673858526777
 20
49.126997923248062
 30
0.0
 11
2.1902673858526973
 21
48.985997923248043
 31
0.0
  0
LINE
  5
9F
100
AcDbEntity
100
AcDbLine
  8
0
 62
0
370
0
  6
BYLAYER
 10
2.1902673858526973
 20
48.985997923248043
 30
0.0
 11
2.4989673858526849
 21
48.936997923248065
 31
0.0
  0
LINE
  5
A0
100
AcDbEntity
100
AcDbLine
  8
0
 62
0
370
0
  6
BYLAYER
 10
2.4989673858526849
 20
48.936997923248065
 30
0.0
 11
2.8076673858527008
 21
48.985997923248043
 31
0.0
  0
LINE
  5
A1
100
AcDbEntity
100
AcDbLine
  8
0
 62
0
370
0
  6
BYLAYER
 10
2.8076673858527008
 20
48.985997923248043
 30
0.0
 11
3.0859673858527024
 21
49.126997923248062
 31
0.0
  0
LINE
  5
A2
100
AcDbEntity
100
AcDbLine
  8
0
 62
0
370
0
  6
BYLAYER
 10
3.0859673858527024
 20
49.126997923248062
 30
0.0
 11
3.3078673858527075
 21
49.348997923248042
 31
0.0
  0
LINE
  5
A3
100
AcDbEntity
100
AcDbLine
  8
0
 62
0
370
0
  6
BYLAYER
 10
3.3078673858527075
 20
49.348997923248042
 30
0.0
 11
3.45006738585271
 21
49.627997923248067
 31
0.0
  0
LINE
  5
A4
100
AcDbEntity
100
AcDbLine
  8
0
 62
0
370
0
  6
BYLAYER
 10
3.45006738585271
 20
49.627997923248067
 30
0.0
 11
3.4980673858527118
 21
49.93599792324806
 31
0.0
  0
LINE
  5
A5
100
AcDbEntity
100
AcDbLine
  8
0
 62
0
370
0
  6
BYLAYER
 10
3.4980673858527118
 20
49.93599792324806
 30
0.0
 11
3.45006738585271
 21
50.245997923248062
 31
0.0
  0
LINE
  5
A6
100
AcDbEntity
100
AcDbLine
  8
0
 62
0
370
0
  6
BYLAYER
 10
3.45006738585271
 20
50.245997923248062
 30
0.0
 11
3.3078673858527075
 21
50.524997923248058
 31
0.0
  0
LINE
  5
A7
100
AcDbEntity
100
AcDbLine
  8
0
 62
0
370
0
  6
BYLAYER
 10
3.3078673858527075
 20
50.524997923248058
 30
0.0
 11
3.0859673858527024
 21
50.746997923248067
 31
0.0
  0
LINE
  5
A8
100
AcDbEntity
100
AcDbLine
  8
0
 62
0
370
0
  6
BYLAYER
 10
3.0859673858527024
 20
50.746997923248067
 30
0.0
 11
2.8076673858527008
 21
50.888997923248063
 31
0.0
  0
LINE
  5
A9
100
AcDbEntity
100
AcDbLine
  8
0
 62
0
370
0
  6
BYLAYER
 10
2.8076673858527008
 20
50.888997923248063
 30
0.0
 11
2.4989673858526849
 21
50.936997923248065
 31
0.0
  0
LINE
  5
AA
100
AcDbEntity
100
AcDbLine
  8
0
 62
0
370
0
  6
BYLAYER
 10
2.4989673858526849
 20
50.936997923248065
 30
0.0
 11
2.1902673858526973
 21
50.888997923248063
 31
0.0
  0
LINE
  5
AB
100
AcDbEntity
100
AcDbLine
  8
0
 62
0
370
0
  6
BYLAYER
 10
2.1902673858526973
 20
50.888997923248063
 30
0.0
 11
1.9105673858526777
 21
50.746997923248067
 31
0.0
  0
LINE
  5
AC
100
AcDbEntity
100
AcDbLine
  8
0
 62
0
370
0
  6
BYLAYER
 10
26.357667385852654
 20
21.575947573178063
 30
0.0
 11
26.048967385852666
 21
21.624947573178055
 31
0.0
  0
LINE
  5
AD
100
AcDbEntity
100
AcDbLine
  8
0
 62
0
370
0
  6
BYLAYER
 10
26.048967385852666
 20
21.624947573178055
 30
0.0
 11
25.740267385852679
 21
21.575947573178063
 31
0.0
  0
LINE
  5
AE
100
AcDbEntity
100
AcDbLine
  8
0
 62
0
370
0
  6
BYLAYER
 10
25.740267385852679
 20
21.575947573178063
 30
0.0
 11
25.460567385852688
 21
21.433947573178067
 31
0.0
  0
LINE
  5
AF
100
AcDbEntity
100
AcDbLine
  8
0
 62
0
370
0
  6
BYLAYER
 10
25.460567385852688
 20
21.433947573178067
 30
0.0
 11
25.240067385852672
 21
21.211947573178058
 31
0.0
  0
LINE
  5
B0
100
AcDbEntity
100
AcDbLine
  8
0
 62
0
370
0
  6
BYLAYER
 10
25.240067385852672
 20
21.211947573178058
 30
0.0
 11
25.098267385852683
 21
20.933947573178067
 31
0.0
  0
LINE
  5
B1
100
AcDbEntity
100
AcDbLine
  8
0
 62
0
370
0
  6
BYLAYER
 10
25.098267385852683
 20
20.933947573178067
 30
0.0
 11
25.048467385852678
 21
20.624947573178055
 31
0.0
  0
LINE
  5
B2
100
AcDbEntity
100
AcDbLine
  8
0
 62
0
370
0
  6
BYLAYER
 10
25.048467385852678
 20
20.624947573178055
 30
0.0
 11
25.098267385852683
 21
20.314947573178067
 31
0.0
  0
LINE
  5
B3
100
AcDbEntity
100
AcDbLine
  8
0
 62
0
370
0
  6
BYLAYER
 10
25.098267385852683
 20
20.314947573178067
 30
0.0
 11
25.240067385852672
 21
20.036947573178061
 31
0.0
  0
LINE
  5
B4
100
AcDbEntity
100
AcDbLine
  8
0
 62
0
370
0
  6
BYLAYER
 10
25.240067385852672
 20
20.036947573178061
 30
0.0
 11
25.460567385852688
 21
19.814947573178067
 31
0.0
  0
LINE
  5
B5
100
AcDbEntity
100
AcDbLine
  8
0
 62
0
370
0
  6
BYLAYER
 10
25.460567385852688
 20
19.814947573178067
 30
0.0
 11
25.740267385852679
 21
19.672947573178057
 31
0.0
  0
LINE
  5
B6
100
AcDbEntity
100
AcDbLine
  8
0
 62
0
370
0
  6
BYLAYER
 10
25.740267385852679
 20
19.672947573178057
 30
0.0
 11
26.048967385852666
 21
19.623947573178064
 31
0.0
  0
LINE
  5
B7
100
AcDbEntity
100
AcDbLine
  8
0
 62
0
370
0
  6
BYLAYER
 10
26.048967385852666
 20
19.623947573178064
 30
0.0
 11
26.357667385852654
 21
19.672947573178057
 31
0.0
  0
LINE
  5
B8
100
AcDbEntity
100
AcDbLine
  8
0
 62
0
370
0
  6
BYLAYER
 10
26.357667385852654
 20
19.672947573178057
 30
0.0
 11
26.635967385852712
 21
19.814947573178067
 31
0.0
  0
LINE
  5
B9
100
AcDbEntity
100
AcDbLine
  8
0
 62
0
370
0
  6
BYLAYER
 10
26.635967385852712
 20
19.814947573178067
 30
0.0
 11
26.857867385852717
 21
20.036947573178061
 31
0.0
  0
LINE
  5
BA
100
AcDbEntity
100
AcDbLine
  8
0
 62
0
370
0
  6
BYLAYER
 10
-0.0013476453962996
 20
5.7596507756944844
 30
0.0
 11
-0.0007980141472879
 21
50.436997223108072
 31
0.0
  0
LINE
  5
BB
100
AcDbEntity
100
AcDbLine
  8
0
 62
0
370
0
  6
BYLAYER
 10
26.857867385852717
 20
20.036947573178061
 30
0.0
 11
27.00006738585272
 21
20.314947573178067
 31
0.0
  0
LINE
  5
BC
100
AcDbEntity
100
AcDbLine
  8
0
 62
0
370
0
  6
BYLAYER
 10
27.00006738585272
 20
20.314947573178067
 30
0.0
 11
27.048067385852722
 21
20.623947573178064
 31
0.0
  0
LINE
  5
BD
100
AcDbEntity
100
AcDbLine
  8
0
 62
0
370
0
  6
BYLAYER
 10
27.048067385852722
 20
20.623947573178064
 30
0.0
 11
27.00006738585272
 21
20.933947573178067
 31
0.0
  0
LINE
  5
BE
100
AcDbEntity
100
AcDbLine
  8
0
 62
0
370
0
  6
BYLAYER
 10
27.00006738585272
 20
20.933947573178067
 30
0.0
 11
26.857867385852717
 21
21.211947573178058
 31
0.0
  0
LINE
  5
BF
100
AcDbEntity
100
AcDbLine
  8
0
 62
0
370
0
  6
BYLAYER
 10
26.857867385852717
 20
21.211947573178058
 30
0.0
 11
26.635967385852712
 21
21.433947573178067
 31
0.0
  0
LINE
  5
C0
100
AcDbEntity
100
AcDbLine
  8
0
 62
0
370
0
  6
BYLAYER
 10
26.635967385852712
 20
21.433947573178067
 30
0.0
 11
26.357667385852654
 21
21.575947573178063
 31
0.0
  0
LINE
  5
C1
100
AcDbEntity
100
AcDbLine
  8
0
 62
0
370
0
  6
BYLAYER
 10
102.24866738585271
 20
7.6237975731771215
 30
0.0
 11
102.5573673858527
 21
7.6727975731771139
 31
0.0
  0
LINE
  5
C2
100
AcDbEntity
100
AcDbLine
  8
0
 62
0
370
0
  6
BYLAYER
 10
102.5573673858527
 20
7.6727975731771139
 30
0.0
 11
102.8356673858527
 21
7.814797573177124
 31
0.0
  0
LINE
  5
C3
100
AcDbEntity
100
AcDbLine
  8
0
 62
0
370
0
  6
BYLAYER
 10
102.8356673858527
 20
7.814797573177124
 30
0.0
 11
103.05756738585271
 21
8.0367975731771182
 31
0.0
  0
LINE
  5
C4
100
AcDbEntity
100
AcDbLine
  8
0
 62
0
370
0
  6
BYLAYER
 10
103.05756738585271
 20
8.0367975731771182
 30
0.0
 11
103.19976738585271
 21
8.314797573177124
 31
0.0
  0
LINE
  5
C5
100
AcDbEntity
100
AcDbLine
  8
0
 62
0
370
0
  6
BYLAYER
 10
103.19976738585271
 20
8.314797573177124
 30
0.0
 11
103.24776738585271
 21
8.6237975731771215
 31
0.0
  0
LINE
  5
C6
100
AcDbEntity
100
AcDbLine
  8
0
 62
0
370
0
  6
BYLAYER
 10
103.24776738585271
 20
8.6237975731771215
 30
0.0
 11
103.19976738585271
 21
8.9337975731771238
 31
0.0
  0
LINE
  5
C7
100
AcDbEntity
100
AcDbLine
  8
0
 62
0
370
0
  6
BYLAYER
 10
103.19976738585271
 20
8.9337975731771238
 30
0.0
 11
103.05756738585271
 21
9.2117975731771153
 31
0.0
  0
LINE
  5
C8
100
AcDbEntity
100
AcDbLine
  8
0
 62
0
370
0
  6
BYLAYER
 10
103.05756738585271
 20
9.2117975731771153
 30
0.0
 11
102.8356673858527
 21
9.4337975731771238
 31
0.0
  0
LINE
  5
C9
100
AcDbEntity
100
AcDbLine
  8
0
 62
0
370
0
  6
BYLAYER
 10
64.736067385852692
 20
26.197647223107147
 30
0.0
 11
64.457767385852691
 21
26.339647223107143
 31
0.0
  0
LINE
  5
CA
100
AcDbEntity
100
AcDbLine
  8
0
 62
0
370
0
  6
BYLAYER
 10
64.457767385852691
 20
26.339647223107143
 30
0.0
 11
64.149067385852703
 21
26.388647223107135
 31
0.0
  0
LINE
  5
CB
100
AcDbEntity
100
AcDbLine
  8
0
 62
0
370
0
  6
BYLAYER
 10
64.149067385852703
 20
26.388647223107135
 30
0.0
 11
63.840367385852723
 21
26.339647223107143
 31
0.0
  0
LINE
  5
CC
100
AcDbEntity
100
AcDbLine
  8
0
 62
0
370
0
  6
BYLAYER
 10
63.840367385852723
 20
26.339647223107143
 30
0.0
 11
63.560667385852732
 21
26.197647223107147
 31
0.0
  0
LINE
  5
CD
100
AcDbEntity
100
AcDbLine
  8
0
 62
0
370
0
  6
BYLAYER
 10
63.560667385852732
 20
26.197647223107147
 30
0.0
 11
63.340167385852716
 21
25.975647223107138
 31
0.0
  0
LINE
  5
CE
100
AcDbEntity
100
AcDbLine
  8
0
 62
0
370
0
  6
BYLAYER
 10
63.340167385852716
 20
25.975647223107138
 30
0.0
 11
63.198367385852727
 21
25.697647223107147
 31
0.0
  0
LINE
  5
CF
100
AcDbEntity
100
AcDbLine
  8
0
 62
0
370
0
  6
BYLAYER
 10
63.198367385852727
 20
25.697647223107147
 30
0.0
 11
63.148567385852722
 21
25.388647223107135
 31
0.0
  0
LINE
  5
D0
100
AcDbEntity
100
AcDbLine
  8
0
 62
0
370
0
  6
BYLAYER
 10
63.148567385852722
 20
25.388647223107135
 30
0.0
 11
63.198367385852727
 21
25.078647223107147
 31
0.0
  0
LINE
  5
D1
100
AcDbEntity
100
AcDbLine
  8
0
 62
0
370
0
  6
BYLAYER
 10
63.198367385852727
 20
25.078647223107147
 30
0.0
 11
63.340167385852716
 21
24.800647223107141
 31
0.0
  0
LINE
  5
D2
100
AcDbEntity
100
AcDbLine
  8
0
 62
0
370
0
  6
BYLAYER
 10
63.340167385852716
 20
24.800647223107141
 30
0.0
 11
63.560667385852732
 21
24.578647223107147
 31
0.0
  0
LINE
  5
D3
100
AcDbEntity
100
AcDbLine
  8
0
 62
0
370
0
  6
BYLAYER
 10
63.560667385852732
 20
24.578647223107147
 30
0.0
 11
63.840367385852723
 21
24.436647223107137
 31
0.0
  0
LINE
  5
D4
100
AcDbEntity
100
AcDbLine
  8
0
 62
0
370
0
  6
BYLAYER
 10
63.840367385852723
 20
24.436647223107137
 30
0.0
 11
64.149067385852703
 21
24.387647223107145
 31
0.0
  0
LINE
  5
D5
100
AcDbEntity
100
AcDbLine
  8
0
 62
0
370
0
  6
BYLAYER
 10
64.149067385852703
 20
24.387647223107145
 30
0.0
 11
64.457767385852691
 21
24.436647223107137
 31
0.0
  0
LINE
  5
D6
100
AcDbEntity
100
AcDbLine
  8
0
 62
0
370
0
  6
BYLAYER
 10
64.457767385852691
 20
24.436647223107137
 30
0.0
 11
64.736067385852692
 21
24.578647223107147
 31
0.0
  0
LINE
  5
D7
100
AcDbEntity
100
AcDbLine
  8
0
 62
0
370
0
  6
BYLAYER
 10
64.736067385852692
 20
24.578647223107147
 30
0.0
 11
64.957967385852697
 21
24.800647223107141
 31
0.0
  0
LINE
  5
D8
100
AcDbEntity
100
AcDbLine
  8
0
 62
0
370
0
  6
BYLAYER
 10
64.957967385852697
 20
24.800647223107141
 30
0.0
 11
65.1001673858527
 21
25.078647223107147
 31
0.0
  0
LINE
  5
D9
100
AcDbEntity
100
AcDbLine
  8
0
 62
0
370
0
  6
BYLAYER
 10
65.1001673858527
 20
25.078647223107147
 30
0.0
 11
65.148167385852702
 21
25.387647223107145
 31
0.0
  0
LINE
  5
DA
100
AcDbEntity
100
AcDbLine
  8
0
 62
0
370
0
  6
BYLAYER
 10
65.148167385852702
 20
25.387647223107145
 30
0.0
 11
65.1001673858527
 21
25.697647223107147
 31
0.0
  0
LINE
  5
DB
100
AcDbEntity
100
AcDbLine
  8
0
 62
0
370
0
  6
BYLAYER
 10
65.1001673858527
 20
25.697647223107147
 30
0.0
 11
64.957967385852697
 21
25.975647223107138
 31
0.0
  0
LINE
  5
DC
100
AcDbEntity
100
AcDbLine
  8
0
 62
0
370
0
  6
BYLAYER
 10
64.957967385852697
 20
25.975647223107138
 30
0.0
 11
64.736067385852692
 21
26.197647223107147
 31
0.0
  0
LINE
  5
DD
100
AcDbEntity
100
AcDbLine
  8
0
 62
0
370
0
  6
BYLAYER
 10
128.47911738585267
 20
50.436997223107106
 30
0.0
 11
128.4791173858527
 21
5.7596665231070689
 31
0.0
  0
LINE
  5
DE
100
AcDbEntity
100
AcDbLine
  8
0
 62
0
370
0
  6
BYLAYER
 10
102.8356673858527
 20
9.4337975731771238
 30
0.0
 11
102.5573673858527
 21
9.5757975731771197
 31
0.0
  0
LINE
  5
DF
100
AcDbEntity
100
AcDbLine
  8
0
 62
0
370
0
  6
BYLAYER
 10
102.5573673858527
 20
9.5757975731771197
 30
0.0
 11
102.24866738585271
 21
9.624797573177112
 31
0.0
  0
LINE
  5
E0
100
AcDbEntity
100
AcDbLine
  8
0
 62
0
370
0
  6
BYLAYER
 10
102.24866738585271
 20
9.624797573177112
 30
0.0
 11
101.93996738585273
 21
9.5757975731771197
 31
0.0
  0
LINE
  5
E1
100
AcDbEntity
100
AcDbLine
  8
0
 62
0
370
0
  6
BYLAYER
 10
101.93996738585273
 20
9.5757975731771197
 30
0.0
 11
101.66026738585268
 21
9.4337975731771238
 31
0.0
  0
LINE
  5
E2
100
AcDbEntity
100
AcDbLine
  8
0
 62
0
370
0
  6
BYLAYER
 10
101.66026738585268
 20
9.4337975731771238
 30
0.0
 11
101.43976738585272
 21
9.2117975731771153
 31
0.0
  0
LINE
  5
E3
100
AcDbEntity
100
AcDbLine
  8
0
 62
0
370
0
  6
BYLAYER
 10
101.43976738585272
 20
9.2117975731771153
 30
0.0
 11
101.29796738585267
 21
8.9337975731771238
 31
0.0
  0
LINE
  5
E4
100
AcDbEntity
100
AcDbLine
  8
0
 62
0
370
0
  6
BYLAYER
 10
101.29796738585267
 20
8.9337975731771238
 30
0.0
 11
101.24816738585267
 21
8.624797573177112
 31
0.0
  0
LINE
  5
E5
100
AcDbEntity
100
AcDbLine
  8
0
 62
0
370
0
  6
BYLAYER
 10
101.24816738585267
 20
8.624797573177112
 30
0.0
 11
101.29796738585267
 21
8.314797573177124
 31
0.0
  0
LINE
  5
E6
100
AcDbEntity
100
AcDbLine
  8
0
 62
0
370
0
  6
BYLAYER
 10
101.29796738585267
 20
8.314797573177124
 30
0.0
 11
101.43976738585272
 21
8.0367975731771182
 31
0.0
  0
LINE
  5
E7
100
AcDbEntity
100
AcDbLine
  8
0
 62
0
370
0
  6
BYLAYER
 10
101.43976738585272
 20
8.0367975731771182
 30
0.0
 11
101.66026738585268
 21
7.814797573177124
 31
0.0
  0
LINE
  5
E8
100
AcDbEntity
100
AcDbLine
  8
0
 62
0
370
0
  6
BYLAYER
 10
101.66026738585268
 20
7.814797573177124
 30
0.0
 11
101.93996738585273
 21
7.6727975731771139
 31
0.0
  0
LINE
  5
E9
100
AcDbEntity
100
AcDbLine
  8
0
 62
0
370
0
  6
BYLAYER
 10
101.93996738585273
 20
7.6727975731771139
 30
0.0
 11
102.24866738585271
 21
7.6237975731771215
 31
0.0
  0
LINE
  5
EA
100
AcDbEntity
100
AcDbLine
  8
0
 62
0
370
0
  6
BYLAYER
 10
125.47911738585267
 20
2.7596729231079067
 30
0.0
 11
3.0
 21
2.7596729231079138
 31
0.0
  0
LINE
  5
EB
100
AcDbEntity
100
AcDbLine
  8
0
 62
256
370
0
  6
BYLAYER
 10
-0.0013634000000167
 20
5.7596665231079172
 30
0.0
 11
3.0
 21
2.7596729231079138
 31
0.0
  0
LINE
  5
EC
100
AcDbEntity
100
AcDbLine
  8
0
 62
256
370
0
  6
BYLAYER
 10
128.47911738585267
 20
5.7596665231070645
 30
0.0
 11
125.47911738585267
 21
2.7596729231079067
 31
0.0
  0
ENDSEC
  0
SECTION
  2
OBJECTS
  0
DICTIONARY
  5
C
100
AcDbDictionary
280
0
281
1
  3
ACAD_GROUP
350
D
  3
ACAD_LAYOUT
350
1A
  3
ACAD_MLINESTYLE
350
17
  3
ACAD_PLOTSETTINGS
350
19
  3
ACAD_PLOTSTYLENAME
350
E
  3
AcDbVariableDictionary
350
ED
  3
QCAD_OBJECTS
350
EE
  0
DICTIONARY
  5
D
100
AcDbDictionary
280
0
281
1
  0
ACDBDICTIONARYWDFLT
  5
E
100
AcDbDictionary
281
1
  3
Normal
350
F
100
AcDbDictionaryWithDefault
340
F
  0
ACDBPLACEHOLDER
  5
F
  0
DICTIONARY
  5
17
100
AcDbDictionary
280
0
281
1
  3
Standard
350
18
  0
MLINESTYLE
  5
18
100
AcDbMlineStyle
  2
STANDARD
 70
0
  3

 62
256
 51
90.0
 52
90.0
 71
2
 49
0.5
 62
256
  6
BYLAYER
 49
-0.5
 62
256
  6
BYLAYER
  0
DICTIONARY
  5
19
100
AcDbDictionary
280
0
281
1
  0
DICTIONARY
  5
1A
100
AcDbDictionary
281
1
  3
Layout1
350
1E
  3
Layout2
350
26
  3
Model
350
22
  0
LAYOUT
  5
1E
100
AcDbPlotSettings
  1

  2
C:\Program Files\AutoCAD 2002\plotters\DWF ePlot (optimized for plotting).pc3
  4

  6

 40
0.0
 41
0.0
 42
0.0
 43
0.0
 44
0.0
 45
0.0
 46
0.0
 47
0.0
 48
0.0
 49
0.0
140
0.0
141
0.0
142
1.0
143
1.0
 70
688
 72
0
 73
0
 74
5
  7

 75
16
147
1.0
148
0.0
149
0.0
100
AcDbLayout
  1
Layout1
 70
1
 71
1
 10
0.0
 20
0.0
 11
420.0
 21
297.0
 12
0.0
 22
0.0
 32
0.0
 14
100000000000000000000.0
 24
100000000000000000000.0
 34
100000000000000000000.0
 15
-100000000000000000000.0
 25
-100000000000000000000.0
 35
-100000000000000000000.0
146
0.0
 13
0.0
 23
0.0
 33
0.0
 16
1.0
 26
0.0
 36
0.0
 17
0.0
 27
1.0
 37
0.0
 76
0
330
1B
  0
LAYOUT
  5
22
100
AcDbPlotSettings
  1

  2
C:\Program Files\AutoCAD 2002\plotters\DWF ePlot (optimized for plotting).pc3
  4

  6

 40
0.0
 41
0.0
 42
0.0
 43
0.0
 44
0.0
 45
0.0
 46
0.0
 47
0.0
 48
0.0
 49
0.0
140
0.0
141
0.0
142
1.0
143
1.0
 70
1712
 72
0
 73
0
 74
0
  7

 75
0
147
1.0
148
0.0
149
0.0
100
AcDbLayout
  1
Model
 70
1
 71
0
 10
0.0
 20
0.0
 11
12.0
 21
9.0
 12
0.0
 22
0.0
 32
0.0
 14
0.0
 24
0.0
 34
0.0
 15
0.0
 25
0.0
 35
0.0
146
0.0
 13
0.0
 23
0.0
 33
0.0
 16
1.0
 26
0.0
 36
0.0
 17
0.0
 27
1.0
 37
0.0
 76
0
330
1F
  0
LAYOUT
  5
26
100
AcDbPlotSettings
  1

  2
C:\Program Files\AutoCAD 2002\plotters\DWF ePlot (optimized for plotting).pc3
  4

  6

 40
0.0
 41
0.0
 42
0.0
 43
0.0
 44
0.0
 45
0.0
 46
0.0
 47
0.0
 48
0.0
 49
0.0
140
0.0
141
0.0
142
1.0
143
1.0
 70
688
 72
0
 73
0
 74
5
  7

 75
16
147
1.0
148
0.0
149
0.0
100
AcDbLayout
  1
Layout2
 70
1
 71
2
 10
0.0
 20
0.0
 11
12.0
 21
9.0
 12
0.0
 22
0.0
 32
0.0
 14
0.0
 24
0.0
 34
0.0
 15
0.0
 25
0.0
 35
0.0
146
0.0
 13
0.0
 23
0.0
 33
0.0
 16
1.0
 26
0.0
 36
0.0
 17
0.0
 27
1.0
 37
0.0
 76
0
330
23
  0
DICTIONARY
  5
ED
100
AcDbDictionary
281
1
  3
DIMASSOC
350
F0
  3
HIDETEXT
350
EF
  0
DICTIONARYVAR
  5
EF
100
DictionaryVariables
280
0
  1
2
  0
DICTIONARYVAR
  5
F0
100
DictionaryVariables
280
0
  1
1
  0
DICTIONARY
  5
EE
100
AcDbDictionary
281
1
  3
Grid/DisplayGrid00
350
F1
  3
Grid/DisplayGrid01
350
F2
  3
Grid/DisplayGrid02
350
F3
  3
Grid/DisplayGrid03
350
F4
  3
Grid/GridSpacingX00
350
F5
  3
Grid/GridSpacingX01
350
F6
  3
Grid/GridSpacingX02
350
F7
  3
Grid/GridSpacingX03
350
F8
  3
Grid/GridSpacingY00
350
F9
  3
Grid/GridSpacingY01
350
FA
  3
Grid/GridSpacingY02
350
FB
  3
Grid/GridSpacingY03
350
FC
  3
Grid/IsometricGrid00
350
FD
  3
Grid/IsometricGrid01
350
FE
  3
Grid/IsometricGrid02
350
FF
  3
Grid/IsometricGrid03
350
100
  3
Grid/IsometricProjection00
350
101
  3
Grid/IsometricProjection01
350
102
  3
Grid/IsometricProjection02
350
103
  3
Grid/IsometricProjection03
350
104
  3
Grid/MetaGridSpacingX00
350
105
  3
Grid/MetaGridSpacingX01
350
106
  3
Grid/MetaGridSpacingX02
350
107
  3
Grid/MetaGridSpacingX03
350
108
  3
Grid/MetaGridSpacingY00
350
109
  3
Grid/MetaGridSpacingY01
350
10A
  3
Grid/MetaGridSpacingY02
350
10B
  3
Grid/MetaGridSpacingY03
350
10C
  3
MultiPageSettings/Columns
350
10D
  3
MultiPageSettings/GlueMarginsBottom
350
10E
  3
MultiPageSettings/GlueMarginsLeft
350
10F
  3
MultiPageSettings/GlueMarginsRight
350
110
  3
MultiPageSettings/GlueMarginsTop
350
111
  3
MultiPageSettings/PrintCropMarks
350
112
  3
MultiPageSettings/Rows
350
113
  3
PageSettings/OffsetX
350
114
  3
PageSettings/OffsetY
350
115
  3
PageSettings/PageOrientation
350
116
  3
PageSettings/PaperHeight
350
117
  3
PageSettings/PaperWidth
350
118
  3
PageSettings/Scale
350
119
  3
PageSettings/ShowPaperBorders
350
11A
  3
UnitSettings/PaperUnit
350
11B
  0
XRECORD
  5
F1
330
EE
100
AcDbXrecord
280
1
290
1
  0
XRECORD
  5
F2
330
EE
100
AcDbXrecord
280
1
290
1
  0
XRECORD
  5
F3
330
EE
100
AcDbXrecord
280
1
290
1
  0
XRECORD
  5
F4
330
EE
100
AcDbXrecord
280
1
290
1
  0
XRECORD
  5
F5
330
EE
100
AcDbXrecord
280
1
1000
auto
  0
XRECORD
  5
F6
330
EE
100
AcDbXrecord
280
1
1000
auto
  0
XRECORD
  5
F7
330
EE
100
AcDbXrecord
280
1
1000
auto
  0
XRECORD
  5
F8
330
EE
100
AcDbXrecord
280
1
1000
auto
  0
XRECORD
  5
F9
330
EE
100
AcDbXrecord
280
1
1000
auto
  0
XRECORD
  5
FA
330
EE
100
AcDbXrecord
280
1
1000
auto
  0
XRECORD
  5
FB
330
EE
100
AcDbXrecord
280
1
1000
auto
  0
XRECORD
  5
FC
330
EE
100
AcDbXrecord
280
1
1000
auto
  0
XRECORD
  5
FD
330
EE
100
AcDbXrecord
280
1
290
0
  0
XRECORD
  5
FE
330
EE
100
AcDbXrecord
280
1
290
0
  0
XRECORD
  5
FF
330
EE
100
AcDbXrecord
280
1
290
0
  0
XRECORD
  5
100
330
EE
100
AcDbXrecord
280
1
290
0
  0
XRECORD
  5
101
330
EE
100
AcDbXrecord
280
1
 90
0
  0
XRECORD
  5
102
330
EE
100
AcDbXrecord
280
1
 90
0
  0
XRECORD
  5
103
330
EE
100
AcDbXrecord
280
1
 90
0
  0
XRECORD
  5
104
330
EE
100
AcDbXrecord
280
1
 90
0
  0
XRECORD
  5
105
330
EE
100
AcDbXrecord
280
1
1000
auto
  0
XRECORD
  5
106
330
EE
100
AcDbXrecord
280
1
1000
auto
  0
XRECORD
  5
107
330
EE
100
AcDbXrecord
280
1
1000
auto
  0
XRECORD
  5
108
330
EE
100
AcDbXrecord
280
1
1000
auto
  0
XRECORD
  5
109
330
EE
100
AcDbXrecord
280
1
1000
auto
  0
XRECORD
  5
10A
330
EE
100
AcDbXrecord
280
1
1000
auto
  0
XRECORD
  5
10B
330
EE
100
AcDbXrecord
280
1
1000
auto
  0
XRECORD
  5
10C
330
EE
100
AcDbXrecord
280
1
1000
auto
  0
XRECORD
  5
10D
330
EE
100
AcDbXrecord
280
1
 90
1
  0
XRECORD
  5
10E
330
EE
100
AcDbXrecord
280
1
 40
10.0
  0
XRECORD
  5
10F
330
EE
100
AcDbXrecord
280
1
 40
10.0
  0
XRECORD
  5
110
330
EE
100
AcDbXrecord
280
1
 40
10.0
  0
XRECORD
  5
111
330
EE
100
AcDbXrecord
280
1
 40
10.0
  0
XRECORD
  5
112
330
EE
100
AcDbXrecord
280
1
290
0
  0
XRECORD
  5
113
330
EE
100
AcDbXrecord
280
1
 90
1
  0
XRECORD
  5
114
330
EE
100
AcDbXrecord
280
1
 40
0.0
  0
XRECORD
  5
115
330
EE
100
AcDbXrecord
280
1
 40
0.0
  0
XRECORD
  5
116
330
EE
100
AcDbXrecord
280
1
1000
Portrait
  0
XRECORD
  5
117
330
EE
100
AcDbXrecord
280
1
 40
297.0
  0
XRECORD
  5
118
330
EE
100
AcDbXrecord
280
1
 40
210.0
  0
XRECORD
  5
119
330
EE
100
AcDbXrecord
280
1
1000
1:1
  0
XRECORD
  5
11A
330
EE
100
AcDbXrecord
280
1
290
1
  0
XRECORD
  5
11B
330
EE
100
AcDbXrecord
280
1
 90
4
  0
ENDSEC
  0
EOF
