  0
SECTION
  2
HEADER
  9
$ACADVER
  1
AC1009
  9
$DWGCODEPAGE
  3
ansi_1252
  9
$INSBASE
 10
0.0
 20
0.0
 30
0.0
  9
$EXTMIN
 10
0.0
 20
0.0
 30
0.0
  9
$EXTMAX
 10
1000.0
 20
1000.0
 30
0.0
  9
$LIMMIN
 10
0.0
 20
0.0
  9
$LIMMAX
 10
12.0
 20
9.0
  9
$ORTHOMODE
 70
     0
  9
$REGENMODE
 70
     1
  9
$FILLMODE
 70
     0
  9
$QTEXTMODE
 70
     0
  9
$MIRRTEXT
 70
     1
  9
$DRAGMODE
 70
     2
  9
$LTSCALE
 40
1.0
  9
$OSMODE
 70
    37
  9
$ATTMODE
 70
     1
  9
$TEXTSIZE
 40
0.2
  9
$TRACEWID
 40
0.05
  9
$TEXTSTYLE
  7
STANDARD
  9
$CLAYER
  8
0
  9
$CELTYPE
  6
BYLAYER
  9
$CECOLOR
 62
    18
  9
$DIMSCALE
 40
1.0
  9
$DIMASZ
 40
0.18
  9
$DIMEXO
 40
0.0625
  9
$DIMDLI
 40
0.38
  9
$DIMRND
 40
0.0
  9
$DIMDLE
 40
0.0
  9
$DIMEXE
 40
0.18
  9
$DIMTP
 40
0.0
  9
$DIMTM
 40
0.0
  9
$DIMTXT
 40
0.18
  9
$DIMCEN
 40
0.09
  9
$DIMTSZ
 40
0.0
  9
$DIMTOL
 70
     0
  9
$DIMLIM
 70
     0
  9
$DIMTIH
 70
     1
  9
$DIMTOH
 70
     1
  9
$DIMSE1
 70
     0
  9
$DIMSE2
 70
     0
  9
$DIMTAD
 70
     0
  9
$DIMZIN
 70
     0
  9
$DIMBLK
  1

  9
$DIMASO
 70
     1
  9
$DIMSHO
 70
     1
  9
$DIMPOST
  1

  9
$DIMAPOST
  1

  9
$DIMALT
 70
     0
  9
$DIMALTD
 70
     2
  9
$DIMALTF
 40
25.4
  9
$DIMLFAC
 40
1.0
  9
$DIMTOFL
 70
     0
  9
$DIMTVP
 40
0.0
  9
$DIMTIX
 70
     0
  9
$DIMSOXD
 70
     0
  9
$DIMSAH
 70
     0
  9
$DIMBLK1
  1

  9
$DIMBLK2
  1

  9
$DIMSTYLE
  2
STANDARD
  9
$DIMCLRD
 70
    18
  9
$DIMCLRE
 70
    18
  9
$DIMCLRT
 70
    18
  9
$DIMTFAC
 40
1.0
  9
$DIMGAP
 40
0.09
  9
$LUNITS
 70
     2
  9
$LUPREC
 70
     4
  9
$SKETCHINC
 40
0.1
  9
$FILLETRAD
 40
0.5
  9
$AUNITS
 70
     0
  9
$AUPREC
 70
     0
  9
$MENU
  1
.
  9
$ELEVATION
 40
0.0
  9
$PELEVATION
 40
0.0
  9
$THICKNESS
 40
0.0
  9
$LIMCHECK
 70
     0
  9
$CHAMFERA
 40
0.0
  9
$CHAMFERB
 40
0.0
  9
$SKPOLY
 70
     0
  9
$TDCREATE
 40
2458311.015861632
  9
$TDUPDATE
 40
2458311.015861667
  9
$TDINDWG
 40
0.0000000116
  9
$TDUSRTIMER
 40
0.0000000116
  9
$USRTIMER
 70
     1
  9
$ANGBASE
 50
0.0
  9
$ANGDIR
 70
     0
  9
$PDMODE
 70
     0
  9
$PDSIZE
 40
0.0
  9
$PLINEWID
 40
0.0
  9
$COORDS
 70
     1
  9
$SPLFRAME
 70
     1
  9
$SPLINETYPE
 70
     6
  9
$SPLINESEGS
 70
     8
  9
$ATTDIA
 70
     0
  9
$ATTREQ
 70
     1
  9
$HANDLING
 70
     1
  9
$HANDSEED
  5
248
  9
$SURFTAB1
 70
     6
  9
$SURFTAB2
 70
     6
  9
$SURFTYPE
 70
     6
  9
$SURFU
 70
     6
  9
$SURFV
 70
     6
  9
$UCSNAME
  2

  9
$UCSORG
 10
0.0
 20
0.0
 30
0.0
  9
$UCSXDIR
 10
1.0
 20
0.0
 30
0.0
  9
$UCSYDIR
 10
0.0
 20
1.0
 30
0.0
  9
$PUCSNAME
  2

  9
$PUCSORG
 10
0.0
 20
0.0
 30
0.0
  9
$PUCSXDIR
 10
1.0
 20
0.0
 30
0.0
  9
$PUCSYDIR
 10
0.0
 20
1.0
 30
0.0
  9
$USERI1
 70
     0
  9
$USERI2
 70
     0
  9
$USERI3
 70
     0
  9
$USERI4
 70
     0
  9
$USERI5
 70
     0
  9
$USERR1
 40
0.0
  9
$USERR2
 40
0.0
  9
$USERR3
 40
0.0
  9
$USERR4
 40
0.0
  9
$USERR5
 40
0.0
  9
$WORLDVIEW
 70
     1
  9
$SHADEDGE
 70
     3
  9
$SHADEDIF
 70
    70
  9
$TILEMODE
 70
     1
  9
$MAXACTVP
 70
    64
  9
$PLIMCHECK
 70
     0
  9
$PEXTMIN
 10
1.000000000000000E+20
 20
1.000000000000000E+20
 30
1.000000000000000E+20
  9
$PEXTMAX
 10
-1.000000000000000E+20
 20
-1.000000000000000E+20
 30
-1.000000000000000E+20
  9
$PLIMMIN
 10
0.0
 20
0.0
  9
$PLIMMAX
 10
12.0
 20
9.0
  9
$UNITMODE
 70
     0
  9
$VISRETAIN
 70
     1
  9
$PLINEGEN
 70
     0
  9
$PSLTSCALE
 70
     1
  0
ENDSEC
  0
SECTION
  2
TABLES
  0
TABLE
  2
VPORT
 70
     1
  0
VPORT
  2
*ACTIVE
 70
     0
 10
0.0
 20
0.0
 11
1.0
 21
1.0
 12
10.42990654205607
 22
4.5
 13
0.0
 23
0.0
 14
0.5
 24
0.5
 15
0.5
 25
0.5
 16
0.0
 26
0.0
 36
1.0
 17
0.0
 27
0.0
 37
0.0
 40
9.0
 41
1.972972972850329
 42
50.0
 43
0.0
 44
0.0
 50
0.0
 51
0.0
 71
     0
 72
   100
 73
     1
 74
     3
 75
     0
 76
     0
 77
     0
 78
     0
  0
ENDTAB
  0
TABLE
  2
LTYPE
 70
    19
  0
LTYPE
  2
CONTINUOUS
 70
     0
  3
Solid line
 72
    65
 73
     0
 40
0.0
  0
LTYPE
  2
BORDER
 70
     0
  3

 72
    65
 73
     6
 40
42.00000000000001
 49
12.0
 49
-6.0
 49
12.0
 49
-5.95
 49
0.1
 49
-5.95
  0
LTYPE
  2
BORDER2
 70
     0
  3

 72
    65
 73
     6
 40
21.0
 49
6.0
 49
-3.0
 49
6.0
 49
-2.95
 49
0.1
 49
-2.95
  0
LTYPE
  2
BORDERX2
 70
     0
  3

 72
    65
 73
     6
 40
84.0
 49
24.0
 49
-12.0
 49
24.0
 49
-11.95
 49
0.1
 49
-11.95
  0
LTYPE
  2
CENTER
 70
     0
  3

 72
    65
 73
     4
 40
50.0
 49
32.0
 49
-6.0
 49
6.0
 49
-6.0
  0
LTYPE
  2
CENTER2
 70
     0
  3

 72
    65
 73
     4
 40
25.0
 49
16.0
 49
-3.0
 49
3.0
 49
-3.0
  0
LTYPE
  2
CENTERX2
 70
     0
  3

 72
    65
 73
     4
 40
100.0
 49
64.0
 49
-12.0
 49
12.0
 49
-12.0
  0
LTYPE
  2
DASHDOT
 70
     0
  3

 72
    65
 73
     4
 40
24.0
 49
12.0
 49
-5.95
 49
0.1
 49
-5.95
  0
LTYPE
  2
DASHDOT2
 70
     0
  3

 72
    65
 73
     4
 40
12.0
 49
6.0
 49
-2.95
 49
0.1
 49
-2.95
  0
LTYPE
  2
DASHDOTX2
 70
     0
  3

 72
    65
 73
     4
 40
48.0
 49
24.0
 49
-11.95
 49
0.1
 49
-11.95
  0
LTYPE
  2
DASHED
 70
     0
  3

 72
    65
 73
     2
 40
18.0
 49
12.0
 49
-6.0
  0
LTYPE
  2
DASHED2
 70
     0
  3

 72
    65
 73
     2
 40
9.0
 49
6.0
 49
-3.0
  0
LTYPE
  2
DASHEDX2
 70
     0
  3

 72
    65
 73
     2
 40
36.0
 49
24.0
 49
-12.0
  0
LTYPE
  2
DIVIDE
 70
     0
  3

 72
    65
 73
     6
 40
29.99999999999999
 49
12.0
 49
-5.9
 49
0.15
 49
-5.9
 49
0.15
 49
-5.9
  0
LTYPE
  2
DIVIDE2
 70
     0
  3

 72
    65
 73
     6
 40
15.0
 49
6.0
 49
-2.9
 49
0.15
 49
-2.9
 49
0.15
 49
-2.9
  0
LTYPE
  2
DIVIDEX2
 70
     0
  3

 72
    65
 73
     6
 40
59.99999999999999
 49
24.0
 49
-11.9
 49
0.15
 49
-11.9
 49
0.15
 49
-11.9
  0
LTYPE
  2
DOT
 70
     0
  3

 72
    65
 73
     2
 40
6.3
 49
0.1
 49
-6.2
  0
LTYPE
  2
DOT2
 70
     0
  3

 72
    65
 73
     2
 40
3.2
 49
0.1
 49
-3.1
  0
LTYPE
  2
DOTX2
 70
     0
  3

 72
    65
 73
     2
 40
12.5
 49
0.1
 49
-12.4
  0
ENDTAB
  0
TABLE
  2
LAYER
 70
     1
  0
LAYER
  2
0
 70
     0
 62
     7
  6
CONTINUOUS
  0
ENDTAB
  0
TABLE
  2
STYLE
 70
     1
  0
STYLE
  2
STANDARD
 70
     0
 40
0.0
 41
1.0
 50
0.0
 71
     0
 42
0.2
  3
txt
  4

  0
ENDTAB
  0
TABLE
  2
VIEW
 70
     0
  0
ENDTAB
  0
TABLE
  2
UCS
 70
     0
  0
ENDTAB
  0
TABLE
  2
APPID
 70
     2
  0
APPID
  2
ACAD
 70
     0
  0
APPID
  2
QCAD
 70
     0
  0
ENDTAB
  0
TABLE
  2
DIMSTYLE
 70
     2
  0
DIMSTYLE
  2
STANDARD
 70
     0
  3

  4

  5

  6

  7

 40
1.0
 41
0.18
 42
0.0625
 43
0.38
 44
0.18
 45
0.0
 46
0.0
 47
0.0
 48
0.0
140
0.18
141
0.09
142
0.0
143
25.4
144
1.0
145
0.0
146
1.0
147
0.09
 71
     0
 72
     0
 73
     1
 74
     1
 75
     0
 76
     0
 77
     0
 78
     0
170
     0
171
     2
172
     0
173
     0
174
     0
175
     0
176
     0
177
     0
178
     0
  0
DIMSTYLE
  2
QCADDIMSTYLE
 70
     0
  3

  4

  5

  6

  7

 40
1.0
 41
0.18
 42
0.0625
 43
0.38
 44
0.18
 45
0.0
 46
0.0
 47
0.0
 48
0.0
140
0.18
141
0.09
142
0.0
143
25.4
144
1.0
145
0.0
146
1.0
147
0.09
 71
     0
 72
     0
 73
     0
 74
     1
 75
     0
 76
     0
 77
     1
 78
     0
170
     0
171
     2
172
     0
173
     0
174
     0
175
     0
176
     0
177
     0
178
     0
  0
ENDTAB
  0
ENDSEC
  0
SECTION
  2
BLOCKS
  0
BLOCK
  8
0
  2
$MODEL_SPACE
 70
     0
 10
0.0
 20
0.0
 30
0.0
  3
$MODEL_SPACE
  1

  0
ENDBLK
  5
1B6
  8
0
  0
BLOCK
 67
     1
  8
0
  2
$PAPER_SPACE
 70
     0
 10
0.0
 20
0.0
 30
0.0
  3
$PAPER_SPACE
  1

  0
ENDBLK
  5
1B2
 67
     1
  8
0
  0
ENDSEC
  0
SECTION
  2
ENTITIES
  0
LINE
  5
26
  8
0
 62
     0
 10
256.22
 20
96.2794
 30
0.0
 11
256.376
 21
96.2738
 31
0.0
  0
LINE
  5
27
  8
0
 62
     0
 10
256.376
 20
96.2738
 30
0.0
 11
256.533
 21
96.2561
 31
0.0
  0
LINE
  5
28
  8
0
 62
     0
 10
256.533
 20
96.2561
 30
0.0
 11
256.686
 21
96.2244
 31
0.0
  0
LINE
  5
29
  8
0
 62
     0
 10
256.686
 20
96.2244
 30
0.0
 11
256.839
 21
96.1831
 31
0.0
  0
LINE
  5
2A
  8
0
 62
     0
 10
256.839
 20
96.1831
 30
0.0
 11
256.986
 21
96.1277
 31
0.0
  0
LINE
  5
2B
  8
0
 62
     0
 10
256.986
 20
96.1277
 30
0.0
 11
257.128
 21
96.0632
 31
0.0
  0
LINE
  5
2C
  8
0
 62
     0
 10
257.128
 20
96.0632
 30
0.0
 11
257.265
 21
95.9859
 31
0.0
  0
LINE
  5
2D
  8
0
 62
     0
 10
257.265
 20
95.9859
 30
0.0
 11
257.395
 21
95.8991
 31
0.0
  0
LINE
  5
2E
  8
0
 62
     0
 10
257.395
 20
95.8991
 30
0.0
 11
257.518
 21
95.8014
 31
0.0
  0
LINE
  5
2F
  8
0
 62
     0
 10
257.518
 20
95.8014
 30
0.0
 11
257.635
 21
95.6952
 31
0.0
  0
LINE
  5
30
  8
0
 62
     0
 10
257.635
 20
95.6952
 30
0.0
 11
257.741
 21
95.5795
 31
0.0
  0
LINE
  5
31
  8
0
 62
     0
 10
257.741
 20
95.5795
 30
0.0
 11
257.839
 21
95.4553
 31
0.0
  0
LINE
  5
32
  8
0
 62
     0
 10
257.839
 20
95.4553
 30
0.0
 11
257.926
 21
95.3244
 31
0.0
  0
LINE
  5
33
  8
0
 62
     0
 10
257.926
 20
95.3244
 30
0.0
 11
258.003
 21
95.1879
 31
0.0
  0
LINE
  5
34
  8
0
 62
     0
 10
258.003
 20
95.1879
 30
0.0
 11
258.068
 21
95.0461
 31
0.0
  0
LINE
  5
35
  8
0
 62
     0
 10
258.068
 20
95.0461
 30
0.0
 11
258.123
 21
94.8986
 31
0.0
  0
LINE
  5
36
  8
0
 62
     0
 10
258.123
 20
94.8986
 30
0.0
 11
258.165
 21
94.7469
 31
0.0
  0
LINE
  5
37
  8
0
 62
     0
 10
258.165
 20
94.7469
 30
0.0
 11
258.196
 21
94.5928
 31
0.0
  0
LINE
  5
38
  8
0
 62
     0
 10
258.196
 20
94.5928
 30
0.0
 11
258.214
 21
94.4369
 31
0.0
  0
LINE
  5
39
  8
0
 62
     0
 10
258.214
 20
94.4369
 30
0.0
 11
258.221
 21
94.2799
 31
0.0
  0
LINE
  5
3A
  8
0
 62
     0
 10
258.221
 20
94.2799
 30
0.0
 11
258.221
 21
2.07808
 31
0.0
  0
LINE
  5
3B
  8
0
 62
     0
 10
258.221
 20
2.07808
 30
0.0
 11
258.214
 21
1.92236
 31
0.0
  0
LINE
  5
3C
  8
0
 62
     0
 10
258.214
 20
1.92236
 30
0.0
 11
258.196
 21
1.76664
 31
0.0
  0
LINE
  5
3D
  8
0
 62
     0
 10
258.196
 20
1.76664
 30
0.0
 11
258.165
 21
1.6123
 31
0.0
  0
LINE
  5
3E
  8
0
 62
     0
 10
258.165
 20
1.6123
 30
0.0
 11
258.123
 21
1.46072
 31
0.0
  0
LINE
  5
3F
  8
0
 62
     0
 10
258.123
 20
1.46072
 30
0.0
 11
258.068
 21
1.31327
 31
0.0
  0
LINE
  5
40
  8
0
 62
     0
 10
258.068
 20
1.31327
 30
0.0
 11
258.003
 21
1.17133
 31
0.0
  0
LINE
  5
41
  8
0
 62
     0
 10
258.003
 20
1.17133
 30
0.0
 11
257.926
 21
1.03491
 31
0.0
  0
LINE
  5
42
  8
0
 62
     0
 10
257.926
 20
1.03491
 30
0.0
 11
257.839
 21
0.903993
 31
0.0
  0
LINE
  5
43
  8
0
 62
     0
 10
257.839
 20
0.903993
 30
0.0
 11
257.741
 21
0.781346
 31
0.0
  0
LINE
  5
44
  8
0
 62
     0
 10
257.741
 20
0.781346
 30
0.0
 11
257.635
 21
0.664214
 31
0.0
  0
LINE
  5
45
  8
0
 62
     0
 10
257.635
 20
0.664214
 30
0.0
 11
257.518
 21
0.558105
 31
0.0
  0
LINE
  5
46
  8
0
 62
     0
 10
257.518
 20
0.558105
 30
0.0
 11
257.395
 21
0.460266
 31
0.0
  0
LINE
  5
47
  8
0
 62
     0
 10
257.395
 20
0.460266
 30
0.0
 11
257.265
 21
0.373447
 31
0.0
  0
LINE
  5
48
  8
0
 62
     0
 10
257.265
 20
0.373447
 30
0.0
 11
257.128
 21
0.296278
 31
0.0
  0
LINE
  5
49
  8
0
 62
     0
 10
257.128
 20
0.296278
 30
0.0
 11
256.986
 21
0.23151
 31
0.0
  0
LINE
  5
4A
  8
0
 62
     0
 10
256.986
 20
0.23151
 30
0.0
 11
256.839
 21
0.176389
 31
0.0
  0
LINE
  5
4B
  8
0
 62
     0
 10
256.839
 20
0.176389
 30
0.0
 11
256.686
 21
0.135048
 31
0.0
  0
LINE
  5
4C
  8
0
 62
     0
 10
256.686
 20
0.135048
 30
0.0
 11
256.533
 21
0.103353
 31
0.0
  0
LINE
  5
4D
  8
0
 62
     0
 10
256.533
 20
0.103353
 30
0.0
 11
256.376
 21
0.0854385
 31
0.0
  0
LINE
  5
4E
  8
0
 62
     0
 10
256.376
 20
0.0854385
 30
0.0
 11
256.22
 21
0.0799264
 31
0.0
  0
LINE
  5
4F
  8
0
 62
     0
 10
256.22
 20
0.0799264
 30
0.0
 11
2.09462
 21
0.0785481
 31
0.0
  0
LINE
  5
50
  8
0
 62
     0
 10
2.09462
 20
0.0785481
 30
0.0
 11
1.93752
 21
0.0854385
 31
0.0
  0
LINE
  5
51
  8
0
 62
     0
 10
1.93752
 20
0.0854385
 30
0.0
 11
1.7818
 21
0.103353
 31
0.0
  0
LINE
  5
52
  8
0
 62
     0
 10
1.7818
 20
0.103353
 30
0.0
 11
1.62746
 21
0.135048
 31
0.0
  0
LINE
  5
53
  8
0
 62
     0
 10
1.62746
 20
0.135048
 30
0.0
 11
1.47588
 21
0.176389
 31
0.0
  0
LINE
  5
54
  8
0
 62
     0
 10
1.47588
 20
0.176389
 30
0.0
 11
1.32843
 21
0.23151
 31
0.0
  0
LINE
  5
55
  8
0
 62
     0
 10
1.32843
 20
0.23151
 30
0.0
 11
1.18649
 21
0.296278
 31
0.0
  0
LINE
  5
56
  8
0
 62
     0
 10
1.18649
 20
0.296278
 30
0.0
 11
1.05006
 21
0.373447
 31
0.0
  0
LINE
  5
57
  8
0
 62
     0
 10
1.05006
 20
0.373447
 30
0.0
 11
0.919152
 21
0.460266
 31
0.0
  0
LINE
  5
58
  8
0
 62
     0
 10
0.919152
 20
0.460266
 30
0.0
 11
0.795129
 21
0.558105
 31
0.0
  0
LINE
  5
59
  8
0
 62
     0
 10
0.795129
 20
0.558105
 30
0.0
 11
0.679372
 21
0.664214
 31
0.0
  0
LINE
  5
5A
  8
0
 62
     0
 10
0.679372
 20
0.664214
 30
0.0
 11
0.573264
 21
0.781346
 31
0.0
  0
LINE
  5
5B
  8
0
 62
     0
 10
0.573264
 20
0.781346
 30
0.0
 11
0.475424
 21
0.903993
 31
0.0
  0
LINE
  5
5C
  8
0
 62
     0
 10
0.475424
 20
0.903993
 30
0.0
 11
0.388606
 21
1.03491
 31
0.0
  0
LINE
  5
5D
  8
0
 62
     0
 10
0.388606
 20
1.03491
 30
0.0
 11
0.311437
 21
1.17133
 31
0.0
  0
LINE
  5
5E
  8
0
 62
     0
 10
0.311437
 20
1.17133
 30
0.0
 11
0.246669
 21
1.31327
 31
0.0
  0
LINE
  5
5F
  8
0
 62
     0
 10
0.246669
 20
1.31327
 30
0.0
 11
0.191547
 21
1.46072
 31
0.0
  0
LINE
  5
60
  8
0
 62
     0
 10
0.191547
 20
1.46072
 30
0.0
 11
0.150206
 21
1.6123
 31
0.0
  0
LINE
  5
61
  8
0
 62
     0
 10
0.150206
 20
1.6123
 30
0.0
 11
0.118511
 21
1.76664
 31
0.0
  0
LINE
  5
62
  8
0
 62
     0
 10
0.118511
 20
1.76664
 30
0.0
 11
0.100597
 21
1.92236
 31
0.0
  0
LINE
  5
63
  8
0
 62
     0
 10
0.100597
 20
1.92236
 30
0.0
 11
0.0937066
 21
2.07808
 31
0.0
  0
LINE
  5
64
  8
0
 62
     0
 10
0.094965758281127
 20
70.89976654630213
 30
0.0
 11
0.0950846
 21
94.2799
 31
0.0
  0
LINE
  5
65
  8
0
 62
     0
 10
0.0950846
 20
94.2799
 30
0.0
 11
0.100597
 21
94.4369
 31
0.0
  0
LINE
  5
66
  8
0
 62
     0
 10
0.100597
 20
94.4369
 30
0.0
 11
0.118511
 21
94.5928
 31
0.0
  0
LINE
  5
67
  8
0
 62
     0
 10
0.118511
 20
94.5928
 30
0.0
 11
0.150206
 21
94.7469
 31
0.0
  0
LINE
  5
68
  8
0
 62
     0
 10
0.150206
 20
94.7469
 30
0.0
 11
0.191547
 21
94.8986
 31
0.0
  0
LINE
  5
69
  8
0
 62
     0
 10
0.191547
 20
94.8986
 30
0.0
 11
0.246669
 21
95.0461
 31
0.0
  0
LINE
  5
6A
  8
0
 62
     0
 10
0.246669
 20
95.0461
 30
0.0
 11
0.311437
 21
95.1879
 31
0.0
  0
LINE
  5
6B
  8
0
 62
     0
 10
0.311437
 20
95.1879
 30
0.0
 11
0.388606
 21
95.3244
 31
0.0
  0
LINE
  5
6C
  8
0
 62
     0
 10
0.388606
 20
95.3244
 30
0.0
 11
0.475424
 21
95.4553
 31
0.0
  0
LINE
  5
6D
  8
0
 62
     0
 10
0.475424
 20
95.4553
 30
0.0
 11
0.573264
 21
95.5795
 31
0.0
  0
LINE
  5
6E
  8
0
 62
     0
 10
0.573264
 20
95.5795
 30
0.0
 11
0.679372
 21
95.6952
 31
0.0
  0
LINE
  5
6F
  8
0
 62
     0
 10
0.679372
 20
95.6952
 30
0.0
 11
0.795129
 21
95.8014
 31
0.0
  0
LINE
  5
70
  8
0
 62
     0
 10
0.795129
 20
95.8014
 30
0.0
 11
0.919152
 21
95.8991
 31
0.0
  0
LINE
  5
71
  8
0
 62
     0
 10
0.919152
 20
95.8991
 30
0.0
 11
1.05006
 21
95.9859
 31
0.0
  0
LINE
  5
72
  8
0
 62
     0
 10
1.05006
 20
95.9859
 30
0.0
 11
1.18649
 21
96.0632
 31
0.0
  0
LINE
  5
73
  8
0
 62
     0
 10
1.18649
 20
96.0632
 30
0.0
 11
1.32843
 21
96.1277
 31
0.0
  0
LINE
  5
74
  8
0
 62
     0
 10
1.32843
 20
96.1277
 30
0.0
 11
1.47588
 21
96.1831
 31
0.0
  0
LINE
  5
75
  8
0
 62
     0
 10
1.47588
 20
96.1831
 30
0.0
 11
1.62746
 21
96.2244
 31
0.0
  0
LINE
  5
76
  8
0
 62
     0
 10
1.62746
 20
96.2244
 30
0.0
 11
1.7818
 21
96.2561
 31
0.0
  0
LINE
  5
77
  8
0
 62
     0
 10
1.7818
 20
96.2561
 30
0.0
 11
1.93752
 21
96.2738
 31
0.0
  0
LINE
  5
78
  8
0
 62
     0
 10
1.93752
 20
96.2738
 30
0.0
 11
2.09462
 21
96.2808
 31
0.0
  0
LINE
  5
79
  8
0
 62
     0
 10
2.09462
 20
96.2808
 30
0.0
 11
256.22
 21
96.2794
 31
0.0
  0
LINE
  5
7A
  8
0
 62
     0
 10
254.256
 20
5.00641
 30
0.0
 11
253.839
 21
4.7928
 31
0.0
  0
LINE
  5
7B
  8
0
 62
     0
 10
253.839
 20
4.7928
 30
0.0
 11
253.505
 21
4.4607
 31
0.0
  0
LINE
  5
7C
  8
0
 62
     0
 10
253.505
 20
4.4607
 30
0.0
 11
253.293
 21
4.04315
 31
0.0
  0
LINE
  5
7D
  8
0
 62
     0
 10
253.293
 20
4.04315
 30
0.0
 11
253.22
 21
3.57875
 31
0.0
  0
LINE
  5
7E
  8
0
 62
     0
 10
253.22
 20
3.57875
 30
0.0
 11
253.293
 21
3.11574
 31
0.0
  0
LINE
  5
7F
  8
0
 62
     0
 10
253.293
 20
3.11574
 30
0.0
 11
253.505
 21
2.6982
 31
0.0
  0
LINE
  5
80
  8
0
 62
     0
 10
253.505
 20
2.6982
 30
0.0
 11
253.839
 21
2.36609
 31
0.0
  0
LINE
  5
81
  8
0
 62
     0
 10
253.839
 20
2.36609
 30
0.0
 11
254.256
 21
2.15249
 31
0.0
  0
LINE
  5
82
  8
0
 62
     0
 10
254.256
 20
2.15249
 30
0.0
 11
254.719
 21
2.07808
 31
0.0
  0
LINE
  5
83
  8
0
 62
     0
 10
254.719
 20
2.07808
 30
0.0
 11
255.184
 21
2.15249
 31
0.0
  0
LINE
  5
84
  8
0
 62
     0
 10
255.184
 20
2.15249
 30
0.0
 11
255.601
 21
2.36609
 31
0.0
  0
LINE
  5
85
  8
0
 62
     0
 10
255.601
 20
2.36609
 30
0.0
 11
255.933
 21
2.6982
 31
0.0
  0
LINE
  5
86
  8
0
 62
     0
 10
255.933
 20
2.6982
 30
0.0
 11
256.147
 21
3.11574
 31
0.0
  0
LINE
  5
87
  8
0
 62
     0
 10
256.147
 20
3.11574
 30
0.0
 11
256.22
 21
3.57875
 31
0.0
  0
LINE
  5
88
  8
0
 62
     0
 10
256.22
 20
3.57875
 30
0.0
 11
256.147
 21
4.04315
 31
0.0
  0
LINE
  5
89
  8
0
 62
     0
 10
256.147
 20
4.04315
 30
0.0
 11
255.933
 21
4.4607
 31
0.0
  0
LINE
  5
8A
  8
0
 62
     0
 10
255.933
 20
4.4607
 30
0.0
 11
255.601
 21
4.7928
 31
0.0
  0
LINE
  5
8B
  8
0
 62
     0
 10
255.601
 20
4.7928
 30
0.0
 11
255.184
 21
5.00641
 31
0.0
  0
LINE
  5
8C
  8
0
 62
     0
 10
255.184
 20
5.00641
 30
0.0
 11
254.719
 21
5.07806
 31
0.0
  0
LINE
  5
8D
  8
0
 62
     0
 10
254.719
 20
5.07806
 30
0.0
 11
254.256
 21
5.00641
 31
0.0
  0
LINE
  5
8E
  8
0
 62
     0
 10
128.694
 20
5.00641
 30
0.0
 11
128.276
 21
4.7928
 31
0.0
  0
LINE
  5
8F
  8
0
 62
     0
 10
128.276
 20
4.7928
 30
0.0
 11
127.944
 21
4.4607
 31
0.0
  0
LINE
  5
90
  8
0
 62
     0
 10
127.944
 20
4.4607
 30
0.0
 11
127.73
 21
4.04315
 31
0.0
  0
LINE
  5
91
  8
0
 62
     0
 10
127.73
 20
4.04315
 30
0.0
 11
127.657
 21
3.57875
 31
0.0
  0
LINE
  5
92
  8
0
 62
     0
 10
127.657
 20
3.57875
 30
0.0
 11
127.73
 21
3.11574
 31
0.0
  0
LINE
  5
93
  8
0
 62
     0
 10
127.73
 20
3.11574
 30
0.0
 11
127.944
 21
2.6982
 31
0.0
  0
LINE
  5
94
  8
0
 62
     0
 10
127.944
 20
2.6982
 30
0.0
 11
128.276
 21
2.36609
 31
0.0
  0
LINE
  5
95
  8
0
 62
     0
 10
128.276
 20
2.36609
 30
0.0
 11
128.694
 21
2.15249
 31
0.0
  0
LINE
  5
96
  8
0
 62
     0
 10
128.694
 20
2.15249
 30
0.0
 11
129.158
 21
2.07808
 31
0.0
  0
LINE
  5
97
  8
0
 62
     0
 10
129.158
 20
2.07808
 30
0.0
 11
129.621
 21
2.15249
 31
0.0
  0
LINE
  5
98
  8
0
 62
     0
 10
129.621
 20
2.15249
 30
0.0
 11
130.038
 21
2.36609
 31
0.0
  0
LINE
  5
99
  8
0
 62
     0
 10
130.038
 20
2.36609
 30
0.0
 11
130.371
 21
2.6982
 31
0.0
  0
LINE
  5
9A
  8
0
 62
     0
 10
130.371
 20
2.6982
 30
0.0
 11
130.584
 21
3.11574
 31
0.0
  0
LINE
  5
9B
  8
0
 62
     0
 10
130.584
 20
3.11574
 30
0.0
 11
130.657
 21
3.57875
 31
0.0
  0
LINE
  5
9C
  8
0
 62
     0
 10
130.657
 20
3.57875
 30
0.0
 11
130.584
 21
4.04315
 31
0.0
  0
LINE
  5
9D
  8
0
 62
     0
 10
130.584
 20
4.04315
 30
0.0
 11
130.371
 21
4.4607
 31
0.0
  0
LINE
  5
9E
  8
0
 62
     0
 10
130.371
 20
4.4607
 30
0.0
 11
130.038
 21
4.7928
 31
0.0
  0
LINE
  5
9F
  8
0
 62
     0
 10
130.038
 20
4.7928
 30
0.0
 11
129.621
 21
5.00641
 31
0.0
  0
LINE
  5
A0
  8
0
 62
     0
 10
129.621
 20
5.00641
 30
0.0
 11
129.158
 21
5.07806
 31
0.0
  0
LINE
  5
A1
  8
0
 62
     0
 10
129.158
 20
5.07806
 30
0.0
 11
128.694
 21
5.00641
 31
0.0
  0
LINE
  5
A2
  8
0
 62
     0
 10
3.1309
 20
5.00641
 30
0.0
 11
2.71336
 21
4.7928
 31
0.0
  0
LINE
  5
A3
  8
0
 62
     0
 10
2.71336
 20
4.7928
 30
0.0
 11
2.38125
 21
4.4607
 31
0.0
  0
LINE
  5
A4
  8
0
 62
     0
 10
2.38125
 20
4.4607
 30
0.0
 11
2.16765
 21
4.04315
 31
0.0
  0
LINE
  5
A5
  8
0
 62
     0
 10
2.16765
 20
4.04315
 30
0.0
 11
2.09324
 21
3.57875
 31
0.0
  0
LINE
  5
A6
  8
0
 62
     0
 10
2.09324
 20
3.57875
 30
0.0
 11
2.16765
 21
3.11574
 31
0.0
  0
LINE
  5
A7
  8
0
 62
     0
 10
2.16765
 20
3.11574
 30
0.0
 11
2.38125
 21
2.6982
 31
0.0
  0
LINE
  5
A8
  8
0
 62
     0
 10
2.38125
 20
2.6982
 30
0.0
 11
2.71336
 21
2.36609
 31
0.0
  0
LINE
  5
A9
  8
0
 62
     0
 10
2.71336
 20
2.36609
 30
0.0
 11
3.1309
 21
2.15249
 31
0.0
  0
LINE
  5
AA
  8
0
 62
     0
 10
3.1309
 20
2.15249
 30
0.0
 11
3.5953
 21
2.07808
 31
0.0
  0
LINE
  5
AB
  8
0
 62
     0
 10
3.5953
 20
2.07808
 30
0.0
 11
4.05832
 21
2.15249
 31
0.0
  0
LINE
  5
AC
  8
0
 62
     0
 10
4.05832
 20
2.15249
 30
0.0
 11
4.47587
 21
2.36609
 31
0.0
  0
LINE
  5
AD
  8
0
 62
     0
 10
4.47587
 20
2.36609
 30
0.0
 11
4.80797
 21
2.6982
 31
0.0
  0
LINE
  5
AE
  8
0
 62
     0
 10
4.80797
 20
2.6982
 30
0.0
 11
5.0202
 21
3.11574
 31
0.0
  0
LINE
  5
AF
  8
0
 62
     0
 10
5.0202
 20
3.11574
 30
0.0
 11
5.0946
 21
3.57875
 31
0.0
  0
LINE
  5
B0
  8
0
 62
     0
 10
5.0946
 20
3.57875
 30
0.0
 11
5.0202
 21
4.04315
 31
0.0
  0
LINE
  5
B1
  8
0
 62
     0
 10
5.0202
 20
4.04315
 30
0.0
 11
4.80797
 21
4.4607
 31
0.0
  0
LINE
  5
B2
  8
0
 62
     0
 10
4.80797
 20
4.4607
 30
0.0
 11
4.47587
 21
4.7928
 31
0.0
  0
LINE
  5
B3
  8
0
 62
     0
 10
4.47587
 20
4.7928
 30
0.0
 11
4.05832
 21
5.00641
 31
0.0
  0
LINE
  5
B4
  8
0
 62
     0
 10
4.05832
 20
5.00641
 30
0.0
 11
3.5953
 21
5.07806
 31
0.0
  0
LINE
  5
B5
  8
0
 62
     0
 10
3.5953
 20
5.07806
 30
0.0
 11
3.1309
 21
5.00641
 31
0.0
  0
LINE
  5
B6
  8
0
 62
     0
 10
128.694
 20
94.2068
 30
0.0
 11
128.276
 21
93.9934
 31
0.0
  0
LINE
  5
B7
  8
0
 62
     0
 10
128.276
 20
93.9934
 30
0.0
 11
127.944
 21
93.6611
 31
0.0
  0
LINE
  5
B8
  8
0
 62
     0
 10
127.944
 20
93.6611
 30
0.0
 11
127.73
 21
93.2437
 31
0.0
  0
LINE
  5
B9
  8
0
 62
     0
 10
127.73
 20
93.2437
 30
0.0
 11
127.657
 21
92.7791
 31
0.0
  0
LINE
  5
BA
  8
0
 62
     0
 10
127.657
 20
92.7791
 30
0.0
 11
127.73
 21
92.3163
 31
0.0
  0
LINE
  5
BB
  8
0
 62
     0
 10
127.73
 20
92.3163
 30
0.0
 11
127.944
 21
91.8986
 31
0.0
  0
LINE
  5
BC
  8
0
 62
     0
 10
127.944
 20
91.8986
 30
0.0
 11
128.276
 21
91.5666
 31
0.0
  0
LINE
  5
BD
  8
0
 62
     0
 10
128.276
 20
91.5666
 30
0.0
 11
128.694
 21
91.3543
 31
0.0
  0
LINE
  5
BE
  8
0
 62
     0
 10
128.694
 20
91.3543
 30
0.0
 11
129.158
 21
91.2798
 31
0.0
  0
LINE
  5
BF
  8
0
 62
     0
 10
129.158
 20
91.2798
 30
0.0
 11
129.621
 21
91.3543
 31
0.0
  0
LINE
  5
C0
  8
0
 62
     0
 10
129.621
 20
91.3543
 30
0.0
 11
130.038
 21
91.5666
 31
0.0
  0
LINE
  5
C1
  8
0
 62
     0
 10
130.038
 20
91.5666
 30
0.0
 11
130.371
 21
91.8986
 31
0.0
  0
LINE
  5
C2
  8
0
 62
     0
 10
130.371
 20
91.8986
 30
0.0
 11
130.584
 21
92.3163
 31
0.0
  0
LINE
  5
C3
  8
0
 62
     0
 10
130.584
 20
92.3163
 30
0.0
 11
130.657
 21
92.7791
 31
0.0
  0
LINE
  5
C4
  8
0
 62
     0
 10
130.657
 20
92.7791
 30
0.0
 11
130.584
 21
93.2437
 31
0.0
  0
LINE
  5
C5
  8
0
 62
     0
 10
130.584
 20
93.2437
 30
0.0
 11
130.371
 21
93.6611
 31
0.0
  0
LINE
  5
C6
  8
0
 62
     0
 10
130.371
 20
93.6611
 30
0.0
 11
130.038
 21
93.9934
 31
0.0
  0
LINE
  5
C7
  8
0
 62
     0
 10
130.038
 20
93.9934
 30
0.0
 11
129.621
 21
94.2068
 31
0.0
  0
LINE
  5
C8
  8
0
 62
     0
 10
129.621
 20
94.2068
 30
0.0
 11
129.158
 21
94.2799
 31
0.0
  0
LINE
  5
C9
  8
0
 62
     0
 10
129.158
 20
94.2799
 30
0.0
 11
128.694
 21
94.2068
 31
0.0
  0
LINE
  5
CA
  8
0
 62
     0
 10
254.256
 20
94.2068
 30
0.0
 11
253.839
 21
93.9934
 31
0.0
  0
LINE
  5
CB
  8
0
 62
     0
 10
253.839
 20
93.9934
 30
0.0
 11
253.505
 21
93.6611
 31
0.0
  0
LINE
  5
CC
  8
0
 62
     0
 10
253.505
 20
93.6611
 30
0.0
 11
253.293
 21
93.2437
 31
0.0
  0
LINE
  5
CD
  8
0
 62
     0
 10
253.293
 20
93.2437
 30
0.0
 11
253.22
 21
92.7791
 31
0.0
  0
LINE
  5
CE
  8
0
 62
     0
 10
253.22
 20
92.7791
 30
0.0
 11
253.293
 21
92.3163
 31
0.0
  0
LINE
  5
CF
  8
0
 62
     0
 10
253.293
 20
92.3163
 30
0.0
 11
253.505
 21
91.8986
 31
0.0
  0
LINE
  5
D0
  8
0
 62
     0
 10
253.505
 20
91.8986
 30
0.0
 11
253.839
 21
91.5666
 31
0.0
  0
LINE
  5
D1
  8
0
 62
     0
 10
253.839
 20
91.5666
 30
0.0
 11
254.256
 21
91.3543
 31
0.0
  0
LINE
  5
D2
  8
0
 62
     0
 10
254.256
 20
91.3543
 30
0.0
 11
254.719
 21
91.2798
 31
0.0
  0
LINE
  5
D3
  8
0
 62
     0
 10
254.719
 20
91.2798
 30
0.0
 11
255.184
 21
91.3543
 31
0.0
  0
LINE
  5
D4
  8
0
 62
     0
 10
255.184
 20
91.3543
 30
0.0
 11
255.601
 21
91.5666
 31
0.0
  0
LINE
  5
D5
  8
0
 62
     0
 10
255.601
 20
91.5666
 30
0.0
 11
255.933
 21
91.8986
 31
0.0
  0
LINE
  5
D6
  8
0
 62
     0
 10
255.933
 20
91.8986
 30
0.0
 11
256.147
 21
92.3163
 31
0.0
  0
LINE
  5
D7
  8
0
 62
     0
 10
256.147
 20
92.3163
 30
0.0
 11
256.22
 21
92.7791
 31
0.0
  0
LINE
  5
D8
  8
0
 62
     0
 10
256.22
 20
92.7791
 30
0.0
 11
256.147
 21
93.2437
 31
0.0
  0
LINE
  5
D9
  8
0
 62
     0
 10
256.147
 20
93.2437
 30
0.0
 11
255.933
 21
93.6611
 31
0.0
  0
LINE
  5
DA
  8
0
 62
     0
 10
255.933
 20
93.6611
 30
0.0
 11
255.601
 21
93.9934
 31
0.0
  0
LINE
  5
DB
  8
0
 62
     0
 10
255.601
 20
93.9934
 30
0.0
 11
255.184
 21
94.2068
 31
0.0
  0
LINE
  5
DC
  8
0
 62
     0
 10
255.184
 20
94.2068
 30
0.0
 11
254.719
 21
94.2799
 31
0.0
  0
LINE
  5
DD
  8
0
 62
     0
 10
254.719
 20
94.2799
 30
0.0
 11
254.256
 21
94.2068
 31
0.0
  0
LINE
  5
DE
  8
0
 62
     0
 10
3.1309
 20
94.2068
 30
0.0
 11
2.71336
 21
93.9934
 31
0.0
  0
LINE
  5
E3
  8
0
 62
     0
 10
2.16765
 20
92.3163
 30
0.0
 11
2.38125
 21
91.8986
 31
0.0
  0
LINE
  5
E4
  8
0
 62
     0
 10
2.38125
 20
91.8986
 30
0.0
 11
2.71336
 21
91.5666
 31
0.0
  0
LINE
  5
E5
  8
0
 62
     0
 10
2.71336
 20
91.5666
 30
0.0
 11
3.1309
 21
91.3543
 31
0.0
  0
LINE
  5
E6
  8
0
 62
     0
 10
3.1309
 20
91.3543
 30
0.0
 11
3.5953
 21
91.2798
 31
0.0
  0
LINE
  5
E9
  8
0
 62
     0
 10
4.47587
 20
91.5666
 30
0.0
 11
4.80797
 21
91.8986
 31
0.0
  0
LINE
  5
EB
  8
0
 62
     0
 10
5.0202
 20
92.3163
 30
0.0
 11
5.0946
 21
92.7791
 31
0.0
  0
LINE
  5
EC
  8
0
 62
     0
 10
5.0946
 20
92.7791
 30
0.0
 11
5.0202
 21
93.2437
 31
0.0
  0
LINE
  5
EE
  8
0
 62
     0
 10
4.80797
 20
93.6611
 30
0.0
 11
4.47587
 21
93.9934
 31
0.0
  0
LINE
  5
F0
  8
0
 62
     0
 10
4.05832
 20
94.2068
 30
0.0
 11
3.5953
 21
94.2799
 31
0.0
  0
LINE
  5
F2
  8
0
 10
3.595086600000007
 20
44.57813000000002
 30
0.0
 11
3.130686599999995
 21
44.50503000000006
 31
0.0
  0
LINE
  5
F3
  8
0
 10
3.595300000000071
 20
94.27990000000003
 30
0.0
 11
3.130900000000073
 21
94.20680000000002
 31
0.0
  0
LINE
  5
F4
  8
0
 10
3.130686599999995
 20
44.50503000000006
 30
0.0
 11
2.713146600000021
 21
44.29163000000003
 31
0.0
  0
LINE
  5
F5
  8
0
 10
2.713146600000021
 20
44.29163000000003
 30
0.0
 11
2.381036599999964
 21
43.95933000000005
 31
0.0
  0
LINE
  5
F6
  8
0
 10
2.381036599999964
 20
43.95933000000005
 30
0.0
 11
2.167436599999979
 21
43.54193000000001
 31
0.0
  0
LINE
  5
F7
  8
0
 10
2.167436599999979
 20
43.54193000000001
 30
0.0
 11
2.093026599999979
 21
43.07733000000005
 31
0.0
  0
LINE
  5
F8
  8
0
 10
2.093026599999979
 20
43.07733000000005
 30
0.0
 11
2.167436599999979
 21
42.61453000000003
 31
0.0
  0
LINE
  5
F9
  8
0
 10
2.167436599999979
 20
42.61453000000003
 30
0.0
 11
2.381036599999964
 21
42.19683000000001
 31
0.0
  0
LINE
  5
FA
  8
0
 10
2.381036599999964
 20
42.19683000000001
 30
0.0
 11
2.713146600000021
 21
41.86483000000001
 31
0.0
  0
LINE
  5
FB
  8
0
 10
2.713146600000021
 20
41.86483000000001
 30
0.0
 11
3.130686599999995
 21
41.65253000000004
 31
0.0
  0
LINE
  5
FC
  8
0
 10
3.130686599999995
 20
41.65253000000004
 30
0.0
 11
3.595086600000007
 21
41.57803000000004
 31
0.0
  0
LINE
  5
FD
  8
0
 10
3.595086600000007
 20
41.57803000000004
 30
0.0
 11
4.058106600000036
 21
41.65253000000004
 31
0.0
  0
LINE
  5
FE
  8
0
 10
4.058106600000036
 20
41.65253000000004
 30
0.0
 11
4.475656599999985
 21
41.86483000000001
 31
0.0
  0
LINE
  5
FF
  8
0
 10
4.475656599999985
 20
41.86483000000001
 30
0.0
 11
4.80775660000001
 21
42.19683000000001
 31
0.0
  0
LINE
  5
100
  8
0
 10
4.80775660000001
 20
42.19683000000001
 30
0.0
 11
5.019986599999987
 21
42.61453000000003
 31
0.0
  0
LINE
  5
101
  8
0
 10
5.019986599999987
 20
42.61453000000003
 30
0.0
 11
5.094386600000012
 21
43.07733000000005
 31
0.0
  0
LINE
  5
103
  8
0
 10
5.094386600000012
 20
72.37733000000003
 30
0.0
 11
5.019986599999987
 21
72.84192999999999
 31
0.0
  0
LINE
  5
104
  8
0
 10
5.019986599999987
 20
72.84192999999999
 30
0.0
 11
4.80775660000001
 21
73.25933000000003
 31
0.0
  0
LINE
  5
105
  8
0
 10
4.80775660000001
 20
73.25933000000003
 30
0.0
 11
4.475656599999985
 21
73.59163000000001
 31
0.0
  0
LINE
  5
106
  8
0
 10
4.475656599999985
 20
73.59163000000001
 30
0.0
 11
4.058106600000036
 21
73.80503000000004
 31
0.0
  0
LINE
  5
107
  8
0
 10
4.058106600000036
 20
73.80503000000004
 30
0.0
 11
3.595086600000007
 21
73.87813
 31
0.0
  0
LINE
  5
108
  8
0
 10
3.595086600000007
 20
73.87813
 30
0.0
 11
3.130686599999995
 21
73.80503000000004
 31
0.0
  0
LINE
  5
109
  8
0
 10
3.130686599999995
 20
73.80503000000004
 30
0.0
 11
2.713146600000021
 21
73.59163000000001
 31
0.0
  0
LINE
  5
10A
  8
0
 10
4.058320000000071
 20
91.3543
 30
0.0
 11
4.47587000000002
 21
91.56659999999997
 31
0.0
  0
LINE
  5
10B
  8
0
 10
2.713146600000021
 20
73.59163000000001
 30
0.0
 11
2.381036599999964
 21
73.25933000000003
 31
0.0
  0
LINE
  5
10C
  8
0
 10
2.381036599999964
 20
73.25933000000003
 30
0.0
 11
2.167436599999979
 21
72.84192999999999
 31
0.0
  0
LINE
  5
10D
  8
0
 10
2.167436599999979
 20
72.84192999999999
 30
0.0
 11
2.093026599999979
 21
72.37733000000003
 31
0.0
  0
LINE
  5
10E
  8
0
 10
2.093026599999979
 20
72.37733000000003
 30
0.0
 11
2.167436599999979
 21
71.91453000000001
 31
0.0
  0
LINE
  5
10F
  8
0
 10
2.167436599999979
 20
71.91453000000001
 30
0.0
 11
2.381036599999964
 21
71.49682999999999
 31
0.0
  0
LINE
  5
110
  8
0
 10
2.381036599999964
 20
71.49682999999999
 30
0.0
 11
2.713146600000021
 21
71.16483
 31
0.0
  0
LINE
  5
112
  8
0
 10
2.713146600000021
 20
71.16483
 30
0.0
 11
3.130686599999995
 21
70.95253000000002
 31
0.0
  0
LINE
  5
113
  8
0
 10
4.47587000000002
 20
93.99339999999998
 30
0.0
 11
4.058320000000071
 21
94.20680000000002
 31
0.0
  0
LINE
  5
114
  8
0
 10
3.130686599999995
 20
70.95253000000002
 30
0.0
 11
3.595086600000007
 21
70.87803000000002
 31
0.0
  0
LINE
  5
115
  8
0
 10
3.595086600000007
 20
70.87803000000002
 30
0.0
 11
4.058106600000036
 21
70.95253000000002
 31
0.0
  0
LINE
  5
116
  8
0
 10
2.167650000000071
 20
93.24370000000002
 30
0.0
 11
2.093240000000071
 21
92.77910000000003
 31
0.0
  0
LINE
  5
117
  8
0
 10
4.058106600000036
 20
70.95253000000002
 30
0.0
 11
4.475656599999985
 21
71.16483
 31
0.0
  0
LINE
  5
118
  8
0
 10
2.093240000000071
 20
92.77910000000003
 30
0.0
 11
2.167650000000071
 21
92.31630000000004
 31
0.0
  0
LINE
  5
119
  8
0
 10
4.475656599999985
 20
71.16483
 30
0.0
 11
4.80775660000001
 21
71.49682999999999
 31
0.0
  0
LINE
  5
11B
  8
0
 10
4.80775660000001
 20
71.49682999999999
 30
0.0
 11
5.019986599999987
 21
71.91453000000001
 31
0.0
  0
LINE
  5
11C
  8
0
 10
5.019986599999987
 20
71.91453000000001
 30
0.0
 11
5.094386600000012
 21
72.37733000000003
 31
0.0
  0
LINE
  5
11E
  8
0
 10
5.094386600000012
 20
43.07733000000005
 30
0.0
 11
5.019986599999987
 21
43.54193000000001
 31
0.0
  0
LINE
  5
11F
  8
0
 10
5.019986599999987
 20
43.54193000000001
 30
0.0
 11
4.80775660000001
 21
43.95933000000005
 31
0.0
  0
LINE
  5
121
  8
0
 10
4.80775660000001
 20
43.95933000000005
 30
0.0
 11
4.475656599999985
 21
44.29163000000003
 31
0.0
  0
LINE
  5
123
  8
0
 10
4.475656599999985
 20
44.29163000000003
 30
0.0
 11
4.058106600000036
 21
44.50503000000006
 31
0.0
  0
LINE
  5
124
  8
0
 10
4.058106600000036
 20
44.50503000000006
 30
0.0
 11
3.595086600000007
 21
44.57813000000002
 31
0.0
  0
LINE
  5
125
  8
0
 10
5.020200000000079
 20
93.24370000000002
 30
0.0
 11
4.807970000000074
 21
93.66110000000003
 31
0.0
  0
LINE
  5
126
  8
0
 10
254.2507065999999
 20
49.67507999999998
 30
0.0
 11
253.8337065999999
 21
49.46167999999996
 31
0.0
  0
LINE
  5
127
  8
0
 10
253.8337065999999
 20
49.46167999999996
 30
0.0
 11
253.4997066
 21
49.12938
 31
0.0
  0
LINE
  5
128
  8
0
 10
253.4997066
 20
49.12938
 30
0.0
 11
253.2877066
 21
48.71197999999994
 31
0.0
  0
LINE
  5
129
  8
0
 10
253.2877066
 20
48.71197999999994
 30
0.0
 11
253.2147065999999
 21
48.24737999999998
 31
0.0
  0
LINE
  5
12A
  8
0
 10
253.2147065999999
 20
48.24737999999998
 30
0.0
 11
253.2877066
 21
47.78457999999998
 31
0.0
  0
LINE
  5
12B
  8
0
 10
253.2877066
 20
47.78457999999998
 30
0.0
 11
253.4997066
 21
47.36687999999994
 31
0.0
  0
LINE
  5
12C
  8
0
 10
253.4997066
 20
47.36687999999994
 30
0.0
 11
253.8337065999999
 21
47.03487999999993
 31
0.0
  0
LINE
  5
12D
  8
0
 10
253.8337065999999
 20
47.03487999999993
 30
0.0
 11
254.2507065999999
 21
46.82257999999999
 31
0.0
  0
LINE
  5
12E
  8
0
 10
254.2507065999999
 20
46.82257999999999
 30
0.0
 11
254.7137065999999
 21
46.74807999999999
 31
0.0
  0
LINE
  5
12F
  8
0
 10
254.7137065999999
 20
46.74807999999999
 30
0.0
 11
255.1787065999998
 21
46.82257999999999
 31
0.0
  0
LINE
  5
130
  8
0
 10
255.1787065999998
 20
46.82257999999999
 30
0.0
 11
255.5957066
 21
47.03487999999993
 31
0.0
  0
LINE
  5
131
  8
0
 10
255.5957066
 20
47.03487999999993
 30
0.0
 11
255.9277065999998
 21
47.36687999999994
 31
0.0
  0
LINE
  5
132
  8
0
 10
255.9277065999998
 20
47.36687999999994
 30
0.0
 11
256.1417066
 21
47.78457999999998
 31
0.0
  0
LINE
  5
133
  8
0
 10
256.1417066
 20
47.78457999999998
 30
0.0
 11
256.2147065999999
 21
48.24737999999998
 31
0.0
  0
LINE
  5
134
  8
0
 10
256.2147065999999
 20
48.24737999999998
 30
0.0
 11
256.1417066
 21
48.71197999999994
 31
0.0
  0
LINE
  5
135
  8
0
 10
256.1417066
 20
48.71197999999994
 30
0.0
 11
255.9277065999998
 21
49.12938
 31
0.0
  0
LINE
  5
136
  8
0
 10
255.9277065999998
 20
49.12938
 30
0.0
 11
255.5957066
 21
49.46167999999996
 31
0.0
  0
LINE
  5
137
  8
0
 10
255.5957066
 20
49.46167999999996
 30
0.0
 11
255.1787065999998
 21
49.67507999999998
 31
0.0
  0
LINE
  5
138
  8
0
 10
255.1787065999998
 20
49.67507999999998
 30
0.0
 11
254.7137065999999
 21
49.74817999999995
 31
0.0
  0
LINE
  5
139
  8
0
 10
254.7137065999999
 20
49.74817999999995
 30
0.0
 11
254.2507065999999
 21
49.67507999999998
 31
0.0
  0
LINE
  5
13A
  8
0
 10
2.71336
 20
93.9934
 30
0.0
 11
2.38125
 21
93.6611
 31
0.0
  0
LINE
  5
13B
  8
0
 10
2.38125
 20
93.6611
 30
0.0
 11
2.16765
 21
93.2437
 31
0.0
  0
LINE
  5
13E
  8
0
 10
3.5953
 20
91.2798
 30
0.0
 11
4.05832
 21
91.3543
 31
0.0
  0
LINE
  5
13F
  8
0
 10
4.807970000000003
 20
91.8986
 30
0.0
 11
5.020200000000008
 21
92.3163
 31
0.0
  0
LINE
  5
142
  8
0
 10
2.099999999999945
 20
68.89999999999999
 30
0.0
 11
7.099999999999945
 21
68.89999999999996
 31
0.0
  0
LINE
  5
143
  8
0
 10
0.8009656999999848
 20
69.37979094999996
 30
0.0
 11
0.6852087000000111
 21
69.48589994999996
 31
0.0
  0
LINE
  5
144
  8
0
 10
0.6852087000000111
 20
69.48589994999996
 30
0.0
 11
0.5791006999999482
 21
69.60303194999996
 31
0.0
  0
LINE
  5
145
  8
0
 10
0.5791006999999482
 20
69.60303194999996
 30
0.0
 11
0.4812606999999858
 21
69.72567894999996
 31
0.0
  0
LINE
  5
146
  8
0
 10
0.4812606999999858
 20
69.72567894999996
 30
0.0
 11
0.3944426999999919
 21
69.85659594999994
 31
0.0
  0
LINE
  5
147
  8
0
 10
0.3944426999999919
 20
69.85659594999994
 30
0.0
 11
0.3172736999999657
 21
69.99301594999996
 31
0.0
  0
LINE
  5
148
  8
0
 10
0.3172736999999657
 20
69.99301594999996
 30
0.0
 11
0.2525056999999507
 21
70.13495594999996
 31
0.0
  0
LINE
  5
14A
  8
0
 10
0.2525056999999507
 20
70.13495594999996
 30
0.0
 11
0.1973836999999676
 21
70.28240594999995
 31
0.0
  0
LINE
  5
14C
  8
0
 10
0.1973836999999676
 20
70.28240594999995
 30
0.0
 11
0.1560426999999791
 21
70.43398594999998
 31
0.0
  0
LINE
  5
14E
  8
0
 10
0.1560426999999791
 20
70.43398594999998
 30
0.0
 11
0.1243476999999658
 21
70.58832594999997
 31
0.0
  0
LINE
  5
150
  8
0
 10
0.1243476999999658
 20
70.58832594999997
 30
0.0
 11
0.1064336999999469
 21
70.74404594999994
 31
0.0
  0
LINE
  5
152
  8
0
 10
0.1064336999999469
 20
70.74404594999994
 30
0.0
 11
0.094965758281127
 21
70.89976654630213
 31
0.0
  0
LINE
  5
154
  8
0
 10
2.099999999999945
 20
68.89999999999999
 30
0.0
 11
1.94335669999996
 21
68.90712444999998
 31
0.0
  0
LINE
  5
156
  8
0
 10
1.94335669999996
 20
68.90712444999998
 30
0.0
 11
1.787636699999986
 21
68.92503894999994
 31
0.0
  0
LINE
  5
157
  8
0
 10
1.787636699999986
 20
68.92503894999994
 30
0.0
 11
1.633296699999995
 21
68.95673394999996
 31
0.0
  0
LINE
  5
15A
  8
0
 10
1.633296699999995
 20
68.95673394999996
 30
0.0
 11
1.481716699999971
 21
68.99807494999995
 31
0.0
  0
LINE
  5
15C
  8
0
 10
1.481716699999971
 20
68.99807494999995
 30
0.0
 11
1.334266699999979
 21
69.05319594999996
 31
0.0
  0
LINE
  5
15E
  8
0
 10
1.334266699999979
 20
69.05319594999996
 30
0.0
 11
1.192326700000002
 21
69.11796394999995
 31
0.0
  0
LINE
  5
160
  8
0
 10
1.192326700000002
 20
69.11796394999995
 30
0.0
 11
1.055896699999984
 21
69.19513294999997
 31
0.0
  0
LINE
  5
162
  8
0
 10
1.055896699999984
 20
69.19513294999997
 30
0.0
 11
0.9249887000000072
 21
69.28195194999996
 31
0.0
  0
LINE
  5
163
  8
0
 10
0.9249887000000072
 20
69.28195194999996
 30
0.0
 11
0.8009656999999848
 21
69.37979094999996
 31
0.0
  0
LINE
  5
175
  8
0
 10
2.099767698168165
 20
46.50002136916595
 30
0.0
 11
7.099999999999937
 21
46.5
 31
0.0
  0
LINE
  5
17B
  8
0
 10
0.8002766999999551
 20
46.02105
 30
0.0
 11
0.9242996999999775
 21
46.11875000000004
 31
0.0
  0
LINE
  5
17C
  8
0
 10
0.9242996999999775
 20
46.11875000000004
 30
0.0
 11
1.055207700000011
 21
46.20555000000002
 31
0.0
  0
LINE
  5
17D
  8
0
 10
1.055207700000011
 20
46.20555000000002
 30
0.0
 11
1.191637699999973
 21
46.28285
 31
0.0
  0
LINE
  5
17E
  8
0
 10
1.191637699999973
 20
46.28285
 30
0.0
 11
1.333577700000006
 21
46.34735000000001
 31
0.0
  0
LINE
  5
17F
  8
0
 10
1.333577700000006
 20
46.34735000000001
 30
0.0
 11
1.481027699999942
 21
46.40275000000003
 31
0.0
  0
LINE
  5
180
  8
0
 10
1.481027699999942
 20
46.40275000000003
 30
0.0
 11
1.632607699999966
 21
46.44405000000001
 31
0.0
  0
LINE
  5
181
  8
0
 10
1.632607699999966
 20
46.44405000000001
 30
0.0
 11
1.786947699999956
 21
46.47575000000001
 31
0.0
  0
LINE
  5
182
  8
0
 10
1.786947699999956
 20
46.47575000000001
 30
0.0
 11
1.942667699999987
 21
46.49345
 31
0.0
  0
LINE
  5
183
  8
0
 10
1.942667699999987
 20
46.49345
 30
0.0
 11
2.099767698168165
 21
46.50002136916595
 31
0.0
  0
LINE
  5
184
  8
0
 10
0.0999280860273473
 20
44.49955004461569
 30
0.0
 11
0.105744699999974
 21
44.65655000000001
 31
0.0
  0
LINE
  5
186
  8
0
 10
0.105744699999974
 20
44.65655000000001
 30
0.0
 11
0.1236586999999929
 21
44.81245000000001
 31
0.0
  0
LINE
  5
188
  8
0
 10
0.1236586999999929
 20
44.81245000000001
 30
0.0
 11
0.1553537000000063
 21
44.96655000000001
 31
0.0
  0
LINE
  5
189
  8
0
 10
0.1553537000000063
 20
44.96655000000001
 30
0.0
 11
0.1966946999999948
 21
45.11825000000005
 31
0.0
  0
LINE
  5
18B
  8
0
 10
0.1966946999999948
 20
45.11825000000005
 30
0.0
 11
0.2518166999999778
 21
45.26575000000003
 31
0.0
  0
LINE
  5
18D
  8
0
 10
0.2518166999999778
 20
45.26575000000003
 30
0.0
 11
0.316584699999936
 21
45.40755000000002
 31
0.0
  0
LINE
  5
18F
  8
0
 10
0.316584699999936
 20
45.40755000000002
 30
0.0
 11
0.3937536999999622
 21
45.54405000000003
 31
0.0
  0
LINE
  5
190
  8
0
 10
0.3937536999999622
 20
45.54405000000003
 30
0.0
 11
0.4805716999999561
 21
45.67495000000003
 31
0.0
  0
LINE
  5
191
  8
0
 10
0.4805716999999561
 20
45.67495000000003
 30
0.0
 11
0.5784116999999753
 21
45.79915
 31
0.0
  0
LINE
  5
192
  8
0
 10
0.5784116999999753
 20
45.79915
 30
0.0
 11
0.6845196999999814
 21
45.91485
 31
0.0
  0
LINE
  5
193
  8
0
 10
0.6845196999999814
 20
45.91485
 30
0.0
 11
0.8002766999999551
 21
46.02105
 31
0.0
  0
LINE
  5
194
  8
0
 10
0.0937066
 20
2.07808
 30
0.0
 11
0.0999280860273473
 21
44.49955004461569
 31
0.0
  0
LINE
  5
195
  8
0
 10
7.099999999999937
 20
46.5
 30
0.0
 11
7.099999999999945
 21
68.89999999999996
 31
0.0
  0
ENDSEC
  0
EOF
