999
dxflib 3.2.3.0
  0
SECTION
  2
HEADER
  9
$ACADVER
  1
AC1015
  9
$HANDSEED
  5
FFFF
  9
$DIMADEC
 70
0
  9
$DIMASZ
 40
0.18
  9
$DIMAUNIT
 70
0
  9
$DIMAZIN
 70
0
  9
$DIMDEC
 70
4
  9
$DIMEXE
 40
0.18
  9
$DIMEXO
 40
0.0625
  9
$DIMGAP
 40
0.09
  9
$DIMLUNIT
 70
2
  9
$DIMTSZ
 40
0.0
  9
$DIMTXT
 40
0.18
  9
$DIMZIN
 70
0
  9
$INSUNITS
 70
0
  9
$LTSCALE
 40
1.0
  0
ENDSEC
  0
SECTION
  2
TABLES
  0
TABLE
  2
VPORT
  5
8
100
AcDbSymbolTable
 70
1
  0
VPORT
  5
30
100
AcDbSymbolTableRecord
100
AcDbViewportTableRecord
  2
*Active
 70
0
 10
0.0
 20
0.0
 11
1.0
 21
1.0
 12
286.30555555555549
 22
148.5
 13
0.0
 23
0.0
 14
10.0
 24
10.0
 15
10.0
 25
10.0
 16
0.0
 26
0.0
 36
1.0
 17
0.0
 27
0.0
 37
0.0
 40
297.0
 41
1.92798353909465
 42
50.0
 43
0.0
 44
0.0
 50
0.0
 51
0.0
 71
0
 72
100
 73
1
 74
3
 75
1
 76
1
 77
0
 78
0
281
0
 65
1
110
0.0
120
0.0
130
0.0
111
1.0
121
0.0
131
0.0
112
0.0
122
1.0
132
0.0
 79
0
146
0.0
  0
ENDTAB
  0
TABLE
  2
LTYPE
  5
5
100
AcDbSymbolTable
 70
21
  0
LTYPE
  5
31
100
AcDbSymbolTableRecord
100
AcDbLinetypeTableRecord
  2
CENTER2
 70
0
  3
Center (.5x) ___ _ ___ _ ___ _ ___ _ ___ _ ___
 72
65
 73
4
 40
28.574999999999999
 49
19.050000000000001
 74
0
 49
-3.1749999999999998
 74
0
 49
3.1749999999999998
 74
0
 49
-3.1749999999999998
 74
0
  0
LTYPE
  5
32
100
AcDbSymbolTableRecord
100
AcDbLinetypeTableRecord
  2
DIVIDEX2
 70
0
  3
Divide (2x) ________  .  .  ________  .  .  _
 72
65
 73
6
 40
63.5
 49
25.399999999999999
 74
0
 49
-12.699999999999999
 74
0
 49
0.0
 74
0
 49
-12.699999999999999
 74
0
 49
0.0
 74
0
 49
-12.699999999999999
 74
0
  0
LTYPE
  5
33
100
AcDbSymbolTableRecord
100
AcDbLinetypeTableRecord
  2
DOT2
 70
0
  3
Dot (.5x) .....................................
 72
65
 73
2
 40
3.1749999999999998
 49
0.0
 74
0
 49
-3.1749999999999998
 74
0
  0
LTYPE
  5
34
100
AcDbSymbolTableRecord
100
AcDbLinetypeTableRecord
  2
DASHDOT2
 70
0
  3
Dash dot (.5x) _._._._._._._._._._._._._._._.
 72
65
 73
4
 40
12.699999999999999
 49
6.3499999999999996
 74
0
 49
-3.1749999999999998
 74
0
 49
0.0
 74
0
 49
-3.1749999999999998
 74
0
  0
LTYPE
  5
35
100
AcDbSymbolTableRecord
100
AcDbLinetypeTableRecord
  2
DIVIDE
 70
0
  3
Divide ____ . . ____ . . ____ . . ____ . . ____
 72
65
 73
6
 40
31.75
 49
12.699999999999999
 74
0
 49
-6.3499999999999996
 74
0
 49
0.0
 74
0
 49
-6.3499999999999996
 74
0
 49
0.0
 74
0
 49
-6.3499999999999996
 74
0
  0
LTYPE
  5
36
100
AcDbSymbolTableRecord
100
AcDbLinetypeTableRecord
  2
DASHDOT
 70
0
  3
Dash dot __ . __ . __ . __ . __ . __ . __ . __
 72
65
 73
4
 40
25.399999999999999
 49
12.699999999999999
 74
0
 49
-6.3499999999999996
 74
0
 49
0.0
 74
0
 49
-6.3499999999999996
 74
0
  0
LTYPE
  5
37
100
AcDbSymbolTableRecord
100
AcDbLinetypeTableRecord
  2
BORDER
 70
0
  3
Border __ __ . __ __ . __ __ . __ __ . __ __ .
 72
65
 73
6
 40
44.450000000000003
 49
12.699999999999999
 74
0
 49
-6.3499999999999996
 74
0
 49
12.699999999999999
 74
0
 49
-6.3499999999999996
 74
0
 49
0.0
 74
0
 49
-6.3499999999999996
 74
0
  0
LTYPE
  5
38
100
AcDbSymbolTableRecord
100
AcDbLinetypeTableRecord
  2
DASHDOTX2
 70
0
  3
Dash dot (2x) ____  .  ____  .  ____  .  ___
 72
65
 73
4
 40
50.799999999999997
 49
25.399999999999999
 74
0
 49
-12.699999999999999
 74
0
 49
0.0
 74
0
 49
-12.699999999999999
 74
0
  0
LTYPE
  5
39
100
AcDbSymbolTableRecord
100
AcDbLinetypeTableRecord
  2
CENTERX2
 70
0
  3
Center (2x) ________  __  ________  __  _____
 72
65
 73
4
 40
101.59999999999999
 49
63.5
 74
0
 49
-12.699999999999999
 74
0
 49
12.699999999999999
 74
0
 49
-12.699999999999999
 74
0
  0
LTYPE
  5
3A
100
AcDbSymbolTableRecord
100
AcDbLinetypeTableRecord
  2
BORDER2
 70
0
  3
Border (.5x) __.__.__.__.__.__.__.__.__.__.__.
 72
65
 73
6
 40
22.225000000000001
 49
6.3499999999999996
 74
0
 49
-3.1749999999999998
 74
0
 49
6.3499999999999996
 74
0
 49
-3.1749999999999998
 74
0
 49
0.0
 74
0
 49
-3.1749999999999998
 74
0
  0
LTYPE
  5
3B
100
AcDbSymbolTableRecord
100
AcDbLinetypeTableRecord
  2
BORDERX2
 70
0
  3
Border (2x) ____  ____  .  ____  ____  .  ___
 72
65
 73
6
 40
88.900000000000006
 49
25.399999999999999
 74
0
 49
-12.699999999999999
 74
0
 49
25.399999999999999
 74
0
 49
-12.699999999999999
 74
0
 49
0.0
 74
0
 49
-12.699999999999999
 74
0
  0
LTYPE
  5
16
100
AcDbSymbolTableRecord
100
AcDbLinetypeTableRecord
  2
CONTINUOUS
 70
0
  3
Solid line
 72
65
 73
0
 40
0.0
  0
LTYPE
  5
14
100
AcDbSymbolTableRecord
100
AcDbLinetypeTableRecord
  2
BYBLOCK
 70
0
  3

 72
65
 73
0
 40
0.0
  0
LTYPE
  5
15
100
AcDbSymbolTableRecord
100
AcDbLinetypeTableRecord
  2
BYLAYER
 70
0
  3

 72
65
 73
0
 40
0.0
  0
LTYPE
  5
3C
100
AcDbSymbolTableRecord
100
AcDbLinetypeTableRecord
  2
DASHED2
 70
0
  3
Dashed (.5x) _ _ _ _ _ _ _ _ _ _ _ _ _ _ _ _ _
 72
65
 73
2
 40
9.5250000000000004
 49
6.3499999999999996
 74
0
 49
-3.1749999999999998
 74
0
  0
LTYPE
  5
3D
100
AcDbSymbolTableRecord
100
AcDbLinetypeTableRecord
  2
CENTER
 70
0
  3
Center ____ _ ____ _ ____ _ ____ _ ____ _ ____
 72
65
 73
4
 40
50.799999999999997
 49
31.75
 74
0
 49
-6.3499999999999996
 74
0
 49
6.3499999999999996
 74
0
 49
-6.3499999999999996
 74
0
  0
LTYPE
  5
3E
100
AcDbSymbolTableRecord
100
AcDbLinetypeTableRecord
  2
DIVIDE2
 70
0
  3
Divide (.5x) __..__..__..__..__..__..__..__.._
 72
65
 73
6
 40
15.875
 49
6.3499999999999996
 74
0
 49
-3.1749999999999998
 74
0
 49
0.0
 74
0
 49
-3.1749999999999998
 74
0
 49
0.0
 74
0
 49
-3.1749999999999998
 74
0
  0
LTYPE
  5
3F
100
AcDbSymbolTableRecord
100
AcDbLinetypeTableRecord
  2
DASHED
 70
0
  3
Dashed __ __ __ __ __ __ __ __ __ __ __ __ __ _
 72
65
 73
2
 40
19.050000000000001
 49
12.699999999999999
 74
0
 49
-6.3499999999999996
 74
0
  0
LTYPE
  5
40
100
AcDbSymbolTableRecord
100
AcDbLinetypeTableRecord
  2
DOTX2
 70
0
  3
Dot (2x) .  .  .  .  .  .  .  .  .  .  .  .  .
 72
65
 73
2
 40
12.699999999999999
 49
0.0
 74
0
 49
-12.699999999999999
 74
0
  0
LTYPE
  5
41
100
AcDbSymbolTableRecord
100
AcDbLinetypeTableRecord
  2
DASHEDX2
 70
0
  3
Dashed (2x) ____  ____  ____  ____  ____  ___
 72
65
 73
2
 40
38.100000000000001
 49
25.399999999999999
 74
0
 49
-12.699999999999999
 74
0
  0
LTYPE
  5
42
100
AcDbSymbolTableRecord
100
AcDbLinetypeTableRecord
  2
DOT
 70
0
  3
Dot . . . . . . . . . . . . . . . . . . . . . .
 72
65
 73
2
 40
6.3499999999999996
 49
0.0
 74
0
 49
-6.3499999999999996
 74
0
  0
ENDTAB
  0
TABLE
  2
LAYER
  5
2
100
AcDbSymbolTable
 70
1
  0
LAYER
  5
10
100
AcDbSymbolTableRecord
100
AcDbLayerTableRecord
  2
0
 70
0
 62
7
420
16777215
  6
CONTINUOUS
390
F
  0
ENDTAB
  0
TABLE
  2
STYLE
  5
3
100
AcDbSymbolTable
 70
0
  0
ENDTAB
  0
TABLE
  2
VIEW
  5
6
100
AcDbSymbolTable
 70
0
  0
ENDTAB
  0
TABLE
  2
UCS
  5
7
100
AcDbSymbolTable
 70
0
  0
ENDTAB
  0
TABLE
  2
APPID
  5
9
100
AcDbSymbolTable
 70
1
  0
APPID
  5
43
100
AcDbSymbolTableRecord
100
AcDbRegAppTableRecord
  2
QCAD
 70
0
  0
ENDTAB
  0
TABLE
  2
DIMSTYLE
  5
A
100
AcDbSymbolTable
 70
1
100
AcDbDimStyleTable
 71
0
  0
DIMSTYLE
105
27
100
AcDbSymbolTableRecord
100
AcDbDimStyleTableRecord
  2
Standard
 41
0.18
 42
0.0625
 43
3.75
 44
0.18
 70
0
 73
0
 74
0
 77
1
 78
8
140
0.18
141
2.5
143
0.03937007874016
147
0.09
171
3
172
1
271
2
272
2
274
3
278
44
283
0
284
8
340
11
  0
ENDTAB
  0
TABLE
  2
BLOCK_RECORD
  5
1
100
AcDbSymbolTable
 70
1
  0
BLOCK_RECORD
  5
1F
100
AcDbSymbolTableRecord
100
AcDbBlockTableRecord
  2
*Model_Space
340
22
  0
BLOCK_RECORD
  5
1B
100
AcDbSymbolTableRecord
100
AcDbBlockTableRecord
  2
*Paper_Space
340
1E
  0
BLOCK_RECORD
  5
23
100
AcDbSymbolTableRecord
100
AcDbBlockTableRecord
  2
*Paper_Space0
340
26
  0
BLOCK_RECORD
  5
44
100
AcDbSymbolTableRecord
100
AcDbBlockTableRecord
  2
*Model_Space
340
0
  0
BLOCK_RECORD
  5
45
100
AcDbSymbolTableRecord
100
AcDbBlockTableRecord
  2
_Model_Space
340
0
  0
BLOCK_RECORD
  5
46
100
AcDbSymbolTableRecord
100
AcDbBlockTableRecord
  2
_Paper_Space
340
0
  0
ENDTAB
  0
ENDSEC
  0
SECTION
  2
BLOCKS
  0
BLOCK
  5
20
100
AcDbEntity
  8
0
100
AcDbBlockBegin
  2
*Model_Space
 70
0
 10
0.0
 20
0.0
 30
0.0
  3
*Model_Space
  1

  0
BLOCK
  5
47
100
AcDbEntity
  8
0
100
AcDbBlockBegin
  2
_Model_Space
 70
0
 10
0.0
 20
0.0
 30
0.0
  3
_Model_Space
  1

  0
LINE
  5
48
100
AcDbEntity
100
AcDbLine
  8
0
 62
256
370
-1
  6
BYLAYER
 10
251.21899999999999
 20
89.280299999999997
 30
0.0
 11
7.09415
 21
89.280299999999997
 31
0.0
  0
LINE
  5
49
100
AcDbEntity
100
AcDbLine
  8
0
 62
256
370
-1
  6
BYLAYER
 10
7.09415
 20
7.0789799999999996
 30
0.0
 11
251.21899999999999
 21
7.0789799999999996
 31
0.0
  0
LINE
  5
4A
100
AcDbEntity
100
AcDbLine
  8
0
 62
0
370
-1
  6
BYLAYER
 10
251.21899999999999
 20
7.0789799999999996
 30
0.0
 11
251.21899999999999
 21
89.280299999999997
 31
0.0
  0
LINE
  5
4B
100
AcDbEntity
100
AcDbLine
  8
0
 62
0
370
-1
  6
BYLAYER
 10
256.22000000000003
 20
96.279399999999995
 30
0.0
 11
256.37599999999998
 21
96.273799999999994
 31
0.0
  0
LINE
  5
4C
100
AcDbEntity
100
AcDbLine
  8
0
 62
0
370
-1
  6
BYLAYER
 10
256.37599999999998
 20
96.273799999999994
 30
0.0
 11
256.53300000000002
 21
96.256100000000004
 31
0.0
  0
LINE
  5
4D
100
AcDbEntity
100
AcDbLine
  8
0
 62
0
370
-1
  6
BYLAYER
 10
256.53300000000002
 20
96.256100000000004
 30
0.0
 11
256.68599999999998
 21
96.224400000000003
 31
0.0
  0
LINE
  5
4E
100
AcDbEntity
100
AcDbLine
  8
0
 62
0
370
-1
  6
BYLAYER
 10
256.68599999999998
 20
96.224400000000003
 30
0.0
 11
256.839
 21
96.183099999999996
 31
0.0
  0
LINE
  5
4F
100
AcDbEntity
100
AcDbLine
  8
0
 62
0
370
-1
  6
BYLAYER
 10
256.839
 20
96.183099999999996
 30
0.0
 11
256.98599999999999
 21
96.127700000000004
 31
0.0
  0
LINE
  5
50
100
AcDbEntity
100
AcDbLine
  8
0
 62
0
370
-1
  6
BYLAYER
 10
256.98599999999999
 20
96.127700000000004
 30
0.0
 11
257.12799999999999
 21
96.063199999999995
 31
0.0
  0
LINE
  5
51
100
AcDbEntity
100
AcDbLine
  8
0
 62
0
370
-1
  6
BYLAYER
 10
257.12799999999999
 20
96.063199999999995
 30
0.0
 11
257.26499999999999
 21
95.985900000000001
 31
0.0
  0
LINE
  5
52
100
AcDbEntity
100
AcDbLine
  8
0
 62
0
370
-1
  6
BYLAYER
 10
257.26499999999999
 20
95.985900000000001
 30
0.0
 11
257.39499999999998
 21
95.899100000000004
 31
0.0
  0
LINE
  5
53
100
AcDbEntity
100
AcDbLine
  8
0
 62
0
370
-1
  6
BYLAYER
 10
257.39499999999998
 20
95.899100000000004
 30
0.0
 11
257.51799999999997
 21
95.801400000000001
 31
0.0
  0
LINE
  5
54
100
AcDbEntity
100
AcDbLine
  8
0
 62
0
370
-1
  6
BYLAYER
 10
257.51799999999997
 20
95.801400000000001
 30
0.0
 11
257.63499999999999
 21
95.6952
 31
0.0
  0
LINE
  5
55
100
AcDbEntity
100
AcDbLine
  8
0
 62
0
370
-1
  6
BYLAYER
 10
257.63499999999999
 20
95.6952
 30
0.0
 11
257.74099999999999
 21
95.579499999999996
 31
0.0
  0
LINE
  5
56
100
AcDbEntity
100
AcDbLine
  8
0
 62
0
370
-1
  6
BYLAYER
 10
257.74099999999999
 20
95.579499999999996
 30
0.0
 11
257.839
 21
95.455299999999994
 31
0.0
  0
LINE
  5
57
100
AcDbEntity
100
AcDbLine
  8
0
 62
0
370
-1
  6
BYLAYER
 10
257.839
 20
95.455299999999994
 30
0.0
 11
257.92599999999999
 21
95.324399999999997
 31
0.0
  0
LINE
  5
58
100
AcDbEntity
100
AcDbLine
  8
0
 62
0
370
-1
  6
BYLAYER
 10
257.92599999999999
 20
95.324399999999997
 30
0.0
 11
258.00299999999999
 21
95.187899999999999
 31
0.0
  0
LINE
  5
59
100
AcDbEntity
100
AcDbLine
  8
0
 62
0
370
-1
  6
BYLAYER
 10
258.00299999999999
 20
95.187899999999999
 30
0.0
 11
258.06799999999998
 21
95.046099999999996
 31
0.0
  0
LINE
  5
5A
100
AcDbEntity
100
AcDbLine
  8
0
 62
0
370
-1
  6
BYLAYER
 10
258.06799999999998
 20
95.046099999999996
 30
0.0
 11
258.12299999999999
 21
94.898600000000002
 31
0.0
  0
LINE
  5
5B
100
AcDbEntity
100
AcDbLine
  8
0
 62
0
370
-1
  6
BYLAYER
 10
258.12299999999999
 20
94.898600000000002
 30
0.0
 11
258.16500000000002
 21
94.746899999999997
 31
0.0
  0
LINE
  5
5C
100
AcDbEntity
100
AcDbLine
  8
0
 62
0
370
-1
  6
BYLAYER
 10
258.16500000000002
 20
94.746899999999997
 30
0.0
 11
258.19600000000003
 21
94.592799999999997
 31
0.0
  0
LINE
  5
5D
100
AcDbEntity
100
AcDbLine
  8
0
 62
0
370
-1
  6
BYLAYER
 10
258.19600000000003
 20
94.592799999999997
 30
0.0
 11
258.214
 21
94.436899999999994
 31
0.0
  0
LINE
  5
5E
100
AcDbEntity
100
AcDbLine
  8
0
 62
0
370
-1
  6
BYLAYER
 10
258.214
 20
94.436899999999994
 30
0.0
 11
258.221
 21
94.279899999999998
 31
0.0
  0
LINE
  5
5F
100
AcDbEntity
100
AcDbLine
  8
0
 62
0
370
-1
  6
BYLAYER
 10
258.221
 20
94.279899999999998
 30
0.0
 11
258.221
 21
2.0780799999999999
 31
0.0
  0
LINE
  5
60
100
AcDbEntity
100
AcDbLine
  8
0
 62
0
370
-1
  6
BYLAYER
 10
258.221
 20
2.0780799999999999
 30
0.0
 11
258.214
 21
1.9223600000000001
 31
0.0
  0
LINE
  5
61
100
AcDbEntity
100
AcDbLine
  8
0
 62
0
370
-1
  6
BYLAYER
 10
258.214
 20
1.9223600000000001
 30
0.0
 11
258.19600000000003
 21
1.76664
 31
0.0
  0
LINE
  5
62
100
AcDbEntity
100
AcDbLine
  8
0
 62
0
370
-1
  6
BYLAYER
 10
258.19600000000003
 20
1.76664
 30
0.0
 11
258.16500000000002
 21
1.6123000000000001
 31
0.0
  0
LINE
  5
63
100
AcDbEntity
100
AcDbLine
  8
0
 62
0
370
-1
  6
BYLAYER
 10
258.16500000000002
 20
1.6123000000000001
 30
0.0
 11
258.12299999999999
 21
1.46072
 31
0.0
  0
LINE
  5
64
100
AcDbEntity
100
AcDbLine
  8
0
 62
0
370
-1
  6
BYLAYER
 10
258.12299999999999
 20
1.46072
 30
0.0
 11
258.06799999999998
 21
1.3132699999999999
 31
0.0
  0
LINE
  5
65
100
AcDbEntity
100
AcDbLine
  8
0
 62
0
370
-1
  6
BYLAYER
 10
258.06799999999998
 20
1.3132699999999999
 30
0.0
 11
258.00299999999999
 21
1.17133
 31
0.0
  0
LINE
  5
66
100
AcDbEntity
100
AcDbLine
  8
0
 62
0
370
-1
  6
BYLAYER
 10
258.00299999999999
 20
1.17133
 30
0.0
 11
257.92599999999999
 21
1.03491
 31
0.0
  0
LINE
  5
67
100
AcDbEntity
100
AcDbLine
  8
0
 62
0
370
-1
  6
BYLAYER
 10
257.92599999999999
 20
1.03491
 30
0.0
 11
257.839
 21
0.9039930000000001
 31
0.0
  0
LINE
  5
68
100
AcDbEntity
100
AcDbLine
  8
0
 62
0
370
-1
  6
BYLAYER
 10
257.839
 20
0.9039930000000001
 30
0.0
 11
257.74099999999999
 21
0.781346
 31
0.0
  0
LINE
  5
69
100
AcDbEntity
100
AcDbLine
  8
0
 62
0
370
-1
  6
BYLAYER
 10
257.74099999999999
 20
0.781346
 30
0.0
 11
257.63499999999999
 21
0.664214
 31
0.0
  0
LINE
  5
6A
100
AcDbEntity
100
AcDbLine
  8
0
 62
0
370
-1
  6
BYLAYER
 10
257.63499999999999
 20
0.664214
 30
0.0
 11
257.51799999999997
 21
0.558105
 31
0.0
  0
LINE
  5
6B
100
AcDbEntity
100
AcDbLine
  8
0
 62
0
370
-1
  6
BYLAYER
 10
257.51799999999997
 20
0.558105
 30
0.0
 11
257.39499999999998
 21
0.460266
 31
0.0
  0
LINE
  5
6C
100
AcDbEntity
100
AcDbLine
  8
0
 62
0
370
-1
  6
BYLAYER
 10
257.39499999999998
 20
0.460266
 30
0.0
 11
257.26499999999999
 21
0.373447
 31
0.0
  0
LINE
  5
6D
100
AcDbEntity
100
AcDbLine
  8
0
 62
0
370
-1
  6
BYLAYER
 10
257.26499999999999
 20
0.373447
 30
0.0
 11
257.12799999999999
 21
0.296278
 31
0.0
  0
LINE
  5
6E
100
AcDbEntity
100
AcDbLine
  8
0
 62
0
370
-1
  6
BYLAYER
 10
257.12799999999999
 20
0.296278
 30
0.0
 11
256.98599999999999
 21
0.23151
 31
0.0
  0
LINE
  5
6F
100
AcDbEntity
100
AcDbLine
  8
0
 62
0
370
-1
  6
BYLAYER
 10
256.98599999999999
 20
0.23151
 30
0.0
 11
256.839
 21
0.176389
 31
0.0
  0
LINE
  5
70
100
AcDbEntity
100
AcDbLine
  8
0
 62
0
370
-1
  6
BYLAYER
 10
256.839
 20
0.176389
 30
0.0
 11
256.68599999999998
 21
0.135048
 31
0.0
  0
LINE
  5
71
100
AcDbEntity
100
AcDbLine
  8
0
 62
0
370
-1
  6
BYLAYER
 10
256.68599999999998
 20
0.135048
 30
0.0
 11
256.53300000000002
 21
0.103353
 31
0.0
  0
LINE
  5
72
100
AcDbEntity
100
AcDbLine
  8
0
 62
0
370
-1
  6
BYLAYER
 10
256.53300000000002
 20
0.103353
 30
0.0
 11
256.37599999999998
 21
0.0854385
 31
0.0
  0
LINE
  5
73
100
AcDbEntity
100
AcDbLine
  8
0
 62
0
370
-1
  6
BYLAYER
 10
256.37599999999998
 20
0.0854385
 30
0.0
 11
256.22000000000003
 21
0.0799264
 31
0.0
  0
LINE
  5
74
100
AcDbEntity
100
AcDbLine
  8
0
 62
256
370
-1
  6
BYLAYER
 10
256.22000000000003
 20
0.0799264
 30
0.0
 11
2.0946199999999999
 21
0.0785481
 31
0.0
  0
LINE
  5
75
100
AcDbEntity
100
AcDbLine
  8
0
 62
256
370
-1
  6
BYLAYER
 10
2.0946199999999999
 20
0.0785481
 30
0.0
 11
1.9375199999999999
 21
0.0854385
 31
0.0
  0
LINE
  5
76
100
AcDbEntity
100
AcDbLine
  8
0
 62
256
370
-1
  6
BYLAYER
 10
1.9375199999999999
 20
0.0854385
 30
0.0
 11
1.7818000000000001
 21
0.103353
 31
0.0
  0
LINE
  5
77
100
AcDbEntity
100
AcDbLine
  8
0
 62
256
370
-1
  6
BYLAYER
 10
1.7818000000000001
 20
0.103353
 30
0.0
 11
1.6274599999999999
 21
0.135048
 31
0.0
  0
LINE
  5
78
100
AcDbEntity
100
AcDbLine
  8
0
 62
256
370
-1
  6
BYLAYER
 10
1.6274599999999999
 20
0.135048
 30
0.0
 11
1.4758800000000001
 21
0.176389
 31
0.0
  0
LINE
  5
79
100
AcDbEntity
100
AcDbLine
  8
0
 62
256
370
-1
  6
BYLAYER
 10
1.4758800000000001
 20
0.176389
 30
0.0
 11
1.32843
 21
0.23151
 31
0.0
  0
LINE
  5
7A
100
AcDbEntity
100
AcDbLine
  8
0
 62
256
370
-1
  6
BYLAYER
 10
1.32843
 20
0.23151
 30
0.0
 11
1.18649
 21
0.296278
 31
0.0
  0
LINE
  5
7B
100
AcDbEntity
100
AcDbLine
  8
0
 62
256
370
-1
  6
BYLAYER
 10
1.18649
 20
0.296278
 30
0.0
 11
1.05006
 21
0.373447
 31
0.0
  0
LINE
  5
7C
100
AcDbEntity
100
AcDbLine
  8
0
 62
256
370
-1
  6
BYLAYER
 10
1.05006
 20
0.373447
 30
0.0
 11
0.919152
 21
0.460266
 31
0.0
  0
LINE
  5
7D
100
AcDbEntity
100
AcDbLine
  8
0
 62
256
370
-1
  6
BYLAYER
 10
0.919152
 20
0.460266
 30
0.0
 11
0.795129
 21
0.558105
 31
0.0
  0
LINE
  5
7E
100
AcDbEntity
100
AcDbLine
  8
0
 62
256
370
-1
  6
BYLAYER
 10
0.795129
 20
0.558105
 30
0.0
 11
0.679372
 21
0.664214
 31
0.0
  0
LINE
  5
7F
100
AcDbEntity
100
AcDbLine
  8
0
 62
256
370
-1
  6
BYLAYER
 10
0.679372
 20
0.664214
 30
0.0
 11
0.573264
 21
0.781346
 31
0.0
  0
LINE
  5
80
100
AcDbEntity
100
AcDbLine
  8
0
 62
256
370
-1
  6
BYLAYER
 10
0.573264
 20
0.781346
 30
0.0
 11
0.475424
 21
0.9039930000000001
 31
0.0
  0
LINE
  5
81
100
AcDbEntity
100
AcDbLine
  8
0
 62
256
370
-1
  6
BYLAYER
 10
0.475424
 20
0.9039930000000001
 30
0.0
 11
0.388606
 21
1.03491
 31
0.0
  0
LINE
  5
82
100
AcDbEntity
100
AcDbLine
  8
0
 62
256
370
-1
  6
BYLAYER
 10
0.388606
 20
1.03491
 30
0.0
 11
0.311437
 21
1.17133
 31
0.0
  0
LINE
  5
83
100
AcDbEntity
100
AcDbLine
  8
0
 62
256
370
-1
  6
BYLAYER
 10
0.311437
 20
1.17133
 30
0.0
 11
0.246669
 21
1.3132699999999999
 31
0.0
  0
LINE
  5
84
100
AcDbEntity
100
AcDbLine
  8
0
 62
256
370
-1
  6
BYLAYER
 10
0.246669
 20
1.3132699999999999
 30
0.0
 11
0.191547
 21
1.46072
 31
0.0
  0
LINE
  5
85
100
AcDbEntity
100
AcDbLine
  8
0
 62
256
370
-1
  6
BYLAYER
 10
0.191547
 20
1.46072
 30
0.0
 11
0.150206
 21
1.6123000000000001
 31
0.0
  0
LINE
  5
86
100
AcDbEntity
100
AcDbLine
  8
0
 62
256
370
-1
  6
BYLAYER
 10
0.150206
 20
1.6123000000000001
 30
0.0
 11
0.118511
 21
1.76664
 31
0.0
  0
LINE
  5
87
100
AcDbEntity
100
AcDbLine
  8
0
 62
256
370
-1
  6
BYLAYER
 10
0.118511
 20
1.76664
 30
0.0
 11
0.100597
 21
1.9223600000000001
 31
0.0
  0
LINE
  5
88
100
AcDbEntity
100
AcDbLine
  8
0
 62
256
370
-1
  6
BYLAYER
 10
0.100597
 20
1.9223600000000001
 30
0.0
 11
0.0937066
 21
2.0780799999999999
 31
0.0
  0
LINE
  5
89
100
AcDbEntity
100
AcDbLine
  8
0
 62
256
370
-1
  6
BYLAYER
 10
0.0950846
 20
94.279899999999998
 30
0.0
 11
0.100597
 21
94.436899999999994
 31
0.0
  0
LINE
  5
8A
100
AcDbEntity
100
AcDbLine
  8
0
 62
256
370
-1
  6
BYLAYER
 10
0.100597
 20
94.436899999999994
 30
0.0
 11
0.118511
 21
94.592799999999997
 31
0.0
  0
LINE
  5
8B
100
AcDbEntity
100
AcDbLine
  8
0
 62
256
370
-1
  6
BYLAYER
 10
0.118511
 20
94.592799999999997
 30
0.0
 11
0.150206
 21
94.746899999999997
 31
0.0
  0
LINE
  5
8C
100
AcDbEntity
100
AcDbLine
  8
0
 62
256
370
-1
  6
BYLAYER
 10
0.150206
 20
94.746899999999997
 30
0.0
 11
0.191547
 21
94.898600000000002
 31
0.0
  0
LINE
  5
8D
100
AcDbEntity
100
AcDbLine
  8
0
 62
256
370
-1
  6
BYLAYER
 10
0.191547
 20
94.898600000000002
 30
0.0
 11
0.246669
 21
95.046099999999996
 31
0.0
  0
LINE
  5
8E
100
AcDbEntity
100
AcDbLine
  8
0
 62
256
370
-1
  6
BYLAYER
 10
0.246669
 20
95.046099999999996
 30
0.0
 11
0.311437
 21
95.187899999999999
 31
0.0
  0
LINE
  5
8F
100
AcDbEntity
100
AcDbLine
  8
0
 62
256
370
-1
  6
BYLAYER
 10
0.311437
 20
95.187899999999999
 30
0.0
 11
0.388606
 21
95.324399999999997
 31
0.0
  0
LINE
  5
90
100
AcDbEntity
100
AcDbLine
  8
0
 62
256
370
-1
  6
BYLAYER
 10
0.388606
 20
95.324399999999997
 30
0.0
 11
0.475424
 21
95.455299999999994
 31
0.0
  0
LINE
  5
91
100
AcDbEntity
100
AcDbLine
  8
0
 62
256
370
-1
  6
BYLAYER
 10
0.475424
 20
95.455299999999994
 30
0.0
 11
0.573264
 21
95.579499999999996
 31
0.0
  0
LINE
  5
92
100
AcDbEntity
100
AcDbLine
  8
0
 62
256
370
-1
  6
BYLAYER
 10
0.573264
 20
95.579499999999996
 30
0.0
 11
0.679372
 21
95.6952
 31
0.0
  0
LINE
  5
93
100
AcDbEntity
100
AcDbLine
  8
0
 62
256
370
-1
  6
BYLAYER
 10
0.679372
 20
95.6952
 30
0.0
 11
0.795129
 21
95.801400000000001
 31
0.0
  0
LINE
  5
94
100
AcDbEntity
100
AcDbLine
  8
0
 62
256
370
-1
  6
BYLAYER
 10
0.795129
 20
95.801400000000001
 30
0.0
 11
0.919152
 21
95.899100000000004
 31
0.0
  0
LINE
  5
95
100
AcDbEntity
100
AcDbLine
  8
0
 62
256
370
-1
  6
BYLAYER
 10
0.919152
 20
95.899100000000004
 30
0.0
 11
1.05006
 21
95.985900000000001
 31
0.0
  0
LINE
  5
96
100
AcDbEntity
100
AcDbLine
  8
0
 62
256
370
-1
  6
BYLAYER
 10
1.05006
 20
95.985900000000001
 30
0.0
 11
1.18649
 21
96.063199999999995
 31
0.0
  0
LINE
  5
97
100
AcDbEntity
100
AcDbLine
  8
0
 62
256
370
-1
  6
BYLAYER
 10
1.18649
 20
96.063199999999995
 30
0.0
 11
1.32843
 21
96.127700000000004
 31
0.0
  0
LINE
  5
98
100
AcDbEntity
100
AcDbLine
  8
0
 62
256
370
-1
  6
BYLAYER
 10
1.32843
 20
96.127700000000004
 30
0.0
 11
1.4758800000000001
 21
96.183099999999996
 31
0.0
  0
LINE
  5
99
100
AcDbEntity
100
AcDbLine
  8
0
 62
256
370
-1
  6
BYLAYER
 10
1.4758800000000001
 20
96.183099999999996
 30
0.0
 11
1.6274599999999999
 21
96.224400000000003
 31
0.0
  0
LINE
  5
9A
100
AcDbEntity
100
AcDbLine
  8
0
 62
256
370
-1
  6
BYLAYER
 10
1.6274599999999999
 20
96.224400000000003
 30
0.0
 11
1.7818000000000001
 21
96.256100000000004
 31
0.0
  0
LINE
  5
9B
100
AcDbEntity
100
AcDbLine
  8
0
 62
256
370
-1
  6
BYLAYER
 10
1.7818000000000001
 20
96.256100000000004
 30
0.0
 11
1.9375199999999999
 21
96.273799999999994
 31
0.0
  0
LINE
  5
9C
100
AcDbEntity
100
AcDbLine
  8
0
 62
256
370
-1
  6
BYLAYER
 10
1.9375199999999999
 20
96.273799999999994
 30
0.0
 11
2.0946199999999999
 21
96.280799999999999
 31
0.0
  0
LINE
  5
9D
100
AcDbEntity
100
AcDbLine
  8
0
 62
256
370
-1
  6
BYLAYER
 10
2.0946199999999999
 20
96.280799999999999
 30
0.0
 11
256.22000000000003
 21
96.279399999999995
 31
0.0
  0
LINE
  5
9E
100
AcDbEntity
100
AcDbLine
  8
0
 62
0
370
-1
  6
BYLAYER
 10
254.256
 20
5.0064099999999998
 30
0.0
 11
253.839
 21
4.7927999999999997
 31
0.0
  0
LINE
  5
9F
100
AcDbEntity
100
AcDbLine
  8
0
 62
0
370
-1
  6
BYLAYER
 10
253.839
 20
4.7927999999999997
 30
0.0
 11
253.505
 21
4.4607000000000001
 31
0.0
  0
LINE
  5
A0
100
AcDbEntity
100
AcDbLine
  8
0
 62
0
370
-1
  6
BYLAYER
 10
253.505
 20
4.4607000000000001
 30
0.0
 11
253.29300000000001
 21
4.0431499999999998
 31
0.0
  0
LINE
  5
A1
100
AcDbEntity
100
AcDbLine
  8
0
 62
0
370
-1
  6
BYLAYER
 10
253.29300000000001
 20
4.0431499999999998
 30
0.0
 11
253.22
 21
3.5787499999999999
 31
0.0
  0
LINE
  5
A2
100
AcDbEntity
100
AcDbLine
  8
0
 62
0
370
-1
  6
BYLAYER
 10
253.22
 20
3.5787499999999999
 30
0.0
 11
253.29300000000001
 21
3.1157400000000002
 31
0.0
  0
LINE
  5
A3
100
AcDbEntity
100
AcDbLine
  8
0
 62
0
370
-1
  6
BYLAYER
 10
253.29300000000001
 20
3.1157400000000002
 30
0.0
 11
253.505
 21
2.6981999999999999
 31
0.0
  0
LINE
  5
A4
100
AcDbEntity
100
AcDbLine
  8
0
 62
0
370
-1
  6
BYLAYER
 10
253.505
 20
2.6981999999999999
 30
0.0
 11
253.839
 21
2.3660899999999998
 31
0.0
  0
LINE
  5
A5
100
AcDbEntity
100
AcDbLine
  8
0
 62
0
370
-1
  6
BYLAYER
 10
253.839
 20
2.3660899999999998
 30
0.0
 11
254.256
 21
2.1524899999999998
 31
0.0
  0
LINE
  5
A6
100
AcDbEntity
100
AcDbLine
  8
0
 62
0
370
-1
  6
BYLAYER
 10
254.256
 20
2.1524899999999998
 30
0.0
 11
254.71899999999999
 21
2.0780799999999999
 31
0.0
  0
LINE
  5
A7
100
AcDbEntity
100
AcDbLine
  8
0
 62
0
370
-1
  6
BYLAYER
 10
254.71899999999999
 20
2.0780799999999999
 30
0.0
 11
255.184
 21
2.1524899999999998
 31
0.0
  0
LINE
  5
A8
100
AcDbEntity
100
AcDbLine
  8
0
 62
0
370
-1
  6
BYLAYER
 10
255.184
 20
2.1524899999999998
 30
0.0
 11
255.601
 21
2.3660899999999998
 31
0.0
  0
LINE
  5
A9
100
AcDbEntity
100
AcDbLine
  8
0
 62
0
370
-1
  6
BYLAYER
 10
255.601
 20
2.3660899999999998
 30
0.0
 11
255.93299999999999
 21
2.6981999999999999
 31
0.0
  0
LINE
  5
AA
100
AcDbEntity
100
AcDbLine
  8
0
 62
0
370
-1
  6
BYLAYER
 10
255.93299999999999
 20
2.6981999999999999
 30
0.0
 11
256.14699999999999
 21
3.1157400000000002
 31
0.0
  0
LINE
  5
AB
100
AcDbEntity
100
AcDbLine
  8
0
 62
0
370
-1
  6
BYLAYER
 10
256.14699999999999
 20
3.1157400000000002
 30
0.0
 11
256.22000000000003
 21
3.5787499999999999
 31
0.0
  0
LINE
  5
AC
100
AcDbEntity
100
AcDbLine
  8
0
 62
0
370
-1
  6
BYLAYER
 10
256.22000000000003
 20
3.5787499999999999
 30
0.0
 11
256.14699999999999
 21
4.0431499999999998
 31
0.0
  0
LINE
  5
AD
100
AcDbEntity
100
AcDbLine
  8
0
 62
0
370
-1
  6
BYLAYER
 10
256.14699999999999
 20
4.0431499999999998
 30
0.0
 11
255.93299999999999
 21
4.4607000000000001
 31
0.0
  0
LINE
  5
AE
100
AcDbEntity
100
AcDbLine
  8
0
 62
0
370
-1
  6
BYLAYER
 10
255.93299999999999
 20
4.4607000000000001
 30
0.0
 11
255.601
 21
4.7927999999999997
 31
0.0
  0
LINE
  5
AF
100
AcDbEntity
100
AcDbLine
  8
0
 62
0
370
-1
  6
BYLAYER
 10
255.601
 20
4.7927999999999997
 30
0.0
 11
255.184
 21
5.0064099999999998
 31
0.0
  0
LINE
  5
B0
100
AcDbEntity
100
AcDbLine
  8
0
 62
0
370
-1
  6
BYLAYER
 10
255.184
 20
5.0064099999999998
 30
0.0
 11
254.71899999999999
 21
5.0780599999999998
 31
0.0
  0
LINE
  5
B1
100
AcDbEntity
100
AcDbLine
  8
0
 62
0
370
-1
  6
BYLAYER
 10
254.71899999999999
 20
5.0780599999999998
 30
0.0
 11
254.256
 21
5.0064099999999998
 31
0.0
  0
LINE
  5
B2
100
AcDbEntity
100
AcDbLine
  8
0
 62
0
370
-1
  6
BYLAYER
 10
128.69399999999999
 20
5.0064099999999998
 30
0.0
 11
128.27600000000001
 21
4.7927999999999997
 31
0.0
  0
LINE
  5
B3
100
AcDbEntity
100
AcDbLine
  8
0
 62
0
370
-1
  6
BYLAYER
 10
128.27600000000001
 20
4.7927999999999997
 30
0.0
 11
127.944
 21
4.4607000000000001
 31
0.0
  0
LINE
  5
B4
100
AcDbEntity
100
AcDbLine
  8
0
 62
0
370
-1
  6
BYLAYER
 10
127.944
 20
4.4607000000000001
 30
0.0
 11
127.73
 21
4.0431499999999998
 31
0.0
  0
LINE
  5
B5
100
AcDbEntity
100
AcDbLine
  8
0
 62
0
370
-1
  6
BYLAYER
 10
127.73
 20
4.0431499999999998
 30
0.0
 11
127.657
 21
3.5787499999999999
 31
0.0
  0
LINE
  5
B6
100
AcDbEntity
100
AcDbLine
  8
0
 62
0
370
-1
  6
BYLAYER
 10
127.657
 20
3.5787499999999999
 30
0.0
 11
127.73
 21
3.1157400000000002
 31
0.0
  0
LINE
  5
B7
100
AcDbEntity
100
AcDbLine
  8
0
 62
0
370
-1
  6
BYLAYER
 10
127.73
 20
3.1157400000000002
 30
0.0
 11
127.944
 21
2.6981999999999999
 31
0.0
  0
LINE
  5
B8
100
AcDbEntity
100
AcDbLine
  8
0
 62
0
370
-1
  6
BYLAYER
 10
127.944
 20
2.6981999999999999
 30
0.0
 11
128.27600000000001
 21
2.3660899999999998
 31
0.0
  0
LINE
  5
B9
100
AcDbEntity
100
AcDbLine
  8
0
 62
0
370
-1
  6
BYLAYER
 10
128.27600000000001
 20
2.3660899999999998
 30
0.0
 11
128.69399999999999
 21
2.1524899999999998
 31
0.0
  0
LINE
  5
BA
100
AcDbEntity
100
AcDbLine
  8
0
 62
0
370
-1
  6
BYLAYER
 10
128.69399999999999
 20
2.1524899999999998
 30
0.0
 11
129.15799999999999
 21
2.0780799999999999
 31
0.0
  0
LINE
  5
BB
100
AcDbEntity
100
AcDbLine
  8
0
 62
0
370
-1
  6
BYLAYER
 10
129.15799999999999
 20
2.0780799999999999
 30
0.0
 11
129.62100000000001
 21
2.1524899999999998
 31
0.0
  0
LINE
  5
BC
100
AcDbEntity
100
AcDbLine
  8
0
 62
0
370
-1
  6
BYLAYER
 10
129.62100000000001
 20
2.1524899999999998
 30
0.0
 11
130.03800000000001
 21
2.3660899999999998
 31
0.0
  0
LINE
  5
BD
100
AcDbEntity
100
AcDbLine
  8
0
 62
0
370
-1
  6
BYLAYER
 10
130.03800000000001
 20
2.3660899999999998
 30
0.0
 11
130.37100000000001
 21
2.6981999999999999
 31
0.0
  0
LINE
  5
BE
100
AcDbEntity
100
AcDbLine
  8
0
 62
0
370
-1
  6
BYLAYER
 10
130.37100000000001
 20
2.6981999999999999
 30
0.0
 11
130.584
 21
3.1157400000000002
 31
0.0
  0
LINE
  5
BF
100
AcDbEntity
100
AcDbLine
  8
0
 62
0
370
-1
  6
BYLAYER
 10
130.584
 20
3.1157400000000002
 30
0.0
 11
130.65700000000001
 21
3.5787499999999999
 31
0.0
  0
LINE
  5
C0
100
AcDbEntity
100
AcDbLine
  8
0
 62
0
370
-1
  6
BYLAYER
 10
130.65700000000001
 20
3.5787499999999999
 30
0.0
 11
130.584
 21
4.0431499999999998
 31
0.0
  0
LINE
  5
C1
100
AcDbEntity
100
AcDbLine
  8
0
 62
0
370
-1
  6
BYLAYER
 10
130.584
 20
4.0431499999999998
 30
0.0
 11
130.37100000000001
 21
4.4607000000000001
 31
0.0
  0
LINE
  5
C2
100
AcDbEntity
100
AcDbLine
  8
0
 62
0
370
-1
  6
BYLAYER
 10
130.37100000000001
 20
4.4607000000000001
 30
0.0
 11
130.03800000000001
 21
4.7927999999999997
 31
0.0
  0
LINE
  5
C3
100
AcDbEntity
100
AcDbLine
  8
0
 62
0
370
-1
  6
BYLAYER
 10
130.03800000000001
 20
4.7927999999999997
 30
0.0
 11
129.62100000000001
 21
5.0064099999999998
 31
0.0
  0
LINE
  5
C4
100
AcDbEntity
100
AcDbLine
  8
0
 62
0
370
-1
  6
BYLAYER
 10
129.62100000000001
 20
5.0064099999999998
 30
0.0
 11
129.15799999999999
 21
5.0780599999999998
 31
0.0
  0
LINE
  5
C5
100
AcDbEntity
100
AcDbLine
  8
0
 62
0
370
-1
  6
BYLAYER
 10
129.15799999999999
 20
5.0780599999999998
 30
0.0
 11
128.69399999999999
 21
5.0064099999999998
 31
0.0
  0
LINE
  5
C6
100
AcDbEntity
100
AcDbLine
  8
0
 62
256
370
-1
  6
BYLAYER
 10
3.1309
 20
5.0064099999999998
 30
0.0
 11
2.7133600000000002
 21
4.7927999999999997
 31
0.0
  0
LINE
  5
C7
100
AcDbEntity
100
AcDbLine
  8
0
 62
256
370
-1
  6
BYLAYER
 10
2.7133600000000002
 20
4.7927999999999997
 30
0.0
 11
2.3812500000000001
 21
4.4607000000000001
 31
0.0
  0
LINE
  5
C8
100
AcDbEntity
100
AcDbLine
  8
0
 62
256
370
-1
  6
BYLAYER
 10
2.3812500000000001
 20
4.4607000000000001
 30
0.0
 11
2.1676500000000001
 21
4.0431499999999998
 31
0.0
  0
LINE
  5
C9
100
AcDbEntity
100
AcDbLine
  8
0
 62
256
370
-1
  6
BYLAYER
 10
2.1676500000000001
 20
4.0431499999999998
 30
0.0
 11
2.0932400000000002
 21
3.5787499999999999
 31
0.0
  0
LINE
  5
CA
100
AcDbEntity
100
AcDbLine
  8
0
 62
256
370
-1
  6
BYLAYER
 10
2.0932400000000002
 20
3.5787499999999999
 30
0.0
 11
2.1676500000000001
 21
3.1157400000000002
 31
0.0
  0
LINE
  5
CB
100
AcDbEntity
100
AcDbLine
  8
0
 62
256
370
-1
  6
BYLAYER
 10
2.1676500000000001
 20
3.1157400000000002
 30
0.0
 11
2.3812500000000001
 21
2.6981999999999999
 31
0.0
  0
LINE
  5
CC
100
AcDbEntity
100
AcDbLine
  8
0
 62
256
370
-1
  6
BYLAYER
 10
2.3812500000000001
 20
2.6981999999999999
 30
0.0
 11
2.7133600000000002
 21
2.3660899999999998
 31
0.0
  0
LINE
  5
CD
100
AcDbEntity
100
AcDbLine
  8
0
 62
256
370
-1
  6
BYLAYER
 10
2.7133600000000002
 20
2.3660899999999998
 30
0.0
 11
3.1309
 21
2.1524899999999998
 31
0.0
  0
LINE
  5
CE
100
AcDbEntity
100
AcDbLine
  8
0
 62
256
370
-1
  6
BYLAYER
 10
3.1309
 20
2.1524899999999998
 30
0.0
 11
3.5952999999999999
 21
2.0780799999999999
 31
0.0
  0
LINE
  5
CF
100
AcDbEntity
100
AcDbLine
  8
0
 62
256
370
-1
  6
BYLAYER
 10
3.5952999999999999
 20
2.0780799999999999
 30
0.0
 11
4.0583200000000001
 21
2.1524899999999998
 31
0.0
  0
LINE
  5
D0
100
AcDbEntity
100
AcDbLine
  8
0
 62
256
370
-1
  6
BYLAYER
 10
4.0583200000000001
 20
2.1524899999999998
 30
0.0
 11
4.4758699999999996
 21
2.3660899999999998
 31
0.0
  0
LINE
  5
D1
100
AcDbEntity
100
AcDbLine
  8
0
 62
256
370
-1
  6
BYLAYER
 10
4.4758699999999996
 20
2.3660899999999998
 30
0.0
 11
4.8079700000000001
 21
2.6981999999999999
 31
0.0
  0
LINE
  5
D2
100
AcDbEntity
100
AcDbLine
  8
0
 62
256
370
-1
  6
BYLAYER
 10
4.8079700000000001
 20
2.6981999999999999
 30
0.0
 11
5.0202
 21
3.1157400000000002
 31
0.0
  0
LINE
  5
D3
100
AcDbEntity
100
AcDbLine
  8
0
 62
256
370
-1
  6
BYLAYER
 10
5.0202
 20
3.1157400000000002
 30
0.0
 11
5.0945999999999998
 21
3.5787499999999999
 31
0.0
  0
LINE
  5
D4
100
AcDbEntity
100
AcDbLine
  8
0
 62
256
370
-1
  6
BYLAYER
 10
5.0945999999999998
 20
3.5787499999999999
 30
0.0
 11
5.0202
 21
4.0431499999999998
 31
0.0
  0
LINE
  5
D5
100
AcDbEntity
100
AcDbLine
  8
0
 62
256
370
-1
  6
BYLAYER
 10
5.0202
 20
4.0431499999999998
 30
0.0
 11
4.8079700000000001
 21
4.4607000000000001
 31
0.0
  0
LINE
  5
D6
100
AcDbEntity
100
AcDbLine
  8
0
 62
256
370
-1
  6
BYLAYER
 10
4.8079700000000001
 20
4.4607000000000001
 30
0.0
 11
4.4758699999999996
 21
4.7927999999999997
 31
0.0
  0
LINE
  5
D7
100
AcDbEntity
100
AcDbLine
  8
0
 62
256
370
-1
  6
BYLAYER
 10
4.4758699999999996
 20
4.7927999999999997
 30
0.0
 11
4.0583200000000001
 21
5.0064099999999998
 31
0.0
  0
LINE
  5
D8
100
AcDbEntity
100
AcDbLine
  8
0
 62
256
370
-1
  6
BYLAYER
 10
4.0583200000000001
 20
5.0064099999999998
 30
0.0
 11
3.5952999999999999
 21
5.0780599999999998
 31
0.0
  0
LINE
  5
D9
100
AcDbEntity
100
AcDbLine
  8
0
 62
256
370
-1
  6
BYLAYER
 10
3.5952999999999999
 20
5.0780599999999998
 30
0.0
 11
3.1309
 21
5.0064099999999998
 31
0.0
  0
LINE
  5
DA
100
AcDbEntity
100
AcDbLine
  8
0
 62
0
370
-1
  6
BYLAYER
 10
254.256
 20
94.206800000000001
 30
0.0
 11
253.839
 21
93.993399999999994
 31
0.0
  0
LINE
  5
DB
100
AcDbEntity
100
AcDbLine
  8
0
 62
0
370
-1
  6
BYLAYER
 10
253.839
 20
93.993399999999994
 30
0.0
 11
253.505
 21
93.661100000000005
 31
0.0
  0
LINE
  5
DC
100
AcDbEntity
100
AcDbLine
  8
0
 62
0
370
-1
  6
BYLAYER
 10
253.505
 20
93.661100000000005
 30
0.0
 11
253.29300000000001
 21
93.243700000000004
 31
0.0
  0
LINE
  5
DD
100
AcDbEntity
100
AcDbLine
  8
0
 62
0
370
-1
  6
BYLAYER
 10
253.29300000000001
 20
93.243700000000004
 30
0.0
 11
253.22
 21
92.7791
 31
0.0
  0
LINE
  5
DE
100
AcDbEntity
100
AcDbLine
  8
0
 62
0
370
-1
  6
BYLAYER
 10
253.22
 20
92.7791
 30
0.0
 11
253.29300000000001
 21
92.316299999999998
 31
0.0
  0
LINE
  5
DF
100
AcDbEntity
100
AcDbLine
  8
0
 62
0
370
-1
  6
BYLAYER
 10
253.29300000000001
 20
92.316299999999998
 30
0.0
 11
253.505
 21
91.898600000000002
 31
0.0
  0
LINE
  5
E0
100
AcDbEntity
100
AcDbLine
  8
0
 62
0
370
-1
  6
BYLAYER
 10
253.505
 20
91.898600000000002
 30
0.0
 11
253.839
 21
91.566599999999994
 31
0.0
  0
LINE
  5
E1
100
AcDbEntity
100
AcDbLine
  8
0
 62
0
370
-1
  6
BYLAYER
 10
253.839
 20
91.566599999999994
 30
0.0
 11
254.256
 21
91.354299999999995
 31
0.0
  0
LINE
  5
E2
100
AcDbEntity
100
AcDbLine
  8
0
 62
0
370
-1
  6
BYLAYER
 10
254.256
 20
91.354299999999995
 30
0.0
 11
254.71899999999999
 21
91.279799999999994
 31
0.0
  0
LINE
  5
E3
100
AcDbEntity
100
AcDbLine
  8
0
 62
0
370
-1
  6
BYLAYER
 10
254.71899999999999
 20
91.279799999999994
 30
0.0
 11
255.184
 21
91.354299999999995
 31
0.0
  0
LINE
  5
E4
100
AcDbEntity
100
AcDbLine
  8
0
 62
0
370
-1
  6
BYLAYER
 10
255.184
 20
91.354299999999995
 30
0.0
 11
255.601
 21
91.566599999999994
 31
0.0
  0
LINE
  5
E5
100
AcDbEntity
100
AcDbLine
  8
0
 62
0
370
-1
  6
BYLAYER
 10
255.601
 20
91.566599999999994
 30
0.0
 11
255.93299999999999
 21
91.898600000000002
 31
0.0
  0
LINE
  5
E6
100
AcDbEntity
100
AcDbLine
  8
0
 62
0
370
-1
  6
BYLAYER
 10
255.93299999999999
 20
91.898600000000002
 30
0.0
 11
256.14699999999999
 21
92.316299999999998
 31
0.0
  0
LINE
  5
E7
100
AcDbEntity
100
AcDbLine
  8
0
 62
0
370
-1
  6
BYLAYER
 10
256.14699999999999
 20
92.316299999999998
 30
0.0
 11
256.22000000000003
 21
92.7791
 31
0.0
  0
LINE
  5
E8
100
AcDbEntity
100
AcDbLine
  8
0
 62
0
370
-1
  6
BYLAYER
 10
256.22000000000003
 20
92.7791
 30
0.0
 11
256.14699999999999
 21
93.243700000000004
 31
0.0
  0
LINE
  5
E9
100
AcDbEntity
100
AcDbLine
  8
0
 62
0
370
-1
  6
BYLAYER
 10
256.14699999999999
 20
93.243700000000004
 30
0.0
 11
255.93299999999999
 21
93.661100000000005
 31
0.0
  0
LINE
  5
EA
100
AcDbEntity
100
AcDbLine
  8
0
 62
0
370
-1
  6
BYLAYER
 10
255.93299999999999
 20
93.661100000000005
 30
0.0
 11
255.601
 21
93.993399999999994
 31
0.0
  0
LINE
  5
EB
100
AcDbEntity
100
AcDbLine
  8
0
 62
0
370
-1
  6
BYLAYER
 10
255.601
 20
93.993399999999994
 30
0.0
 11
255.184
 21
94.206800000000001
 31
0.0
  0
LINE
  5
EC
100
AcDbEntity
100
AcDbLine
  8
0
 62
0
370
-1
  6
BYLAYER
 10
255.184
 20
94.206800000000001
 30
0.0
 11
254.71899999999999
 21
94.279899999999998
 31
0.0
  0
LINE
  5
ED
100
AcDbEntity
100
AcDbLine
  8
0
 62
0
370
-1
  6
BYLAYER
 10
254.71899999999999
 20
94.279899999999998
 30
0.0
 11
254.256
 21
94.206800000000001
 31
0.0
  0
LINE
  5
EE
100
AcDbEntity
100
AcDbLine
  8
0
 62
256
370
-1
  6
BYLAYER
 10
3.1309
 20
94.206800000000001
 30
0.0
 11
2.7133600000000002
 21
93.993399999999994
 31
0.0
  0
LINE
  5
EF
100
AcDbEntity
100
AcDbLine
  8
0
 62
256
370
-1
  6
BYLAYER
 10
2.3812500000000001
 20
93.661100000000005
 30
0.0
 11
2.1676500000000001
 21
93.243700000000004
 31
0.0
  0
LINE
  5
F0
100
AcDbEntity
100
AcDbLine
  8
0
 62
256
370
-1
  6
BYLAYER
 10
2.0932400000000002
 20
92.7791
 30
0.0
 11
2.1676500000000001
 21
92.316299999999998
 31
0.0
  0
LINE
  5
F1
100
AcDbEntity
100
AcDbLine
  8
0
 62
256
370
-1
  6
BYLAYER
 10
2.1676500000000001
 20
92.316299999999998
 30
0.0
 11
2.3812500000000001
 21
91.898600000000002
 31
0.0
  0
LINE
  5
F2
100
AcDbEntity
100
AcDbLine
  8
0
 62
256
370
-1
  6
BYLAYER
 10
2.7133600000000002
 20
91.566599999999994
 30
0.0
 11
3.1309
 21
91.354299999999995
 31
0.0
  0
LINE
  5
F3
100
AcDbEntity
100
AcDbLine
  8
0
 62
256
370
-1
  6
BYLAYER
 10
3.1309
 20
91.354299999999995
 30
0.0
 11
3.5952999999999999
 21
91.279799999999994
 31
0.0
  0
LINE
  5
F4
100
AcDbEntity
100
AcDbLine
  8
0
 62
256
370
-1
  6
BYLAYER
 10
5.0202
 20
92.316299999999998
 30
0.0
 11
5.0945999999999998
 21
92.7791
 31
0.0
  0
LINE
  5
F5
100
AcDbEntity
100
AcDbLine
  8
0
 62
256
370
-1
  6
BYLAYER
 10
4.0583200000000001
 20
94.206800000000001
 30
0.0
 11
3.5952999999999999
 21
94.279899999999998
 31
0.0
  0
LINE
  5
F6
100
AcDbEntity
100
AcDbLine
  8
0
 62
256
370
-1
  6
BYLAYER
 10
3.5950866000000072
 20
44.578130000000016
 30
0.0
 11
3.1306865999999953
 21
44.505030000000062
 31
0.0
  0
LINE
  5
F7
100
AcDbEntity
100
AcDbLine
  8
0
 62
256
370
-1
  6
BYLAYER
 10
3.595300000000071
 20
94.279900000000026
 30
0.0
 11
3.1309000000000733
 21
94.206800000000015
 31
0.0
  0
LINE
  5
F8
100
AcDbEntity
100
AcDbLine
  8
0
 62
256
370
-1
  6
BYLAYER
 10
3.1306865999999953
 20
44.505030000000062
 30
0.0
 11
2.7131466000000213
 21
44.291630000000026
 31
0.0
  0
LINE
  5
F9
100
AcDbEntity
100
AcDbLine
  8
0
 62
256
370
-1
  6
BYLAYER
 10
2.7131466000000213
 20
44.291630000000026
 30
0.0
 11
2.3810365999999643
 21
43.959330000000051
 31
0.0
  0
LINE
  5
FA
100
AcDbEntity
100
AcDbLine
  8
0
 62
256
370
-1
  6
BYLAYER
 10
2.3810365999999643
 20
43.959330000000051
 30
0.0
 11
2.167436599999979
 21
43.541930000000008
 31
0.0
  0
LINE
  5
FB
100
AcDbEntity
100
AcDbLine
  8
0
 62
256
370
-1
  6
BYLAYER
 10
2.167436599999979
 20
43.541930000000008
 30
0.0
 11
2.0930265999999786
 21
43.077330000000046
 31
0.0
  0
LINE
  5
FC
100
AcDbEntity
100
AcDbLine
  8
0
 62
256
370
-1
  6
BYLAYER
 10
2.0930265999999786
 20
43.077330000000046
 30
0.0
 11
2.167436599999979
 21
42.61453000000003
 31
0.0
  0
LINE
  5
FD
100
AcDbEntity
100
AcDbLine
  8
0
 62
256
370
-1
  6
BYLAYER
 10
2.167436599999979
 20
42.61453000000003
 30
0.0
 11
2.3810365999999643
 21
42.196830000000006
 31
0.0
  0
LINE
  5
FE
100
AcDbEntity
100
AcDbLine
  8
0
 62
256
370
-1
  6
BYLAYER
 10
2.3810365999999643
 20
42.196830000000006
 30
0.0
 11
2.7131466000000213
 21
41.864830000000012
 31
0.0
  0
LINE
  5
FF
100
AcDbEntity
100
AcDbLine
  8
0
 62
256
370
-1
  6
BYLAYER
 10
2.7131466000000213
 20
41.864830000000012
 30
0.0
 11
3.1306865999999953
 21
41.652530000000041
 31
0.0
  0
LINE
  5
100
100
AcDbEntity
100
AcDbLine
  8
0
 62
256
370
-1
  6
BYLAYER
 10
3.1306865999999953
 20
41.652530000000041
 30
0.0
 11
3.5950866000000072
 21
41.578030000000041
 31
0.0
  0
LINE
  5
101
100
AcDbEntity
100
AcDbLine
  8
0
 62
256
370
-1
  6
BYLAYER
 10
3.5950866000000072
 20
41.578030000000041
 30
0.0
 11
4.0581066000000359
 21
41.652530000000041
 31
0.0
  0
LINE
  5
102
100
AcDbEntity
100
AcDbLine
  8
0
 62
256
370
-1
  6
BYLAYER
 10
4.0581066000000359
 20
41.652530000000041
 30
0.0
 11
4.4756565999999847
 21
41.864830000000012
 31
0.0
  0
LINE
  5
103
100
AcDbEntity
100
AcDbLine
  8
0
 62
256
370
-1
  6
BYLAYER
 10
4.4756565999999847
 20
41.864830000000012
 30
0.0
 11
4.80775660000001
 21
42.196830000000006
 31
0.0
  0
LINE
  5
104
100
AcDbEntity
100
AcDbLine
  8
0
 62
256
370
-1
  6
BYLAYER
 10
4.80775660000001
 20
42.196830000000006
 30
0.0
 11
5.0199865999999869
 21
42.61453000000003
 31
0.0
  0
LINE
  5
105
100
AcDbEntity
100
AcDbLine
  8
0
 62
256
370
-1
  6
BYLAYER
 10
5.0199865999999869
 20
42.61453000000003
 30
0.0
 11
5.0943866000000124
 21
43.077330000000046
 31
0.0
  0
LINE
  5
106
100
AcDbEntity
100
AcDbLine
  8
0
 62
256
370
-1
  6
BYLAYER
 10
5.0943866000000124
 20
72.377330000000029
 30
0.0
 11
5.0199865999999869
 21
72.841929999999991
 31
0.0
  0
LINE
  5
107
100
AcDbEntity
100
AcDbLine
  8
0
 62
256
370
-1
  6
BYLAYER
 10
5.0199865999999869
 20
72.841929999999991
 30
0.0
 11
4.80775660000001
 21
73.259330000000034
 31
0.0
  0
LINE
  5
108
100
AcDbEntity
100
AcDbLine
  8
0
 62
256
370
-1
  6
BYLAYER
 10
4.80775660000001
 20
73.259330000000034
 30
0.0
 11
4.4756565999999847
 21
73.591630000000009
 31
0.0
  0
LINE
  5
109
100
AcDbEntity
100
AcDbLine
  8
0
 62
256
370
-1
  6
BYLAYER
 10
4.4756565999999847
 20
73.591630000000009
 30
0.0
 11
4.0581066000000359
 21
73.805030000000045
 31
0.0
  0
LINE
  5
10A
100
AcDbEntity
100
AcDbLine
  8
0
 62
256
370
-1
  6
BYLAYER
 10
4.0581066000000359
 20
73.805030000000045
 30
0.0
 11
3.5950866000000072
 21
73.878129999999999
 31
0.0
  0
LINE
  5
10B
100
AcDbEntity
100
AcDbLine
  8
0
 62
256
370
-1
  6
BYLAYER
 10
3.5950866000000072
 20
73.878129999999999
 30
0.0
 11
3.1306865999999953
 21
73.805030000000045
 31
0.0
  0
LINE
  5
10C
100
AcDbEntity
100
AcDbLine
  8
0
 62
256
370
-1
  6
BYLAYER
 10
3.1306865999999953
 20
73.805030000000045
 30
0.0
 11
2.7131466000000213
 21
73.591630000000009
 31
0.0
  0
LINE
  5
10D
100
AcDbEntity
100
AcDbLine
  8
0
 62
256
370
-1
  6
BYLAYER
 10
4.0583200000000712
 20
91.354299999999995
 30
0.0
 11
4.47587000000002
 21
91.566599999999966
 31
0.0
  0
LINE
  5
10E
100
AcDbEntity
100
AcDbLine
  8
0
 62
256
370
-1
  6
BYLAYER
 10
2.7131466000000213
 20
73.591630000000009
 30
0.0
 11
2.3810365999999643
 21
73.259330000000034
 31
0.0
  0
LINE
  5
10F
100
AcDbEntity
100
AcDbLine
  8
0
 62
256
370
-1
  6
BYLAYER
 10
2.3810365999999643
 20
73.259330000000034
 30
0.0
 11
2.167436599999979
 21
72.841929999999991
 31
0.0
  0
LINE
  5
110
100
AcDbEntity
100
AcDbLine
  8
0
 62
256
370
-1
  6
BYLAYER
 10
2.167436599999979
 20
72.841929999999991
 30
0.0
 11
2.0930265999999786
 21
72.377330000000029
 31
0.0
  0
LINE
  5
111
100
AcDbEntity
100
AcDbLine
  8
0
 62
256
370
-1
  6
BYLAYER
 10
2.0930265999999786
 20
72.377330000000029
 30
0.0
 11
2.167436599999979
 21
71.914530000000013
 31
0.0
  0
LINE
  5
112
100
AcDbEntity
100
AcDbLine
  8
0
 62
256
370
-1
  6
BYLAYER
 10
2.167436599999979
 20
71.914530000000013
 30
0.0
 11
2.3810365999999643
 21
71.496829999999989
 31
0.0
  0
LINE
  5
113
100
AcDbEntity
100
AcDbLine
  8
0
 62
256
370
-1
  6
BYLAYER
 10
2.3810365999999643
 20
71.496829999999989
 30
0.0
 11
2.7131466000000213
 21
71.164829999999995
 31
0.0
  0
LINE
  5
114
100
AcDbEntity
100
AcDbLine
  8
0
 62
256
370
-1
  6
BYLAYER
 10
4.8079700000000454
 20
93.661100000000005
 30
0.0
 11
4.47587000000002
 21
93.99339999999998
 31
0.0
  0
LINE
  5
115
100
AcDbEntity
100
AcDbLine
  8
0
 62
256
370
-1
  6
BYLAYER
 10
2.7131466000000213
 20
71.164829999999995
 30
0.0
 11
3.1306865999999953
 21
70.952530000000024
 31
0.0
  0
LINE
  5
116
100
AcDbEntity
100
AcDbLine
  8
0
 62
256
370
-1
  6
BYLAYER
 10
4.47587000000002
 20
93.99339999999998
 30
0.0
 11
4.0583200000000712
 21
94.206800000000015
 31
0.0
  0
LINE
  5
117
100
AcDbEntity
100
AcDbLine
  8
0
 62
256
370
-1
  6
BYLAYER
 10
3.1306865999999953
 20
70.952530000000024
 30
0.0
 11
3.5950866000000072
 21
70.878030000000024
 31
0.0
  0
LINE
  5
118
100
AcDbEntity
100
AcDbLine
  8
0
 62
256
370
-1
  6
BYLAYER
 10
3.5950866000000072
 20
70.878030000000024
 30
0.0
 11
4.0581066000000359
 21
70.952530000000024
 31
0.0
  0
LINE
  5
119
100
AcDbEntity
100
AcDbLine
  8
0
 62
256
370
-1
  6
BYLAYER
 10
2.1676500000000711
 20
93.243700000000018
 30
0.0
 11
2.0932400000000708
 21
92.779100000000028
 31
0.0
  0
LINE
  5
11A
100
AcDbEntity
100
AcDbLine
  8
0
 62
256
370
-1
  6
BYLAYER
 10
4.0581066000000359
 20
70.952530000000024
 30
0.0
 11
4.4756565999999847
 21
71.164829999999995
 31
0.0
  0
LINE
  5
11B
100
AcDbEntity
100
AcDbLine
  8
0
 62
256
370
-1
  6
BYLAYER
 10
4.4756565999999847
 20
71.164829999999995
 30
0.0
 11
4.80775660000001
 21
71.496829999999989
 31
0.0
  0
LINE
  5
11C
100
AcDbEntity
100
AcDbLine
  8
0
 62
256
370
-1
  6
BYLAYER
 10
2.3812500000000707
 20
91.898600000000016
 30
0.0
 11
2.7133600000000708
 21
91.566600000000022
 31
0.0
  0
LINE
  5
11D
100
AcDbEntity
100
AcDbLine
  8
0
 62
256
370
-1
  6
BYLAYER
 10
4.80775660000001
 20
71.496829999999989
 30
0.0
 11
5.0199865999999869
 21
71.914530000000013
 31
0.0
  0
LINE
  5
11E
100
AcDbEntity
100
AcDbLine
  8
0
 62
256
370
-1
  6
BYLAYER
 10
5.0199865999999869
 20
71.914530000000013
 30
0.0
 11
5.0943866000000124
 21
72.377330000000029
 31
0.0
  0
LINE
  5
11F
100
AcDbEntity
100
AcDbLine
  8
0
 62
256
370
-1
  6
BYLAYER
 10
5.0943866000000124
 20
43.077330000000046
 30
0.0
 11
5.0199865999999869
 21
43.541930000000008
 31
0.0
  0
LINE
  5
120
100
AcDbEntity
100
AcDbLine
  8
0
 62
256
370
-1
  6
BYLAYER
 10
5.0199865999999869
 20
43.541930000000008
 30
0.0
 11
4.80775660000001
 21
43.959330000000051
 31
0.0
  0
LINE
  5
121
100
AcDbEntity
100
AcDbLine
  8
0
 62
256
370
-1
  6
BYLAYER
 10
4.4758700000000768
 20
91.566600000000022
 30
0.0
 11
4.8079700000000738
 21
91.898600000000016
 31
0.0
  0
LINE
  5
122
100
AcDbEntity
100
AcDbLine
  8
0
 62
256
370
-1
  6
BYLAYER
 10
4.80775660000001
 20
43.959330000000051
 30
0.0
 11
4.4756565999999847
 21
44.291630000000026
 31
0.0
  0
LINE
  5
123
100
AcDbEntity
100
AcDbLine
  8
0
 62
256
370
-1
  6
BYLAYER
 10
4.4756565999999847
 20
44.291630000000026
 30
0.0
 11
4.0581066000000359
 21
44.505030000000062
 31
0.0
  0
LINE
  5
124
100
AcDbEntity
100
AcDbLine
  8
0
 62
256
370
-1
  6
BYLAYER
 10
4.0581066000000359
 20
44.505030000000062
 30
0.0
 11
3.5950866000000072
 21
44.578130000000016
 31
0.0
  0
LINE
  5
125
100
AcDbEntity
100
AcDbLine
  8
0
 62
256
370
-1
  6
BYLAYER
 10
5.020200000000079
 20
93.243700000000018
 30
0.0
 11
4.8079700000000738
 21
93.661100000000033
 31
0.0
  0
LINE
  5
126
100
AcDbEntity
100
AcDbLine
  8
0
 62
256
370
-1
  6
BYLAYER
 10
254.25070659999989
 20
49.67507999999998
 30
0.0
 11
253.83370659999991
 21
49.461679999999959
 31
0.0
  0
LINE
  5
127
100
AcDbEntity
100
AcDbLine
  8
0
 62
256
370
-1
  6
BYLAYER
 10
253.83370659999991
 20
49.461679999999959
 30
0.0
 11
253.49970659999997
 21
49.129379999999998
 31
0.0
  0
LINE
  5
128
100
AcDbEntity
100
AcDbLine
  8
0
 62
256
370
-1
  6
BYLAYER
 10
253.49970659999997
 20
49.129379999999998
 30
0.0
 11
253.28770659999998
 21
48.71197999999994
 31
0.0
  0
LINE
  5
129
100
AcDbEntity
100
AcDbLine
  8
0
 62
256
370
-1
  6
BYLAYER
 10
253.28770659999998
 20
48.71197999999994
 30
0.0
 11
253.21470659999989
 21
48.247379999999978
 31
0.0
  0
LINE
  5
12A
100
AcDbEntity
100
AcDbLine
  8
0
 62
256
370
-1
  6
BYLAYER
 10
253.21470659999989
 20
48.247379999999978
 30
0.0
 11
253.28770659999998
 21
47.784579999999977
 31
0.0
  0
LINE
  5
12B
100
AcDbEntity
100
AcDbLine
  8
0
 62
256
370
-1
  6
BYLAYER
 10
253.28770659999998
 20
47.784579999999977
 30
0.0
 11
253.49970659999997
 21
47.366879999999938
 31
0.0
  0
LINE
  5
12C
100
AcDbEntity
100
AcDbLine
  8
0
 62
256
370
-1
  6
BYLAYER
 10
253.49970659999997
 20
47.366879999999938
 30
0.0
 11
253.83370659999991
 21
47.03487999999993
 31
0.0
  0
LINE
  5
12D
100
AcDbEntity
100
AcDbLine
  8
0
 62
256
370
-1
  6
BYLAYER
 10
253.83370659999991
 20
47.03487999999993
 30
0.0
 11
254.25070659999989
 21
46.822579999999988
 31
0.0
  0
LINE
  5
12E
100
AcDbEntity
100
AcDbLine
  8
0
 62
256
370
-1
  6
BYLAYER
 10
254.25070659999989
 20
46.822579999999988
 30
0.0
 11
254.71370659999991
 21
46.748079999999987
 31
0.0
  0
LINE
  5
12F
100
AcDbEntity
100
AcDbLine
  8
0
 62
256
370
-1
  6
BYLAYER
 10
254.71370659999991
 20
46.748079999999987
 30
0.0
 11
255.17870659999983
 21
46.822579999999988
 31
0.0
  0
LINE
  5
130
100
AcDbEntity
100
AcDbLine
  8
0
 62
256
370
-1
  6
BYLAYER
 10
255.17870659999983
 20
46.822579999999988
 30
0.0
 11
255.59570659999997
 21
47.03487999999993
 31
0.0
  0
LINE
  5
131
100
AcDbEntity
100
AcDbLine
  8
0
 62
256
370
-1
  6
BYLAYER
 10
255.59570659999997
 20
47.03487999999993
 30
0.0
 11
255.92770659999979
 21
47.366879999999938
 31
0.0
  0
LINE
  5
132
100
AcDbEntity
100
AcDbLine
  8
0
 62
256
370
-1
  6
BYLAYER
 10
255.92770659999979
 20
47.366879999999938
 30
0.0
 11
256.14170659999991
 21
47.784579999999977
 31
0.0
  0
LINE
  5
133
100
AcDbEntity
100
AcDbLine
  8
0
 62
256
370
-1
  6
BYLAYER
 10
256.14170659999991
 20
47.784579999999977
 30
0.0
 11
256.21470659999989
 21
48.247379999999978
 31
0.0
  0
LINE
  5
134
100
AcDbEntity
100
AcDbLine
  8
0
 62
256
370
-1
  6
BYLAYER
 10
256.21470659999989
 20
48.247379999999978
 30
0.0
 11
256.14170659999991
 21
48.71197999999994
 31
0.0
  0
LINE
  5
135
100
AcDbEntity
100
AcDbLine
  8
0
 62
256
370
-1
  6
BYLAYER
 10
256.14170659999991
 20
48.71197999999994
 30
0.0
 11
255.92770659999979
 21
49.129379999999998
 31
0.0
  0
LINE
  5
136
100
AcDbEntity
100
AcDbLine
  8
0
 62
256
370
-1
  6
BYLAYER
 10
255.92770659999979
 20
49.129379999999998
 30
0.0
 11
255.59570659999997
 21
49.461679999999959
 31
0.0
  0
LINE
  5
137
100
AcDbEntity
100
AcDbLine
  8
0
 62
256
370
-1
  6
BYLAYER
 10
255.59570659999997
 20
49.461679999999959
 30
0.0
 11
255.17870659999983
 21
49.67507999999998
 31
0.0
  0
LINE
  5
138
100
AcDbEntity
100
AcDbLine
  8
0
 62
256
370
-1
  6
BYLAYER
 10
255.17870659999983
 20
49.67507999999998
 30
0.0
 11
254.71370659999991
 21
49.748179999999948
 31
0.0
  0
LINE
  5
139
100
AcDbEntity
100
AcDbLine
  8
0
 62
256
370
-1
  6
BYLAYER
 10
254.71370659999991
 20
49.748179999999948
 30
0.0
 11
254.25070659999989
 21
49.67507999999998
 31
0.0
  0
LINE
  5
13A
100
AcDbEntity
100
AcDbLine
  8
0
 62
256
370
-1
  6
BYLAYER
 10
2.7133599999999998
 20
93.993399999999994
 30
0.0
 11
2.3812499999999996
 21
93.661100000000005
 31
0.0
  0
LINE
  5
13B
100
AcDbEntity
100
AcDbLine
  8
0
 62
256
370
-1
  6
BYLAYER
 10
3.5952999999999999
 20
91.279799999999994
 30
0.0
 11
4.0583200000000001
 21
91.354299999999995
 31
0.0
  0
LINE
  5
13C
100
AcDbEntity
100
AcDbLine
  8
0
 62
256
370
-1
  6
BYLAYER
 10
4.8079700000000027
 20
91.898600000000002
 30
0.0
 11
5.020200000000008
 21
92.316299999999998
 31
0.0
  0
LINE
  5
13D
100
AcDbEntity
100
AcDbLine
  8
0
 62
256
370
-1
  6
BYLAYER
 10
5.0946000000000051
 20
92.7791
 30
0.0
 11
5.020200000000008
 21
93.243700000000004
 31
0.0
  0
LINE
  5
13E
100
AcDbEntity
100
AcDbLine
  8
0
 62
256
370
-1
  6
BYLAYER
 10
0.0937065999999618
 20
2.0780800000000141
 30
0.0
 11
0.0999280860273757
 21
44.499550044615674
 31
0.0
  0
LINE
  5
13F
100
AcDbEntity
100
AcDbLine
  8
0
 62
256
370
-1
  6
BYLAYER
 10
7.0999999999999659
 20
46.499999999999986
 30
0.0
 11
7.0941500000000133
 21
7.0789799999999872
 31
0.0
  0
LINE
  5
140
100
AcDbEntity
100
AcDbLine
  8
0
 62
256
370
-1
  6
BYLAYER
 10
0.0949657582811483
 20
70.899766546302189
 30
0.0
 11
0.0980223152199073
 21
94.363569778956887
 31
0.0
  0
LINE
  5
141
100
AcDbEntity
100
AcDbLine
  8
0
 62
256
370
-1
  6
BYLAYER
 10
7.0999999999999659
 20
68.899999999999991
 30
0.0
 11
7.0941500000000133
 21
89.280299999999997
 31
0.0
  0
LINE
  5
142
100
AcDbEntity
100
AcDbLine
  8
0
 62
256
370
-1
  6
BYLAYER
 10
2.0999999999999659
 20
68.90000000000002
 30
0.0
 11
7.0999999999999659
 21
68.899999999999991
 31
0.0
  0
LINE
  5
143
100
AcDbEntity
100
AcDbLine
  8
0
 62
256
370
-1
  6
BYLAYER
 10
2.0997676981681934
 20
46.500021369165935
 30
0.0
 11
7.0999999999999659
 21
46.499999999999986
 31
0.0
  0
LINE
  5
144
100
AcDbEntity
100
AcDbLine
  8
0
 62
256
370
-1
  6
BYLAYER
 10
0.8009657000000061
 20
69.379790949999986
 30
0.0
 11
0.6852087000000324
 21
69.48589994999999
 31
0.0
  0
LINE
  5
145
100
AcDbEntity
100
AcDbLine
  8
0
 62
256
370
-1
  6
BYLAYER
 10
0.6852087000000324
 20
69.48589994999999
 30
0.0
 11
0.5791006999999695
 21
69.603031949999988
 31
0.0
  0
LINE
  5
146
100
AcDbEntity
100
AcDbLine
  8
0
 62
256
370
-1
  6
BYLAYER
 10
0.5791006999999695
 20
69.603031949999988
 30
0.0
 11
0.4812607000000071
 21
69.725678949999988
 31
0.0
  0
LINE
  5
147
100
AcDbEntity
100
AcDbLine
  8
0
 62
256
370
-1
  6
BYLAYER
 10
0.4812607000000071
 20
69.725678949999988
 30
0.0
 11
0.3944427000000133
 21
69.856595949999971
 31
0.0
  0
LINE
  5
148
100
AcDbEntity
100
AcDbLine
  8
0
 62
256
370
-1
  6
BYLAYER
 10
0.3944427000000133
 20
69.856595949999971
 30
0.0
 11
0.317273699999987
 21
69.993015949999986
 31
0.0
  0
LINE
  5
149
100
AcDbEntity
100
AcDbLine
  8
0
 62
256
370
-1
  6
BYLAYER
 10
0.317273699999987
 20
69.993015949999986
 30
0.0
 11
0.252505699999972
 21
70.134955949999991
 31
0.0
  0
LINE
  5
14A
100
AcDbEntity
100
AcDbLine
  8
0
 62
256
370
-1
  6
BYLAYER
 10
0.252505699999972
 20
70.134955949999991
 30
0.0
 11
0.197383699999989
 21
70.282405949999983
 31
0.0
  0
LINE
  5
14B
100
AcDbEntity
100
AcDbLine
  8
0
 62
256
370
-1
  6
BYLAYER
 10
0.197383699999989
 20
70.282405949999983
 30
0.0
 11
0.1560427000000004
 21
70.433985950000007
 31
0.0
  0
LINE
  5
14C
100
AcDbEntity
100
AcDbLine
  8
0
 62
256
370
-1
  6
BYLAYER
 10
0.1560427000000004
 20
70.433985950000007
 30
0.0
 11
0.1243476999999871
 21
70.588325949999998
 31
0.0
  0
LINE
  5
14D
100
AcDbEntity
100
AcDbLine
  8
0
 62
256
370
-1
  6
BYLAYER
 10
0.1243476999999871
 20
70.588325949999998
 30
0.0
 11
0.1064336999999682
 21
70.744045949999972
 31
0.0
  0
LINE
  5
14E
100
AcDbEntity
100
AcDbLine
  8
0
 62
256
370
-1
  6
BYLAYER
 10
0.1064336999999682
 20
70.744045949999972
 30
0.0
 11
0.0949657582811483
 21
70.89976654630216
 31
0.0
  0
LINE
  5
14F
100
AcDbEntity
100
AcDbLine
  8
0
 62
256
370
-1
  6
BYLAYER
 10
2.0999999999999659
 20
68.90000000000002
 30
0.0
 11
1.9433566999999812
 21
68.907124450000012
 31
0.0
  0
LINE
  5
150
100
AcDbEntity
100
AcDbLine
  8
0
 62
256
370
-1
  6
BYLAYER
 10
1.9433566999999812
 20
68.907124450000012
 30
0.0
 11
1.7876367000000073
 21
68.925038949999973
 31
0.0
  0
LINE
  5
151
100
AcDbEntity
100
AcDbLine
  8
0
 62
256
370
-1
  6
BYLAYER
 10
1.7876367000000073
 20
68.925038949999973
 30
0.0
 11
1.6332967000000167
 21
68.956733949999986
 31
0.0
  0
LINE
  5
152
100
AcDbEntity
100
AcDbLine
  8
0
 62
256
370
-1
  6
BYLAYER
 10
1.6332967000000167
 20
68.956733949999986
 30
0.0
 11
1.4817166999999927
 21
68.998074949999975
 31
0.0
  0
LINE
  5
153
100
AcDbEntity
100
AcDbLine
  8
0
 62
256
370
-1
  6
BYLAYER
 10
1.4817166999999927
 20
68.998074949999975
 30
0.0
 11
1.3342667000000006
 21
69.053195949999989
 31
0.0
  0
LINE
  5
154
100
AcDbEntity
100
AcDbLine
  8
0
 62
256
370
-1
  6
BYLAYER
 10
1.3342667000000006
 20
69.053195949999989
 30
0.0
 11
1.1923267000000237
 21
69.117963949999975
 31
0.0
  0
LINE
  5
155
100
AcDbEntity
100
AcDbLine
  8
0
 62
256
370
-1
  6
BYLAYER
 10
1.1923267000000237
 20
69.117963949999975
 30
0.0
 11
1.0558967000000052
 21
69.195132950000001
 31
0.0
  0
LINE
  5
156
100
AcDbEntity
100
AcDbLine
  8
0
 62
256
370
-1
  6
BYLAYER
 10
1.0558967000000052
 20
69.195132950000001
 30
0.0
 11
0.9249887000000285
 21
69.281951949999993
 31
0.0
  0
LINE
  5
157
100
AcDbEntity
100
AcDbLine
  8
0
 62
256
370
-1
  6
BYLAYER
 10
0.9249887000000285
 20
69.281951949999993
 30
0.0
 11
0.8009657000000061
 21
69.379790949999986
 31
0.0
  0
LINE
  5
158
100
AcDbEntity
100
AcDbLine
  8
0
 62
256
370
-1
  6
BYLAYER
 10
0.8002766999999835
 20
46.021049999999981
 30
0.0
 11
0.9242997000000059
 21
46.118750000000027
 31
0.0
  0
LINE
  5
159
100
AcDbEntity
100
AcDbLine
  8
0
 62
256
370
-1
  6
BYLAYER
 10
0.9242997000000059
 20
46.118750000000027
 30
0.0
 11
1.0552077000000395
 21
46.205550000000002
 31
0.0
  0
LINE
  5
15A
100
AcDbEntity
100
AcDbLine
  8
0
 62
256
370
-1
  6
BYLAYER
 10
1.0552077000000395
 20
46.205550000000002
 30
0.0
 11
1.1916377000000011
 21
46.282849999999982
 31
0.0
  0
LINE
  5
15B
100
AcDbEntity
100
AcDbLine
  8
0
 62
256
370
-1
  6
BYLAYER
 10
1.1916377000000011
 20
46.282849999999982
 30
0.0
 11
1.3335777000000348
 21
46.347349999999992
 31
0.0
  0
LINE
  5
15C
100
AcDbEntity
100
AcDbLine
  8
0
 62
256
370
-1
  6
BYLAYER
 10
1.3335777000000348
 20
46.347349999999992
 30
0.0
 11
1.4810276999999701
 21
46.402750000000012
 31
0.0
  0
LINE
  5
15D
100
AcDbEntity
100
AcDbLine
  8
0
 62
256
370
-1
  6
BYLAYER
 10
1.4810276999999701
 20
46.402750000000012
 30
0.0
 11
1.6326076999999941
 21
46.444049999999997
 31
0.0
  0
LINE
  5
15E
100
AcDbEntity
100
AcDbLine
  8
0
 62
256
370
-1
  6
BYLAYER
 10
1.6326076999999941
 20
46.444049999999997
 30
0.0
 11
1.7869476999999847
 21
46.475749999999991
 31
0.0
  0
LINE
  5
15F
100
AcDbEntity
100
AcDbLine
  8
0
 62
256
370
-1
  6
BYLAYER
 10
1.7869476999999847
 20
46.475749999999991
 30
0.0
 11
1.9426677000000154
 21
46.493449999999982
 31
0.0
  0
LINE
  5
160
100
AcDbEntity
100
AcDbLine
  8
0
 62
256
370
-1
  6
BYLAYER
 10
1.9426677000000154
 20
46.493449999999982
 30
0.0
 11
2.0997676981681934
 21
46.500021369165935
 31
0.0
  0
LINE
  5
161
100
AcDbEntity
100
AcDbLine
  8
0
 62
256
370
-1
  6
BYLAYER
 10
0.0999280860273757
 20
44.499550044615674
 30
0.0
 11
0.1057447000000025
 21
44.656549999999996
 31
0.0
  0
LINE
  5
162
100
AcDbEntity
100
AcDbLine
  8
0
 62
256
370
-1
  6
BYLAYER
 10
0.1057447000000025
 20
44.656549999999996
 30
0.0
 11
0.1236587000000213
 21
44.812449999999991
 31
0.0
  0
LINE
  5
163
100
AcDbEntity
100
AcDbLine
  8
0
 62
256
370
-1
  6
BYLAYER
 10
0.1236587000000213
 20
44.812449999999991
 30
0.0
 11
0.1553537000000347
 21
44.966549999999991
 31
0.0
  0
LINE
  5
164
100
AcDbEntity
100
AcDbLine
  8
0
 62
256
370
-1
  6
BYLAYER
 10
0.1553537000000347
 20
44.966549999999991
 30
0.0
 11
0.1966947000000232
 21
45.118250000000032
 31
0.0
  0
LINE
  5
165
100
AcDbEntity
100
AcDbLine
  8
0
 62
256
370
-1
  6
BYLAYER
 10
0.1966947000000232
 20
45.118250000000032
 30
0.0
 11
0.2518167000000062
 21
45.265750000000011
 31
0.0
  0
LINE
  5
166
100
AcDbEntity
100
AcDbLine
  8
0
 62
256
370
-1
  6
BYLAYER
 10
0.2518167000000062
 20
45.265750000000011
 30
0.0
 11
0.3165846999999644
 21
45.407550000000008
 31
0.0
  0
LINE
  5
167
100
AcDbEntity
100
AcDbLine
  8
0
 62
256
370
-1
  6
BYLAYER
 10
0.3165846999999644
 20
45.407550000000008
 30
0.0
 11
0.3937536999999907
 21
45.544050000000013
 31
0.0
  0
LINE
  5
168
100
AcDbEntity
100
AcDbLine
  8
0
 62
256
370
-1
  6
BYLAYER
 10
0.3937536999999907
 20
45.544050000000013
 30
0.0
 11
0.4805716999999845
 21
45.674950000000017
 31
0.0
  0
LINE
  5
169
100
AcDbEntity
100
AcDbLine
  8
0
 62
256
370
-1
  6
BYLAYER
 10
0.4805716999999845
 20
45.674950000000017
 30
0.0
 11
0.5784117000000038
 21
45.799149999999983
 31
0.0
  0
LINE
  5
16A
100
AcDbEntity
100
AcDbLine
  8
0
 62
256
370
-1
  6
BYLAYER
 10
0.5784117000000038
 20
45.799149999999983
 30
0.0
 11
0.6845197000000098
 21
45.914849999999987
 31
0.0
  0
LINE
  5
16B
100
AcDbEntity
100
AcDbLine
  8
0
 62
256
370
-1
  6
BYLAYER
 10
0.6845197000000098
 20
45.914849999999987
 30
0.0
 11
0.8002766999999835
 21
46.021049999999981
 31
0.0
  0
ENDBLK
  5
16C
100
AcDbEntity
  8
0
100
AcDbBlockEnd
  0
BLOCK
  5
16D
100
AcDbEntity
  8
0
100
AcDbBlockBegin
  2
_Paper_Space
 70
0
 10
0.0
 20
0.0
 30
0.0
  3
_Paper_Space
  1

  0
ENDBLK
  5
16E
100
AcDbEntity
  8
0
100
AcDbBlockEnd
  0
ENDSEC
  0
SECTION
  2
ENTITIES
  0
LINE
  5
16F
100
AcDbEntity
100
AcDbLine
  8
0
 62
256
370
-1
  6
BYLAYER
 10
251.21899999999999
 20
89.280299999999997
 30
0.0
 11
7.09415
 21
89.280299999999997
 31
0.0
  0
LINE
  5
170
100
AcDbEntity
100
AcDbLine
  8
0
 62
256
370
-1
  6
BYLAYER
 10
7.09415
 20
7.0789799999999996
 30
0.0
 11
251.21899999999999
 21
7.0789799999999996
 31
0.0
  0
LINE
  5
171
100
AcDbEntity
100
AcDbLine
  8
0
 62
0
370
-1
  6
BYLAYER
 10
251.21899999999999
 20
7.0789799999999996
 30
0.0
 11
251.21899999999999
 21
89.280299999999997
 31
0.0
  0
LINE
  5
172
100
AcDbEntity
100
AcDbLine
  8
0
 62
0
370
-1
  6
BYLAYER
 10
256.22000000000003
 20
96.279399999999995
 30
0.0
 11
256.37599999999998
 21
96.273799999999994
 31
0.0
  0
LINE
  5
173
100
AcDbEntity
100
AcDbLine
  8
0
 62
0
370
-1
  6
BYLAYER
 10
256.37599999999998
 20
96.273799999999994
 30
0.0
 11
256.53300000000002
 21
96.256100000000004
 31
0.0
  0
LINE
  5
174
100
AcDbEntity
100
AcDbLine
  8
0
 62
0
370
-1
  6
BYLAYER
 10
256.53300000000002
 20
96.256100000000004
 30
0.0
 11
256.68599999999998
 21
96.224400000000003
 31
0.0
  0
LINE
  5
175
100
AcDbEntity
100
AcDbLine
  8
0
 62
0
370
-1
  6
BYLAYER
 10
256.68599999999998
 20
96.224400000000003
 30
0.0
 11
256.839
 21
96.183099999999996
 31
0.0
  0
LINE
  5
176
100
AcDbEntity
100
AcDbLine
  8
0
 62
0
370
-1
  6
BYLAYER
 10
256.839
 20
96.183099999999996
 30
0.0
 11
256.98599999999999
 21
96.127700000000004
 31
0.0
  0
LINE
  5
177
100
AcDbEntity
100
AcDbLine
  8
0
 62
0
370
-1
  6
BYLAYER
 10
256.98599999999999
 20
96.127700000000004
 30
0.0
 11
257.12799999999999
 21
96.063199999999995
 31
0.0
  0
LINE
  5
178
100
AcDbEntity
100
AcDbLine
  8
0
 62
0
370
-1
  6
BYLAYER
 10
257.12799999999999
 20
96.063199999999995
 30
0.0
 11
257.26499999999999
 21
95.985900000000001
 31
0.0
  0
LINE
  5
179
100
AcDbEntity
100
AcDbLine
  8
0
 62
0
370
-1
  6
BYLAYER
 10
257.26499999999999
 20
95.985900000000001
 30
0.0
 11
257.39499999999998
 21
95.899100000000004
 31
0.0
  0
LINE
  5
17A
100
AcDbEntity
100
AcDbLine
  8
0
 62
0
370
-1
  6
BYLAYER
 10
257.39499999999998
 20
95.899100000000004
 30
0.0
 11
257.51799999999997
 21
95.801400000000001
 31
0.0
  0
LINE
  5
17B
100
AcDbEntity
100
AcDbLine
  8
0
 62
0
370
-1
  6
BYLAYER
 10
257.51799999999997
 20
95.801400000000001
 30
0.0
 11
257.63499999999999
 21
95.6952
 31
0.0
  0
LINE
  5
17C
100
AcDbEntity
100
AcDbLine
  8
0
 62
0
370
-1
  6
BYLAYER
 10
257.63499999999999
 20
95.6952
 30
0.0
 11
257.74099999999999
 21
95.579499999999996
 31
0.0
  0
LINE
  5
17D
100
AcDbEntity
100
AcDbLine
  8
0
 62
0
370
-1
  6
BYLAYER
 10
257.74099999999999
 20
95.579499999999996
 30
0.0
 11
257.839
 21
95.455299999999994
 31
0.0
  0
LINE
  5
17E
100
AcDbEntity
100
AcDbLine
  8
0
 62
0
370
-1
  6
BYLAYER
 10
257.839
 20
95.455299999999994
 30
0.0
 11
257.92599999999999
 21
95.324399999999997
 31
0.0
  0
LINE
  5
17F
100
AcDbEntity
100
AcDbLine
  8
0
 62
0
370
-1
  6
BYLAYER
 10
257.92599999999999
 20
95.324399999999997
 30
0.0
 11
258.00299999999999
 21
95.187899999999999
 31
0.0
  0
LINE
  5
180
100
AcDbEntity
100
AcDbLine
  8
0
 62
0
370
-1
  6
BYLAYER
 10
258.00299999999999
 20
95.187899999999999
 30
0.0
 11
258.06799999999998
 21
95.046099999999996
 31
0.0
  0
LINE
  5
181
100
AcDbEntity
100
AcDbLine
  8
0
 62
0
370
-1
  6
BYLAYER
 10
258.06799999999998
 20
95.046099999999996
 30
0.0
 11
258.12299999999999
 21
94.898600000000002
 31
0.0
  0
LINE
  5
182
100
AcDbEntity
100
AcDbLine
  8
0
 62
0
370
-1
  6
BYLAYER
 10
258.12299999999999
 20
94.898600000000002
 30
0.0
 11
258.16500000000002
 21
94.746899999999997
 31
0.0
  0
LINE
  5
183
100
AcDbEntity
100
AcDbLine
  8
0
 62
0
370
-1
  6
BYLAYER
 10
258.16500000000002
 20
94.746899999999997
 30
0.0
 11
258.19600000000003
 21
94.592799999999997
 31
0.0
  0
LINE
  5
184
100
AcDbEntity
100
AcDbLine
  8
0
 62
0
370
-1
  6
BYLAYER
 10
258.19600000000003
 20
94.592799999999997
 30
0.0
 11
258.214
 21
94.436899999999994
 31
0.0
  0
LINE
  5
185
100
AcDbEntity
100
AcDbLine
  8
0
 62
0
370
-1
  6
BYLAYER
 10
258.214
 20
94.436899999999994
 30
0.0
 11
258.221
 21
94.279899999999998
 31
0.0
  0
LINE
  5
186
100
AcDbEntity
100
AcDbLine
  8
0
 62
0
370
-1
  6
BYLAYER
 10
258.221
 20
94.279899999999998
 30
0.0
 11
258.221
 21
2.0780799999999999
 31
0.0
  0
LINE
  5
187
100
AcDbEntity
100
AcDbLine
  8
0
 62
0
370
-1
  6
BYLAYER
 10
258.221
 20
2.0780799999999999
 30
0.0
 11
258.214
 21
1.9223600000000001
 31
0.0
  0
LINE
  5
188
100
AcDbEntity
100
AcDbLine
  8
0
 62
0
370
-1
  6
BYLAYER
 10
258.214
 20
1.9223600000000001
 30
0.0
 11
258.19600000000003
 21
1.76664
 31
0.0
  0
LINE
  5
189
100
AcDbEntity
100
AcDbLine
  8
0
 62
0
370
-1
  6
BYLAYER
 10
258.19600000000003
 20
1.76664
 30
0.0
 11
258.16500000000002
 21
1.6123000000000001
 31
0.0
  0
LINE
  5
18A
100
AcDbEntity
100
AcDbLine
  8
0
 62
0
370
-1
  6
BYLAYER
 10
258.16500000000002
 20
1.6123000000000001
 30
0.0
 11
258.12299999999999
 21
1.46072
 31
0.0
  0
LINE
  5
18B
100
AcDbEntity
100
AcDbLine
  8
0
 62
0
370
-1
  6
BYLAYER
 10
258.12299999999999
 20
1.46072
 30
0.0
 11
258.06799999999998
 21
1.3132699999999999
 31
0.0
  0
LINE
  5
18C
100
AcDbEntity
100
AcDbLine
  8
0
 62
0
370
-1
  6
BYLAYER
 10
258.06799999999998
 20
1.3132699999999999
 30
0.0
 11
258.00299999999999
 21
1.17133
 31
0.0
  0
LINE
  5
18D
100
AcDbEntity
100
AcDbLine
  8
0
 62
0
370
-1
  6
BYLAYER
 10
258.00299999999999
 20
1.17133
 30
0.0
 11
257.92599999999999
 21
1.03491
 31
0.0
  0
LINE
  5
18E
100
AcDbEntity
100
AcDbLine
  8
0
 62
0
370
-1
  6
BYLAYER
 10
257.92599999999999
 20
1.03491
 30
0.0
 11
257.839
 21
0.9039930000000001
 31
0.0
  0
LINE
  5
18F
100
AcDbEntity
100
AcDbLine
  8
0
 62
0
370
-1
  6
BYLAYER
 10
257.839
 20
0.9039930000000001
 30
0.0
 11
257.74099999999999
 21
0.781346
 31
0.0
  0
LINE
  5
190
100
AcDbEntity
100
AcDbLine
  8
0
 62
0
370
-1
  6
BYLAYER
 10
257.74099999999999
 20
0.781346
 30
0.0
 11
257.63499999999999
 21
0.664214
 31
0.0
  0
LINE
  5
191
100
AcDbEntity
100
AcDbLine
  8
0
 62
0
370
-1
  6
BYLAYER
 10
257.63499999999999
 20
0.664214
 30
0.0
 11
257.51799999999997
 21
0.558105
 31
0.0
  0
LINE
  5
192
100
AcDbEntity
100
AcDbLine
  8
0
 62
0
370
-1
  6
BYLAYER
 10
257.51799999999997
 20
0.558105
 30
0.0
 11
257.39499999999998
 21
0.460266
 31
0.0
  0
LINE
  5
193
100
AcDbEntity
100
AcDbLine
  8
0
 62
0
370
-1
  6
BYLAYER
 10
257.39499999999998
 20
0.460266
 30
0.0
 11
257.26499999999999
 21
0.373447
 31
0.0
  0
LINE
  5
194
100
AcDbEntity
100
AcDbLine
  8
0
 62
0
370
-1
  6
BYLAYER
 10
257.26499999999999
 20
0.373447
 30
0.0
 11
257.12799999999999
 21
0.296278
 31
0.0
  0
LINE
  5
195
100
AcDbEntity
100
AcDbLine
  8
0
 62
0
370
-1
  6
BYLAYER
 10
257.12799999999999
 20
0.296278
 30
0.0
 11
256.98599999999999
 21
0.23151
 31
0.0
  0
LINE
  5
196
100
AcDbEntity
100
AcDbLine
  8
0
 62
0
370
-1
  6
BYLAYER
 10
256.98599999999999
 20
0.23151
 30
0.0
 11
256.839
 21
0.176389
 31
0.0
  0
LINE
  5
197
100
AcDbEntity
100
AcDbLine
  8
0
 62
0
370
-1
  6
BYLAYER
 10
256.839
 20
0.176389
 30
0.0
 11
256.68599999999998
 21
0.135048
 31
0.0
  0
LINE
  5
198
100
AcDbEntity
100
AcDbLine
  8
0
 62
0
370
-1
  6
BYLAYER
 10
256.68599999999998
 20
0.135048
 30
0.0
 11
256.53300000000002
 21
0.103353
 31
0.0
  0
LINE
  5
199
100
AcDbEntity
100
AcDbLine
  8
0
 62
0
370
-1
  6
BYLAYER
 10
256.53300000000002
 20
0.103353
 30
0.0
 11
256.37599999999998
 21
0.0854385
 31
0.0
  0
LINE
  5
19A
100
AcDbEntity
100
AcDbLine
  8
0
 62
0
370
-1
  6
BYLAYER
 10
256.37599999999998
 20
0.0854385
 30
0.0
 11
256.22000000000003
 21
0.0799264
 31
0.0
  0
LINE
  5
19B
100
AcDbEntity
100
AcDbLine
  8
0
 62
256
370
-1
  6
BYLAYER
 10
256.22000000000003
 20
0.0799264
 30
0.0
 11
2.0946199999999999
 21
0.0785481
 31
0.0
  0
LINE
  5
19C
100
AcDbEntity
100
AcDbLine
  8
0
 62
256
370
-1
  6
BYLAYER
 10
2.0946199999999999
 20
0.0785481
 30
0.0
 11
1.9375199999999999
 21
0.0854385
 31
0.0
  0
LINE
  5
19D
100
AcDbEntity
100
AcDbLine
  8
0
 62
256
370
-1
  6
BYLAYER
 10
1.9375199999999999
 20
0.0854385
 30
0.0
 11
1.7818000000000001
 21
0.103353
 31
0.0
  0
LINE
  5
19E
100
AcDbEntity
100
AcDbLine
  8
0
 62
256
370
-1
  6
BYLAYER
 10
1.7818000000000001
 20
0.103353
 30
0.0
 11
1.6274599999999999
 21
0.135048
 31
0.0
  0
LINE
  5
19F
100
AcDbEntity
100
AcDbLine
  8
0
 62
256
370
-1
  6
BYLAYER
 10
1.6274599999999999
 20
0.135048
 30
0.0
 11
1.4758800000000001
 21
0.176389
 31
0.0
  0
LINE
  5
1A0
100
AcDbEntity
100
AcDbLine
  8
0
 62
256
370
-1
  6
BYLAYER
 10
1.4758800000000001
 20
0.176389
 30
0.0
 11
1.32843
 21
0.23151
 31
0.0
  0
LINE
  5
1A1
100
AcDbEntity
100
AcDbLine
  8
0
 62
256
370
-1
  6
BYLAYER
 10
1.32843
 20
0.23151
 30
0.0
 11
1.18649
 21
0.296278
 31
0.0
  0
LINE
  5
1A2
100
AcDbEntity
100
AcDbLine
  8
0
 62
256
370
-1
  6
BYLAYER
 10
1.18649
 20
0.296278
 30
0.0
 11
1.05006
 21
0.373447
 31
0.0
  0
LINE
  5
1A3
100
AcDbEntity
100
AcDbLine
  8
0
 62
256
370
-1
  6
BYLAYER
 10
1.05006
 20
0.373447
 30
0.0
 11
0.919152
 21
0.460266
 31
0.0
  0
LINE
  5
1A4
100
AcDbEntity
100
AcDbLine
  8
0
 62
256
370
-1
  6
BYLAYER
 10
0.919152
 20
0.460266
 30
0.0
 11
0.795129
 21
0.558105
 31
0.0
  0
LINE
  5
1A5
100
AcDbEntity
100
AcDbLine
  8
0
 62
256
370
-1
  6
BYLAYER
 10
0.795129
 20
0.558105
 30
0.0
 11
0.679372
 21
0.664214
 31
0.0
  0
LINE
  5
1A6
100
AcDbEntity
100
AcDbLine
  8
0
 62
256
370
-1
  6
BYLAYER
 10
0.679372
 20
0.664214
 30
0.0
 11
0.573264
 21
0.781346
 31
0.0
  0
LINE
  5
1A7
100
AcDbEntity
100
AcDbLine
  8
0
 62
256
370
-1
  6
BYLAYER
 10
0.573264
 20
0.781346
 30
0.0
 11
0.475424
 21
0.9039930000000001
 31
0.0
  0
LINE
  5
1A8
100
AcDbEntity
100
AcDbLine
  8
0
 62
256
370
-1
  6
BYLAYER
 10
0.475424
 20
0.9039930000000001
 30
0.0
 11
0.388606
 21
1.03491
 31
0.0
  0
LINE
  5
1A9
100
AcDbEntity
100
AcDbLine
  8
0
 62
256
370
-1
  6
BYLAYER
 10
0.388606
 20
1.03491
 30
0.0
 11
0.311437
 21
1.17133
 31
0.0
  0
LINE
  5
1AA
100
AcDbEntity
100
AcDbLine
  8
0
 62
256
370
-1
  6
BYLAYER
 10
0.311437
 20
1.17133
 30
0.0
 11
0.246669
 21
1.3132699999999999
 31
0.0
  0
LINE
  5
1AB
100
AcDbEntity
100
AcDbLine
  8
0
 62
256
370
-1
  6
BYLAYER
 10
0.246669
 20
1.3132699999999999
 30
0.0
 11
0.191547
 21
1.46072
 31
0.0
  0
LINE
  5
1AC
100
AcDbEntity
100
AcDbLine
  8
0
 62
256
370
-1
  6
BYLAYER
 10
0.191547
 20
1.46072
 30
0.0
 11
0.150206
 21
1.6123000000000001
 31
0.0
  0
LINE
  5
1AD
100
AcDbEntity
100
AcDbLine
  8
0
 62
256
370
-1
  6
BYLAYER
 10
0.150206
 20
1.6123000000000001
 30
0.0
 11
0.118511
 21
1.76664
 31
0.0
  0
LINE
  5
1AE
100
AcDbEntity
100
AcDbLine
  8
0
 62
256
370
-1
  6
BYLAYER
 10
0.118511
 20
1.76664
 30
0.0
 11
0.100597
 21
1.9223600000000001
 31
0.0
  0
LINE
  5
1AF
100
AcDbEntity
100
AcDbLine
  8
0
 62
256
370
-1
  6
BYLAYER
 10
0.100597
 20
1.9223600000000001
 30
0.0
 11
0.0937066
 21
2.0780799999999999
 31
0.0
  0
LINE
  5
1B0
100
AcDbEntity
100
AcDbLine
  8
0
 62
256
370
-1
  6
BYLAYER
 10
0.0950846
 20
94.279899999999998
 30
0.0
 11
0.100597
 21
94.436899999999994
 31
0.0
  0
LINE
  5
1B1
100
AcDbEntity
100
AcDbLine
  8
0
 62
256
370
-1
  6
BYLAYER
 10
0.100597
 20
94.436899999999994
 30
0.0
 11
0.118511
 21
94.592799999999997
 31
0.0
  0
LINE
  5
1B2
100
AcDbEntity
100
AcDbLine
  8
0
 62
256
370
-1
  6
BYLAYER
 10
0.118511
 20
94.592799999999997
 30
0.0
 11
0.150206
 21
94.746899999999997
 31
0.0
  0
LINE
  5
1B3
100
AcDbEntity
100
AcDbLine
  8
0
 62
256
370
-1
  6
BYLAYER
 10
0.150206
 20
94.746899999999997
 30
0.0
 11
0.191547
 21
94.898600000000002
 31
0.0
  0
LINE
  5
1B4
100
AcDbEntity
100
AcDbLine
  8
0
 62
256
370
-1
  6
BYLAYER
 10
0.191547
 20
94.898600000000002
 30
0.0
 11
0.246669
 21
95.046099999999996
 31
0.0
  0
LINE
  5
1B5
100
AcDbEntity
100
AcDbLine
  8
0
 62
256
370
-1
  6
BYLAYER
 10
0.246669
 20
95.046099999999996
 30
0.0
 11
0.311437
 21
95.187899999999999
 31
0.0
  0
LINE
  5
1B6
100
AcDbEntity
100
AcDbLine
  8
0
 62
256
370
-1
  6
BYLAYER
 10
0.311437
 20
95.187899999999999
 30
0.0
 11
0.388606
 21
95.324399999999997
 31
0.0
  0
LINE
  5
1B7
100
AcDbEntity
100
AcDbLine
  8
0
 62
256
370
-1
  6
BYLAYER
 10
0.388606
 20
95.324399999999997
 30
0.0
 11
0.475424
 21
95.455299999999994
 31
0.0
  0
LINE
  5
1B8
100
AcDbEntity
100
AcDbLine
  8
0
 62
256
370
-1
  6
BYLAYER
 10
0.475424
 20
95.455299999999994
 30
0.0
 11
0.573264
 21
95.579499999999996
 31
0.0
  0
LINE
  5
1B9
100
AcDbEntity
100
AcDbLine
  8
0
 62
256
370
-1
  6
BYLAYER
 10
0.573264
 20
95.579499999999996
 30
0.0
 11
0.679372
 21
95.6952
 31
0.0
  0
LINE
  5
1BA
100
AcDbEntity
100
AcDbLine
  8
0
 62
256
370
-1
  6
BYLAYER
 10
0.679372
 20
95.6952
 30
0.0
 11
0.795129
 21
95.801400000000001
 31
0.0
  0
LINE
  5
1BB
100
AcDbEntity
100
AcDbLine
  8
0
 62
256
370
-1
  6
BYLAYER
 10
0.795129
 20
95.801400000000001
 30
0.0
 11
0.919152
 21
95.899100000000004
 31
0.0
  0
LINE
  5
1BC
100
AcDbEntity
100
AcDbLine
  8
0
 62
256
370
-1
  6
BYLAYER
 10
0.919152
 20
95.899100000000004
 30
0.0
 11
1.05006
 21
95.985900000000001
 31
0.0
  0
LINE
  5
1BD
100
AcDbEntity
100
AcDbLine
  8
0
 62
256
370
-1
  6
BYLAYER
 10
1.05006
 20
95.985900000000001
 30
0.0
 11
1.18649
 21
96.063199999999995
 31
0.0
  0
LINE
  5
1BE
100
AcDbEntity
100
AcDbLine
  8
0
 62
256
370
-1
  6
BYLAYER
 10
1.18649
 20
96.063199999999995
 30
0.0
 11
1.32843
 21
96.127700000000004
 31
0.0
  0
LINE
  5
1BF
100
AcDbEntity
100
AcDbLine
  8
0
 62
256
370
-1
  6
BYLAYER
 10
1.32843
 20
96.127700000000004
 30
0.0
 11
1.4758800000000001
 21
96.183099999999996
 31
0.0
  0
LINE
  5
1C0
100
AcDbEntity
100
AcDbLine
  8
0
 62
256
370
-1
  6
BYLAYER
 10
1.4758800000000001
 20
96.183099999999996
 30
0.0
 11
1.6274599999999999
 21
96.224400000000003
 31
0.0
  0
LINE
  5
1C1
100
AcDbEntity
100
AcDbLine
  8
0
 62
256
370
-1
  6
BYLAYER
 10
1.6274599999999999
 20
96.224400000000003
 30
0.0
 11
1.7818000000000001
 21
96.256100000000004
 31
0.0
  0
LINE
  5
1C2
100
AcDbEntity
100
AcDbLine
  8
0
 62
256
370
-1
  6
BYLAYER
 10
1.7818000000000001
 20
96.256100000000004
 30
0.0
 11
1.9375199999999999
 21
96.273799999999994
 31
0.0
  0
LINE
  5
1C3
100
AcDbEntity
100
AcDbLine
  8
0
 62
256
370
-1
  6
BYLAYER
 10
1.9375199999999999
 20
96.273799999999994
 30
0.0
 11
2.0946199999999999
 21
96.280799999999999
 31
0.0
  0
LINE
  5
1C4
100
AcDbEntity
100
AcDbLine
  8
0
 62
256
370
-1
  6
BYLAYER
 10
2.0946199999999999
 20
96.280799999999999
 30
0.0
 11
256.22000000000003
 21
96.279399999999995
 31
0.0
  0
LINE
  5
1C5
100
AcDbEntity
100
AcDbLine
  8
0
 62
0
370
-1
  6
BYLAYER
 10
254.256
 20
5.0064099999999998
 30
0.0
 11
253.839
 21
4.7927999999999997
 31
0.0
  0
LINE
  5
1C6
100
AcDbEntity
100
AcDbLine
  8
0
 62
0
370
-1
  6
BYLAYER
 10
253.839
 20
4.7927999999999997
 30
0.0
 11
253.505
 21
4.4607000000000001
 31
0.0
  0
LINE
  5
1C7
100
AcDbEntity
100
AcDbLine
  8
0
 62
0
370
-1
  6
BYLAYER
 10
253.505
 20
4.4607000000000001
 30
0.0
 11
253.29300000000001
 21
4.0431499999999998
 31
0.0
  0
LINE
  5
1C8
100
AcDbEntity
100
AcDbLine
  8
0
 62
0
370
-1
  6
BYLAYER
 10
253.29300000000001
 20
4.0431499999999998
 30
0.0
 11
253.22
 21
3.5787499999999999
 31
0.0
  0
LINE
  5
1C9
100
AcDbEntity
100
AcDbLine
  8
0
 62
0
370
-1
  6
BYLAYER
 10
253.22
 20
3.5787499999999999
 30
0.0
 11
253.29300000000001
 21
3.1157400000000002
 31
0.0
  0
LINE
  5
1CA
100
AcDbEntity
100
AcDbLine
  8
0
 62
0
370
-1
  6
BYLAYER
 10
253.29300000000001
 20
3.1157400000000002
 30
0.0
 11
253.505
 21
2.6981999999999999
 31
0.0
  0
LINE
  5
1CB
100
AcDbEntity
100
AcDbLine
  8
0
 62
0
370
-1
  6
BYLAYER
 10
253.505
 20
2.6981999999999999
 30
0.0
 11
253.839
 21
2.3660899999999998
 31
0.0
  0
LINE
  5
1CC
100
AcDbEntity
100
AcDbLine
  8
0
 62
0
370
-1
  6
BYLAYER
 10
253.839
 20
2.3660899999999998
 30
0.0
 11
254.256
 21
2.1524899999999998
 31
0.0
  0
LINE
  5
1CD
100
AcDbEntity
100
AcDbLine
  8
0
 62
0
370
-1
  6
BYLAYER
 10
254.256
 20
2.1524899999999998
 30
0.0
 11
254.71899999999999
 21
2.0780799999999999
 31
0.0
  0
LINE
  5
1CE
100
AcDbEntity
100
AcDbLine
  8
0
 62
0
370
-1
  6
BYLAYER
 10
254.71899999999999
 20
2.0780799999999999
 30
0.0
 11
255.184
 21
2.1524899999999998
 31
0.0
  0
LINE
  5
1CF
100
AcDbEntity
100
AcDbLine
  8
0
 62
0
370
-1
  6
BYLAYER
 10
255.184
 20
2.1524899999999998
 30
0.0
 11
255.601
 21
2.3660899999999998
 31
0.0
  0
LINE
  5
1D0
100
AcDbEntity
100
AcDbLine
  8
0
 62
0
370
-1
  6
BYLAYER
 10
255.601
 20
2.3660899999999998
 30
0.0
 11
255.93299999999999
 21
2.6981999999999999
 31
0.0
  0
LINE
  5
1D1
100
AcDbEntity
100
AcDbLine
  8
0
 62
0
370
-1
  6
BYLAYER
 10
255.93299999999999
 20
2.6981999999999999
 30
0.0
 11
256.14699999999999
 21
3.1157400000000002
 31
0.0
  0
LINE
  5
1D2
100
AcDbEntity
100
AcDbLine
  8
0
 62
0
370
-1
  6
BYLAYER
 10
256.14699999999999
 20
3.1157400000000002
 30
0.0
 11
256.22000000000003
 21
3.5787499999999999
 31
0.0
  0
LINE
  5
1D3
100
AcDbEntity
100
AcDbLine
  8
0
 62
0
370
-1
  6
BYLAYER
 10
256.22000000000003
 20
3.5787499999999999
 30
0.0
 11
256.14699999999999
 21
4.0431499999999998
 31
0.0
  0
LINE
  5
1D4
100
AcDbEntity
100
AcDbLine
  8
0
 62
0
370
-1
  6
BYLAYER
 10
256.14699999999999
 20
4.0431499999999998
 30
0.0
 11
255.93299999999999
 21
4.4607000000000001
 31
0.0
  0
LINE
  5
1D5
100
AcDbEntity
100
AcDbLine
  8
0
 62
0
370
-1
  6
BYLAYER
 10
255.93299999999999
 20
4.4607000000000001
 30
0.0
 11
255.601
 21
4.7927999999999997
 31
0.0
  0
LINE
  5
1D6
100
AcDbEntity
100
AcDbLine
  8
0
 62
0
370
-1
  6
BYLAYER
 10
255.601
 20
4.7927999999999997
 30
0.0
 11
255.184
 21
5.0064099999999998
 31
0.0
  0
LINE
  5
1D7
100
AcDbEntity
100
AcDbLine
  8
0
 62
0
370
-1
  6
BYLAYER
 10
255.184
 20
5.0064099999999998
 30
0.0
 11
254.71899999999999
 21
5.0780599999999998
 31
0.0
  0
LINE
  5
1D8
100
AcDbEntity
100
AcDbLine
  8
0
 62
0
370
-1
  6
BYLAYER
 10
254.71899999999999
 20
5.0780599999999998
 30
0.0
 11
254.256
 21
5.0064099999999998
 31
0.0
  0
LINE
  5
1D9
100
AcDbEntity
100
AcDbLine
  8
0
 62
0
370
-1
  6
BYLAYER
 10
128.69399999999999
 20
5.0064099999999998
 30
0.0
 11
128.27600000000001
 21
4.7927999999999997
 31
0.0
  0
LINE
  5
1DA
100
AcDbEntity
100
AcDbLine
  8
0
 62
0
370
-1
  6
BYLAYER
 10
128.27600000000001
 20
4.7927999999999997
 30
0.0
 11
127.944
 21
4.4607000000000001
 31
0.0
  0
LINE
  5
1DB
100
AcDbEntity
100
AcDbLine
  8
0
 62
0
370
-1
  6
BYLAYER
 10
127.944
 20
4.4607000000000001
 30
0.0
 11
127.73
 21
4.0431499999999998
 31
0.0
  0
LINE
  5
1DC
100
AcDbEntity
100
AcDbLine
  8
0
 62
0
370
-1
  6
BYLAYER
 10
127.73
 20
4.0431499999999998
 30
0.0
 11
127.657
 21
3.5787499999999999
 31
0.0
  0
LINE
  5
1DD
100
AcDbEntity
100
AcDbLine
  8
0
 62
0
370
-1
  6
BYLAYER
 10
127.657
 20
3.5787499999999999
 30
0.0
 11
127.73
 21
3.1157400000000002
 31
0.0
  0
LINE
  5
1DE
100
AcDbEntity
100
AcDbLine
  8
0
 62
0
370
-1
  6
BYLAYER
 10
127.73
 20
3.1157400000000002
 30
0.0
 11
127.944
 21
2.6981999999999999
 31
0.0
  0
LINE
  5
1DF
100
AcDbEntity
100
AcDbLine
  8
0
 62
0
370
-1
  6
BYLAYER
 10
127.944
 20
2.6981999999999999
 30
0.0
 11
128.27600000000001
 21
2.3660899999999998
 31
0.0
  0
LINE
  5
1E0
100
AcDbEntity
100
AcDbLine
  8
0
 62
0
370
-1
  6
BYLAYER
 10
128.27600000000001
 20
2.3660899999999998
 30
0.0
 11
128.69399999999999
 21
2.1524899999999998
 31
0.0
  0
LINE
  5
1E1
100
AcDbEntity
100
AcDbLine
  8
0
 62
0
370
-1
  6
BYLAYER
 10
128.69399999999999
 20
2.1524899999999998
 30
0.0
 11
129.15799999999999
 21
2.0780799999999999
 31
0.0
  0
LINE
  5
1E2
100
AcDbEntity
100
AcDbLine
  8
0
 62
0
370
-1
  6
BYLAYER
 10
129.15799999999999
 20
2.0780799999999999
 30
0.0
 11
129.62100000000001
 21
2.1524899999999998
 31
0.0
  0
LINE
  5
1E3
100
AcDbEntity
100
AcDbLine
  8
0
 62
0
370
-1
  6
BYLAYER
 10
129.62100000000001
 20
2.1524899999999998
 30
0.0
 11
130.03800000000001
 21
2.3660899999999998
 31
0.0
  0
LINE
  5
1E4
100
AcDbEntity
100
AcDbLine
  8
0
 62
0
370
-1
  6
BYLAYER
 10
130.03800000000001
 20
2.3660899999999998
 30
0.0
 11
130.37100000000001
 21
2.6981999999999999
 31
0.0
  0
LINE
  5
1E5
100
AcDbEntity
100
AcDbLine
  8
0
 62
0
370
-1
  6
BYLAYER
 10
130.37100000000001
 20
2.6981999999999999
 30
0.0
 11
130.584
 21
3.1157400000000002
 31
0.0
  0
LINE
  5
1E6
100
AcDbEntity
100
AcDbLine
  8
0
 62
0
370
-1
  6
BYLAYER
 10
130.584
 20
3.1157400000000002
 30
0.0
 11
130.65700000000001
 21
3.5787499999999999
 31
0.0
  0
LINE
  5
1E7
100
AcDbEntity
100
AcDbLine
  8
0
 62
0
370
-1
  6
BYLAYER
 10
130.65700000000001
 20
3.5787499999999999
 30
0.0
 11
130.584
 21
4.0431499999999998
 31
0.0
  0
LINE
  5
1E8
100
AcDbEntity
100
AcDbLine
  8
0
 62
0
370
-1
  6
BYLAYER
 10
130.584
 20
4.0431499999999998
 30
0.0
 11
130.37100000000001
 21
4.4607000000000001
 31
0.0
  0
LINE
  5
1E9
100
AcDbEntity
100
AcDbLine
  8
0
 62
0
370
-1
  6
BYLAYER
 10
130.37100000000001
 20
4.4607000000000001
 30
0.0
 11
130.03800000000001
 21
4.7927999999999997
 31
0.0
  0
LINE
  5
1EA
100
AcDbEntity
100
AcDbLine
  8
0
 62
0
370
-1
  6
BYLAYER
 10
130.03800000000001
 20
4.7927999999999997
 30
0.0
 11
129.62100000000001
 21
5.0064099999999998
 31
0.0
  0
LINE
  5
1EB
100
AcDbEntity
100
AcDbLine
  8
0
 62
0
370
-1
  6
BYLAYER
 10
129.62100000000001
 20
5.0064099999999998
 30
0.0
 11
129.15799999999999
 21
5.0780599999999998
 31
0.0
  0
LINE
  5
1EC
100
AcDbEntity
100
AcDbLine
  8
0
 62
0
370
-1
  6
BYLAYER
 10
129.15799999999999
 20
5.0780599999999998
 30
0.0
 11
128.69399999999999
 21
5.0064099999999998
 31
0.0
  0
LINE
  5
1ED
100
AcDbEntity
100
AcDbLine
  8
0
 62
256
370
-1
  6
BYLAYER
 10
3.1309
 20
5.0064099999999998
 30
0.0
 11
2.7133600000000002
 21
4.7927999999999997
 31
0.0
  0
LINE
  5
1EE
100
AcDbEntity
100
AcDbLine
  8
0
 62
256
370
-1
  6
BYLAYER
 10
2.7133600000000002
 20
4.7927999999999997
 30
0.0
 11
2.3812500000000001
 21
4.4607000000000001
 31
0.0
  0
LINE
  5
1EF
100
AcDbEntity
100
AcDbLine
  8
0
 62
256
370
-1
  6
BYLAYER
 10
2.3812500000000001
 20
4.4607000000000001
 30
0.0
 11
2.1676500000000001
 21
4.0431499999999998
 31
0.0
  0
LINE
  5
1F0
100
AcDbEntity
100
AcDbLine
  8
0
 62
256
370
-1
  6
BYLAYER
 10
2.1676500000000001
 20
4.0431499999999998
 30
0.0
 11
2.0932400000000002
 21
3.5787499999999999
 31
0.0
  0
LINE
  5
1F1
100
AcDbEntity
100
AcDbLine
  8
0
 62
256
370
-1
  6
BYLAYER
 10
2.0932400000000002
 20
3.5787499999999999
 30
0.0
 11
2.1676500000000001
 21
3.1157400000000002
 31
0.0
  0
LINE
  5
1F2
100
AcDbEntity
100
AcDbLine
  8
0
 62
256
370
-1
  6
BYLAYER
 10
2.1676500000000001
 20
3.1157400000000002
 30
0.0
 11
2.3812500000000001
 21
2.6981999999999999
 31
0.0
  0
LINE
  5
1F3
100
AcDbEntity
100
AcDbLine
  8
0
 62
256
370
-1
  6
BYLAYER
 10
2.3812500000000001
 20
2.6981999999999999
 30
0.0
 11
2.7133600000000002
 21
2.3660899999999998
 31
0.0
  0
LINE
  5
1F4
100
AcDbEntity
100
AcDbLine
  8
0
 62
256
370
-1
  6
BYLAYER
 10
2.7133600000000002
 20
2.3660899999999998
 30
0.0
 11
3.1309
 21
2.1524899999999998
 31
0.0
  0
LINE
  5
1F5
100
AcDbEntity
100
AcDbLine
  8
0
 62
256
370
-1
  6
BYLAYER
 10
3.1309
 20
2.1524899999999998
 30
0.0
 11
3.5952999999999999
 21
2.0780799999999999
 31
0.0
  0
LINE
  5
1F6
100
AcDbEntity
100
AcDbLine
  8
0
 62
256
370
-1
  6
BYLAYER
 10
3.5952999999999999
 20
2.0780799999999999
 30
0.0
 11
4.0583200000000001
 21
2.1524899999999998
 31
0.0
  0
LINE
  5
1F7
100
AcDbEntity
100
AcDbLine
  8
0
 62
256
370
-1
  6
BYLAYER
 10
4.0583200000000001
 20
2.1524899999999998
 30
0.0
 11
4.4758699999999996
 21
2.3660899999999998
 31
0.0
  0
LINE
  5
1F8
100
AcDbEntity
100
AcDbLine
  8
0
 62
256
370
-1
  6
BYLAYER
 10
4.4758699999999996
 20
2.3660899999999998
 30
0.0
 11
4.8079700000000001
 21
2.6981999999999999
 31
0.0
  0
LINE
  5
1F9
100
AcDbEntity
100
AcDbLine
  8
0
 62
256
370
-1
  6
BYLAYER
 10
4.8079700000000001
 20
2.6981999999999999
 30
0.0
 11
5.0202
 21
3.1157400000000002
 31
0.0
  0
LINE
  5
1FA
100
AcDbEntity
100
AcDbLine
  8
0
 62
256
370
-1
  6
BYLAYER
 10
5.0202
 20
3.1157400000000002
 30
0.0
 11
5.0945999999999998
 21
3.5787499999999999
 31
0.0
  0
LINE
  5
1FB
100
AcDbEntity
100
AcDbLine
  8
0
 62
256
370
-1
  6
BYLAYER
 10
5.0945999999999998
 20
3.5787499999999999
 30
0.0
 11
5.0202
 21
4.0431499999999998
 31
0.0
  0
LINE
  5
1FC
100
AcDbEntity
100
AcDbLine
  8
0
 62
256
370
-1
  6
BYLAYER
 10
5.0202
 20
4.0431499999999998
 30
0.0
 11
4.8079700000000001
 21
4.4607000000000001
 31
0.0
  0
LINE
  5
1FD
100
AcDbEntity
100
AcDbLine
  8
0
 62
256
370
-1
  6
BYLAYER
 10
4.8079700000000001
 20
4.4607000000000001
 30
0.0
 11
4.4758699999999996
 21
4.7927999999999997
 31
0.0
  0
LINE
  5
1FE
100
AcDbEntity
100
AcDbLine
  8
0
 62
256
370
-1
  6
BYLAYER
 10
4.4758699999999996
 20
4.7927999999999997
 30
0.0
 11
4.0583200000000001
 21
5.0064099999999998
 31
0.0
  0
LINE
  5
1FF
100
AcDbEntity
100
AcDbLine
  8
0
 62
256
370
-1
  6
BYLAYER
 10
4.0583200000000001
 20
5.0064099999999998
 30
0.0
 11
3.5952999999999999
 21
5.0780599999999998
 31
0.0
  0
LINE
  5
200
100
AcDbEntity
100
AcDbLine
  8
0
 62
256
370
-1
  6
BYLAYER
 10
3.5952999999999999
 20
5.0780599999999998
 30
0.0
 11
3.1309
 21
5.0064099999999998
 31
0.0
  0
LINE
  5
201
100
AcDbEntity
100
AcDbLine
  8
0
 62
0
370
-1
  6
BYLAYER
 10
253.505
 20
91.898600000000002
 30
0.0
 11
253.839
 21
91.566599999999994
 31
0.0
  0
LINE
  5
202
100
AcDbEntity
100
AcDbLine
  8
0
 62
0
370
-1
  6
BYLAYER
 10
255.601
 20
91.566599999999994
 30
0.0
 11
255.93299999999999
 21
91.898600000000002
 31
0.0
  0
LINE
  5
203
100
AcDbEntity
100
AcDbLine
  8
0
 62
0
370
-1
  6
BYLAYER
 10
255.601
 20
93.993399999999994
 30
0.0
 11
255.184
 21
94.206800000000001
 31
0.0
  0
LINE
  5
204
100
AcDbEntity
100
AcDbLine
  8
0
 62
256
370
-1
  6
BYLAYER
 10
3.1309
 20
94.206800000000001
 30
0.0
 11
2.7133600000000002
 21
93.993399999999994
 31
0.0
  0
LINE
  5
205
100
AcDbEntity
100
AcDbLine
  8
0
 62
256
370
-1
  6
BYLAYER
 10
2.3812500000000001
 20
93.661100000000005
 30
0.0
 11
2.1676500000000001
 21
93.243700000000004
 31
0.0
  0
LINE
  5
206
100
AcDbEntity
100
AcDbLine
  8
0
 62
256
370
-1
  6
BYLAYER
 10
2.0932400000000002
 20
92.7791
 30
0.0
 11
2.1676500000000001
 21
92.316299999999998
 31
0.0
  0
LINE
  5
207
100
AcDbEntity
100
AcDbLine
  8
0
 62
256
370
-1
  6
BYLAYER
 10
2.1676500000000001
 20
92.316299999999998
 30
0.0
 11
2.3812500000000001
 21
91.898600000000002
 31
0.0
  0
LINE
  5
208
100
AcDbEntity
100
AcDbLine
  8
0
 62
256
370
-1
  6
BYLAYER
 10
2.7133600000000002
 20
91.566599999999994
 30
0.0
 11
3.1309
 21
91.354299999999995
 31
0.0
  0
LINE
  5
209
100
AcDbEntity
100
AcDbLine
  8
0
 62
256
370
-1
  6
BYLAYER
 10
3.1309
 20
91.354299999999995
 30
0.0
 11
3.5952999999999999
 21
91.279799999999994
 31
0.0
  0
LINE
  5
20A
100
AcDbEntity
100
AcDbLine
  8
0
 62
256
370
-1
  6
BYLAYER
 10
5.0202
 20
92.316299999999998
 30
0.0
 11
5.0945999999999998
 21
92.7791
 31
0.0
  0
LINE
  5
20B
100
AcDbEntity
100
AcDbLine
  8
0
 62
256
370
-1
  6
BYLAYER
 10
4.0583200000000001
 20
94.206800000000001
 30
0.0
 11
3.5952999999999999
 21
94.279899999999998
 31
0.0
  0
LINE
  5
20C
100
AcDbEntity
100
AcDbLine
  8
0
 62
256
370
-1
  6
BYLAYER
 10
3.5950866000000072
 20
44.578130000000016
 30
0.0
 11
3.1306865999999953
 21
44.505030000000062
 31
0.0
  0
LINE
  5
20D
100
AcDbEntity
100
AcDbLine
  8
0
 62
256
370
-1
  6
BYLAYER
 10
3.595300000000071
 20
94.279900000000026
 30
0.0
 11
3.1309000000000733
 21
94.206800000000015
 31
0.0
  0
LINE
  5
20E
100
AcDbEntity
100
AcDbLine
  8
0
 62
256
370
-1
  6
BYLAYER
 10
3.1306865999999953
 20
44.505030000000062
 30
0.0
 11
2.7131466000000213
 21
44.291630000000026
 31
0.0
  0
LINE
  5
20F
100
AcDbEntity
100
AcDbLine
  8
0
 62
256
370
-1
  6
BYLAYER
 10
2.7131466000000213
 20
44.291630000000026
 30
0.0
 11
2.3810365999999643
 21
43.959330000000051
 31
0.0
  0
LINE
  5
210
100
AcDbEntity
100
AcDbLine
  8
0
 62
256
370
-1
  6
BYLAYER
 10
2.3810365999999643
 20
43.959330000000051
 30
0.0
 11
2.167436599999979
 21
43.541930000000008
 31
0.0
  0
LINE
  5
211
100
AcDbEntity
100
AcDbLine
  8
0
 62
256
370
-1
  6
BYLAYER
 10
2.167436599999979
 20
43.541930000000008
 30
0.0
 11
2.0930265999999786
 21
43.077330000000046
 31
0.0
  0
LINE
  5
212
100
AcDbEntity
100
AcDbLine
  8
0
 62
256
370
-1
  6
BYLAYER
 10
2.0930265999999786
 20
43.077330000000046
 30
0.0
 11
2.167436599999979
 21
42.61453000000003
 31
0.0
  0
LINE
  5
213
100
AcDbEntity
100
AcDbLine
  8
0
 62
256
370
-1
  6
BYLAYER
 10
2.167436599999979
 20
42.61453000000003
 30
0.0
 11
2.3810365999999643
 21
42.196830000000006
 31
0.0
  0
LINE
  5
214
100
AcDbEntity
100
AcDbLine
  8
0
 62
256
370
-1
  6
BYLAYER
 10
2.3810365999999643
 20
42.196830000000006
 30
0.0
 11
2.7131466000000213
 21
41.864830000000012
 31
0.0
  0
LINE
  5
215
100
AcDbEntity
100
AcDbLine
  8
0
 62
256
370
-1
  6
BYLAYER
 10
2.7131466000000213
 20
41.864830000000012
 30
0.0
 11
3.1306865999999953
 21
41.652530000000041
 31
0.0
  0
LINE
  5
216
100
AcDbEntity
100
AcDbLine
  8
0
 62
256
370
-1
  6
BYLAYER
 10
3.1306865999999953
 20
41.652530000000041
 30
0.0
 11
3.5950866000000072
 21
41.578030000000041
 31
0.0
  0
LINE
  5
217
100
AcDbEntity
100
AcDbLine
  8
0
 62
256
370
-1
  6
BYLAYER
 10
3.5950866000000072
 20
41.578030000000041
 30
0.0
 11
4.0581066000000359
 21
41.652530000000041
 31
0.0
  0
LINE
  5
218
100
AcDbEntity
100
AcDbLine
  8
0
 62
256
370
-1
  6
BYLAYER
 10
4.0581066000000359
 20
41.652530000000041
 30
0.0
 11
4.4756565999999847
 21
41.864830000000012
 31
0.0
  0
LINE
  5
219
100
AcDbEntity
100
AcDbLine
  8
0
 62
256
370
-1
  6
BYLAYER
 10
4.4756565999999847
 20
41.864830000000012
 30
0.0
 11
4.80775660000001
 21
42.196830000000006
 31
0.0
  0
LINE
  5
21A
100
AcDbEntity
100
AcDbLine
  8
0
 62
256
370
-1
  6
BYLAYER
 10
4.80775660000001
 20
42.196830000000006
 30
0.0
 11
5.0199865999999869
 21
42.61453000000003
 31
0.0
  0
LINE
  5
21B
100
AcDbEntity
100
AcDbLine
  8
0
 62
256
370
-1
  6
BYLAYER
 10
5.0199865999999869
 20
42.61453000000003
 30
0.0
 11
5.0943866000000124
 21
43.077330000000046
 31
0.0
  0
LINE
  5
21C
100
AcDbEntity
100
AcDbLine
  8
0
 62
256
370
-1
  6
BYLAYER
 10
5.0943866000000124
 20
72.377330000000029
 30
0.0
 11
5.0199865999999869
 21
72.841929999999991
 31
0.0
  0
LINE
  5
21D
100
AcDbEntity
100
AcDbLine
  8
0
 62
256
370
-1
  6
BYLAYER
 10
5.0199865999999869
 20
72.841929999999991
 30
0.0
 11
4.80775660000001
 21
73.259330000000034
 31
0.0
  0
LINE
  5
21E
100
AcDbEntity
100
AcDbLine
  8
0
 62
256
370
-1
  6
BYLAYER
 10
4.80775660000001
 20
73.259330000000034
 30
0.0
 11
4.4756565999999847
 21
73.591630000000009
 31
0.0
  0
LINE
  5
21F
100
AcDbEntity
100
AcDbLine
  8
0
 62
256
370
-1
  6
BYLAYER
 10
4.4756565999999847
 20
73.591630000000009
 30
0.0
 11
4.0581066000000359
 21
73.805030000000045
 31
0.0
  0
LINE
  5
220
100
AcDbEntity
100
AcDbLine
  8
0
 62
256
370
-1
  6
BYLAYER
 10
4.0581066000000359
 20
73.805030000000045
 30
0.0
 11
3.5950866000000072
 21
73.878129999999999
 31
0.0
  0
LINE
  5
221
100
AcDbEntity
100
AcDbLine
  8
0
 62
256
370
-1
  6
BYLAYER
 10
3.5950866000000072
 20
73.878129999999999
 30
0.0
 11
3.1306865999999953
 21
73.805030000000045
 31
0.0
  0
LINE
  5
222
100
AcDbEntity
100
AcDbLine
  8
0
 62
256
370
-1
  6
BYLAYER
 10
3.1306865999999953
 20
73.805030000000045
 30
0.0
 11
2.7131466000000213
 21
73.591630000000009
 31
0.0
  0
LINE
  5
223
100
AcDbEntity
100
AcDbLine
  8
0
 62
256
370
-1
  6
BYLAYER
 10
4.0583200000000712
 20
91.354299999999995
 30
0.0
 11
4.47587000000002
 21
91.566599999999966
 31
0.0
  0
LINE
  5
224
100
AcDbEntity
100
AcDbLine
  8
0
 62
256
370
-1
  6
BYLAYER
 10
2.7131466000000213
 20
73.591630000000009
 30
0.0
 11
2.3810365999999643
 21
73.259330000000034
 31
0.0
  0
LINE
  5
225
100
AcDbEntity
100
AcDbLine
  8
0
 62
256
370
-1
  6
BYLAYER
 10
2.3810365999999643
 20
73.259330000000034
 30
0.0
 11
2.167436599999979
 21
72.841929999999991
 31
0.0
  0
LINE
  5
226
100
AcDbEntity
100
AcDbLine
  8
0
 62
256
370
-1
  6
BYLAYER
 10
2.167436599999979
 20
72.841929999999991
 30
0.0
 11
2.0930265999999786
 21
72.377330000000029
 31
0.0
  0
LINE
  5
227
100
AcDbEntity
100
AcDbLine
  8
0
 62
256
370
-1
  6
BYLAYER
 10
2.0930265999999786
 20
72.377330000000029
 30
0.0
 11
2.167436599999979
 21
71.914530000000013
 31
0.0
  0
LINE
  5
228
100
AcDbEntity
100
AcDbLine
  8
0
 62
256
370
-1
  6
BYLAYER
 10
2.167436599999979
 20
71.914530000000013
 30
0.0
 11
2.3810365999999643
 21
71.496829999999989
 31
0.0
  0
LINE
  5
229
100
AcDbEntity
100
AcDbLine
  8
0
 62
256
370
-1
  6
BYLAYER
 10
2.3810365999999643
 20
71.496829999999989
 30
0.0
 11
2.7131466000000213
 21
71.164829999999995
 31
0.0
  0
LINE
  5
22A
100
AcDbEntity
100
AcDbLine
  8
0
 62
256
370
-1
  6
BYLAYER
 10
4.8079700000000454
 20
93.661100000000005
 30
0.0
 11
4.47587000000002
 21
93.99339999999998
 31
0.0
  0
LINE
  5
22B
100
AcDbEntity
100
AcDbLine
  8
0
 62
256
370
-1
  6
BYLAYER
 10
2.7131466000000213
 20
71.164829999999995
 30
0.0
 11
3.1306865999999953
 21
70.952530000000024
 31
0.0
  0
LINE
  5
22C
100
AcDbEntity
100
AcDbLine
  8
0
 62
256
370
-1
  6
BYLAYER
 10
4.47587000000002
 20
93.99339999999998
 30
0.0
 11
4.0583200000000712
 21
94.206800000000015
 31
0.0
  0
LINE
  5
22D
100
AcDbEntity
100
AcDbLine
  8
0
 62
256
370
-1
  6
BYLAYER
 10
3.1306865999999953
 20
70.952530000000024
 30
0.0
 11
3.5950866000000072
 21
70.878030000000024
 31
0.0
  0
LINE
  5
22E
100
AcDbEntity
100
AcDbLine
  8
0
 62
256
370
-1
  6
BYLAYER
 10
3.5950866000000072
 20
70.878030000000024
 30
0.0
 11
4.0581066000000359
 21
70.952530000000024
 31
0.0
  0
LINE
  5
22F
100
AcDbEntity
100
AcDbLine
  8
0
 62
256
370
-1
  6
BYLAYER
 10
2.1676500000000711
 20
93.243700000000018
 30
0.0
 11
2.0932400000000708
 21
92.779100000000028
 31
0.0
  0
LINE
  5
230
100
AcDbEntity
100
AcDbLine
  8
0
 62
256
370
-1
  6
BYLAYER
 10
4.0581066000000359
 20
70.952530000000024
 30
0.0
 11
4.4756565999999847
 21
71.164829999999995
 31
0.0
  0
LINE
  5
231
100
AcDbEntity
100
AcDbLine
  8
0
 62
256
370
-1
  6
BYLAYER
 10
4.4756565999999847
 20
71.164829999999995
 30
0.0
 11
4.80775660000001
 21
71.496829999999989
 31
0.0
  0
LINE
  5
232
100
AcDbEntity
100
AcDbLine
  8
0
 62
256
370
-1
  6
BYLAYER
 10
2.3812500000000707
 20
91.898600000000016
 30
0.0
 11
2.7133600000000708
 21
91.566600000000022
 31
0.0
  0
LINE
  5
233
100
AcDbEntity
100
AcDbLine
  8
0
 62
256
370
-1
  6
BYLAYER
 10
4.80775660000001
 20
71.496829999999989
 30
0.0
 11
5.0199865999999869
 21
71.914530000000013
 31
0.0
  0
LINE
  5
234
100
AcDbEntity
100
AcDbLine
  8
0
 62
256
370
-1
  6
BYLAYER
 10
5.0199865999999869
 20
71.914530000000013
 30
0.0
 11
5.0943866000000124
 21
72.377330000000029
 31
0.0
  0
LINE
  5
235
100
AcDbEntity
100
AcDbLine
  8
0
 62
256
370
-1
  6
BYLAYER
 10
5.0943866000000124
 20
43.077330000000046
 30
0.0
 11
5.0199865999999869
 21
43.541930000000008
 31
0.0
  0
LINE
  5
236
100
AcDbEntity
100
AcDbLine
  8
0
 62
256
370
-1
  6
BYLAYER
 10
5.0199865999999869
 20
43.541930000000008
 30
0.0
 11
4.80775660000001
 21
43.959330000000051
 31
0.0
  0
LINE
  5
237
100
AcDbEntity
100
AcDbLine
  8
0
 62
256
370
-1
  6
BYLAYER
 10
4.4758700000000768
 20
91.566600000000022
 30
0.0
 11
4.8079700000000738
 21
91.898600000000016
 31
0.0
  0
LINE
  5
238
100
AcDbEntity
100
AcDbLine
  8
0
 62
256
370
-1
  6
BYLAYER
 10
4.80775660000001
 20
43.959330000000051
 30
0.0
 11
4.4756565999999847
 21
44.291630000000026
 31
0.0
  0
LINE
  5
239
100
AcDbEntity
100
AcDbLine
  8
0
 62
256
370
-1
  6
BYLAYER
 10
4.4756565999999847
 20
44.291630000000026
 30
0.0
 11
4.0581066000000359
 21
44.505030000000062
 31
0.0
  0
LINE
  5
23A
100
AcDbEntity
100
AcDbLine
  8
0
 62
256
370
-1
  6
BYLAYER
 10
4.0581066000000359
 20
44.505030000000062
 30
0.0
 11
3.5950866000000072
 21
44.578130000000016
 31
0.0
  0
LINE
  5
23B
100
AcDbEntity
100
AcDbLine
  8
0
 62
256
370
-1
  6
BYLAYER
 10
5.020200000000079
 20
93.243700000000018
 30
0.0
 11
4.8079700000000738
 21
93.661100000000033
 31
0.0
  0
LINE
  5
23C
100
AcDbEntity
100
AcDbLine
  8
0
 62
256
370
-1
  6
BYLAYER
 10
254.25070659999989
 20
49.67507999999998
 30
0.0
 11
253.83370659999991
 21
49.461679999999959
 31
0.0
  0
LINE
  5
23D
100
AcDbEntity
100
AcDbLine
  8
0
 62
256
370
-1
  6
BYLAYER
 10
253.83370659999991
 20
49.461679999999959
 30
0.0
 11
253.49970659999997
 21
49.129379999999998
 31
0.0
  0
LINE
  5
23E
100
AcDbEntity
100
AcDbLine
  8
0
 62
256
370
-1
  6
BYLAYER
 10
253.49970659999997
 20
49.129379999999998
 30
0.0
 11
253.28770659999998
 21
48.71197999999994
 31
0.0
  0
LINE
  5
23F
100
AcDbEntity
100
AcDbLine
  8
0
 62
256
370
-1
  6
BYLAYER
 10
253.28770659999998
 20
48.71197999999994
 30
0.0
 11
253.21470659999989
 21
48.247379999999978
 31
0.0
  0
LINE
  5
240
100
AcDbEntity
100
AcDbLine
  8
0
 62
256
370
-1
  6
BYLAYER
 10
253.21470659999989
 20
48.247379999999978
 30
0.0
 11
253.28770659999998
 21
47.784579999999977
 31
0.0
  0
LINE
  5
241
100
AcDbEntity
100
AcDbLine
  8
0
 62
256
370
-1
  6
BYLAYER
 10
253.28770659999998
 20
47.784579999999977
 30
0.0
 11
253.49970659999997
 21
47.366879999999938
 31
0.0
  0
LINE
  5
242
100
AcDbEntity
100
AcDbLine
  8
0
 62
256
370
-1
  6
BYLAYER
 10
253.49970659999997
 20
47.366879999999938
 30
0.0
 11
253.83370659999991
 21
47.03487999999993
 31
0.0
  0
LINE
  5
243
100
AcDbEntity
100
AcDbLine
  8
0
 62
256
370
-1
  6
BYLAYER
 10
253.83370659999991
 20
47.03487999999993
 30
0.0
 11
254.25070659999989
 21
46.822579999999988
 31
0.0
  0
LINE
  5
244
100
AcDbEntity
100
AcDbLine
  8
0
 62
256
370
-1
  6
BYLAYER
 10
254.25070659999989
 20
46.822579999999988
 30
0.0
 11
254.71370659999991
 21
46.748079999999987
 31
0.0
  0
LINE
  5
245
100
AcDbEntity
100
AcDbLine
  8
0
 62
256
370
-1
  6
BYLAYER
 10
254.71370659999991
 20
46.748079999999987
 30
0.0
 11
255.17870659999983
 21
46.822579999999988
 31
0.0
  0
LINE
  5
246
100
AcDbEntity
100
AcDbLine
  8
0
 62
256
370
-1
  6
BYLAYER
 10
255.17870659999983
 20
46.822579999999988
 30
0.0
 11
255.59570659999997
 21
47.03487999999993
 31
0.0
  0
LINE
  5
247
100
AcDbEntity
100
AcDbLine
  8
0
 62
256
370
-1
  6
BYLAYER
 10
255.59570659999997
 20
47.03487999999993
 30
0.0
 11
255.92770659999979
 21
47.366879999999938
 31
0.0
  0
LINE
  5
248
100
AcDbEntity
100
AcDbLine
  8
0
 62
256
370
-1
  6
BYLAYER
 10
255.92770659999979
 20
47.366879999999938
 30
0.0
 11
256.14170659999991
 21
47.784579999999977
 31
0.0
  0
LINE
  5
249
100
AcDbEntity
100
AcDbLine
  8
0
 62
256
370
-1
  6
BYLAYER
 10
256.14170659999991
 20
47.784579999999977
 30
0.0
 11
256.21470659999989
 21
48.247379999999978
 31
0.0
  0
LINE
  5
24A
100
AcDbEntity
100
AcDbLine
  8
0
 62
256
370
-1
  6
BYLAYER
 10
256.21470659999989
 20
48.247379999999978
 30
0.0
 11
256.14170659999991
 21
48.71197999999994
 31
0.0
  0
LINE
  5
24B
100
AcDbEntity
100
AcDbLine
  8
0
 62
256
370
-1
  6
BYLAYER
 10
256.14170659999991
 20
48.71197999999994
 30
0.0
 11
255.92770659999979
 21
49.129379999999998
 31
0.0
  0
LINE
  5
24C
100
AcDbEntity
100
AcDbLine
  8
0
 62
256
370
-1
  6
BYLAYER
 10
255.92770659999979
 20
49.129379999999998
 30
0.0
 11
255.59570659999997
 21
49.461679999999959
 31
0.0
  0
LINE
  5
24D
100
AcDbEntity
100
AcDbLine
  8
0
 62
256
370
-1
  6
BYLAYER
 10
255.59570659999997
 20
49.461679999999959
 30
0.0
 11
255.17870659999983
 21
49.67507999999998
 31
0.0
  0
LINE
  5
24E
100
AcDbEntity
100
AcDbLine
  8
0
 62
256
370
-1
  6
BYLAYER
 10
255.17870659999983
 20
49.67507999999998
 30
0.0
 11
254.71370659999991
 21
49.748179999999948
 31
0.0
  0
LINE
  5
24F
100
AcDbEntity
100
AcDbLine
  8
0
 62
256
370
-1
  6
BYLAYER
 10
254.71370659999991
 20
49.748179999999948
 30
0.0
 11
254.25070659999989
 21
49.67507999999998
 31
0.0
  0
LINE
  5
250
100
AcDbEntity
100
AcDbLine
  8
0
 62
256
370
-1
  6
BYLAYER
 10
2.7133599999999998
 20
93.993399999999994
 30
0.0
 11
2.3812499999999996
 21
93.661100000000005
 31
0.0
  0
LINE
  5
251
100
AcDbEntity
100
AcDbLine
  8
0
 62
256
370
-1
  6
BYLAYER
 10
3.5952999999999999
 20
91.279799999999994
 30
0.0
 11
4.0583200000000001
 21
91.354299999999995
 31
0.0
  0
LINE
  5
252
100
AcDbEntity
100
AcDbLine
  8
0
 62
256
370
-1
  6
BYLAYER
 10
4.8079700000000027
 20
91.898600000000002
 30
0.0
 11
5.020200000000008
 21
92.316299999999998
 31
0.0
  0
LINE
  5
253
100
AcDbEntity
100
AcDbLine
  8
0
 62
256
370
-1
  6
BYLAYER
 10
5.0946000000000051
 20
92.7791
 30
0.0
 11
5.020200000000008
 21
93.243700000000004
 31
0.0
  0
LINE
  5
254
100
AcDbEntity
100
AcDbLine
  8
0
 62
256
370
-1
  6
BYLAYER
 10
0.0937065999999618
 20
2.0780800000000141
 30
0.0
 11
0.0999280860273757
 21
44.499550044615674
 31
0.0
  0
LINE
  5
255
100
AcDbEntity
100
AcDbLine
  8
0
 62
256
370
-1
  6
BYLAYER
 10
7.0999999999999659
 20
46.499999999999986
 30
0.0
 11
7.0941500000000133
 21
7.0789799999999872
 31
0.0
  0
LINE
  5
256
100
AcDbEntity
100
AcDbLine
  8
0
 62
256
370
-1
  6
BYLAYER
 10
0.0949657582811483
 20
70.899766546302189
 30
0.0
 11
0.0980223152199073
 21
94.363569778956887
 31
0.0
  0
LINE
  5
257
100
AcDbEntity
100
AcDbLine
  8
0
 62
256
370
-1
  6
BYLAYER
 10
7.0999999999999659
 20
68.899999999999991
 30
0.0
 11
7.0941500000000133
 21
89.280299999999997
 31
0.0
  0
LINE
  5
258
100
AcDbEntity
100
AcDbLine
  8
0
 62
256
370
-1
  6
BYLAYER
 10
2.0999999999999659
 20
68.90000000000002
 30
0.0
 11
7.0999999999999659
 21
68.899999999999991
 31
0.0
  0
LINE
  5
259
100
AcDbEntity
100
AcDbLine
  8
0
 62
256
370
-1
  6
BYLAYER
 10
2.0997676981681934
 20
46.500021369165935
 30
0.0
 11
7.0999999999999659
 21
46.499999999999986
 31
0.0
  0
LINE
  5
25A
100
AcDbEntity
100
AcDbLine
  8
0
 62
256
370
-1
  6
BYLAYER
 10
0.8009657000000061
 20
69.379790949999986
 30
0.0
 11
0.6852087000000324
 21
69.48589994999999
 31
0.0
  0
LINE
  5
25B
100
AcDbEntity
100
AcDbLine
  8
0
 62
256
370
-1
  6
BYLAYER
 10
0.6852087000000324
 20
69.48589994999999
 30
0.0
 11
0.5791006999999695
 21
69.603031949999988
 31
0.0
  0
LINE
  5
25C
100
AcDbEntity
100
AcDbLine
  8
0
 62
256
370
-1
  6
BYLAYER
 10
0.5791006999999695
 20
69.603031949999988
 30
0.0
 11
0.4812607000000071
 21
69.725678949999988
 31
0.0
  0
LINE
  5
25D
100
AcDbEntity
100
AcDbLine
  8
0
 62
256
370
-1
  6
BYLAYER
 10
0.4812607000000071
 20
69.725678949999988
 30
0.0
 11
0.3944427000000133
 21
69.856595949999971
 31
0.0
  0
LINE
  5
25E
100
AcDbEntity
100
AcDbLine
  8
0
 62
256
370
-1
  6
BYLAYER
 10
0.3944427000000133
 20
69.856595949999971
 30
0.0
 11
0.317273699999987
 21
69.993015949999986
 31
0.0
  0
LINE
  5
25F
100
AcDbEntity
100
AcDbLine
  8
0
 62
256
370
-1
  6
BYLAYER
 10
0.317273699999987
 20
69.993015949999986
 30
0.0
 11
0.252505699999972
 21
70.134955949999991
 31
0.0
  0
LINE
  5
260
100
AcDbEntity
100
AcDbLine
  8
0
 62
256
370
-1
  6
BYLAYER
 10
0.252505699999972
 20
70.134955949999991
 30
0.0
 11
0.197383699999989
 21
70.282405949999983
 31
0.0
  0
LINE
  5
261
100
AcDbEntity
100
AcDbLine
  8
0
 62
256
370
-1
  6
BYLAYER
 10
0.197383699999989
 20
70.282405949999983
 30
0.0
 11
0.1560427000000004
 21
70.433985950000007
 31
0.0
  0
LINE
  5
262
100
AcDbEntity
100
AcDbLine
  8
0
 62
256
370
-1
  6
BYLAYER
 10
0.1560427000000004
 20
70.433985950000007
 30
0.0
 11
0.1243476999999871
 21
70.588325949999998
 31
0.0
  0
LINE
  5
263
100
AcDbEntity
100
AcDbLine
  8
0
 62
256
370
-1
  6
BYLAYER
 10
0.1243476999999871
 20
70.588325949999998
 30
0.0
 11
0.1064336999999682
 21
70.744045949999972
 31
0.0
  0
LINE
  5
264
100
AcDbEntity
100
AcDbLine
  8
0
 62
256
370
-1
  6
BYLAYER
 10
0.1064336999999682
 20
70.744045949999972
 30
0.0
 11
0.0949657582811483
 21
70.89976654630216
 31
0.0
  0
LINE
  5
265
100
AcDbEntity
100
AcDbLine
  8
0
 62
256
370
-1
  6
BYLAYER
 10
2.0999999999999659
 20
68.90000000000002
 30
0.0
 11
1.9433566999999812
 21
68.907124450000012
 31
0.0
  0
LINE
  5
266
100
AcDbEntity
100
AcDbLine
  8
0
 62
256
370
-1
  6
BYLAYER
 10
1.9433566999999812
 20
68.907124450000012
 30
0.0
 11
1.7876367000000073
 21
68.925038949999973
 31
0.0
  0
LINE
  5
267
100
AcDbEntity
100
AcDbLine
  8
0
 62
256
370
-1
  6
BYLAYER
 10
1.7876367000000073
 20
68.925038949999973
 30
0.0
 11
1.6332967000000167
 21
68.956733949999986
 31
0.0
  0
LINE
  5
268
100
AcDbEntity
100
AcDbLine
  8
0
 62
256
370
-1
  6
BYLAYER
 10
1.6332967000000167
 20
68.956733949999986
 30
0.0
 11
1.4817166999999927
 21
68.998074949999975
 31
0.0
  0
LINE
  5
269
100
AcDbEntity
100
AcDbLine
  8
0
 62
256
370
-1
  6
BYLAYER
 10
1.4817166999999927
 20
68.998074949999975
 30
0.0
 11
1.3342667000000006
 21
69.053195949999989
 31
0.0
  0
LINE
  5
26A
100
AcDbEntity
100
AcDbLine
  8
0
 62
256
370
-1
  6
BYLAYER
 10
1.3342667000000006
 20
69.053195949999989
 30
0.0
 11
1.1923267000000237
 21
69.117963949999975
 31
0.0
  0
LINE
  5
26B
100
AcDbEntity
100
AcDbLine
  8
0
 62
256
370
-1
  6
BYLAYER
 10
1.1923267000000237
 20
69.117963949999975
 30
0.0
 11
1.0558967000000052
 21
69.195132950000001
 31
0.0
  0
LINE
  5
26C
100
AcDbEntity
100
AcDbLine
  8
0
 62
256
370
-1
  6
BYLAYER
 10
1.0558967000000052
 20
69.195132950000001
 30
0.0
 11
0.9249887000000285
 21
69.281951949999993
 31
0.0
  0
LINE
  5
26D
100
AcDbEntity
100
AcDbLine
  8
0
 62
256
370
-1
  6
BYLAYER
 10
0.9249887000000285
 20
69.281951949999993
 30
0.0
 11
0.8009657000000061
 21
69.379790949999986
 31
0.0
  0
LINE
  5
26E
100
AcDbEntity
100
AcDbLine
  8
0
 62
256
370
-1
  6
BYLAYER
 10
0.8002766999999835
 20
46.021049999999981
 30
0.0
 11
0.9242997000000059
 21
46.118750000000027
 31
0.0
  0
LINE
  5
26F
100
AcDbEntity
100
AcDbLine
  8
0
 62
256
370
-1
  6
BYLAYER
 10
0.9242997000000059
 20
46.118750000000027
 30
0.0
 11
1.0552077000000395
 21
46.205550000000002
 31
0.0
  0
LINE
  5
270
100
AcDbEntity
100
AcDbLine
  8
0
 62
256
370
-1
  6
BYLAYER
 10
1.0552077000000395
 20
46.205550000000002
 30
0.0
 11
1.1916377000000011
 21
46.282849999999982
 31
0.0
  0
LINE
  5
271
100
AcDbEntity
100
AcDbLine
  8
0
 62
256
370
-1
  6
BYLAYER
 10
1.1916377000000011
 20
46.282849999999982
 30
0.0
 11
1.3335777000000348
 21
46.347349999999992
 31
0.0
  0
LINE
  5
272
100
AcDbEntity
100
AcDbLine
  8
0
 62
256
370
-1
  6
BYLAYER
 10
1.3335777000000348
 20
46.347349999999992
 30
0.0
 11
1.4810276999999701
 21
46.402750000000012
 31
0.0
  0
LINE
  5
273
100
AcDbEntity
100
AcDbLine
  8
0
 62
256
370
-1
  6
BYLAYER
 10
1.4810276999999701
 20
46.402750000000012
 30
0.0
 11
1.6326076999999941
 21
46.444049999999997
 31
0.0
  0
LINE
  5
274
100
AcDbEntity
100
AcDbLine
  8
0
 62
256
370
-1
  6
BYLAYER
 10
1.6326076999999941
 20
46.444049999999997
 30
0.0
 11
1.7869476999999847
 21
46.475749999999991
 31
0.0
  0
LINE
  5
275
100
AcDbEntity
100
AcDbLine
  8
0
 62
256
370
-1
  6
BYLAYER
 10
1.7869476999999847
 20
46.475749999999991
 30
0.0
 11
1.9426677000000154
 21
46.493449999999982
 31
0.0
  0
LINE
  5
276
100
AcDbEntity
100
AcDbLine
  8
0
 62
256
370
-1
  6
BYLAYER
 10
1.9426677000000154
 20
46.493449999999982
 30
0.0
 11
2.0997676981681934
 21
46.500021369165935
 31
0.0
  0
LINE
  5
277
100
AcDbEntity
100
AcDbLine
  8
0
 62
256
370
-1
  6
BYLAYER
 10
0.0999280860273757
 20
44.499550044615674
 30
0.0
 11
0.1057447000000025
 21
44.656549999999996
 31
0.0
  0
LINE
  5
278
100
AcDbEntity
100
AcDbLine
  8
0
 62
256
370
-1
  6
BYLAYER
 10
0.1057447000000025
 20
44.656549999999996
 30
0.0
 11
0.1236587000000213
 21
44.812449999999991
 31
0.0
  0
LINE
  5
279
100
AcDbEntity
100
AcDbLine
  8
0
 62
256
370
-1
  6
BYLAYER
 10
0.1236587000000213
 20
44.812449999999991
 30
0.0
 11
0.1553537000000347
 21
44.966549999999991
 31
0.0
  0
LINE
  5
27A
100
AcDbEntity
100
AcDbLine
  8
0
 62
256
370
-1
  6
BYLAYER
 10
0.1553537000000347
 20
44.966549999999991
 30
0.0
 11
0.1966947000000232
 21
45.118250000000032
 31
0.0
  0
LINE
  5
27B
100
AcDbEntity
100
AcDbLine
  8
0
 62
256
370
-1
  6
BYLAYER
 10
0.1966947000000232
 20
45.118250000000032
 30
0.0
 11
0.2518167000000062
 21
45.265750000000011
 31
0.0
  0
LINE
  5
27C
100
AcDbEntity
100
AcDbLine
  8
0
 62
256
370
-1
  6
BYLAYER
 10
0.2518167000000062
 20
45.265750000000011
 30
0.0
 11
0.3165846999999644
 21
45.407550000000008
 31
0.0
  0
LINE
  5
27D
100
AcDbEntity
100
AcDbLine
  8
0
 62
256
370
-1
  6
BYLAYER
 10
0.3165846999999644
 20
45.407550000000008
 30
0.0
 11
0.3937536999999907
 21
45.544050000000013
 31
0.0
  0
LINE
  5
27E
100
AcDbEntity
100
AcDbLine
  8
0
 62
256
370
-1
  6
BYLAYER
 10
0.3937536999999907
 20
45.544050000000013
 30
0.0
 11
0.4805716999999845
 21
45.674950000000017
 31
0.0
  0
LINE
  5
27F
100
AcDbEntity
100
AcDbLine
  8
0
 62
256
370
-1
  6
BYLAYER
 10
0.4805716999999845
 20
45.674950000000017
 30
0.0
 11
0.5784117000000038
 21
45.799149999999983
 31
0.0
  0
LINE
  5
280
100
AcDbEntity
100
AcDbLine
  8
0
 62
256
370
-1
  6
BYLAYER
 10
0.5784117000000038
 20
45.799149999999983
 30
0.0
 11
0.6845197000000098
 21
45.914849999999987
 31
0.0
  0
LINE
  5
281
100
AcDbEntity
100
AcDbLine
  8
0
 62
256
370
-1
  6
BYLAYER
 10
0.6845197000000098
 20
45.914849999999987
 30
0.0
 11
0.8002766999999835
 21
46.021049999999981
 31
0.0
  0
LINE
  5
282
100
AcDbEntity
100
AcDbLine
  8
0
 62
256
370
-1
  6
BYLAYER
 10
128.6940000000001
 20
94.206800000000044
 30
0.0
 11
128.27600000000012
 21
93.993400000000037
 31
0.0
  0
LINE
  5
283
100
AcDbEntity
100
AcDbLine
  8
0
 62
256
370
-1
  6
BYLAYER
 10
128.27600000000012
 20
93.993400000000037
 30
0.0
 11
127.94400000000012
 21
93.661100000000047
 31
0.0
  0
LINE
  5
284
100
AcDbEntity
100
AcDbLine
  8
0
 62
256
370
-1
  6
BYLAYER
 10
127.94400000000012
 20
93.661100000000047
 30
0.0
 11
127.73000000000012
 21
93.243700000000047
 31
0.0
  0
LINE
  5
285
100
AcDbEntity
100
AcDbLine
  8
0
 62
256
370
-1
  6
BYLAYER
 10
127.73000000000012
 20
93.243700000000047
 30
0.0
 11
127.65700000000011
 21
92.779100000000042
 31
0.0
  0
LINE
  5
286
100
AcDbEntity
100
AcDbLine
  8
0
 62
256
370
-1
  6
BYLAYER
 10
127.65700000000011
 20
92.779100000000042
 30
0.0
 11
127.73000000000012
 21
92.316300000000041
 31
0.0
  0
LINE
  5
287
100
AcDbEntity
100
AcDbLine
  8
0
 62
256
370
-1
  6
BYLAYER
 10
127.73000000000012
 20
92.316300000000041
 30
0.0
 11
127.94400000000012
 21
91.898600000000044
 31
0.0
  0
LINE
  5
288
100
AcDbEntity
100
AcDbLine
  8
0
 62
256
370
-1
  6
BYLAYER
 10
127.94400000000012
 20
91.898600000000044
 30
0.0
 11
128.27600000000012
 21
91.566600000000037
 31
0.0
  0
LINE
  5
289
100
AcDbEntity
100
AcDbLine
  8
0
 62
256
370
-1
  6
BYLAYER
 10
128.27600000000012
 20
91.566600000000037
 30
0.0
 11
128.6940000000001
 21
91.354300000000038
 31
0.0
  0
LINE
  5
28A
100
AcDbEntity
100
AcDbLine
  8
0
 62
256
370
-1
  6
BYLAYER
 10
128.6940000000001
 20
91.354300000000038
 30
0.0
 11
129.1580000000001
 21
91.279800000000037
 31
0.0
  0
LINE
  5
28B
100
AcDbEntity
100
AcDbLine
  8
0
 62
256
370
-1
  6
BYLAYER
 10
129.1580000000001
 20
91.279800000000037
 30
0.0
 11
129.62100000000012
 21
91.354300000000038
 31
0.0
  0
LINE
  5
28C
100
AcDbEntity
100
AcDbLine
  8
0
 62
256
370
-1
  6
BYLAYER
 10
129.62100000000012
 20
91.354300000000038
 30
0.0
 11
130.03800000000012
 21
91.566600000000037
 31
0.0
  0
LINE
  5
28D
100
AcDbEntity
100
AcDbLine
  8
0
 62
256
370
-1
  6
BYLAYER
 10
130.03800000000012
 20
91.566600000000037
 30
0.0
 11
130.37100000000012
 21
91.898600000000044
 31
0.0
  0
LINE
  5
28E
100
AcDbEntity
100
AcDbLine
  8
0
 62
256
370
-1
  6
BYLAYER
 10
130.37100000000012
 20
91.898600000000044
 30
0.0
 11
130.58400000000012
 21
92.316300000000041
 31
0.0
  0
LINE
  5
28F
100
AcDbEntity
100
AcDbLine
  8
0
 62
256
370
-1
  6
BYLAYER
 10
130.58400000000012
 20
92.316300000000041
 30
0.0
 11
130.65700000000012
 21
92.779100000000042
 31
0.0
  0
LINE
  5
290
100
AcDbEntity
100
AcDbLine
  8
0
 62
256
370
-1
  6
BYLAYER
 10
130.65700000000012
 20
92.779100000000042
 30
0.0
 11
130.58400000000012
 21
93.243700000000047
 31
0.0
  0
LINE
  5
291
100
AcDbEntity
100
AcDbLine
  8
0
 62
256
370
-1
  6
BYLAYER
 10
130.58400000000012
 20
93.243700000000047
 30
0.0
 11
130.37100000000012
 21
93.661100000000047
 31
0.0
  0
LINE
  5
292
100
AcDbEntity
100
AcDbLine
  8
0
 62
256
370
-1
  6
BYLAYER
 10
130.37100000000012
 20
93.661100000000047
 30
0.0
 11
130.03800000000012
 21
93.993400000000037
 31
0.0
  0
LINE
  5
293
100
AcDbEntity
100
AcDbLine
  8
0
 62
256
370
-1
  6
BYLAYER
 10
130.03800000000012
 20
93.993400000000037
 30
0.0
 11
129.62100000000012
 21
94.206800000000044
 31
0.0
  0
LINE
  5
294
100
AcDbEntity
100
AcDbLine
  8
0
 62
256
370
-1
  6
BYLAYER
 10
129.62100000000012
 20
94.206800000000044
 30
0.0
 11
129.1580000000001
 21
94.27990000000004
 31
0.0
  0
LINE
  5
295
100
AcDbEntity
100
AcDbLine
  8
0
 62
256
370
-1
  6
BYLAYER
 10
129.1580000000001
 20
94.27990000000004
 30
0.0
 11
128.6940000000001
 21
94.206800000000044
 31
0.0
  0
LINE
  5
296
100
AcDbEntity
100
AcDbLine
  8
0
 62
256
370
-1
  6
BYLAYER
 10
253.83900000000011
 20
93.993400000000037
 30
0.0
 11
253.50500000000011
 21
93.661100000000047
 31
0.0
  0
LINE
  5
297
100
AcDbEntity
100
AcDbLine
  8
0
 62
256
370
-1
  6
BYLAYER
 10
253.50500000000011
 20
93.661100000000047
 30
0.0
 11
253.29300000000012
 21
93.243700000000047
 31
0.0
  0
LINE
  5
298
100
AcDbEntity
100
AcDbLine
  8
0
 62
256
370
-1
  6
BYLAYER
 10
253.29300000000012
 20
93.243700000000047
 30
0.0
 11
253.22000000000011
 21
92.779100000000042
 31
0.0
  0
LINE
  5
299
100
AcDbEntity
100
AcDbLine
  8
0
 62
256
370
-1
  6
BYLAYER
 10
253.22000000000011
 20
92.779100000000042
 30
0.0
 11
253.29300000000012
 21
92.316300000000041
 31
0.0
  0
LINE
  5
29A
100
AcDbEntity
100
AcDbLine
  8
0
 62
256
370
-1
  6
BYLAYER
 10
253.29300000000012
 20
92.316300000000041
 30
0.0
 11
253.50500000000011
 21
91.898600000000044
 31
0.0
  0
LINE
  5
29B
100
AcDbEntity
100
AcDbLine
  8
0
 62
256
370
-1
  6
BYLAYER
 10
253.83900000000011
 20
91.566600000000037
 30
0.0
 11
254.25600000000011
 21
91.354300000000038
 31
0.0
  0
LINE
  5
29C
100
AcDbEntity
100
AcDbLine
  8
0
 62
256
370
-1
  6
BYLAYER
 10
254.25600000000011
 20
91.354300000000038
 30
0.0
 11
254.71900000000011
 21
91.279800000000037
 31
0.0
  0
LINE
  5
29D
100
AcDbEntity
100
AcDbLine
  8
0
 62
256
370
-1
  6
BYLAYER
 10
256.22000000000014
 20
92.779100000000042
 30
0.0
 11
256.14700000000011
 21
93.243700000000047
 31
0.0
  0
LINE
  5
29E
100
AcDbEntity
100
AcDbLine
  8
0
 62
256
370
-1
  6
BYLAYER
 10
256.14699999999999
 20
93.243699999999976
 30
0.0
 11
255.93300000000002
 21
93.661100000000019
 31
0.0
  0
LINE
  5
29F
100
AcDbEntity
100
AcDbLine
  8
0
 62
256
370
-1
  6
BYLAYER
 10
254.256
 20
94.206800000000001
 30
0.0
 11
253.83900000000003
 21
93.993399999999994
 31
0.0
  0
LINE
  5
2A0
100
AcDbEntity
100
AcDbLine
  8
0
 62
256
370
-1
  6
BYLAYER
 10
256.14699999999999
 20
92.316299999999998
 30
0.0
 11
256.22000000000003
 21
92.7791
 31
0.0
  0
LINE
  5
2A1
100
AcDbEntity
100
AcDbLine
  8
0
 62
256
370
-1
  6
BYLAYER
 10
255.93300000000002
 20
93.661100000000019
 30
0.0
 11
255.60100000000011
 21
93.993399999999994
 31
0.0
  0
LINE
  5
2A2
100
AcDbEntity
100
AcDbLine
  8
0
 62
256
370
-1
  6
BYLAYER
 10
255.18399999999991
 20
94.20680000000003
 30
0.0
 11
254.71900000000002
 21
94.279899999999984
 31
0.0
  0
LINE
  5
2A3
100
AcDbEntity
100
AcDbLine
  8
0
 62
256
370
-1
  6
BYLAYER
 10
254.71900000000002
 20
94.279899999999984
 30
0.0
 11
254.25600000000011
 21
94.20680000000003
 31
0.0
  0
LINE
  5
2A4
100
AcDbEntity
100
AcDbLine
  8
0
 62
256
370
-1
  6
BYLAYER
 10
254.71900000000002
 20
91.279800000000009
 30
0.0
 11
255.18399999999991
 21
91.354300000000009
 31
0.0
  0
LINE
  5
2A5
100
AcDbEntity
100
AcDbLine
  8
0
 62
256
370
-1
  6
BYLAYER
 10
255.18399999999991
 20
91.354300000000009
 30
0.0
 11
255.60100000000011
 21
91.56659999999998
 31
0.0
  0
LINE
  5
2A6
100
AcDbEntity
100
AcDbLine
  8
0
 62
256
370
-1
  6
BYLAYER
 10
255.93300000000002
 20
91.898599999999973
 30
0.0
 11
256.14699999999999
 21
92.316299999999998
 31
0.0
  0
ENDSEC
  0
SECTION
  2
OBJECTS
  0
DICTIONARY
  5
C
100
AcDbDictionary
280
0
281
1
  3
ACAD_GROUP
350
D
  3
ACAD_LAYOUT
350
1A
  3
ACAD_MLINESTYLE
350
17
  3
ACAD_PLOTSETTINGS
350
19
  3
ACAD_PLOTSTYLENAME
350
E
  3
AcDbVariableDictionary
350
2A7
  3
QCAD_OBJECTS
350
2A8
  0
DICTIONARY
  5
D
100
AcDbDictionary
280
0
281
1
  0
ACDBDICTIONARYWDFLT
  5
E
100
AcDbDictionary
281
1
  3
Normal
350
F
100
AcDbDictionaryWithDefault
340
F
  0
ACDBPLACEHOLDER
  5
F
  0
DICTIONARY
  5
17
100
AcDbDictionary
280
0
281
1
  3
Standard
350
18
  0
MLINESTYLE
  5
18
100
AcDbMlineStyle
  2
STANDARD
 70
0
  3

 62
256
 51
90.0
 52
90.0
 71
2
 49
0.5
 62
256
  6
BYLAYER
 49
-0.5
 62
256
  6
BYLAYER
  0
DICTIONARY
  5
19
100
AcDbDictionary
280
0
281
1
  0
DICTIONARY
  5
1A
100
AcDbDictionary
281
1
  3
Layout1
350
1E
  3
Layout2
350
26
  3
Model
350
22
  0
LAYOUT
  5
1E
100
AcDbPlotSettings
  1

  2
C:\Program Files\AutoCAD 2002\plotters\DWF ePlot (optimized for plotting).pc3
  4

  6

 40
0.0
 41
0.0
 42
0.0
 43
0.0
 44
0.0
 45
0.0
 46
0.0
 47
0.0
 48
0.0
 49
0.0
140
0.0
141
0.0
142
1.0
143
1.0
 70
688
 72
0
 73
0
 74
5
  7

 75
16
147
1.0
148
0.0
149
0.0
100
AcDbLayout
  1
Layout1
 70
1
 71
1
 10
0.0
 20
0.0
 11
420.0
 21
297.0
 12
0.0
 22
0.0
 32
0.0
 14
100000000000000000000.0
 24
100000000000000000000.0
 34
100000000000000000000.0
 15
-100000000000000000000.0
 25
-100000000000000000000.0
 35
-100000000000000000000.0
146
0.0
 13
0.0
 23
0.0
 33
0.0
 16
1.0
 26
0.0
 36
0.0
 17
0.0
 27
1.0
 37
0.0
 76
0
330
1B
  0
LAYOUT
  5
22
100
AcDbPlotSettings
  1

  2
C:\Program Files\AutoCAD 2002\plotters\DWF ePlot (optimized for plotting).pc3
  4

  6

 40
0.0
 41
0.0
 42
0.0
 43
0.0
 44
0.0
 45
0.0
 46
0.0
 47
0.0
 48
0.0
 49
0.0
140
0.0
141
0.0
142
1.0
143
1.0
 70
1712
 72
0
 73
0
 74
0
  7

 75
0
147
1.0
148
0.0
149
0.0
100
AcDbLayout
  1
Model
 70
1
 71
0
 10
0.0
 20
0.0
 11
12.0
 21
9.0
 12
0.0
 22
0.0
 32
0.0
 14
0.0
 24
0.0
 34
0.0
 15
0.0
 25
0.0
 35
0.0
146
0.0
 13
0.0
 23
0.0
 33
0.0
 16
1.0
 26
0.0
 36
0.0
 17
0.0
 27
1.0
 37
0.0
 76
0
330
1F
  0
LAYOUT
  5
26
100
AcDbPlotSettings
  1

  2
C:\Program Files\AutoCAD 2002\plotters\DWF ePlot (optimized for plotting).pc3
  4

  6

 40
0.0
 41
0.0
 42
0.0
 43
0.0
 44
0.0
 45
0.0
 46
0.0
 47
0.0
 48
0.0
 49
0.0
140
0.0
141
0.0
142
1.0
143
1.0
 70
688
 72
0
 73
0
 74
5
  7

 75
16
147
1.0
148
0.0
149
0.0
100
AcDbLayout
  1
Layout2
 70
1
 71
2
 10
0.0
 20
0.0
 11
12.0
 21
9.0
 12
0.0
 22
0.0
 32
0.0
 14
0.0
 24
0.0
 34
0.0
 15
0.0
 25
0.0
 35
0.0
146
0.0
 13
0.0
 23
0.0
 33
0.0
 16
1.0
 26
0.0
 36
0.0
 17
0.0
 27
1.0
 37
0.0
 76
0
330
23
  0
DICTIONARY
  5
2A7
100
AcDbDictionary
281
1
  3
DIMASSOC
350
2AA
  3
HIDETEXT
350
2A9
  0
DICTIONARYVAR
  5
2A9
100
DictionaryVariables
280
0
  1
2
  0
DICTIONARYVAR
  5
2AA
100
DictionaryVariables
280
0
  1
1
  0
DICTIONARY
  5
2A8
100
AcDbDictionary
281
1
  3
Grid/DisplayGrid00
350
2AB
  3
Grid/DisplayGrid01
350
2AC
  3
Grid/DisplayGrid02
350
2AD
  3
Grid/DisplayGrid03
350
2AE
  3
Grid/GridSpacingX00
350
2AF
  3
Grid/GridSpacingX01
350
2B0
  3
Grid/GridSpacingX02
350
2B1
  3
Grid/GridSpacingX03
350
2B2
  3
Grid/GridSpacingY00
350
2B3
  3
Grid/GridSpacingY01
350
2B4
  3
Grid/GridSpacingY02
350
2B5
  3
Grid/GridSpacingY03
350
2B6
  3
Grid/IsometricGrid00
350
2B7
  3
Grid/IsometricGrid01
350
2B8
  3
Grid/IsometricGrid02
350
2B9
  3
Grid/IsometricGrid03
350
2BA
  3
Grid/IsometricProjection00
350
2BB
  3
Grid/IsometricProjection01
350
2BC
  3
Grid/IsometricProjection02
350
2BD
  3
Grid/IsometricProjection03
350
2BE
  3
Grid/MetaGridSpacingX00
350
2BF
  3
Grid/MetaGridSpacingX01
350
2C0
  3
Grid/MetaGridSpacingX02
350
2C1
  3
Grid/MetaGridSpacingX03
350
2C2
  3
Grid/MetaGridSpacingY00
350
2C3
  3
Grid/MetaGridSpacingY01
350
2C4
  3
Grid/MetaGridSpacingY02
350
2C5
  3
Grid/MetaGridSpacingY03
350
2C6
  3
MultiPageSettings/Columns
350
2C7
  3
MultiPageSettings/GlueMarginsBottom
350
2C8
  3
MultiPageSettings/GlueMarginsLeft
350
2C9
  3
MultiPageSettings/GlueMarginsRight
350
2CA
  3
MultiPageSettings/GlueMarginsTop
350
2CB
  3
MultiPageSettings/PrintCropMarks
350
2CC
  3
MultiPageSettings/Rows
350
2CD
  3
PageSettings/OffsetX
350
2CE
  3
PageSettings/OffsetY
350
2CF
  3
PageSettings/PageOrientation
350
2D0
  3
PageSettings/PaperHeight
350
2D1
  3
PageSettings/PaperWidth
350
2D2
  3
PageSettings/Scale
350
2D3
  3
PageSettings/ShowPaperBorders
350
2D4
  3
UnitSettings/PaperUnit
350
2D5
  0
XRECORD
  5
2AB
330
2A8
100
AcDbXrecord
280
1
290
1
  0
XRECORD
  5
2AC
330
2A8
100
AcDbXrecord
280
1
290
1
  0
XRECORD
  5
2AD
330
2A8
100
AcDbXrecord
280
1
290
1
  0
XRECORD
  5
2AE
330
2A8
100
AcDbXrecord
280
1
290
1
  0
XRECORD
  5
2AF
330
2A8
100
AcDbXrecord
280
1
1000
auto
  0
XRECORD
  5
2B0
330
2A8
100
AcDbXrecord
280
1
1000
auto
  0
XRECORD
  5
2B1
330
2A8
100
AcDbXrecord
280
1
1000
auto
  0
XRECORD
  5
2B2
330
2A8
100
AcDbXrecord
280
1
1000
auto
  0
XRECORD
  5
2B3
330
2A8
100
AcDbXrecord
280
1
1000
auto
  0
XRECORD
  5
2B4
330
2A8
100
AcDbXrecord
280
1
1000
auto
  0
XRECORD
  5
2B5
330
2A8
100
AcDbXrecord
280
1
1000
auto
  0
XRECORD
  5
2B6
330
2A8
100
AcDbXrecord
280
1
1000
auto
  0
XRECORD
  5
2B7
330
2A8
100
AcDbXrecord
280
1
290
0
  0
XRECORD
  5
2B8
330
2A8
100
AcDbXrecord
280
1
290
0
  0
XRECORD
  5
2B9
330
2A8
100
AcDbXrecord
280
1
290
0
  0
XRECORD
  5
2BA
330
2A8
100
AcDbXrecord
280
1
290
0
  0
XRECORD
  5
2BB
330
2A8
100
AcDbXrecord
280
1
 90
0
  0
XRECORD
  5
2BC
330
2A8
100
AcDbXrecord
280
1
 90
0
  0
XRECORD
  5
2BD
330
2A8
100
AcDbXrecord
280
1
 90
0
  0
XRECORD
  5
2BE
330
2A8
100
AcDbXrecord
280
1
 90
0
  0
XRECORD
  5
2BF
330
2A8
100
AcDbXrecord
280
1
1000
auto
  0
XRECORD
  5
2C0
330
2A8
100
AcDbXrecord
280
1
1000
auto
  0
XRECORD
  5
2C1
330
2A8
100
AcDbXrecord
280
1
1000
auto
  0
XRECORD
  5
2C2
330
2A8
100
AcDbXrecord
280
1
1000
auto
  0
XRECORD
  5
2C3
330
2A8
100
AcDbXrecord
280
1
1000
auto
  0
XRECORD
  5
2C4
330
2A8
100
AcDbXrecord
280
1
1000
auto
  0
XRECORD
  5
2C5
330
2A8
100
AcDbXrecord
280
1
1000
auto
  0
XRECORD
  5
2C6
330
2A8
100
AcDbXrecord
280
1
1000
auto
  0
XRECORD
  5
2C7
330
2A8
100
AcDbXrecord
280
1
 90
1
  0
XRECORD
  5
2C8
330
2A8
100
AcDbXrecord
280
1
 40
10.0
  0
XRECORD
  5
2C9
330
2A8
100
AcDbXrecord
280
1
 40
10.0
  0
XRECORD
  5
2CA
330
2A8
100
AcDbXrecord
280
1
 40
10.0
  0
XRECORD
  5
2CB
330
2A8
100
AcDbXrecord
280
1
 40
10.0
  0
XRECORD
  5
2CC
330
2A8
100
AcDbXrecord
280
1
290
0
  0
XRECORD
  5
2CD
330
2A8
100
AcDbXrecord
280
1
 90
1
  0
XRECORD
  5
2CE
330
2A8
100
AcDbXrecord
280
1
 40
0.0
  0
XRECORD
  5
2CF
330
2A8
100
AcDbXrecord
280
1
 40
0.0
  0
XRECORD
  5
2D0
330
2A8
100
AcDbXrecord
280
1
1000
Portrait
  0
XRECORD
  5
2D1
330
2A8
100
AcDbXrecord
280
1
 40
297.0
  0
XRECORD
  5
2D2
330
2A8
100
AcDbXrecord
280
1
 40
210.0
  0
XRECORD
  5
2D3
330
2A8
100
AcDbXrecord
280
1
1000
1:1
  0
XRECORD
  5
2D4
330
2A8
100
AcDbXrecord
280
1
290
1
  0
XRECORD
  5
2D5
330
2A8
100
AcDbXrecord
280
1
 90
4
  0
ENDSEC
  0
EOF
